<?xml version="1.0" standalone="no"?>
<!DOCTYPE svg PUBLIC "-//W3C//DTD SVG 20010904//EN"
 "http://www.w3.org/TR/2001/REC-SVG-20010904/DTD/svg10.dtd">
<svg version="1.0" xmlns="http://www.w3.org/2000/svg"
 width="1024.000000pt" height="1024.000000pt" viewBox="0 0 1024.000000 1024.000000"
 preserveAspectRatio="xMidYMid meet">

<g transform="translate(0.000000,1024.000000) scale(0.100000,-0.100000)"
fill="#000000" stroke="none">
<path d="M3040 9789 c-41 -16 -88 -57 -120 -104 l-30 -44 -75 48 c-210 137
-305 72 -398 -274 -79 -293 -102 -449 -94 -642 7 -171 29 -263 97 -398 118
-237 358 -416 615 -459 83 -15 77 -3 125 -237 59 -286 72 -397 77 -659 7 -337
-14 -501 -93 -740 -33 -98 -106 -246 -142 -290 l-29 -34 20 104 c28 146 30
448 4 605 -49 292 -183 570 -361 747 -126 127 -232 200 -434 299 -180 89 -183
91 -242 162 -118 143 -185 296 -218 494 l-18 108 -12 -65 c-28 -158 -22 -341
19 -543 54 -268 150 -464 400 -812 97 -136 168 -222 333 -403 153 -167 240
-284 301 -407 45 -91 87 -221 100 -308 l7 -47 -61 0 c-81 0 -261 -21 -261 -30
0 -22 666 -23 785 -1 l40 7 -40 7 c-22 3 -93 9 -157 13 -65 4 -118 8 -118 10
0 1 25 42 55 90 89 143 162 351 201 574 20 119 31 411 22 595 -9 170 -28 307
-79 569 -21 110 -37 200 -36 200 32 8 153 82 204 125 221 185 348 467 330 729
-19 278 -192 617 -442 868 -131 132 -206 170 -275 143z m101 -108 c171 -110
408 -459 486 -716 23 -78 27 -108 27 -225 1 -114 -3 -146 -22 -207 -12 -40
-26 -74 -31 -77 -5 -3 -6 34 -4 82 3 48 0 121 -6 162 -12 74 -49 215 -56 208
-2 -1 4 -53 13 -115 14 -94 14 -128 4 -215 -6 -57 -18 -123 -26 -148 l-14 -45
-1 101 c-1 56 -6 125 -11 154 -12 63 -50 193 -55 188 -2 -1 4 -52 13 -113 13
-91 13 -128 4 -210 -15 -137 -31 -175 -31 -77 -1 99 -26 213 -66 300 -19 39
-36 72 -38 72 -4 0 8 -87 18 -123 14 -52 -45 62 -66 126 -32 98 -29 171 11
277 18 47 39 103 47 125 16 44 12 144 -8 206 -16 46 -31 61 -24 24 3 -17 1
-52 -3 -80 l-9 -50 -8 50 c-9 57 -52 205 -61 214 -4 3 -4 -7 0 -23 4 -16 4
-57 1 -91 l-7 -63 -62 63 c-37 37 -86 73 -122 90 -32 16 -60 30 -62 31 -8 5
32 71 61 102 38 39 51 40 108 3z m-428 -32 c23 -12 61 -37 85 -56 l42 -35 -22
-28 c-22 -27 -48 -39 -48 -22 0 5 -7 17 -15 28 -14 18 -15 16 -9 -27 5 -40 2
-51 -25 -91 -17 -25 -44 -73 -59 -106 l-29 -62 -7 38 c-3 20 -6 55 -6 77 l-1
40 -15 -35 c-8 -19 -18 -63 -21 -97 -3 -34 -9 -60 -13 -58 -4 3 -11 35 -14 72
-4 38 -12 90 -18 116 -11 43 -10 56 12 119 29 84 72 148 100 148 12 0 40 -10
63 -21z m323 -204 c60 -39 108 -96 154 -180 19 -33 39 -67 46 -75 10 -12 7
-28 -16 -85 -16 -38 -29 -64 -29 -57 -1 21 -52 144 -74 177 -10 17 -16 21 -12
10 20 -56 33 -177 28 -252 l-6 -81 -27 76 c-23 68 -111 249 -95 197 27 -85 46
-197 50 -290 l5 -110 -15 60 c-18 70 -76 248 -80 243 -1 -2 1 -75 5 -163 5
-88 7 -161 6 -163 -5 -4 -77 336 -83 390 -9 72 -19 38 -28 -97 l-8 -110 -28
85 c-15 47 -28 100 -28 119 -1 19 -4 31 -8 27 -5 -4 -10 -67 -13 -139 l-5
-132 -23 60 c-13 33 -26 81 -29 107 -3 27 -10 48 -16 48 -10 0 -4 -166 8 -210
4 -14 -11 7 -34 45 -22 39 -40 80 -41 92 0 39 55 198 93 265 42 75 99 143 141
170 42 26 96 17 162 -27z m-492 -388 c9 -31 27 -79 40 -105 36 -72 48 -146 35
-217 -6 -33 -14 -116 -18 -185 l-6 -125 -23 91 c-12 51 -25 141 -29 200 -5 89
-8 103 -16 79 -5 -16 -9 -84 -9 -150 0 -137 20 -232 72 -336 l32 -64 -41 45
c-54 60 -126 207 -146 299 -42 192 -24 439 52 709 l18 63 12 -123 c6 -68 18
-149 27 -181z m-365 -1432 c74 -38 169 -94 210 -125 108 -80 266 -250 324
-348 44 -75 127 -273 127 -304 0 -7 -21 24 -46 69 -104 183 -283 387 -434 495
-70 49 -170 110 -170 103 0 -2 33 -30 73 -62 216 -172 436 -433 505 -598 12
-27 16 -41 9 -31 -154 244 -272 384 -503 596 -230 212 -248 230 -299 309 -25
38 -45 72 -45 74 0 3 26 -20 58 -52 43 -43 89 -73 191 -126z m222 -401 c58
-60 127 -138 154 -174 72 -96 74 -102 10 -30 -32 36 -138 144 -236 240 -97 96
-192 193 -211 215 -54 64 165 -131 283 -251z"/>
<path d="M128 9739 c-21 -10 -58 -40 -83 -66 l-45 -48 1 -225 c1 -159 4 -214
10 -186 15 63 79 175 123 213 52 45 152 93 199 95 40 1 70 -19 93 -64 23 -45
18 -63 -23 -77 -21 -8 -63 -39 -94 -70 -64 -65 -135 -199 -167 -316 l-19 -70
-8 130 c-10 161 -18 139 -40 -104 -9 -97 -18 -177 -20 -179 -5 -5 -13 82 -20
203 -3 55 -8 123 -12 150 -10 79 -21 20 -20 -110 0 -78 2 -95 6 -60 l7 50 5
-75 c4 -47 2 -80 -5 -89 -7 -9 -11 -107 -11 -284 l0 -270 67 -51 c36 -28 91
-63 120 -78 l55 -28 -5 -401 c-3 -254 0 -476 7 -603 15 -240 83 -789 112 -900
11 -43 18 -80 16 -83 -7 -6 -83 231 -127 397 -57 217 -164 540 -210 635 l-38
80 -1 -411 -1 -410 31 -85 c60 -165 148 -317 238 -410 35 -36 43 -49 29 -49
-43 0 -274 -22 -288 -27 -38 -15 106 -21 485 -21 226 0 442 4 480 8 39 4 62 8
53 8 -10 1 -61 6 -115 12 -87 8 -205 19 -225 20 -4 0 8 28 27 63 83 151 131
368 145 652 11 217 25 322 70 515 44 196 99 457 115 555 32 187 67 296 124
379 75 109 -5 98 -147 -21 -263 -220 -500 -603 -633 -1021 -14 -43 -26 -67
-30 -60 -4 7 -13 103 -19 213 -16 258 -3 938 18 956 4 3 36 13 72 23 228 60
415 232 493 451 33 93 57 239 57 344 -1 207 -64 464 -141 572 -11 16 -44 41
-72 55 -27 14 -72 50 -99 79 -28 31 -64 59 -84 65 -44 15 -107 5 -163 -26
l-44 -25 -31 30 c-38 37 -111 71 -151 70 -16 0 -47 -9 -67 -20z m127 -84 c30
-29 34 -75 8 -75 -10 0 -42 -14 -72 -30 -30 -17 -56 -30 -59 -30 -2 0 -2 14 2
32 6 31 6 31 -14 13 -11 -10 -22 -33 -26 -51 -3 -18 -14 -40 -25 -50 -18 -16
-18 -15 -13 37 7 62 42 122 93 156 44 30 76 29 106 -2z m323 -41 c12 -8 22
-24 22 -35 0 -31 -20 -61 -36 -55 -8 3 -14 1 -14 -4 0 -6 -4 -10 -10 -10 -5 0
-10 11 -10 24 0 35 -20 43 -21 9 -1 -19 -3 -22 -6 -9 -4 14 -7 15 -13 6 -6 -9
-13 -8 -34 5 -32 22 -33 32 0 61 30 28 88 32 122 8z m162 -136 c42 -29 69 -81
74 -141 5 -60 -8 -125 -27 -140 -15 -12 -56 -126 -58 -161 -1 -12 -8 13 -15
54 -8 41 -12 95 -8 119 7 52 -12 48 -22 -5 l-6 -35 -33 73 c-18 40 -47 87 -65
105 -39 39 -35 59 22 114 48 46 87 51 138 17z m-198 -200 c63 -68 113 -217
153 -457 20 -118 16 -275 -8 -353 -16 -50 -66 -143 -73 -135 -2 2 2 36 11 76
16 78 21 251 6 236 -5 -6 -14 -40 -20 -77 -11 -64 -48 -198 -55 -198 -2 0 -1
42 1 93 4 102 -10 297 -19 257 -3 -14 -13 -72 -22 -130 -9 -58 -24 -130 -34
-160 l-17 -55 -5 225 c-3 124 -7 223 -8 220 -1 -3 -9 -61 -17 -130 -20 -156
-53 -308 -74 -332 -4 -4 -8 93 -9 215 -2 122 -4 223 -6 224 -2 2 -13 -56 -24
-129 -40 -244 -44 -260 -55 -249 -6 6 -12 87 -15 193 -6 197 -10 199 -37 14
-23 -157 -31 -169 -40 -61 -19 221 34 482 128 627 54 84 103 118 170 118 31 0
45 -7 69 -32z m342 -268 c1 -137 -17 -304 -34 -315 -13 -8 -22 374 -11 450 6
39 11 77 12 85 0 8 8 -5 16 -30 11 -31 16 -90 17 -190z m80 -1179 c-18 -48
-54 -182 -79 -296 -44 -199 -86 -332 -155 -495 -79 -188 -143 -416 -163 -585
-2 -16 -5 4 -6 46 -2 125 44 342 132 624 57 182 51 188 -22 24 -104 -233 -160
-426 -180 -619 l-8 -75 -2 87 c-2 143 51 440 107 598 35 97 34 97 -13 0 -56
-115 -117 -293 -142 -415 l-18 -90 -3 64 c-10 208 154 620 379 955 59 88 195
266 203 266 2 0 -12 -40 -30 -89z"/>
<path d="M6545 9609 c-172 -32 -334 -118 -445 -235 -44 -46 -100 -115 -116
-142 -1 -2 -23 17 -49 43 -91 88 -256 163 -455 206 -144 31 -438 33 -545 5
-142 -38 -213 -94 -256 -202 -20 -51 -23 -76 -24 -194 0 -110 4 -151 23 -218
29 -107 81 -216 127 -266 19 -21 34 -40 33 -41 -2 -1 -29 -14 -61 -28 -200
-91 -427 -308 -427 -410 0 -86 112 -203 300 -310 163 -93 404 -131 590 -93 42
9 112 34 160 58 47 24 88 45 93 46 4 2 7 -9 7 -25 0 -52 22 -107 56 -141 32
-32 38 -34 83 -30 l49 5 11 -43 c12 -48 50 -84 90 -84 15 0 59 9 99 20 39 11
73 20 75 20 2 0 7 -36 11 -81 10 -124 24 -176 72 -276 101 -210 346 -398 622
-479 143 -41 208 -31 241 40 61 128 84 351 55 542 l-6 41 128 6 c94 3 148 11
199 27 167 53 320 162 380 272 101 185 -55 582 -339 863 -125 124 -190 166
-291 192 -38 10 -72 19 -74 20 -2 1 6 26 17 55 69 176 75 375 16 540 -87 240
-233 336 -449 297z m222 -115 c47 -34 108 -135 139 -230 52 -159 38 -341 -39
-494 -31 -62 -36 -67 -117 -110 -47 -25 -112 -64 -145 -88 -72 -51 -190 -165
-175 -170 5 -2 49 19 97 47 49 28 140 74 203 103 111 51 118 52 205 53 126 0
176 -26 315 -165 156 -156 288 -370 331 -538 30 -118 29 -120 -41 -72 -130 88
-310 161 -429 174 -65 7 -57 -5 19 -28 114 -36 329 -168 410 -251 27 -28 30
-36 21 -54 -7 -12 -17 -21 -23 -21 -19 0 -183 86 -280 147 -115 74 -118 75
-118 70 0 -10 224 -188 280 -223 33 -20 60 -40 60 -44 0 -10 -53 -34 -70 -31
-30 5 -282 187 -415 300 -16 14 31 -37 105 -113 74 -76 161 -160 193 -187 l58
-49 -26 -10 c-15 -6 -35 -10 -45 -10 -30 0 -129 89 -246 220 -59 66 -109 120
-111 120 -4 0 182 -286 214 -328 28 -37 20 -59 -16 -47 -25 8 -65 57 -161 195
-40 58 -77 109 -82 115 -4 5 23 -60 62 -145 39 -85 75 -159 80 -164 15 -15 12
-26 -5 -26 -24 0 -103 116 -161 235 -46 95 -148 244 -160 232 -2 -2 9 -28 25
-58 75 -139 94 -317 41 -374 -67 -72 -182 -88 -284 -40 -84 40 -140 119 -166
236 l-13 57 37 36 c20 20 48 60 63 89 26 48 28 61 28 167 0 89 -6 141 -27 230
-14 63 -31 142 -37 175 -12 66 -29 94 -85 139 -55 45 -131 47 -273 8 -59 -16
-133 -35 -164 -41 -164 -34 -292 -143 -314 -266 -9 -50 -18 -61 -69 -88 -33
-17 -59 -21 -131 -22 -78 0 -98 4 -150 28 -69 32 -128 85 -158 142 -27 53 -30
158 -4 196 39 59 181 108 317 110 122 2 17 20 -165 28 -127 6 -181 13 -215 26
-49 20 -124 64 -118 70 2 2 37 -3 78 -11 41 -8 109 -14 150 -13 l75 1 -80 24
c-114 35 -243 85 -254 98 -10 14 -34 86 -29 91 1 2 32 -14 67 -36 59 -36 217
-96 227 -87 2 3 -50 35 -117 72 -66 37 -138 85 -159 105 -37 35 -40 42 -40 92
l0 53 48 -45 c26 -26 67 -60 92 -76 60 -41 161 -95 166 -90 3 2 -42 40 -98 83
-108 83 -184 155 -193 185 -3 9 0 31 7 47 l13 30 105 -85 c121 -97 212 -163
284 -203 56 -32 126 -63 126 -56 0 2 -33 28 -72 57 -76 56 -285 238 -352 307
-21 22 -35 45 -32 50 11 19 130 52 216 61 278 29 641 -62 791 -197 93 -84 114
-140 129 -347 12 -176 19 -227 29 -220 11 6 40 162 49 260 4 44 4 116 0 160
l-8 79 36 56 c64 96 176 195 278 245 122 60 182 75 288 72 69 -2 92 -6 115
-23z m-552 -988 c54 -23 69 -55 63 -136 -7 -93 -45 -171 -95 -195 -47 -23
-123 -24 -157 -2 -48 32 -74 111 -57 174 13 45 93 150 124 163 33 13 84 12
122 -4z m-1333 -163 c-8 -6 -61 -31 -118 -54 -57 -24 -102 -44 -100 -46 5 -5
147 31 202 51 41 14 42 14 53 -10 6 -14 11 -27 11 -29 0 -10 -82 -45 -178 -75
-56 -18 -101 -34 -100 -36 5 -5 171 26 243 46 64 17 72 17 88 3 9 -9 17 -20
17 -24 0 -12 -67 -45 -152 -73 -64 -22 -68 -26 -37 -26 36 0 192 36 219 50 14
8 70 -17 70 -31 0 -15 -181 -81 -259 -94 -23 -4 -40 -9 -37 -12 9 -10 155 16
271 48 90 24 117 28 150 21 l40 -9 -125 -62 c-133 -65 -125 -69 30 -16 198 67
344 124 371 144 l28 21 37 -63 c20 -34 39 -66 42 -70 2 -5 -28 8 -67 27 -39
20 -78 36 -87 36 -9 0 -28 -13 -43 -29 -27 -29 -153 -96 -264 -142 -32 -13
-55 -25 -50 -26 14 -5 182 45 241 72 l52 24 0 -22 c0 -41 -141 -108 -269 -128
-208 -32 -526 86 -673 250 -22 23 -38 51 -38 65 0 72 214 253 380 322 l55 22
5 -56 c4 -41 1 -60 -8 -69z m1025 78 c-78 -86 -116 -187 -118 -310 -1 -42 -4
-87 -8 -101 -7 -24 -9 -22 -40 30 -28 48 -31 62 -28 110 4 75 45 158 109 226
43 46 92 81 117 84 2 0 -12 -17 -32 -39z m408 -297 c-10 -68 -70 -178 -122
-224 -54 -47 -106 -65 -159 -56 l-37 8 64 40 c119 75 166 122 209 212 22 45
41 89 41 97 1 8 4 3 6 -10 3 -13 2 -44 -2 -67z m-262 -15 c-5 -5 -23 -11 -39
-12 -26 -2 -29 1 -32 30 l-3 32 42 -20 c26 -13 38 -24 32 -30z m-116 -5 c6
-17 -26 -93 -57 -134 -17 -22 -19 -23 -25 -7 -4 9 -4 37 -1 61 11 71 66 124
83 80z m99 -79 c9 -14 13 -33 9 -44 -10 -31 -125 -101 -125 -76 0 11 85 145
92 145 4 0 15 -11 24 -25z m-376 -329 c0 -19 -17 -39 -28 -32 -12 7 -24 65
-15 79 7 11 43 -27 43 -47z m532 28 c4 -3 8 -21 8 -41 0 -20 18 -89 39 -152
22 -64 51 -154 65 -201 14 -47 39 -112 56 -145 29 -59 29 -59 23 -20 -3 22
-16 83 -29 135 -12 52 -21 96 -20 97 1 1 23 -16 48 -38 30 -25 49 -50 53 -72
10 -43 77 -219 82 -213 2 2 -6 54 -18 115 -12 61 -20 113 -17 116 2 2 17 1 33
-3 25 -7 33 -18 57 -88 36 -98 90 -225 95 -220 2 2 -10 62 -26 132 -17 71 -33
138 -36 149 -4 18 1 21 28 23 l33 2 40 -122 c45 -143 57 -128 24 32 -17 83
-19 105 -8 111 23 15 31 4 60 -81 15 -45 30 -86 34 -89 9 -9 -6 66 -27 134
l-18 60 27 21 c15 12 30 20 34 18 13 -8 39 -146 44 -237 6 -89 -9 -214 -36
-307 -19 -67 -20 -67 -107 -42 -398 117 -653 382 -653 681 0 68 1 71 30 86 34
17 28 30 53 -105 14 -73 75 -246 83 -237 3 2 -4 44 -15 93 -10 49 -27 136 -36
194 -25 156 -33 191 -34 158 -1 -16 -4 -28 -7 -28 -4 0 -23 15 -43 33 -20 17
-47 40 -61 50 -25 18 -24 18 54 12 44 -3 83 -8 88 -11z m-362 -110 c0 -15 -38
-34 -71 -34 -29 0 -23 14 18 37 39 23 53 22 53 -3z"/>
<path d="M6590 9463 c-79 -39 -159 -149 -269 -369 -72 -144 -72 -166 -1 -39
129 228 212 334 307 387 29 16 53 32 53 34 0 10 -59 2 -90 -13z"/>
<path d="M6780 9353 c0 -37 -10 -102 -21 -146 -23 -84 -134 -315 -218 -456
-28 -46 -49 -86 -47 -88 7 -7 117 146 171 237 124 210 178 392 144 489 -18 50
-29 36 -29 -36z"/>
<path d="M6188 9057 c-45 -77 -90 -208 -86 -250 3 -27 8 -17 37 63 19 52 47
128 63 169 16 40 27 75 25 77 -2 2 -19 -25 -39 -59z"/>
<path d="M5512 8866 c60 -58 113 -106 119 -106 16 0 -43 64 -119 129 -112 95
-112 89 0 -23z"/>
<path d="M6635 8713 c-44 -53 -91 -112 -104 -132 l-25 -35 47 38 c71 58 199
228 170 225 -5 0 -44 -44 -88 -96z"/>
<path d="M6735 8164 c69 -24 184 -48 168 -34 -4 4 -48 19 -98 33 -114 34 -167
35 -70 1z"/>
<path d="M9530 9590 c-24 -24 -24 -29 -4 -58 16 -23 48 -29 59 -12 3 6 0 10
-8 10 -20 0 -37 23 -28 38 30 49 110 -128 111 -245 0 -24 -4 -43 -8 -43 -5 0
-31 6 -58 14 -119 35 -227 23 -311 -35 -48 -33 -100 -106 -110 -152 -3 -15 -9
-30 -14 -32 -4 -3 -43 20 -86 51 -150 109 -401 214 -511 214 -87 0 -157 -39
-192 -105 -94 -183 85 -552 325 -671 78 -39 80 -39 194 -39 113 0 118 1 179
34 59 32 100 69 149 136 l22 30 1 -27 c0 -42 -106 -150 -187 -190 -56 -27 -77
-32 -167 -36 -113 -5 -143 1 -243 51 l-63 31 -57 -28 c-99 -48 -217 -133 -280
-200 -83 -88 -115 -158 -121 -262 -4 -72 -1 -86 22 -137 46 -97 127 -148 248
-155 94 -6 159 9 264 58 188 90 355 271 490 530 67 128 114 185 63 75 -62
-132 -48 -284 44 -479 58 -121 113 -201 205 -298 141 -147 280 -219 427 -220
62 0 86 5 130 27 157 76 195 243 112 488 -46 135 -136 313 -221 436 l-65 94
66 51 c36 28 74 58 84 66 11 10 23 47 34 108 11 60 31 120 56 172 40 84 37
108 -9 73 -58 -43 -82 -87 -98 -174 -9 -46 -18 -94 -20 -106 -2 -13 -35 -45
-80 -79 l-75 -57 -32 29 c-18 16 -36 32 -40 35 -5 4 12 18 36 33 57 33 124
108 138 156 6 20 9 77 8 126 -4 76 -9 100 -37 159 l-33 70 21 17 c41 33 173
35 200 3 19 -23 8 -50 -19 -47 -14 1 -21 -2 -19 -10 3 -7 19 -14 36 -16 26 -3
34 1 43 22 44 95 -134 161 -254 94 -39 -22 -48 -24 -58 -12 -6 8 -28 23 -48
35 l-36 20 0 87 c0 92 -9 124 -57 203 -25 41 -61 69 -88 69 -6 0 -19 -9 -30
-20z m38 -359 l37 -20 -110 2 c-118 2 -138 -4 -214 -61 l-34 -25 19 32 c54 92
197 126 302 72z m126 -79 c11 -6 -20 -20 -46 -21 -18 -1 -20 19 -4 31 9 6 29
2 50 -10z m-570 -174 c-3 -5 -7 -8 -8 -6 0 2 -17 21 -36 42 l-35 40 43 -33
c23 -18 39 -37 36 -43z m30 -165 c4 -31 3 -54 -4 -58 -6 -4 -10 10 -10 37 0
24 -3 54 -6 68 -5 17 -3 22 3 15 6 -5 13 -33 17 -62z m379 -270 c-18 -2 -48
-2 -65 0 -18 2 -4 4 32 4 36 0 50 -2 33 -4z m191 -56 c30 -29 61 -69 70 -88
16 -33 16 -33 -1 -9 -9 14 -45 53 -78 88 -34 34 -58 62 -53 62 5 0 33 -24 62
-53z"/>
<path d="M9304 7016 c-3 -8 4 -44 15 -81 12 -37 21 -80 21 -95 0 -23 -4 -27
-20 -23 -16 4 -24 -4 -41 -41 -53 -120 -49 -190 16 -287 20 -28 33 -54 31 -57
-11 -10 -253 98 -522 234 -294 149 -400 190 -512 200 -120 10 -192 -37 -192
-127 0 -134 153 -344 326 -447 59 -36 64 -41 43 -45 -174 -33 -233 -56 -255
-99 -42 -81 76 -203 303 -314 126 -62 185 -81 289 -90 152 -14 279 32 379 137
50 53 56 56 51 32 -19 -93 -31 -278 -31 -478 0 -378 37 -600 165 -1000 101
-315 175 -641 191 -840 17 -207 23 -260 34 -260 16 0 33 166 34 321 2 302 -32
481 -174 914 -135 414 -156 533 -150 860 3 174 22 332 53 435 l9 30 27 -59
c93 -207 315 -304 601 -262 61 9 140 26 178 38 l67 22 0 38 c0 35 -2 38 -23
33 -17 -5 -33 1 -53 18 -41 33 -155 109 -159 105 -1 -1 35 -32 81 -68 46 -36
83 -68 84 -72 0 -5 -13 -8 -30 -8 -32 0 -132 50 -258 129 -45 28 -82 49 -82
47 0 -7 190 -145 240 -174 l45 -27 -40 -6 c-48 -9 -102 18 -267 134 -81 57
-102 68 -86 46 25 -33 124 -119 182 -158 l40 -26 -33 -3 c-59 -6 -219 110
-304 220 -40 52 -117 186 -117 204 0 4 15 -6 33 -23 58 -57 187 -125 175 -94
-1 5 -45 43 -95 85 -51 42 -93 80 -93 85 0 20 16 16 78 -22 135 -82 321 -147
420 -147 17 0 81 -25 146 -58 l116 -58 0 38 c0 41 -19 60 -75 74 -29 7 -28 8
20 18 48 11 50 12 53 49 l3 37 -40 0 c-25 0 -96 21 -178 51 -154 57 -209 74
-268 83 -35 5 -28 0 45 -35 47 -23 132 -59 190 -81 58 -22 107 -42 110 -45 3
-3 -38 -3 -90 0 -129 8 -286 59 -403 129 l-87 53 6 60 c4 33 7 61 8 61 0 1 75
4 166 7 159 6 331 24 473 48 l67 12 0 37 0 37 -52 -9 c-176 -29 -288 -41 -575
-63 -76 -6 -83 -5 -83 12 0 11 15 25 40 37 56 27 137 115 145 157 4 19 2 65
-3 101 -10 79 -1 106 52 166 31 34 34 41 21 52 -34 28 -104 -31 -238 -197
l-66 -83 -12 43 c-26 98 -90 284 -109 315 -21 33 -47 42 -56 18z m95 -306 l32
-100 -28 -28 c-15 -16 -33 -37 -39 -47 -9 -16 -13 -11 -33 35 l-23 53 22 93
c12 52 25 94 29 94 5 0 23 -45 40 -100z m-1000 55 c43 -14 204 -88 358 -164
263 -131 405 -194 499 -221 l42 -13 -15 -44 c-18 -51 -41 -66 -133 -83 -135
-25 -475 -12 -494 19 -3 4 61 15 142 25 217 27 216 38 -3 30 -243 -9 -247 -9
-284 11 -38 19 -32 35 13 35 42 0 214 30 241 41 12 6 -53 8 -173 5 l-193 -4
-35 30 c-18 16 -34 33 -34 37 0 3 31 6 70 7 84 1 218 23 227 37 4 7 -51 8
-164 4 l-170 -5 -21 28 -21 27 73 5 c39 3 80 9 90 15 13 7 -6 8 -62 5 -116 -7
-127 -2 -151 63 -26 69 -27 111 -3 124 30 18 118 12 201 -14z m1245 -82 c-5
-65 -8 -70 -52 -112 l-47 -44 -8 37 c-8 34 -6 40 50 110 32 41 59 75 60 76 1
0 0 -30 -3 -67z m-966 -510 c101 -23 414 -24 515 -1 125 27 66 -9 -118 -73
-60 -20 -111 -42 -113 -48 -6 -17 46 -13 123 9 86 24 82 25 59 -2 -42 -47
-169 -140 -238 -173 -109 -52 -119 -45 -40 30 l69 65 -55 -36 c-122 -80 -201
-109 -238 -86 -9 6 12 23 67 56 130 77 134 88 11 36 -115 -50 -164 -59 -201
-40 -20 11 -26 30 -10 30 12 0 212 92 208 96 -1 2 -59 -17 -127 -42 -108 -39
-128 -43 -148 -33 -12 7 -21 17 -19 23 2 6 34 28 70 50 92 53 77 59 -18 7 -48
-27 -83 -40 -95 -36 -24 8 -90 81 -90 101 0 20 66 48 155 67 94 20 141 20 233
0z m582 -72 c0 -23 -75 -126 -133 -185 -72 -71 -124 -90 -256 -94 -80 -3 -111
-1 -107 7 4 6 23 11 43 11 19 0 60 7 91 16 105 30 153 62 252 165 52 54 98 99
102 99 5 0 8 -9 8 -19z m190 -74 c0 -24 72 -162 112 -215 34 -45 93 -96 174
-149 33 -22 -33 -4 -101 27 -101 46 -151 107 -199 238 -20 56 -24 78 -16 93
12 22 30 26 30 6z"/>
<path d="M8920 6410 c60 -38 180 -82 239 -86 52 -4 45 0 -89 46 -185 64 -192
66 -150 40z"/>
<path d="M4567 6980 c-118 -64 -178 -294 -143 -547 26 -197 118 -426 236 -591
32 -45 58 -82 57 -82 -8 0 -340 131 -365 144 -33 17 -86 23 -117 13 -61 -20
-77 -147 -36 -292 30 -110 115 -282 192 -389 132 -185 348 -375 531 -469 116
-59 201 -81 288 -75 112 8 161 45 280 213 54 75 239 265 259 265 6 0 -13 -30
-41 -67 -28 -38 -62 -92 -75 -121 -14 -33 -32 -56 -47 -61 -13 -5 -36 -31 -51
-57 -15 -25 -38 -63 -52 -82 -13 -20 -29 -55 -35 -79 -7 -31 -19 -48 -40 -61
-36 -20 -68 -79 -68 -123 0 -21 -8 -37 -25 -51 -34 -26 -55 -69 -55 -111 0
-23 -8 -41 -26 -58 -36 -33 -54 -72 -53 -111 1 -20 -14 -68 -37 -118 -33 -72
-39 -95 -39 -154 0 -52 4 -71 16 -79 43 -27 127 42 175 144 19 39 34 59 46 59
34 0 79 52 85 98 4 32 12 46 27 52 34 13 57 46 63 88 4 29 12 43 29 50 33 16
56 56 58 101 0 30 6 41 27 54 37 21 59 57 67 111 6 36 13 49 42 68 43 29 70
80 70 132 0 33 10 50 69 120 37 44 75 95 84 111 9 17 16 26 17 20 0 -23 -76
-210 -141 -347 -55 -115 -72 -160 -76 -206 -18 -202 187 -461 482 -609 210
-106 488 -149 698 -109 198 38 225 105 103 258 -36 46 -92 117 -126 158 -33
41 -60 80 -60 86 0 8 22 5 73 -9 101 -28 392 -30 517 -3 188 41 335 112 443
215 173 165 92 320 -273 519 -277 151 -793 275 -1240 298 -143 7 -200 18 -200
39 0 11 12 15 43 15 74 0 117 50 127 150 l5 55 70 -1 c39 0 126 -4 195 -9 149
-9 213 1 291 48 29 18 67 51 83 75 26 37 31 54 34 115 2 60 -1 78 -20 111 -36
62 -70 81 -140 81 -53 0 -62 -3 -84 -28 -21 -25 -33 -67 -19 -67 3 0 18 14 33
31 23 26 36 32 71 32 80 0 135 -69 128 -160 -5 -72 -43 -125 -116 -160 -52
-26 -65 -28 -171 -27 -63 0 -175 3 -248 6 l-133 5 -33 32 c-18 18 -53 38 -77
45 -39 12 -44 17 -52 52 -4 21 -30 87 -58 146 -85 180 -99 279 -55 374 27 58
61 89 117 106 119 35 222 -95 137 -174 l-32 -30 29 4 c61 7 89 100 49 167 -38
65 -152 92 -231 54 -89 -42 -133 -126 -133 -252 0 -95 9 -130 72 -264 27 -60
52 -124 55 -143 5 -32 4 -34 -22 -34 -40 0 -102 -38 -116 -71 -7 -17 -9 -46
-5 -73 6 -38 4 -46 -13 -55 -11 -6 -24 -11 -29 -11 -5 0 -23 39 -42 88 -83
219 -218 448 -443 752 -134 180 -222 283 -358 416 -182 177 -306 254 -419 261
-52 3 -73 -1 -103 -17z m338 -253 c225 -153 642 -669 817 -1013 72 -142 128
-282 128 -320 0 -30 -16 -4 -55 91 -20 50 -50 113 -67 140 -35 57 -197 275
-205 275 -3 0 2 -10 10 -23 130 -198 204 -324 195 -332 -2 -2 -41 39 -86 93
-96 114 -169 193 -157 172 19 -33 114 -172 205 -300 123 -173 119 -165 80
-145 -43 22 -112 46 -118 41 -2 -3 18 -16 45 -30 82 -43 83 -46 18 -39 -33 3
-87 11 -120 19 -60 13 -82 11 -55 -7 25 -16 141 -49 172 -49 17 0 27 -4 23
-10 -13 -21 -209 6 -311 42 l-31 11 61 31 c91 46 86 62 -16 58 -46 -2 -94 1
-107 6 -23 8 -20 11 37 33 34 13 62 27 62 30 0 3 -47 9 -104 11 -57 3 -110 9
-117 13 -7 5 10 15 44 25 92 29 94 30 77 40 -8 6 -46 10 -85 11 -38 0 -81 4
-95 8 -21 6 -15 10 43 26 38 10 66 23 64 29 -2 6 -43 14 -94 17 -105 8 -155
17 -148 28 2 5 39 14 82 21 136 23 134 26 -62 69 -163 36 -163 39 -2 40 111 1
148 4 145 13 -3 7 -15 15 -29 19 -13 4 -94 28 -179 53 l-155 46 128 -4 c70 -3
127 -1 127 3 0 4 -76 41 -170 81 -93 40 -169 75 -167 76 1 1 52 -6 112 -17
180 -31 181 -29 35 49 -146 78 -206 112 -198 112 6 0 51 -13 263 -77 39 -11
-4 25 -94 81 -133 82 -215 136 -207 136 4 0 44 -15 89 -34 179 -75 171 -76 77
11 -47 43 -110 102 -140 131 l-55 54 80 -53 c89 -58 209 -148 298 -221 32 -26
61 -48 64 -48 8 0 -10 20 -152 170 -112 118 -270 303 -240 280 78 -59 337
-282 419 -360 54 -52 91 -81 80 -65 -32 51 -144 204 -249 340 -56 72 -114 148
-131 169 l-29 39 45 -28 c25 -15 72 -46 105 -68z m-307 -1052 c53 -13 131 -29
172 -35 58 -9 80 -17 95 -35 43 -50 204 -179 290 -233 104 -64 186 -103 270
-127 l59 -18 -55 -17 c-59 -18 -143 -59 -137 -66 3 -2 48 14 102 37 61 25 109
39 129 37 29 -3 26 -6 -47 -43 -77 -39 -163 -104 -139 -105 6 0 14 4 17 9 14
22 296 131 296 115 0 -3 -30 -18 -67 -35 -67 -30 -177 -103 -204 -135 -12 -15
121 51 161 80 21 15 -118 -139 -172 -191 -48 -46 -106 -79 -158 -90 l-35 -6
48 53 c26 29 46 55 43 57 -2 2 -28 -8 -57 -22 -58 -30 -129 -57 -129 -49 0 2
29 32 65 66 36 33 63 63 61 65 -2 2 -54 -21 -116 -52 -61 -31 -113 -55 -116
-53 -2 3 34 37 81 77 74 64 103 92 78 78 -27 -16 -217 -87 -225 -85 -5 2 25
31 67 66 43 34 72 62 66 62 -6 0 -54 -14 -107 -31 -53 -17 -98 -28 -100 -26
-6 6 64 63 124 102 23 15 41 29 40 31 -2 1 -61 -13 -132 -31 -71 -19 -125 -30
-120 -25 6 6 61 39 124 75 63 36 109 65 103 65 -6 0 -69 -11 -139 -25 -70 -14
-131 -24 -137 -22 -5 1 38 25 97 52 58 26 104 50 102 52 -2 2 -65 -1 -141 -7
-75 -6 -139 -9 -142 -7 -2 3 20 13 49 22 29 9 87 29 128 44 l75 26 -160 5
c-146 5 -156 6 -115 17 72 18 194 53 210 60 25 10 -66 21 -195 23 l-120 2 70
14 c95 18 157 36 150 42 -3 3 -18 7 -35 9 -45 5 -178 33 -203 43 -15 6 13 9
88 10 l110 1 -66 32 c-36 18 -84 39 -105 49 -61 25 -10 22 104 -7z m1627 -51
c39 -18 70 -50 80 -82 6 -21 3 -20 -39 11 -25 19 -68 43 -95 52 -28 9 -51 21
-51 26 0 15 69 10 105 -7z m-155 -12 c0 -19 -18 -42 -32 -42 -12 0 -9 35 4 48
17 17 28 15 28 -6z m206 -180 c-14 -14 -16 -14 -22 1 -3 10 0 24 7 33 11 14
13 14 22 -1 6 -12 4 -22 -7 -33z m244 -243 c369 -30 917 -202 1145 -359 62
-43 141 -117 133 -125 -4 -4 -49 11 -100 33 -146 64 -470 173 -512 172 -6 0
52 -33 129 -73 121 -63 355 -209 355 -222 0 -4 -36 12 -175 75 -85 39 -298
121 -302 116 -2 -2 24 -20 58 -41 63 -39 233 -168 278 -212 19 -19 1 -12 -69
26 -79 43 -336 171 -344 171 -2 0 50 -54 116 -120 65 -66 118 -124 118 -130 0
-5 -39 19 -87 55 -84 62 -267 176 -308 191 -18 7 -18 6 3 -22 29 -37 146 -204
157 -224 12 -20 -31 16 -170 142 -66 59 -121 105 -124 103 -2 -3 3 -13 12 -22
13 -15 92 -148 129 -216 5 -11 -51 43 -126 120 l-136 138 47 -80 c25 -44 61
-104 80 -132 18 -29 32 -53 30 -53 -2 0 -62 62 -132 138 -71 75 -133 138 -137
140 -4 2 12 -44 36 -102 24 -58 42 -106 41 -106 -2 0 -49 58 -106 130 -56 71
-104 128 -106 126 -2 -2 12 -43 31 -92 20 -48 35 -89 33 -90 -2 -2 -43 52 -92
119 -53 72 -91 115 -93 106 -1 -9 8 -47 22 -85 14 -37 24 -70 22 -72 -2 -2
-14 12 -27 30 -42 60 -199 272 -225 303 -24 29 -24 29 -18 5 3 -14 25 -54 48
-90 85 -131 83 -127 62 -110 -59 46 -146 200 -133 235 5 11 16 6 49 -26 46
-43 134 -99 157 -99 8 0 -5 17 -30 37 -82 69 -149 136 -149 147 0 6 40 -8 89
-31 97 -47 224 -84 366 -107 118 -19 211 -29 205 -22 -3 3 -116 30 -250 59
-218 49 -360 93 -360 113 0 3 7 3 16 0 21 -8 376 -56 416 -56 17 0 29 2 26 5
-2 3 -83 21 -179 40 -96 19 -201 41 -234 50 l-60 14 125 -5 c69 -2 181 -9 250
-15z m-505 -413 c-9 -79 -15 -152 -13 -162 1 -10 21 49 43 130 32 120 41 143
48 124 5 -15 3 -63 -8 -134 -9 -62 -15 -120 -13 -130 4 -23 38 112 45 182 l6
52 61 -67 c140 -152 259 -250 415 -343 84 -50 91 -57 121 -117 34 -69 72 -131
141 -226 52 -72 37 -61 -130 102 -69 67 -127 120 -129 118 -2 -2 29 -57 70
-122 41 -65 78 -125 82 -133 9 -17 -49 42 -171 173 l-82 89 69 -158 c39 -87
68 -159 66 -162 -2 -2 -36 45 -75 105 -67 102 -71 106 -71 73 0 -19 7 -59 15
-89 20 -77 1 -51 -46 65 -23 54 -45 108 -50 119 -5 13 -8 -23 -6 -98 1 -64 1
-117 0 -117 -1 0 -18 51 -38 113 -20 61 -39 119 -43 127 -4 8 -9 -34 -12 -95
-5 -106 -5 -109 -18 -70 -7 22 -20 79 -30 127 -9 49 -20 88 -23 88 -9 0 -29
-115 -29 -166 -1 -63 -16 -20 -29 81 -19 147 -21 150 -42 70 -10 -38 -19 -88
-20 -110 -1 -40 -1 -40 -10 -10 -5 17 -12 75 -16 130 l-6 99 -14 -39 c-8 -22
-23 -76 -33 -120 l-18 -80 -1 144 c-1 79 -4 142 -7 138 -4 -3 -22 -46 -41 -94
l-34 -88 4 112 c4 117 -2 124 -33 43 -7 -19 -17 -39 -22 -44 -11 -13 -10 58 2
114 16 73 135 428 138 413 2 -8 -4 -79 -13 -157z m-455 -12 c0 -18 -22 -64
-30 -64 -13 0 -18 38 -13 82 l6 41 19 -22 c10 -13 18 -29 18 -37z m-113 -202
c4 -33 2 -42 -15 -51 -10 -6 -22 -7 -26 -4 -10 10 -7 73 5 95 15 27 29 11 36
-40z m-92 -143 c15 -28 15 -32 -1 -50 -9 -10 -21 -16 -25 -13 -10 6 -12 78 -2
87 10 11 11 9 28 -24z m-82 -161 c7 -23 1 -38 -14 -38 -5 0 -9 14 -9 30 0 35
15 40 23 8z"/>
<path d="M9685 6273 c-60 -2 -117 -6 -125 -9 -52 -21 172 -33 242 -14 46 13
59 31 21 28 -15 -1 -77 -4 -138 -5z"/>
<path d="M10188 6254 c24 -9 46 -13 49 -10 10 10 1 13 -47 20 l-45 6 43 -16z"/>
<path d="M9955 6204 c89 -38 264 -104 275 -104 6 0 10 11 10 25 0 21 -8 27
-67 45 -67 21 -244 60 -267 60 -6 -1 16 -12 49 -26z"/>
<path d="M2885 5396 c-16 -7 -39 -23 -49 -35 -13 -14 -31 -21 -57 -21 -76 0
-104 -75 -104 -280 0 -95 15 -132 68 -181 17 -16 29 -30 26 -32 -2 -1 -23 -16
-47 -32 -50 -33 -92 -83 -119 -140 -10 -22 -30 -50 -45 -63 -64 -55 -84 -229
-39 -340 l21 -54 -30 -34 c-42 -48 -58 -83 -69 -151 -16 -100 7 -178 76 -254
62 -68 144 -98 222 -80 l41 9 0 -69 c0 -182 128 -321 284 -306 28 2 58 8 68
11 14 7 17 -5 23 -91 8 -97 0 -548 -12 -736 l-6 -98 -69 133 c-230 442 -412
626 -736 742 -88 31 -182 45 -182 26 0 -7 39 -53 88 -102 84 -86 167 -157 444
-378 125 -99 231 -207 297 -304 34 -50 121 -225 121 -245 0 -7 -30 -11 -92
-11 -88 0 -258 -11 -413 -26 -64 -7 -67 -8 -40 -17 38 -13 837 -15 960 -3 50
5 86 10 80 12 -5 2 -77 10 -159 19 -82 8 -151 17 -154 20 -2 2 15 39 38 82
135 251 316 418 665 613 152 85 190 111 269 188 142 137 225 339 198 482 l-8
45 -13 -55 c-16 -65 -30 -95 -84 -175 -84 -124 -199 -211 -443 -336 -193 -98
-249 -135 -347 -229 -97 -92 -185 -222 -271 -400 -36 -74 -66 -128 -66 -119 0
9 5 62 10 117 9 89 19 121 84 284 122 300 109 278 154 278 162 0 305 155 251
272 -8 20 -3 39 31 113 66 143 56 220 -34 254 -30 11 -44 12 -78 2 -48 -15
-122 -85 -163 -156 -16 -28 -57 -81 -92 -119 -100 -109 -119 -215 -51 -292
l30 -34 -49 -113 c-28 -61 -56 -130 -64 -152 -13 -36 -14 -9 -17 273 -1 172 1
327 6 344 6 23 16 33 45 43 122 42 197 146 173 240 -12 48 -77 106 -162 145
-53 25 -89 48 -103 69 l-22 31 113 53 c117 55 179 100 204 148 31 61 8 144
-55 196 l-26 22 22 22 23 23 32 -31 c58 -55 94 -68 188 -68 101 0 147 20 221
96 90 92 124 218 83 305 -20 43 -85 100 -131 115 -32 10 -33 12 -26 47 15 69
7 147 -20 204 -32 66 -43 80 -87 107 -62 37 -138 23 -203 -37 l-27 -26 -16 22
c-45 65 -165 97 -254 67 -47 -16 -54 -16 -61 -2 -31 55 -93 117 -140 141 -59
29 -80 31 -124 12z m115 -96 c15 -11 42 -43 60 -70 l33 -51 -33 -64 c-26 -51
-34 -82 -39 -145 l-6 -81 -34 88 c-18 48 -40 102 -47 118 -26 55 -12 -110 14
-169 12 -27 20 -51 17 -54 -3 -3 -24 14 -46 38 -56 59 -89 131 -90 200 0 47
-2 51 -10 30 -25 -61 -10 -149 34 -213 10 -16 17 -30 15 -33 -12 -11 -75 46
-96 86 -22 41 -23 53 -18 146 7 133 7 133 60 127 40 -5 44 -3 64 31 18 31 27
36 58 36 20 0 48 -9 64 -20z m360 -145 c37 -19 63 -57 85 -125 18 -58 35 -85
35 -59 0 9 14 43 31 77 60 120 164 139 210 39 24 -55 24 -130 -2 -187 l-20
-45 27 -21 c14 -12 45 -28 67 -35 60 -20 117 -78 117 -118 0 -35 -2 -35 -57 7
-18 13 -38 22 -44 20 -6 -2 11 -19 40 -38 28 -19 51 -40 51 -46 0 -24 -31 -85
-62 -120 -36 -41 -118 -84 -161 -84 -62 0 -167 70 -167 112 0 23 5 23 40 -2
29 -21 121 -45 143 -37 6 2 -9 13 -34 24 -57 26 -129 89 -129 114 0 23 13 24
31 3 22 -27 107 -64 146 -64 l38 1 -50 22 c-27 12 -63 30 -80 39 l-30 16 94 7
c103 8 102 16 -4 34 -120 21 -128 40 -19 49 l67 5 -29 15 c-31 17 -138 22
-165 9 -13 -7 -18 0 -27 35 -12 45 -65 105 -147 164 l-40 29 51 -60 c74 -87
85 -113 85 -204 0 -151 -54 -281 -118 -281 -27 0 -28 6 -9 51 8 21 15 85 18
163 4 120 3 127 -10 95 -8 -18 -18 -86 -22 -149 -10 -142 -13 -150 -55 -150
-70 0 -125 37 -156 105 -24 51 -24 99 0 151 27 58 67 92 133 111 l56 16 -37
56 c-21 31 -47 72 -59 91 -30 48 -27 24 4 -50 15 -33 25 -62 23 -65 -11 -10
-99 -28 -106 -21 -4 4 -9 38 -11 76 -7 113 34 200 108 229 38 15 117 13 150
-4z m-406 -405 l56 -21 -6 -54 c-10 -85 2 -137 47 -198 51 -69 105 -100 180
-103 46 -2 67 -9 103 -33 81 -56 93 -90 50 -140 -36 -43 -95 -76 -187 -102
l-77 -23 -39 38 c-29 28 -56 43 -103 55 -72 19 -101 10 -64 -20 32 -26 15 -31
-60 -19 -79 13 -152 7 -207 -18 l-39 -17 116 0 c145 0 161 -11 71 -50 -36 -15
-68 -31 -71 -36 -3 -6 23 -7 63 -3 l68 7 -19 -21 c-18 -21 -18 -21 4 -17 13 2
30 11 39 19 9 7 26 17 39 21 12 3 34 17 47 31 27 27 82 33 91 10 8 -21 -23
-70 -56 -90 -16 -9 -42 -16 -59 -16 -26 0 -36 -8 -64 -52 -57 -89 -101 -118
-176 -118 -63 0 -121 38 -154 101 -25 47 -28 62 -24 119 2 36 12 83 22 104 22
45 105 115 149 123 26 5 27 7 11 14 -11 4 -35 8 -52 8 -38 1 -58 31 -74 114
-10 51 -4 127 10 127 4 0 13 -16 20 -36 12 -35 73 -146 77 -141 1 1 -7 36 -18
77 -32 121 -12 236 57 325 51 68 114 77 229 35z m170 -859 c16 -17 64 -44 108
-62 127 -51 169 -106 131 -171 -20 -36 -105 -98 -132 -98 -10 0 -26 18 -38 43
l-22 42 0 -58 c-2 -105 -47 -167 -123 -167 -89 0 -148 57 -174 167 -15 63 -10
111 14 158 l16 30 7 -35 c4 -24 7 -9 8 50 1 91 6 107 34 107 14 0 17 -10 17
-57 0 -31 6 -78 14 -105 15 -47 83 -161 92 -152 2 2 -9 37 -25 78 -33 86 -45
155 -33 190 9 22 11 20 35 -32 15 -30 37 -65 50 -77 l24 -22 -23 67 c-24 68
-31 133 -16 133 5 0 21 -13 36 -29z m584 -263 c17 -17 15 -63 -4 -101 -22 -43
-21 -42 -40 -22 -13 13 -29 16 -65 13 -46 -5 -48 -4 -37 16 42 79 114 126 146
94z m-58 -179 c7 -11 9 -28 5 -37 -6 -15 -8 -15 -21 2 -16 23 -19 56 -4 56 5
0 14 -9 20 -21z m-77 -44 c6 -16 25 -47 43 -68 19 -20 34 -45 34 -56 0 -50
-96 -131 -157 -131 l-22 0 27 48 c32 53 44 82 35 82 -3 0 -28 -16 -55 -36 -46
-32 -49 -33 -43 -12 4 13 18 44 31 71 14 26 22 47 18 47 -19 0 -68 -48 -89
-88 -23 -45 -24 -46 -24 -17 -1 82 97 197 163 192 23 -2 32 -9 39 -32z"/>
<path d="M2899 4563 c-22 -75 -18 -209 8 -258 24 -45 82 -105 68 -70 -4 11
-16 41 -26 67 -22 57 -42 203 -34 263 3 25 3 45 1 45 -2 0 -10 -21 -17 -47z"/>
<path d="M2818 4573 c-6 -16 -13 -60 -16 -99 -5 -84 19 -152 72 -203 l32 -31
-35 72 c-34 70 -36 78 -36 181 0 59 -1 107 -3 107 -1 0 -8 -12 -14 -27z"/>
<path d="M2991 4427 c-20 -69 -10 -171 20 -203 24 -25 61 -36 41 -11 -10 12
-17 47 -40 207 l-8 55 -13 -48z"/>
<path d="M3073 4322 l-1 -97 9 83 c5 46 6 90 1 98 -4 7 -8 -30 -9 -84z"/>
<path d="M2685 4200 c-23 -6 -15 -8 35 -8 46 0 58 2 40 8 -30 10 -37 10 -75 0z"/>
<path d="M575 5145 c-5 -2 -22 -6 -37 -9 -36 -8 -95 -60 -130 -115 -15 -25
-28 -40 -28 -35 0 6 -17 30 -37 54 -38 44 -102 80 -132 75 -9 -2 -24 -4 -33
-4 -9 -1 -29 -12 -45 -25 -20 -17 -36 -23 -56 -19 -16 3 -37 -1 -52 -11 -25
-16 -25 -17 -25 -167 l0 -151 53 -96 c76 -138 209 -442 193 -442 -2 0 -43 51
-92 113 -117 150 -116 149 -67 49 46 -94 69 -152 54 -137 -4 6 -38 47 -75 93
-56 70 -66 79 -66 57 0 -14 22 -59 50 -100 28 -41 50 -78 50 -82 0 -4 -22 15
-50 42 -48 48 -50 48 -50 23 0 -15 4 -30 10 -33 5 -3 15 -16 21 -28 12 -22 12
-22 -10 -3 l-21 19 0 -332 c0 -349 -1 -340 43 -303 26 22 21 7 -13 -40 -17
-23 -30 -54 -30 -70 l0 -28 38 42 c40 46 51 56 97 90 l30 23 -20 -30 c-51 -78
-104 -180 -120 -232 -33 -105 5 -206 90 -239 29 -11 59 -15 85 -11 38 5 40 4
34 -16 -12 -42 -68 -120 -98 -138 -37 -23 -75 -24 -102 -4 -29 22 -34 18 -34
-30 0 -43 1 -45 39 -56 62 -18 141 10 202 72 51 52 59 57 59 35 0 -7 11 -29
24 -48 l23 -35 3 -929 c2 -511 3 -1031 2 -1156 l-2 -228 -29 0 -30 0 15 35
c17 43 20 230 4 390 -22 228 -79 676 -115 898 -24 144 -71 327 -85 327 -12 0
-68 -295 -95 -499 -8 -63 -15 -183 -15 -267 0 -147 1 -155 34 -251 19 -54 44
-120 56 -148 28 -63 111 -307 107 -311 -2 -2 -25 45 -51 104 -26 59 -69 152
-96 207 l-48 100 -1 -269 -1 -270 27 -29 28 -30 -28 7 c-25 6 -27 4 -27 -25
l0 -31 573 5 c617 6 742 14 527 35 -69 7 -144 13 -167 14 -24 1 -43 3 -43 4 0
1 37 28 83 60 45 31 141 116 212 188 214 214 326 403 445 751 71 208 119 323
171 415 21 36 35 68 30 73 -4 4 -26 1 -48 -7 -152 -54 -340 -245 -611 -624
-145 -202 -278 -434 -365 -637 -37 -88 -38 -89 -33 -41 9 74 79 273 145 411
86 181 165 298 285 423 28 28 47 52 42 52 -23 0 -110 -64 -177 -130 -126 -123
-249 -333 -324 -550 -35 -101 -85 -310 -85 -357 0 -13 -6 -23 -14 -23 -17 0
-18 -30 24 410 16 168 34 384 40 480 20 343 39 462 106 657 10 29 14 56 10 60
-14 13 -158 -150 -207 -233 -57 -97 -113 -236 -144 -358 l-23 -91 -1 666 -1
666 58 7 c111 13 222 94 222 163 0 29 4 29 64 -2 56 -28 119 -32 169 -11 63
26 117 111 117 184 0 18 4 22 17 18 108 -32 212 -33 272 -2 45 24 65 74 51
126 -6 22 -15 42 -20 45 -23 14 -6 23 54 27 92 8 144 39 176 105 14 29 30 53
37 53 7 0 28 14 48 31 32 28 35 36 35 83 0 54 -17 89 -58 123 l-23 18 61 40
c34 22 70 54 81 71 40 65 15 157 -55 202 -23 14 -43 27 -45 29 -2 2 4 12 14
23 20 22 23 74 5 95 -8 10 -6 21 10 47 12 19 20 50 20 76 0 74 -39 125 -122
161 -45 19 -48 23 -48 56 0 20 -9 53 -20 74 -46 92 -148 123 -244 74 l-29 -15
6 40 c9 52 -14 127 -53 174 -86 104 -246 103 -380 -3 -47 -37 -50 -38 -50 -17
0 30 -50 135 -83 174 -38 45 -127 83 -162 69z m72 -99 c93 -78 125 -251 73
-399 -26 -75 -146 -345 -174 -391 l-23 -39 -23 94 c-13 52 -31 130 -42 174
l-18 80 6 -172 c3 -95 1 -173 -3 -173 -8 0 -29 69 -65 215 l-13 50 -6 -121
c-9 -170 -15 -176 -71 -73 -94 173 -209 412 -233 483 -34 102 -34 216 0 216
25 0 51 -48 100 -184 27 -75 50 -135 51 -133 4 3 -20 142 -35 207 -14 61 -14
133 1 148 19 19 57 14 83 -12 40 -40 86 -145 114 -258 l27 -108 11 43 c6 23
19 83 28 132 20 110 58 191 104 222 43 29 72 29 108 -1z m528 -166 c35 -33 48
-87 35 -145 -14 -65 -55 -158 -97 -224 -32 -51 -209 -241 -307 -330 l-39 -36
23 44 c45 90 141 296 132 286 -23 -26 -133 -177 -161 -220 -17 -27 -31 -44
-31 -38 0 19 48 176 69 228 l21 50 -29 -33 c-16 -18 -58 -84 -95 -145 -36 -62
-66 -105 -66 -97 0 27 51 203 81 277 82 206 178 345 272 393 59 30 155 25 192
-10z m309 -251 c50 -59 32 -120 -53 -179 -34 -24 -61 -46 -61 -50 0 -4 43 6
95 23 86 27 100 29 136 18 76 -23 99 -73 59 -124 -25 -31 -140 -76 -310 -122
-125 -33 -212 -65 -343 -124 -38 -17 -72 -31 -75 -31 -4 0 27 35 69 78 41 42
86 90 99 106 l25 29 -70 -38 c-38 -21 -81 -46 -95 -55 -38 -26 -70 -41 -70
-34 0 4 57 66 128 137 134 137 136 141 32 68 l-65 -46 24 35 c45 64 265 276
321 308 74 42 119 43 154 1z m172 -423 c14 -36 -70 -103 -178 -142 -64 -23
-298 -82 -298 -75 0 3 37 26 81 49 44 24 78 46 75 49 -3 3 -11 1 -18 -5 -17
-14 -279 -103 -291 -99 -13 4 59 50 177 112 160 85 276 123 379 124 50 1 69
-3 73 -13z m-1261 -96 c7 -33 1 -50 -20 -50 -17 0 -26 26 -19 56 9 33 31 30
39 -6z m103 -2 c4 -32 -20 -54 -37 -34 -9 10 -9 20 0 40 15 32 33 29 37 -6z
m112 -1 c0 -33 -23 -62 -44 -54 -21 8 -20 19 5 51 25 32 39 33 39 3z m-323
-33 c12 -18 11 -23 -1 -33 -12 -10 -19 -8 -35 8 -22 22 -18 54 7 49 8 -2 21
-12 29 -24z m411 -6 c15 -15 -12 -48 -40 -48 -22 0 -23 18 -1 42 19 21 25 22
41 6z m1003 -35 c40 -24 57 -68 38 -102 -21 -37 -105 -84 -185 -104 -88 -20
-261 -38 -339 -33 -33 2 -89 4 -124 5 -78 1 -70 14 19 30 69 13 291 76 325 92
25 12 -142 5 -264 -11 -143 -19 -113 2 93 64 235 72 382 91 437 59z m-1497
-22 c17 -19 17 -20 -4 -31 -27 -14 -73 11 -64 35 8 21 48 19 68 -4z m362 -36
c51 -25 78 -62 68 -90 -3 -8 -22 -25 -42 -37 -71 -44 -240 -23 -307 39 -30 28
-31 44 -6 67 32 29 91 45 167 46 55 0 81 -5 120 -25z m209 5 c10 -16 -14 -50
-36 -50 -25 0 -35 25 -19 45 14 17 46 20 55 5z m-581 -55 c3 -10 -3 -17 -20
-21 -28 -7 -50 8 -40 25 10 16 53 13 60 -4z m16 -55 c12 -7 12 -12 -4 -29 -22
-24 -66 -28 -66 -7 0 8 10 22 22 30 26 18 28 19 48 6z m554 -6 c10 -27 7 -34
-17 -34 -28 0 -47 17 -40 36 7 19 49 18 57 -2z m-466 -63 c11 -7 9 -13 -9 -30
-39 -36 -90 -14 -54 23 18 18 43 20 63 7z m384 -8 c24 -21 23 -43 -1 -43 -18
0 -51 34 -51 52 0 14 33 8 52 -9z m-282 -29 c0 -16 -23 -44 -35 -44 -16 0 -18
9 -9 34 6 15 44 24 44 10z m194 -19 c6 -17 -9 -29 -24 -20 -5 3 -10 15 -10 25
0 22 25 18 34 -5z m-94 -4 c0 -26 -17 -36 -36 -21 -11 10 -12 16 -3 26 17 20
39 17 39 -5z m1054 -11 c47 -10 85 -37 106 -73 13 -24 13 -28 -2 -43 -15 -15
-23 -14 -115 16 -54 17 -104 33 -110 35 -29 9 -10 -6 36 -30 56 -28 91 -67 91
-102 0 -98 -143 -122 -306 -51 -85 37 -302 170 -285 176 5 2 43 -9 83 -23 131
-48 250 -86 255 -82 2 3 -31 23 -74 45 -43 23 -96 53 -118 67 l-40 25 40 -6
c22 -3 78 -14 124 -25 46 -11 86 -18 88 -16 1 2 -37 23 -87 46 -49 24 -90 45
-90 47 0 8 367 3 404 -6z m-549 -249 l110 -75 -84 92 c-46 51 -80 92 -75 92
18 0 244 -159 298 -209 70 -68 91 -103 76 -131 -14 -26 -48 -34 -118 -25 -47
5 -197 49 -274 80 -14 5 -10 -8 17 -60 38 -73 42 -99 21 -149 -16 -39 -51 -66
-84 -66 -24 0 -39 13 -131 119 -60 69 -79 76 -32 10 60 -81 30 -106 -44 -38
-25 23 -47 40 -50 38 -2 -3 0 -22 5 -44 5 -22 10 -60 10 -84 0 -38 -5 -49 -44
-87 -41 -41 -47 -44 -99 -44 -49 0 -61 4 -92 32 -41 36 -70 87 -84 149 -9 42
-9 44 31 87 52 57 84 129 103 233 26 140 24 135 39 113 7 -10 34 -68 60 -129
57 -132 67 -145 60 -79 -3 27 -8 86 -13 131 l-7 83 24 -23 c13 -12 40 -44 59
-70 20 -26 37 -46 40 -44 2 3 -12 43 -31 91 -19 47 -32 86 -29 86 3 0 44 -37
90 -82 l85 -83 -46 92 c-25 51 -46 95 -46 99 0 3 32 -23 71 -57 92 -83 162
-139 172 -139 5 0 -23 34 -62 76 -39 42 -81 90 -93 107 l-23 31 40 -23 c22
-14 90 -58 150 -100z m-791 17 c-18 -46 -36 -103 -39 -128 l-6 -45 40 75 c38
70 95 140 105 129 2 -2 -6 -49 -20 -103 -13 -55 -21 -102 -19 -104 3 -3 29 45
58 107 29 62 56 109 60 105 4 -4 4 -30 1 -58 -17 -166 -47 -230 -127 -276
-167 -96 -250 47 -137 233 29 48 106 147 114 147 2 0 -12 -37 -30 -82z m-94
-1684 c0 -74 -4 -113 -10 -109 -6 4 -10 53 -10 116 0 66 4 109 10 109 6 0 10
-45 10 -116z m536 -36 c-4 -18 -13 -105 -21 -193 -9 -88 -17 -176 -20 -195 -2
-19 -7 -65 -10 -103 -4 -43 -10 -65 -17 -61 -7 5 -9 62 -5 173 5 141 10 183
36 285 17 65 31 120 31 122 0 2 3 4 6 4 4 0 4 -15 0 -32z m-183 -1200 c17 -27
17 -28 -3 -28 -16 0 -20 7 -20 32 0 17 1 29 3 27 2 -2 11 -16 20 -31z"/>
<path d="M8525 3447 c-88 -23 -195 -85 -195 -114 0 -5 57 -7 128 -5 123 4 379
-24 416 -45 8 -4 -33 -6 -92 -4 -229 7 -426 -62 -550 -193 -51 -53 -91 -120
-80 -132 3 -3 62 19 130 49 318 140 481 183 651 174 105 -5 193 -30 298 -83
126 -63 422 -429 554 -685 50 -96 58 -137 26 -119 -30 15 -73 12 -107 -9 -31
-19 -64 -74 -64 -106 0 -13 -5 -16 -22 -10 -13 4 -51 9 -85 12 -82 7 -147 -15
-198 -67 -37 -38 -42 -40 -81 -34 -27 4 -63 0 -100 -11 -74 -21 -251 -110
-337 -169 -36 -25 -99 -61 -139 -81 -39 -20 -78 -41 -85 -46 -9 -8 -25 2 -62
40 -44 46 -136 101 -167 101 -14 0 -116 -103 -128 -130 -5 -11 -6 -23 -3 -26
11 -12 57 6 91 36 38 34 88 40 135 16 28 -15 89 -86 73 -86 -23 0 -122 -115
-143 -166 l-23 -54 -55 0 c-31 0 -112 9 -181 20 -164 26 -170 26 -170 -4 0
-31 14 -42 86 -67 88 -30 187 -49 259 -49 l64 0 54 -54 c40 -41 68 -58 111
-72 71 -22 63 -32 -54 -69 -57 -18 -116 -28 -180 -31 -52 -3 -144 -9 -205 -14
-60 -6 -113 -10 -117 -10 -5 0 -8 -9 -8 -19 0 -21 26 -29 199 -57 195 -32 381
0 514 90 114 78 117 79 117 64 0 -8 -9 -54 -19 -103 -21 -95 -46 -294 -57
-457 -6 -87 -5 -98 10 -98 9 0 21 12 27 27 11 28 75 351 104 523 l16 95 81 50
c109 68 200 117 206 111 3 -3 -26 -40 -64 -82 -127 -141 -194 -225 -201 -252
-8 -35 106 -492 125 -500 8 -2 22 4 33 15 19 18 19 22 4 103 -9 47 -30 142
-46 211 l-31 126 53 68 c79 99 102 125 94 100 -20 -59 -17 -92 15 -155 46 -91
122 -203 229 -337 29 -36 51 -42 72 -17 19 23 6 49 -125 257 -64 101 -116 194
-116 206 0 12 14 77 30 144 28 112 34 125 67 154 l37 31 32 -28 c29 -25 124
-62 233 -90 l43 -11 -6 -42 c-13 -84 -25 -209 -32 -316 l-7 -109 33 -17 c19
-10 36 -13 41 -8 17 17 63 347 63 456 1 89 5 84 -99 123 -112 42 -225 96 -224
108 0 6 16 24 35 40 l34 28 34 -30 c43 -37 119 -66 239 -90 l92 -19 52 -104
c62 -126 138 -224 172 -224 47 0 47 26 -1 111 -25 43 -69 125 -97 181 -48 97
-54 104 -103 129 -28 14 -92 36 -142 49 -50 12 -109 31 -131 42 l-39 20 39 21
39 20 28 -21 c24 -17 51 -22 170 -29 123 -8 147 -12 174 -31 101 -70 153 -106
187 -126 l37 -23 0 44 0 44 -110 77 c-61 43 -122 82 -136 87 -14 6 -64 10
-112 10 -87 0 -158 11 -172 27 -5 4 -6 41 -3 80 l6 73 39 -36 c52 -47 112 -74
166 -74 46 0 51 6 25 26 -17 12 -16 13 8 14 35 0 67 33 81 85 15 56 28 48 28
-18 l1 -52 25 29 c23 26 25 35 20 80 -3 28 -9 93 -14 144 -6 67 -14 100 -29
120 -24 33 -119 98 -154 105 -21 5 -36 27 -88 134 -140 287 -347 536 -641 772
-87 70 -251 158 -363 196 -94 31 -219 41 -292 22z m1385 -1213 c0 -17 -5 -24
-20 -24 -22 0 -27 29 -8 48 16 16 28 6 28 -24z m-132 -6 c24 -24 2 -88 -35
-102 -41 -16 -59 58 -23 94 23 23 41 25 58 8z m-170 -109 c11 -7 22 -23 25
-35 4 -22 1 -23 -57 -21 -63 2 -110 -12 -159 -46 l-29 -20 -26 27 -27 27 37
33 c21 18 53 38 70 44 41 14 138 9 166 -9z m-353 -103 c31 -13 55 -41 55 -65
0 -6 -17 -11 -38 -11 -55 0 -148 -33 -289 -101 -183 -89 -234 -142 -309 -320
-19 -44 -41 -90 -50 -102 -14 -21 -15 -19 -8 28 17 124 83 277 155 359 68 77
254 185 364 212 67 16 80 16 120 0z m140 -121 c26 -56 35 -158 15 -170 -6 -4
-10 7 -10 27 0 18 -14 71 -30 118 -16 47 -30 89 -30 94 0 20 31 -20 55 -69z
m585 41 c0 -8 -16 -28 -36 -46 -30 -26 -43 -31 -67 -26 -66 13 -76 46 -14 46
24 0 55 8 72 19 37 24 45 25 45 7z"/>
<path d="M6562 3223 c-4 -10 -7 -58 -6 -106 0 -69 4 -92 18 -105 16 -16 18
-16 32 2 19 26 18 120 -2 179 -17 49 -30 59 -42 30z"/>
<path d="M6827 3101 l-75 -79 -17 59 c-9 33 -20 57 -25 54 -20 -12 -85 -142
-102 -204 -32 -117 -21 -201 37 -278 l25 -32 -31 -51 c-17 -28 -46 -91 -64
-142 -17 -50 -34 -87 -37 -82 -3 5 -11 34 -18 65 -11 51 -11 58 10 100 45 86
44 154 -3 278 -27 75 -106 152 -183 181 -60 22 -105 23 -111 3 -2 -6 20 -29
50 -51 45 -34 94 -98 83 -110 -2 -1 -39 15 -82 37 -130 65 -120 70 -127 -65
-4 -69 -2 -136 4 -165 23 -108 133 -194 236 -186 l51 3 5 -40 c2 -23 3 -42 2
-44 -5 -6 -137 48 -182 75 -27 15 -121 83 -211 150 -243 182 -451 295 -694
376 -86 29 -196 53 -204 44 -6 -6 260 -268 421 -415 113 -102 238 -201 305
-240 79 -47 19 -37 -229 37 -138 41 -263 73 -305 77 -82 7 -81 -4 4 -31 70
-22 292 -114 305 -126 5 -5 -40 -9 -115 -9 -271 0 -980 -25 -1075 -38 -112
-16 8 -23 495 -32 1001 -18 2363 -9 2625 19 l70 7 -70 7 c-38 5 -143 12 -233
16 -90 5 -165 11 -168 14 -3 2 26 17 63 32 37 15 109 49 158 77 l90 50 -49 -6
c-28 -4 -124 -31 -215 -62 -225 -76 -258 -82 -430 -76 l-144 5 87 34 c78 30
176 60 306 94 43 11 44 12 20 21 -14 5 -77 12 -141 15 -122 6 -184 -6 -255
-48 -17 -11 -34 -19 -38 -19 -7 0 26 84 58 147 23 47 24 47 70 44 90 -5 186
70 255 198 41 78 84 261 62 261 -6 0 -45 -15 -88 -34 -47 -21 -80 -31 -84 -25
-3 6 -2 29 2 52 13 69 11 137 -5 137 -7 0 -47 -35 -89 -79z"/>
<path d="M6366 3113 c-3 -4 2 -16 13 -27 10 -12 51 -69 90 -128 79 -118 108
-137 97 -66 -10 63 -39 118 -82 160 -40 38 -106 72 -118 61z"/>
<path d="M5963 2844 c7 -69 18 -100 59 -161 27 -41 85 -90 94 -80 6 5 -48 152
-75 204 -10 21 -34 52 -51 68 l-33 30 6 -61z"/>
<path d="M7120 2754 c-68 -18 -119 -49 -190 -114 -51 -47 -53 -51 -37 -67 11
-11 38 -18 81 -21 79 -5 159 18 210 59 31 27 126 142 126 154 0 11 -138 3
-190 -11z"/>
<path d="M7968 1815 c-17 -38 7 -57 190 -147 158 -78 192 -87 177 -46 -14 35
-171 158 -247 193 -70 33 -105 33 -120 0z"/>
<path d="M6855 1535 c-120 -27 -202 -75 -327 -193 -115 -108 -115 -108 -167
-67 -44 35 -109 53 -154 41 -17 -4 -30 0 -42 14 -52 57 -167 77 -263 46 -44
-15 -52 -15 -86 -1 -74 31 -138 37 -215 20 -71 -17 -71 -16 -137 10 -55 22
-80 26 -148 25 -44 -1 -115 1 -156 5 -63 6 -85 4 -140 -15 -48 -16 -91 -22
-165 -23 -86 -2 -108 -6 -159 -29 -54 -26 -65 -27 -140 -22 -71 6 -90 3 -156
-20 -63 -21 -82 -24 -110 -16 -53 15 -108 12 -190 -11 -65 -18 -82 -19 -142
-9 -74 13 -95 10 -211 -26 -52 -16 -102 -24 -151 -24 -86 0 -159 -20 -241 -65
-33 -18 -85 -40 -115 -50 -179 -57 -320 -202 -345 -355 -5 -28 -19 -59 -39
-81 -17 -21 -39 -51 -49 -68 l-18 -31 26 -10 c14 -6 44 -10 66 -10 66 0 35
-17 -43 -24 -144 -13 -172 -18 -156 -27 35 -19 614 -28 1849 -29 1207 0 1900
10 1951 29 25 9 -80 18 -325 28 -142 6 -157 8 -152 23 10 32 -7 51 -76 86 -64
32 -69 37 -69 67 0 69 7 77 65 77 65 0 85 -7 85 -29 0 -32 31 -60 90 -82 32
-12 61 -27 64 -35 9 -23 36 -16 46 12 14 36 -3 61 -52 76 -44 13 -78 55 -78
96 0 27 2 27 62 5 55 -19 67 -14 44 21 -9 14 -16 27 -16 30 0 3 25 -9 55 -27
41 -23 55 -37 55 -54 0 -26 35 -53 69 -53 l25 0 -28 29 c-17 17 -24 31 -17 35
17 11 91 -33 101 -59 16 -41 40 -31 40 15 0 33 -4 42 -25 52 -31 14 -31 18 1
41 30 22 49 11 59 -34 9 -42 29 -31 33 19 3 36 0 43 -25 56 l-28 15 26 1 c15
0 32 6 38 14 10 12 7 17 -15 28 -20 9 -30 25 -39 59 -6 25 -23 66 -38 92 l-27
46 50 26 c108 55 222 68 334 39 182 -47 287 -147 318 -304 14 -66 37 -95 59
-73 18 18 -5 142 -38 210 -51 104 -186 202 -322 233 -30 7 -94 13 -143 12 -51
0 -86 4 -82 9 3 5 30 28 60 50 123 91 256 130 380 110 79 -12 177 -56 230
-103 57 -52 77 -60 100 -43 18 13 16 17 -42 74 -34 33 -85 71 -114 86 -102 51
-244 67 -365 40z m-1665 -188 c0 -2 -9 -21 -19 -43 -32 -66 -48 -147 -51 -249
-2 -105 -22 -26 -28 114 -4 113 -6 121 -18 92 -13 -30 -26 -96 -40 -196 -7
-47 -8 -48 -15 -20 -9 42 -10 142 0 193 12 60 -4 52 -29 -15 -32 -86 -43 -159
-36 -243 5 -69 4 -73 -9 -49 -26 48 -38 163 -25 237 24 141 32 153 107 171 36
8 163 15 163 8z m176 -6 c27 -5 61 -14 76 -20 l28 -10 -20 -34 c-11 -18 -28
-69 -38 -112 l-19 -80 -8 67 c-4 37 -4 79 -1 93 4 14 2 25 -2 25 -12 0 -42
-94 -49 -153 -9 -76 -23 -35 -24 73 l0 95 -20 -45 c-32 -71 -45 -185 -32 -271
7 -41 10 -75 8 -77 -2 -2 -13 26 -24 63 -33 105 -27 262 13 358 18 41 28 44
112 28z m395 -32 c19 -7 36 -13 37 -15 2 -1 -7 -31 -21 -66 -14 -35 -29 -87
-33 -116 -3 -29 -11 -55 -17 -59 -7 -4 -8 27 -3 93 8 114 -2 117 -32 9 l-20
-70 -7 37 c-4 22 -2 51 5 73 13 38 7 56 -11 38 -6 -6 -21 -44 -34 -84 -23 -71
-23 -73 -25 -34 -1 22 -1 59 0 82 1 34 -2 42 -13 37 -25 -9 -51 -112 -51 -206
-1 -133 -20 -89 -24 55 -2 81 1 137 10 167 12 39 19 46 53 57 52 15 143 16
186 2z m-883 -6 c-33 -64 -55 -137 -74 -238 l-7 -40 -9 35 c-6 19 -8 72 -6
117 1 46 0 83 -3 83 -19 0 -58 -156 -60 -239 -1 -88 -19 5 -21 113 l-2 99 -20
-44 c-17 -37 -20 -66 -21 -181 0 -75 -3 -134 -7 -132 -4 3 -14 28 -23 56 -26
88 -15 314 16 334 40 24 247 57 237 37z m1207 -17 c18 -13 17 -16 -28 -66 -26
-29 -47 -55 -47 -59 -1 -3 -7 -28 -14 -55 l-13 -49 -12 63 c-14 72 -30 66 -31
-10 -1 -59 -18 -32 -27 42 -7 59 -21 43 -23 -27 -1 -37 -2 -38 -11 -15 -6 14
-9 40 -7 57 7 60 -13 17 -26 -58 l-14 -74 -1 68 c-1 38 4 89 10 114 10 39 18
48 53 64 50 23 163 26 191 5z m-1540 -43 c-20 -48 -34 -106 -41 -169 -8 -81
-10 -78 -28 47 -11 85 -14 92 -25 69 -6 -14 -15 -68 -19 -120 l-8 -95 -12 66
c-7 36 -12 87 -12 113 0 26 -4 45 -9 42 -17 -11 -36 -135 -35 -236 l1 -105
-18 50 c-13 36 -17 80 -17 160 0 155 1 157 78 177 36 9 85 17 109 17 37 1 42
-1 36 -16z m1735 -23 c25 -25 26 -66 2 -79 -27 -14 -86 17 -90 47 -7 50 50 70
88 32z m-2026 -12 c-4 -13 -15 -45 -25 -73 l-18 -50 0 45 c-2 80 -21 22 -21
-63 0 -43 -4 -76 -9 -73 -5 3 -14 42 -22 86 -8 53 -17 80 -26 80 -9 0 -13 -16
-14 -52 -1 -29 -4 -78 -8 -108 l-7 -55 -7 45 c-3 25 -9 69 -13 98 -4 28 -10
52 -15 52 -16 0 -31 -116 -27 -207 2 -51 3 -93 1 -93 -1 0 -11 30 -23 66 -29
94 -25 263 7 295 9 9 124 25 196 28 35 1 38 -1 31 -21z m-328 -64 c-20 -64
-21 -65 -27 -35 -7 33 -16 48 -24 40 -2 -3 -7 -41 -11 -84 -3 -44 -7 -81 -9
-83 -1 -1 -10 38 -20 88 -10 52 -21 88 -26 83 -5 -5 -15 -49 -21 -99 l-12 -89
-15 83 c-9 45 -18 82 -22 82 -16 0 -31 -118 -27 -204 l4 -90 -19 45 c-15 33
-21 72 -24 154 -2 61 0 116 5 123 10 15 167 50 228 51 l41 1 -21 -66z m-349
-21 c-14 -49 -13 -48 -41 -30 l-24 16 -7 -72 -8 -72 -16 57 c-9 31 -19 60 -23
64 -14 13 -28 -47 -28 -118 0 -39 -3 -68 -7 -65 -3 4 -14 42 -23 85 l-17 77
-13 -45 c-12 -43 -9 -144 5 -200 6 -25 6 -25 -10 -5 -38 45 -55 99 -55 177 l0
77 48 22 c78 36 175 69 204 69 26 0 26 -1 15 -37z m-362 -110 c-4 -10 -9 -35
-12 -57 l-6 -39 -14 27 c-22 41 -43 17 -43 -48 l0 -51 -22 45 -22 45 -6 -65
c-5 -63 -6 -64 -14 -27 -15 68 -35 40 -37 -51 l-1 -57 -20 44 c-18 40 -19 47
-5 75 24 51 68 97 131 138 65 42 82 47 71 21z m1769 -262 c10 -11 31 -23 47
-26 16 -4 29 -7 29 -8 0 -1 -6 -22 -14 -47 -8 -29 -10 -56 -5 -74 5 -17 7 -31
6 -32 -8 -7 -229 -15 -225 -8 2 5 18 39 36 76 30 63 85 138 101 138 5 0 16 -9
25 -19z m568 7 l40 -12 -7 -58 c-6 -49 -4 -64 14 -93 l20 -35 -73 0 -74 0 -12
50 c-14 57 -8 91 21 132 23 32 20 32 71 16z m227 -92 c23 -37 85 -79 134 -90
56 -13 25 -26 -64 -26 -90 0 -91 0 -124 33 -55 55 -56 146 -3 166 20 7 24 5
29 -19 3 -15 16 -44 28 -64z m-1056 19 c-4 -11 -7 -44 -7 -73 l-1 -52 -88 0
c-49 0 -87 3 -85 8 55 118 71 149 84 163 15 16 18 16 60 -4 36 -18 43 -26 37
-42z m580 43 c26 -9 36 -17 31 -28 -14 -37 -16 -72 -4 -100 7 -16 16 -30 21
-30 5 0 9 -4 9 -10 0 -6 -41 -10 -104 -10 l-104 0 32 83 c18 45 35 90 39 101
5 12 13 16 25 13 9 -4 34 -12 55 -19z m-1246 -18 c14 -11 32 -20 40 -20 10 0
13 -6 9 -16 -15 -40 -17 -66 -8 -94 l11 -30 -105 0 c-57 0 -104 2 -104 6 0 16
116 174 128 174 2 0 15 -9 29 -20z m367 -40 c-14 -30 -16 -78 -5 -99 12 -21
10 -21 -94 -21 -58 0 -105 2 -105 4 0 2 15 26 33 52 18 27 42 66 54 86 l22 37
51 -22 c38 -16 49 -25 44 -37z m-633 -12 c-3 -7 -4 -34 -4 -60 l1 -48 -79 0
c-43 0 -79 2 -79 5 0 3 18 39 41 80 l40 74 42 -20 c24 -11 40 -24 38 -31z
m-285 16 c19 -5 22 -9 14 -24 -6 -10 -10 -37 -10 -59 l0 -41 -56 0 -56 0 7 28
c3 15 15 47 26 71 14 32 23 42 35 37 9 -3 27 -9 40 -12z m-233 -76 c3 -24 4
-44 3 -46 -2 -1 -54 -1 -117 0 l-113 3 104 42 c58 23 108 42 111 42 4 1 9 -18
12 -41z"/>
</g>
</svg>
