<?xml version="1.0" standalone="no"?>
<!DOCTYPE svg PUBLIC "-//W3C//DTD SVG 20010904//EN"
 "http://www.w3.org/TR/2001/REC-SVG-20010904/DTD/svg10.dtd">
<svg version="1.0" xmlns="http://www.w3.org/2000/svg"
 width="1024.000000pt" height="1024.000000pt" viewBox="0 0 1024.000000 1024.000000"
 preserveAspectRatio="xMidYMid meet">

<g transform="translate(0.000000,1024.000000) scale(0.100000,-0.100000)"
fill="#000000" stroke="none">
<path d="M5163 9973 c-25 -11 -41 -33 -65 -84 -18 -37 -35 -68 -38 -68 -3 -1
-18 19 -33 44 -40 63 -94 105 -134 105 -55 0 -76 -36 -98 -173 l-6 -37 -47 38
c-79 65 -116 84 -164 80 -57 -4 -76 -38 -85 -146 l-6 -80 -53 24 c-29 13 -75
26 -102 30 -43 5 -53 3 -72 -16 -21 -21 -22 -29 -17 -119 3 -53 9 -106 12
-118 l7 -22 -74 26 c-40 14 -101 28 -135 31 -57 4 -63 3 -88 -23 -25 -24 -27
-31 -21 -81 7 -62 45 -168 82 -232 l26 -44 -38 6 c-108 15 -148 17 -220 7
-125 -17 -149 -62 -94 -175 11 -23 38 -67 60 -96 22 -30 40 -57 40 -60 0 -4
-22 -12 -48 -18 -128 -29 -212 -78 -212 -124 0 -30 73 -102 157 -156 l61 -39
-53 -22 c-66 -27 -145 -83 -161 -113 -10 -18 -9 -28 1 -48 23 -44 143 -120
215 -135 55 -12 55 -16 1 -47 -66 -38 -148 -118 -157 -152 -12 -51 49 -88 174
-106 l83 -12 -45 -46 c-53 -54 -106 -156 -108 -208 -2 -52 32 -80 110 -89 56
-6 159 -1 226 12 l29 5 -22 -33 c-43 -66 -89 -170 -96 -220 -10 -70 10 -99 68
-99 49 0 140 24 175 46 23 15 23 15 15 -23 -23 -107 0 -163 67 -163 42 0 128
26 151 46 8 8 18 14 20 14 3 0 3 -39 1 -87 -5 -98 9 -164 39 -194 17 -17 28
-20 57 -14 45 8 129 55 162 90 l24 26 12 -72 c31 -183 111 -227 215 -120 25
26 52 62 60 79 8 18 16 32 19 32 3 0 18 -30 35 -67 82 -184 174 -176 245 21
l11 30 19 -32 c32 -52 113 -130 143 -137 38 -10 72 7 92 45 19 37 38 192 29
234 -6 29 -3 27 61 -32 72 -66 141 -105 176 -100 34 5 59 48 66 110 l6 56 56
-38 c104 -71 183 -82 210 -31 18 32 13 179 -9 261 -25 96 -26 93 12 74 95 -49
245 -82 289 -63 65 26 50 137 -48 358 -5 11 1 12 30 7 20 -4 80 -7 134 -7 110
0 197 21 213 51 25 47 -5 134 -78 227 l-41 51 61 11 c90 16 152 49 156 83 4
35 -61 107 -142 158 -30 19 -55 38 -56 41 0 3 19 12 43 18 114 34 217 104 217
146 0 31 -71 92 -154 133 -36 18 -70 32 -76 32 -25 0 -3 18 72 60 45 25 102
63 127 86 42 38 45 43 34 67 -15 33 -93 78 -206 119 l-88 31 40 41 c57 58 111
153 111 194 0 83 -36 97 -237 96 -84 0 -153 0 -153 2 0 1 11 22 25 47 38 67
75 185 75 237 0 35 -5 52 -21 66 -31 28 -137 22 -245 -14 -46 -16 -84 -28 -84
-28 0 1 9 33 20 71 30 104 25 182 -14 207 -26 17 -104 6 -182 -25 l-82 -33
-10 78 c-13 102 -30 128 -83 128 -52 0 -103 -27 -172 -90 -30 -27 -57 -50 -59
-50 -3 0 -8 29 -11 65 -4 36 -15 85 -26 109 -38 87 -93 85 -176 -6 -30 -34
-56 -59 -58 -57 -2 2 -15 24 -29 49 -49 84 -92 109 -145 83z m-2 -214 c29 -29
63 -110 83 -198 20 -88 22 -283 5 -453 -12 -113 -14 -118 -36 -118 -15 0 -24
7 -28 23 -3 12 -18 84 -34 160 -16 76 -32 141 -35 144 -9 9 -6 -224 4 -282 9
-58 10 -52 -14 -57 -16 -2 -24 9 -43 72 -73 228 -79 403 -21 580 25 80 65 150
84 150 8 0 23 -9 35 -21z m305 -40 c35 -69 46 -126 51 -279 6 -170 -8 -257
-63 -402 -46 -120 -67 -104 -49 37 17 129 24 258 15 248 -9 -9 -80 -302 -80
-327 0 -9 -6 -16 -13 -16 -11 0 -15 52 -21 258 -7 283 -2 327 51 425 25 46 65
87 84 87 5 0 16 -14 25 -31z m-651 -114 c82 -115 102 -168 115 -301 6 -65 25
-170 41 -232 16 -62 29 -115 29 -117 0 -1 -7 -6 -15 -9 -12 -4 -30 24 -76 119
-33 68 -71 152 -84 187 l-25 63 6 -60 c7 -74 37 -179 75 -264 16 -35 29 -65
29 -67 0 -2 -14 -11 -30 -19 -30 -15 -32 -15 -50 7 -10 13 -45 65 -77 117 -40
64 -59 88 -61 75 -4 -30 42 -157 76 -208 26 -39 28 -46 16 -57 -20 -16 -63 25
-161 156 -88 118 -165 268 -193 380 -20 80 -27 190 -12 198 17 10 76 -17 134
-61 l63 -47 25 -100 c33 -131 53 -166 43 -75 -5 36 -8 126 -8 200 0 121 3 139
23 179 l23 43 26 -23 c14 -13 44 -51 68 -84z m963 -24 c4 -158 -32 -276 -167
-541 -57 -112 -72 -129 -100 -111 -10 7 -6 29 23 117 49 150 60 226 53 362 -6
114 -6 114 22 156 50 71 120 128 151 123 12 -2 16 -23 18 -106z m307 -68 c-10
-72 -41 -184 -70 -248 -46 -105 -154 -256 -248 -347 -49 -49 -92 -88 -96 -88
-3 0 -19 12 -34 26 l-29 25 60 132 c33 73 77 183 98 246 37 107 43 118 104
181 68 71 146 119 193 120 28 0 28 0 22 -47z m-1842 -194 c23 -12 73 -44 110
-73 54 -40 76 -64 99 -111 38 -75 108 -178 187 -278 34 -42 61 -80 61 -83 0
-13 -51 -74 -61 -74 -22 0 -185 117 -256 184 -138 129 -246 303 -260 416 l-6
53 42 -7 c24 -3 62 -16 84 -27z m2121 -11 c-11 -36 -71 -153 -108 -211 -29
-46 -43 -57 -91 -75 -86 -33 -233 -123 -329 -202 -47 -38 -88 -70 -90 -70 -2
0 -7 7 -10 15 -4 11 17 37 64 81 72 68 196 225 243 306 32 56 79 96 155 133
70 34 97 43 140 44 30 1 33 -1 26 -21z m-2251 -309 c25 -8 67 -41 120 -93 95
-94 171 -153 282 -221 44 -27 82 -50 84 -52 3 -2 0 -8 -6 -14 -7 -7 -32 -1
-84 21 -41 18 -146 57 -234 87 -191 65 -250 97 -332 179 -70 69 -80 100 -35
107 42 8 163 -1 205 -14z m2341 15 c22 -9 20 -36 -6 -69 -37 -48 -132 -101
-296 -165 -164 -65 -239 -100 -284 -131 -35 -25 -41 -24 -62 11 l-17 31 33 31
c175 164 330 266 440 287 52 11 170 13 192 5z m230 -60 c-20 -29 -127 -114
-145 -114 -17 0 15 34 86 91 68 55 83 61 59 23z m-1336 -49 c35 -8 80 -24 100
-35 l37 -20 -55 8 c-30 4 -104 7 -165 7 -124 -1 -187 -16 -303 -73 -97 -47
-196 -142 -149 -142 8 0 22 -9 32 -20 37 -41 -18 -150 -76 -150 -34 0 -36 13
-14 67 35 83 -18 40 -68 -55 -46 -87 -67 -171 -67 -268 -1 -93 -14 -83 -28 21
-40 297 157 581 458 659 72 19 219 19 298 1z m-59 -99 c20 -23 -4 -56 -39 -56
-19 0 -33 7 -40 21 -15 27 3 49 40 49 15 0 33 -6 39 -14z m-144 -26 c3 -6 3
-19 0 -30 -5 -15 -15 -20 -41 -20 -29 0 -34 3 -34 23 0 13 3 27 7 30 10 11 61
8 68 -3z m420 0 c3 -5 2 -10 -4 -10 -5 0 -13 5 -16 10 -3 6 -2 10 4 10 5 0 13
-4 16 -10z m-120 -30 c0 -20 -6 -26 -29 -28 -34 -4 -49 14 -35 41 7 12 19 17
37 15 21 -2 27 -8 27 -28z m-415 -19 c12 -23 5 -48 -23 -78 -15 -17 -32 -23
-63 -23 -47 0 -59 10 -50 44 16 63 111 103 136 57z m1570 -5 c112 -21 160 -45
160 -82 0 -25 -68 -90 -128 -122 l-59 -32 -244 -4 c-238 -4 -310 -12 -392 -45
-33 -13 -47 -7 -47 18 0 26 231 120 409 167 52 13 97 27 100 30 10 10 -127 -6
-219 -26 -47 -10 -128 -35 -180 -55 -133 -52 -143 -53 -138 -24 2 18 22 33 87
66 89 45 235 97 316 112 76 14 251 12 335 -3z m-2387 -25 c98 -25 188 -62 281
-113 65 -37 73 -44 66 -62 -5 -12 -11 -28 -13 -38 -5 -14 -12 -14 -70 7 -63
23 -223 52 -233 42 -3 -3 10 -10 30 -17 53 -17 247 -107 246 -114 0 -3 0 -15
0 -26 0 -19 -7 -20 -90 -20 -201 0 -455 84 -571 188 -50 44 -79 88 -79 116 0
14 62 37 130 49 72 12 231 6 303 -12z m975 -73 c7 -7 12 -15 12 -19 0 -15 -32
-39 -51 -39 -25 0 -26 45 -1 59 22 13 26 13 40 -1z m182 -43 c0 -8 -7 -15 -15
-15 -8 0 -15 7 -15 15 0 8 7 15 15 15 8 0 15 -7 15 -15z m-396 -88 c9 -15 7
-22 -13 -38 -32 -26 -65 -21 -69 10 -7 46 58 68 82 28z m1511 -74 c85 -18 183
-64 221 -104 27 -28 27 -29 9 -49 -47 -52 -226 -86 -404 -76 -63 3 -113 4
-110 2 2 -2 57 -18 123 -35 65 -18 146 -46 180 -63 66 -33 174 -106 196 -133
26 -32 -11 -45 -126 -45 -106 0 -219 19 -381 64 -74 20 -151 39 -300 71 -19 5
-20 8 -10 40 12 42 14 42 184 20 158 -21 240 -39 369 -80 60 -19 110 -32 112
-31 6 7 -111 57 -223 95 -100 35 -203 61 -357 91 -52 10 -58 14 -58 36 0 19 5
24 24 24 50 0 282 21 296 27 28 11 -63 22 -193 22 l-128 1 3 37 3 37 100 28
c170 49 313 55 470 21z m-1350 7 c-3 -5 -11 -10 -16 -10 -6 0 -7 5 -4 10 3 6
11 10 16 10 6 0 7 -4 4 -10z m-1062 -75 c105 -43 259 -75 366 -75 l79 0 5 -32
c2 -18 3 -34 2 -36 -2 -2 -45 -12 -96 -23 -135 -28 -333 -36 -437 -16 -120 23
-232 78 -232 113 0 22 69 67 139 91 36 12 71 21 76 18 6 -2 49 -20 98 -40z
m685 -18 c4 -35 -14 -59 -42 -55 -25 4 -33 37 -16 68 17 31 54 23 58 -13z
m185 -43 c-7 -18 -43 -19 -43 -1 0 7 5 18 12 25 15 15 39 -3 31 -24z m77 -134
c0 -12 -28 -25 -36 -17 -9 9 6 27 22 27 8 0 14 -5 14 -10z m-469 -54 c5 -18 4
-28 -4 -31 -176 -55 -401 -116 -465 -125 -81 -12 -207 -7 -217 9 -12 20 80 71
171 95 32 8 120 22 194 31 127 15 280 42 289 51 10 10 25 -4 32 -30z m179 24
c0 -5 -4 -10 -10 -10 -5 0 -10 5 -10 10 0 6 5 10 10 10 6 0 10 -4 10 -10z
m-150 -122 c0 -7 -62 -46 -138 -86 -125 -66 -285 -162 -271 -162 6 0 130 53
312 134 71 32 129 56 130 54 1 -2 10 -13 21 -25 18 -22 18 -22 -33 -48 -28
-14 -106 -60 -174 -103 -208 -133 -245 -149 -370 -167 -52 -7 -166 2 -187 15
-19 12 38 96 109 163 88 81 211 135 471 206 123 34 130 35 130 19z m1436 -59
c197 -50 371 -120 439 -176 44 -37 95 -103 95 -124 0 -17 -8 -19 -72 -19 -142
0 -229 33 -438 165 -63 40 -139 84 -167 99 -56 28 -60 35 -42 68 10 18 17 19
59 14 26 -4 83 -15 126 -27z m-116 -151 c247 -147 369 -265 427 -411 23 -58
25 -70 12 -78 -36 -24 -193 20 -291 82 -60 38 -368 342 -368 363 0 5 19 30 43
57 51 58 59 57 177 -13z m-1187 16 c16 -19 27 -37 25 -38 -1 -2 -32 -22 -68
-46 -35 -24 -119 -97 -187 -162 -67 -65 -146 -133 -176 -152 -69 -44 -125 -68
-132 -55 -12 18 25 117 65 177 53 79 137 155 237 215 67 40 184 96 203 97 3 0
18 -16 33 -36z m124 -110 c27 -20 49 -40 51 -45 6 -15 -86 -182 -138 -251
-108 -143 -271 -268 -354 -272 l-31 -1 2 56 c5 145 143 346 336 490 44 32 82
59 83 59 2 0 25 -16 51 -36z m899 -111 c144 -159 197 -231 250 -338 43 -87 85
-237 70 -252 -27 -27 -242 185 -350 345 -70 105 -160 259 -170 290 -5 14 3 25
31 45 21 14 43 26 50 26 7 1 60 -52 119 -116z m-771 37 c8 -13 -41 -215 -77
-320 -61 -173 -136 -287 -231 -351 -33 -21 -64 -39 -69 -39 -13 0 -2 106 19
182 11 42 30 74 69 120 134 157 205 262 250 370 19 48 28 56 39 38z m515 -4
c0 -18 61 -133 183 -344 42 -73 72 -139 86 -190 22 -80 27 -142 13 -142 -11 0
-105 92 -146 144 -28 34 -35 54 -44 125 -15 108 -44 205 -95 314 -34 73 -38
90 -26 98 20 12 29 11 29 -5z m-422 -24 c10 -7 6 -34 -20 -128 -29 -110 -32
-133 -35 -299 -1 -99 -3 -183 -3 -186 0 -14 -76 -108 -104 -130 l-29 -23 6 85
c3 54 18 125 40 199 46 149 91 326 107 418 14 74 16 78 38 64z m379 -137 c71
-208 80 -430 22 -566 -52 -119 -97 -21 -134 290 -8 68 -17 126 -19 128 -2 3
-7 -22 -11 -54 -24 -228 -37 -289 -82 -376 -33 -67 -59 -63 -90 15 -54 135
-66 331 -33 514 30 166 31 168 68 172 l32 3 1 -63 c0 -35 4 -83 8 -108 6 -43
8 -39 21 60 14 101 16 105 41 108 25 3 27 -1 49 -87 13 -50 28 -91 33 -91 10
0 3 142 -8 172 -5 12 0 17 17 20 27 4 48 -29 85 -137z"/>
<path d="M1355 9877 c-23 -24 -52 -70 -65 -103 -13 -32 -25 -61 -26 -63 -1 -1
-21 12 -44 30 -36 29 -49 34 -97 34 -72 0 -93 -24 -100 -119 l-6 -66 -47 35
c-115 84 -229 110 -268 60 -11 -14 -23 -47 -27 -74 l-7 -49 -68 2 c-60 1 -72
-2 -92 -22 -32 -31 -28 -84 11 -168 l31 -67 -77 7 c-133 11 -214 -17 -226 -80
-7 -38 10 -113 43 -181 l29 -63 -22 -5 c-12 -2 -48 -9 -79 -14 -32 -6 -71 -17
-87 -25 -38 -20 -71 -62 -71 -91 0 -24 36 -83 77 -127 l25 -26 -48 -21 c-26
-12 -63 -33 -81 -47 -33 -25 -33 -26 -33 -110 l0 -84 55 -57 c30 -31 55 -59
55 -62 -1 -4 -25 -23 -55 -44 l-55 -38 0 -89 0 -89 66 -31 66 -31 -37 -41
c-40 -43 -74 -110 -75 -143 0 -64 96 -130 238 -161 42 -9 78 -18 80 -19 1 -1
-18 -41 -42 -89 -100 -195 -69 -255 126 -244 48 3 88 3 88 -1 -1 -3 -9 -31
-20 -61 -26 -74 -25 -113 3 -146 18 -21 33 -27 67 -28 25 0 59 3 75 7 l31 8
-4 -40 c-6 -61 14 -110 52 -128 30 -14 38 -14 87 0 30 9 84 34 121 57 37 22
69 40 72 40 4 0 6 -24 6 -52 0 -63 28 -130 64 -153 35 -23 80 -7 144 50 l49
45 21 -58 c67 -183 159 -218 274 -103 l47 48 31 -39 c34 -41 96 -78 132 -78
60 0 114 64 158 187 l23 63 64 -60 c35 -33 75 -63 90 -66 65 -17 110 35 121
140 l7 64 64 -39 c101 -61 175 -75 210 -40 24 24 36 79 28 127 -5 30 -3 34 11
30 19 -5 93 -9 130 -7 13 0 34 12 47 26 29 28 32 77 11 168 -12 52 -12 57 3
53 44 -13 95 -18 135 -12 103 16 113 83 36 232 -27 53 -50 97 -50 99 0 2 33
10 73 19 95 21 166 55 200 95 46 55 33 109 -45 204 -22 27 -39 49 -37 50 2 1
35 18 74 37 137 70 136 145 -2 251 l-33 24 60 63 c63 66 88 120 76 166 -10 41
-70 100 -128 126 -29 13 -54 25 -56 26 -1 0 15 20 37 44 22 24 47 61 57 83 16
35 16 42 3 65 -24 42 -66 65 -152 83 -92 19 -89 12 -50 109 36 90 35 162 -1
198 -25 26 -31 27 -136 27 -61 0 -110 3 -110 6 0 4 9 26 19 50 11 24 23 67 26
95 6 45 4 54 -18 80 -21 24 -32 29 -74 29 -26 0 -60 -3 -75 -8 -27 -7 -28 -6
-28 34 0 55 -25 104 -59 119 -38 15 -85 5 -165 -35 -63 -32 -64 -32 -70 -11
-3 11 -6 34 -6 49 0 16 -10 38 -25 52 -46 46 -118 27 -208 -55 l-55 -50 -7 39
c-10 58 -68 174 -100 199 -53 42 -152 19 -209 -48 l-26 -31 -32 37 c-38 43
-82 64 -134 64 -31 0 -45 -7 -79 -43z m153 -114 c42 -59 72 -204 72 -343 0
-112 15 -88 27 43 14 141 41 237 82 295 54 74 94 64 130 -33 66 -176 65 -400
-2 -575 -51 -133 -50 -131 -77 -128 -18 2 -24 8 -22 23 7 57 14 219 8 214 -6
-6 -22 -60 -56 -186 -8 -31 -16 -43 -29 -43 -25 0 -31 19 -31 101 0 38 -4 69
-10 69 -9 0 -12 -12 -28 -115 -6 -40 -11 -50 -27 -50 -17 0 -24 16 -47 118
-14 66 -30 122 -33 125 -7 7 -1 -189 7 -233 2 -16 -3 -20 -22 -20 -23 0 -28 9
-57 96 -44 130 -56 220 -50 369 5 147 32 246 78 292 33 33 53 28 87 -19z m632
-160 c0 -47 -5 -62 -34 -102 -48 -65 -116 -129 -116 -110 0 20 69 127 98 153
12 11 22 23 22 28 0 18 -23 6 -70 -38 -56 -53 -65 -41 -21 27 30 49 99 111
113 103 4 -3 8 -30 8 -61z m-957 15 c29 -37 30 -40 31 -153 1 -82 -2 -112 -9
-100 -5 9 -29 42 -52 73 -40 54 -42 61 -43 124 0 110 18 124 73 56z m-306 -55
c156 -77 314 -275 396 -498 33 -88 35 -97 21 -102 -7 -2 -32 24 -57 59 -45 63
-107 129 -107 114 0 -5 22 -53 49 -107 43 -83 48 -99 35 -110 -12 -10 -26 -1
-77 48 -34 32 -105 94 -158 136 -53 42 -135 113 -183 158 -48 45 -88 80 -90
78 -3 -2 9 -23 25 -47 16 -24 36 -54 46 -68 l16 -25 -37 22 c-20 12 -48 36
-61 53 -36 47 -85 147 -85 174 0 21 3 23 33 17 70 -15 134 -54 260 -158 26
-22 50 -37 53 -34 3 3 -21 41 -53 84 -78 105 -113 166 -120 210 -6 34 -5 35
18 28 13 -3 47 -18 76 -32z m1547 29 c10 -16 -42 -108 -119 -212 -42 -58 -82
-114 -88 -125 -9 -18 -9 -19 10 -5 11 8 63 48 114 88 105 83 165 116 227 127
39 6 42 5 42 -15 0 -23 -58 -145 -90 -189 -10 -14 -33 -35 -52 -45 l-33 -20
26 35 c25 33 69 112 69 124 0 4 -46 -41 -102 -100 -119 -125 -347 -339 -354
-332 -3 2 5 21 17 41 12 20 19 39 17 42 -3 2 -29 -18 -58 -46 -50 -48 -80 -62
-80 -39 0 5 20 58 45 116 25 58 45 108 45 111 0 15 -57 -50 -98 -113 -25 -38
-47 -72 -48 -74 -2 -2 -10 -1 -18 2 -12 5 -9 18 15 79 109 266 247 437 424
523 76 37 81 39 89 27z m-1865 -398 c66 -18 219 -97 299 -156 62 -45 148 -129
199 -195 28 -35 31 -42 18 -53 -12 -10 -34 -1 -119 44 -57 31 -109 56 -115 56
-25 0 11 -41 93 -106 53 -42 82 -72 79 -80 -3 -8 -8 -14 -11 -14 -11 0 -90 36
-182 83 l-95 49 40 -42 c35 -36 168 -132 199 -143 6 -2 8 -8 4 -12 -10 -10
-127 35 -233 88 -118 60 -254 199 -318 323 -55 107 -69 169 -41 177 27 8 116
-2 183 -19z m2280 7 c21 -13 6 -74 -42 -166 -53 -102 -198 -252 -303 -314 -68
-40 -247 -111 -279 -111 -32 0 -12 20 60 59 71 39 150 99 142 107 -2 3 -51
-18 -108 -46 -57 -27 -112 -50 -121 -50 -34 0 -28 20 14 46 69 44 188 135 188
145 0 5 -59 -20 -131 -57 -102 -51 -134 -63 -140 -52 -5 7 -7 18 -6 23 8 24
180 164 255 208 85 49 102 67 55 60 l-28 -4 30 26 c42 37 179 102 250 119 69
16 144 20 164 7z m-1076 -257 c101 -26 247 -118 278 -176 9 -16 2 -14 -27 10
-53 42 -171 99 -247 119 -124 33 -295 14 -411 -44 -85 -42 -162 -113 -124
-113 25 0 48 -34 48 -69 0 -68 -53 -125 -108 -119 -22 2 -28 9 -30 36 -2 20 5
45 18 67 40 65 2 36 -43 -32 -88 -134 -122 -270 -106 -419 4 -43 11 -90 15
-104 11 -40 -3 -19 -26 40 -30 77 -38 249 -16 342 57 245 231 418 473 472 80
18 213 14 306 -10z m-1340 -119 c62 -69 60 -71 -35 -25 -23 11 -44 20 -47 20
-3 0 15 -20 39 -45 l44 -45 -49 6 c-83 9 -90 12 -138 55 -51 45 -60 76 -24 83
12 3 31 7 42 9 11 3 40 5 65 6 43 0 48 -2 103 -64z m2556 45 c37 -9 36 -25 -5
-70 -48 -53 -64 -61 -138 -70 l-60 -7 44 39 c44 38 44 39 15 32 -16 -4 -47
-13 -69 -21 -21 -7 -41 -13 -44 -13 -15 0 107 116 128 121 25 6 84 1 129 -11z
m-1282 -33 c22 -22 1 -64 -36 -72 -67 -14 -128 60 -68 85 28 12 86 5 104 -13z
m-209 -9 c57 -57 -73 -160 -143 -114 -62 41 5 119 106 125 14 0 30 -4 37 -11z
m368 -63 c7 -18 -13 -45 -33 -45 -23 0 -28 31 -8 46 24 18 34 18 41 -1z m-319
-131 c9 -24 -10 -49 -38 -49 -27 0 -37 28 -19 50 17 20 49 19 57 -1z m-877
-32 c128 -33 262 -82 267 -97 1 -5 -1 -16 -6 -24 -8 -12 -31 -12 -163 1 -84 8
-157 12 -161 8 -15 -14 143 -64 266 -85 27 -4 37 -11 37 -24 0 -20 -62 -34
-214 -47 -114 -10 -72 -26 83 -30 69 -3 127 -8 129 -13 6 -19 -116 -36 -253
-36 -118 0 -152 4 -215 23 -134 42 -287 138 -330 207 -19 31 -21 40 -10 59 50
95 321 122 570 58z m2332 4 c81 -28 118 -58 118 -95 0 -59 -200 -204 -350
-253 -91 -29 -300 -37 -402 -14 -84 19 -101 27 -93 47 4 10 26 14 88 15 87 0
214 20 223 35 3 5 -52 10 -123 10 -70 1 -141 4 -158 8 -37 8 -46 38 -13 45 13
3 70 14 128 25 133 26 180 39 180 51 0 14 -78 12 -215 -5 -65 -8 -120 -13
-122 -12 -1 2 -4 14 -5 26 -3 21 6 26 102 57 305 99 483 115 642 60z m-1278
15 c10 -16 -5 -41 -25 -41 -21 0 -25 20 -7 38 14 14 25 15 32 3z m-343 -41
c17 0 9 -44 -13 -67 -44 -47 -90 -19 -61 39 14 28 30 39 51 32 8 -2 18 -4 23
-4z m-213 -102 c27 -27 12 -83 -30 -104 -51 -27 -75 15 -43 76 13 24 24 32 56
39 3 0 10 -4 17 -11z m176 -97 c3 -4 -1 -17 -9 -27 -11 -15 -16 -16 -26 -7
-10 10 -9 15 1 28 14 17 26 19 34 6z m-1037 -161 l58 -29 -39 -1 c-59 0 -33
-18 50 -34 38 -8 62 -15 54 -15 -8 -1 -44 -15 -78 -31 -76 -36 -118 -37 -191
-7 -63 26 -81 47 -61 72 19 22 111 75 132 75 9 0 42 -13 75 -30z m803 5 c0
-19 -20 -29 -32 -17 -15 15 -2 43 17 36 8 -3 15 -12 15 -19z m1913 4 c53 -27
87 -58 87 -80 0 -16 -65 -50 -135 -71 -69 -20 -164 -29 -230 -22 l-70 7 65 17
c113 31 210 74 196 88 -3 2 -54 -9 -113 -24 -98 -26 -123 -29 -263 -28 -170 1
-292 24 -298 56 -3 14 3 14 60 1 95 -22 366 -13 472 16 43 12 95 31 115 41 47
25 63 24 114 -1z m-2113 -52 c0 -2 -84 -41 -187 -87 -104 -46 -197 -90 -208
-97 -18 -13 -18 -14 10 -7 36 8 349 107 387 123 19 7 29 7 34 0 8 -13 12 -10
-73 -53 -173 -86 -390 -163 -530 -187 -40 -7 -73 -17 -73 -22 0 -28 294 42
542 129 182 63 168 60 168 33 0 -35 -59 -71 -300 -187 -22 -11 -20 -11 20 -6
58 8 166 47 254 91 55 28 71 32 78 21 22 -33 -119 -120 -295 -181 -87 -30
-100 -31 -237 -31 -132 0 -153 2 -227 27 -46 15 -95 38 -109 51 l-27 22 18 37
c25 54 116 132 200 172 106 51 197 80 363 116 81 17 149 33 151 35 5 5 41 5
41 1z m300 -26 c0 -12 -20 -25 -27 -18 -7 7 6 27 18 27 5 0 9 -4 9 -9z m1110
-115 c127 -35 229 -48 390 -50 182 -3 192 -6 268 -71 45 -39 77 -89 67 -105
-23 -37 -207 -89 -346 -97 -188 -11 -396 53 -539 166 -23 18 -24 21 -9 36 14
14 24 12 110 -29 90 -44 179 -68 179 -50 -1 5 -44 30 -98 56 -98 48 -151 82
-141 92 3 3 35 -4 72 -15 102 -30 112 -20 29 29 -67 40 -95 70 -54 58 9 -3 42
-12 72 -20z m-1090 -56 c0 -5 -5 -10 -11 -10 -5 0 -7 5 -4 10 3 6 8 10 11 10
2 0 4 -4 4 -10z m-140 -317 c-36 -69 -67 -131 -69 -137 -5 -18 84 83 140 156
33 43 56 65 65 61 8 -3 14 -7 14 -9 0 -14 -54 -130 -90 -192 -23 -41 -39 -76
-37 -78 10 -10 115 117 142 173 30 61 59 81 71 49 8 -20 -68 -209 -120 -296
-49 -84 -134 -183 -216 -255 -62 -54 -196 -123 -210 -109 -17 17 9 78 60 142
69 85 134 182 127 189 -4 3 -27 -13 -54 -36 -75 -67 -158 -118 -228 -141 -78
-26 -100 -22 -90 18 14 58 64 123 209 272 141 144 248 266 291 333 l18 28 21
-21 21 -21 -65 -126z m1256 10 c113 -47 118 -50 159 -108 85 -119 135 -250
135 -350 l0 -48 -53 6 c-133 13 -346 152 -493 319 -59 68 -140 219 -130 243
11 30 44 15 89 -40 49 -60 125 -127 170 -151 40 -21 33 -4 -19 46 -25 25 -70
80 -101 123 -52 74 -54 79 -38 97 16 17 19 16 91 -35 43 -31 122 -73 190 -102z
m-393 -18 c76 -156 209 -326 359 -459 44 -38 86 -83 94 -98 14 -28 19 -78 7
-78 -15 0 -122 66 -177 109 -118 92 -248 283 -327 479 -28 71 -31 85 -19 92
27 17 35 11 63 -45z m-1132 -24 c-29 -40 -110 -112 -174 -153 -72 -48 -130
-69 -209 -75 -80 -7 -83 -1 -44 82 22 47 104 135 125 135 6 0 -9 -28 -33 -62
-70 -103 -71 -130 -1 -57 41 42 179 139 199 139 6 0 -23 -34 -64 -75 -41 -41
-71 -75 -66 -75 18 0 145 73 206 119 75 57 89 62 61 22z m655 -20 c-14 -88
-18 -179 -9 -196 8 -13 16 11 38 104 25 107 31 121 49 121 19 0 21 -6 21 -77
0 -86 12 -173 24 -173 4 0 13 55 20 122 10 110 19 137 42 138 6 0 43 -154 55
-228 4 -27 10 -40 16 -34 9 9 6 196 -3 247 -3 16 1 20 21 20 23 0 27 -8 57
-106 50 -169 63 -246 63 -387 0 -197 -50 -363 -112 -370 -22 -3 -32 5 -59 45
-39 56 -99 197 -99 233 -1 41 -18 3 -25 -55 -16 -131 -71 -229 -124 -223 -57
7 -121 203 -121 369 0 114 16 206 60 344 41 128 56 156 76 148 12 -4 15 -15
10 -42z m1236 -37 c45 -23 98 -74 119 -115 10 -21 19 -41 19 -44 0 -21 -128
22 -156 52 -35 38 -29 44 22 22 25 -12 49 -18 52 -14 7 6 -10 23 -94 93 -33
28 -35 32 -14 26 14 -4 37 -13 52 -20z m-1501 -474 c-5 -86 -9 -99 -36 -132
-44 -56 -55 -50 -55 28 0 62 3 69 48 134 26 37 47 67 48 66 0 0 -2 -44 -5 -96z
m882 -14 c13 -13 17 -34 17 -88 0 -69 -1 -71 -19 -54 -37 34 -69 109 -76 181
l-7 70 34 -46 c18 -25 41 -53 51 -63z"/>
<path d="M1451 9645 c0 -72 14 -185 18 -160 6 33 -2 222 -10 230 -5 5 -9 -21
-8 -70z"/>
<path d="M1741 9590 c0 -91 3 -130 9 -120 11 18 11 194 0 230 -5 15 -8 -27 -9
-110z"/>
<path d="M440 9135 c0 -14 65 -61 135 -97 97 -50 94 -45 -26 38 -85 59 -109
72 -109 59z"/>
<path d="M2647 9029 c-65 -65 -115 -119 -110 -119 20 0 101 60 145 107 36 40
98 135 86 132 -2 0 -56 -54 -121 -120z"/>
<path d="M185 8520 c-8 -13 29 -27 118 -46 138 -29 140 -12 2 26 -44 12 -87
23 -97 26 -9 3 -19 0 -23 -6z"/>
<path d="M2830 8487 c-88 -28 -126 -43 -109 -45 48 -6 279 63 279 82 0 12 -38
3 -170 -37z"/>
<path d="M2545 7912 c12 -12 155 -58 205 -66 102 -15 140 -16 140 -4 0 9 -49
22 -147 41 -216 42 -209 41 -198 29z"/>
<path d="M799 7321 c-20 -14 -58 -41 -84 -59 -26 -18 -45 -36 -41 -39 8 -8
112 56 143 89 35 37 26 41 -18 9z"/>
<path d="M890 7143 c-28 -10 -81 -45 -76 -50 5 -6 96 44 96 52 0 3 -1 5 -2 4
-2 0 -10 -3 -18 -6z"/>
<path d="M2410 7454 c0 -13 78 -124 118 -166 37 -40 47 -34 21 11 -26 47 -138
171 -139 155z"/>
<path d="M1422 7303 c-4 -10 -7 -92 -7 -183 0 -132 4 -172 17 -200 16 -34 16
-32 10 85 -4 66 -7 164 -7 218 0 53 -1 97 -3 97 -1 0 -6 -8 -10 -17z"/>
<path d="M1766 7208 c-7 -49 -26 -280 -25 -303 0 -11 8 0 16 25 15 44 32 310
20 310 -3 0 -8 -15 -11 -32z"/>
<path d="M8829 9796 c-48 -26 -112 -90 -131 -132 -14 -31 -20 -30 -45 5 -32
42 -111 91 -149 91 -38 0 -78 -41 -89 -90 -4 -16 -9 -30 -11 -30 -2 0 -27 12
-55 26 -95 50 -184 42 -216 -20 -10 -18 -18 -65 -21 -114 l-5 -82 -36 7 c-20
5 -67 8 -106 8 -77 -1 -126 -20 -147 -58 -26 -48 -8 -200 38 -322 5 -12 -5
-15 -58 -15 -115 0 -200 -38 -214 -96 -9 -34 51 -153 111 -221 l45 -51 -52
-18 c-156 -50 -215 -110 -182 -180 19 -40 108 -124 171 -161 l45 -26 -34 -26
c-69 -54 -106 -93 -122 -126 -15 -31 -15 -37 -1 -64 19 -37 117 -88 201 -103
l60 -12 -43 -75 c-78 -137 -91 -214 -43 -255 40 -33 89 -46 176 -46 l71 0 7
-72 c7 -84 26 -117 77 -135 46 -17 144 -3 232 32 14 6 17 1 17 -31 0 -49 31
-101 66 -110 14 -4 42 -2 62 4 20 6 37 10 37 9 1 -1 16 -32 33 -69 53 -116 99
-140 191 -98 24 11 45 20 47 20 2 0 4 -20 4 -44 0 -25 10 -109 22 -188 32
-204 32 -546 1 -659 -54 -195 -133 -340 -280 -517 -176 -212 -418 -380 -712
-493 -96 -36 -131 -65 -131 -106 0 -34 31 -88 61 -103 51 -28 152 -2 324 80
136 66 260 148 385 257 175 151 297 307 473 603 141 237 172 297 222 425 l43
110 108 13 c90 10 122 19 190 52 107 51 171 112 293 273 54 73 122 154 150
182 55 53 61 73 33 98 -61 55 -359 63 -507 13 -153 -52 -256 -136 -314 -259
-44 -93 -56 -170 -41 -264 l12 -78 -67 -139 c-36 -76 -67 -137 -69 -135 -2 2
0 31 6 64 14 88 3 398 -21 551 -34 219 -42 332 -26 371 8 18 18 33 23 33 5 0
28 -23 52 -51 93 -110 165 -137 214 -78 30 36 52 84 62 135 5 28 10 34 23 28
9 -4 37 -12 64 -18 43 -9 49 -8 70 12 12 12 27 37 33 55 l11 32 99 -3 c69 -2
104 1 115 10 31 25 42 62 41 133 l-2 70 72 0 c89 1 159 19 189 51 42 44 13
163 -70 290 l-20 30 61 13 c78 16 182 65 208 98 43 55 10 138 -89 224 l-52 46
28 18 c48 32 120 105 133 134 23 56 -25 108 -137 147 l-51 18 56 61 c103 111
129 202 72 255 -36 33 -97 50 -208 57 -71 5 -82 8 -76 22 53 131 74 242 54
290 -23 56 -52 66 -180 66 l-115 -1 0 77 c0 72 -2 80 -29 108 -26 27 -37 31
-83 31 -29 0 -75 -9 -103 -20 -28 -11 -52 -20 -54 -20 -2 0 -7 15 -10 34 -10
53 -41 86 -82 86 -37 0 -102 -29 -123 -54 -20 -23 -25 -21 -61 32 -64 95 -139
121 -221 78z m123 -108 c44 -47 86 -137 109 -236 35 -143 16 -379 -30 -370
-13 3 -16 22 -17 133 -2 111 -6 142 -28 210 -15 44 -36 96 -47 115 -11 19 -17
26 -14 15 30 -88 37 -146 31 -270 -6 -146 -13 -185 -31 -185 -14 0 -26 94 -18
144 3 20 1 36 -6 40 -7 5 -11 -2 -11 -19 0 -41 -31 -166 -40 -160 -4 2 -11 46
-15 97 -9 103 -12 101 -23 -17 -15 -167 -47 -46 -39 150 l5 120 -21 -60 c-15
-45 -20 -89 -21 -177 0 -65 -4 -118 -8 -118 -18 0 -32 94 -32 205 0 103 4 130
25 191 45 124 126 223 182 224 11 0 32 -14 49 -32z m-367 -80 l54 -53 -19 -70
c-10 -38 -19 -65 -19 -58 -1 7 -28 41 -61 76 -33 36 -60 69 -60 75 0 19 33 82
43 82 5 0 33 -24 62 -52z m638 25 c2 -5 7 -20 10 -34 6 -23 1 -30 -43 -57 -28
-17 -50 -30 -50 -29 0 1 -4 17 -9 34 -9 31 -7 34 32 63 43 31 53 35 60 23z
m-900 -59 c67 -34 216 -183 250 -250 24 -48 57 -156 57 -185 0 -8 -18 19 -39
58 -21 40 -55 93 -75 117 -40 49 -114 111 -122 103 -3 -3 12 -29 34 -59 36
-47 135 -247 144 -290 7 -34 -14 -16 -72 60 -89 119 -100 119 -36 0 31 -60 53
-108 47 -108 -6 0 -17 10 -26 23 -93 131 -119 166 -122 164 -5 -5 57 -146 83
-187 l21 -35 -23 -18 c-24 -18 -24 -18 -70 45 -80 109 -140 252 -165 392 -11
65 -8 163 6 186 11 17 54 11 108 -16z m1178 -28 c24 -52 -39 -262 -116 -390
-64 -106 -155 -198 -155 -156 0 6 11 33 25 60 33 65 32 72 -6 27 -17 -20 -35
-37 -40 -37 -10 0 36 94 70 145 12 17 21 35 21 40 -1 12 -90 -85 -123 -132
-23 -34 -37 -42 -37 -20 1 24 71 183 103 232 65 98 69 105 60 105 -5 0 -37
-25 -70 -55 l-61 -55 -4 40 c-3 36 1 44 37 79 47 46 160 110 225 127 61 17 59
17 71 -10z m-1412 -190 c32 -10 36 -17 58 -86 12 -41 23 -76 23 -77 0 0 -31
15 -70 35 -38 19 -72 33 -75 30 -3 -3 21 -24 52 -46 108 -78 140 -114 198
-220 31 -57 55 -108 53 -114 -2 -6 -30 15 -62 46 -32 31 -60 55 -62 53 -3 -3
44 -85 73 -127 l18 -25 -33 23 c-17 13 -53 48 -79 78 -26 29 -48 52 -51 50 -6
-7 43 -79 94 -135 53 -60 44 -61 -44 -8 -120 72 -227 221 -266 372 -37 138
-15 181 84 170 30 -4 70 -12 89 -19z m1696 -10 c39 -28 -5 -191 -86 -316 -64
-99 -239 -258 -271 -248 -6 2 14 32 45 66 31 34 57 64 57 67 0 2 -30 -15 -67
-40 -50 -34 -70 -42 -79 -34 -10 8 10 39 92 140 58 71 103 129 99 129 -13 0
-102 -65 -174 -128 -40 -35 -75 -61 -78 -58 -12 12 162 208 237 267 84 65 89
89 11 50 -22 -12 -42 -21 -45 -21 -7 0 30 100 41 111 25 25 188 37 218 15z
m-870 -373 c-3 -27 -9 -60 -11 -75 -5 -23 10 -47 22 -36 2 3 10 36 17 74 12
65 14 69 37 66 38 -5 141 -46 169 -68 2 -2 -13 -25 -33 -52 -36 -49 -44 -72
-27 -72 11 0 81 80 81 92 0 14 21 9 52 -13 l30 -22 -57 -57 c-71 -72 -57 -91
20 -26 29 25 58 46 64 46 10 0 61 -61 61 -73 0 -4 -5 -7 -10 -7 -15 0 -120
-71 -120 -81 0 -16 21 -9 81 26 33 19 64 35 68 35 9 0 31 -45 31 -64 0 -7 -17
-18 -37 -24 -45 -14 -91 -48 -80 -58 4 -5 21 -3 37 4 17 7 44 18 60 24 38 16
50 2 50 -59 0 -36 -2 -41 -20 -36 -26 7 -90 -5 -90 -17 0 -6 27 -10 60 -10
l60 0 0 -55 0 -54 -62 -3 c-38 -2 -63 -8 -66 -15 -3 -10 13 -13 57 -13 58 0
61 -1 61 -25 0 -22 -27 -114 -36 -124 -2 -2 -31 11 -65 28 -33 18 -63 30 -66
27 -11 -10 17 -34 67 -55 28 -12 50 -24 50 -28 0 -12 -42 -73 -50 -73 -5 0
-12 5 -15 10 -11 18 -138 99 -147 94 -16 -10 -7 -22 40 -53 26 -17 60 -43 77
-57 l29 -27 -23 -18 c-25 -21 -41 -24 -41 -10 0 14 -49 70 -72 82 -18 10 -18
9 -8 -11 6 -12 27 -39 46 -60 l35 -38 -27 -21 c-28 -22 -134 -75 -170 -86 -19
-5 -22 0 -28 37 -19 125 -52 148 -41 29 l7 -78 -36 -7 c-20 -4 -41 -4 -46 -1
-6 3 -10 33 -10 65 0 59 -12 85 -24 53 -4 -9 -4 -41 0 -70 l6 -53 -47 0 -47 0
7 80 c5 57 4 80 -4 80 -15 0 -27 -33 -36 -97 -4 -33 -12 -53 -20 -53 -56 0
-245 87 -245 113 0 7 20 37 45 66 25 29 45 57 45 62 0 23 -32 4 -78 -46 l-50
-55 -41 46 c-23 26 -41 52 -40 58 0 6 25 31 54 56 53 43 69 70 43 70 -7 0 -38
-20 -69 -44 l-57 -44 -11 24 c-19 42 -13 53 49 84 62 31 76 50 37 50 -25 0
-97 -45 -97 -60 0 -6 -4 -10 -9 -10 -17 0 -35 104 -34 194 1 62 8 111 24 160
12 39 23 72 25 74 1 2 20 -8 43 -22 73 -46 87 -24 17 26 l-44 31 25 41 c44 70
41 70 91 26 69 -61 88 -52 26 11 -42 43 -41 55 12 95 l37 28 31 -37 c49 -58
64 -47 21 16 -24 37 -24 37 -4 48 24 13 20 16 53 -46 26 -48 27 -49 22 -15 -3
19 -9 47 -12 62 -6 25 -3 28 47 42 29 9 58 16 65 16 7 0 15 -26 20 -67 6 -42
14 -68 23 -71 12 -4 13 9 8 72 l-5 76 64 0 65 0 -6 -47z m-995 -15 c8 -13 33
-43 55 -67 27 -31 34 -42 20 -37 -26 10 -177 46 -190 46 -18 -1 37 -27 180
-85 139 -56 235 -108 235 -127 0 -5 -4 -6 -10 -3 -17 11 -223 66 -233 62 -10
-3 138 -90 196 -115 28 -12 32 -19 19 -40 -12 -18 -146 19 -233 64 -116 61
-284 250 -265 299 7 20 82 35 151 30 48 -4 63 -9 75 -27z m2078 7 c63 -19 68
-41 24 -101 -84 -116 -226 -199 -412 -240 -36 -8 -75 -17 -87 -19 -49 -11 -19
16 67 61 132 70 143 94 25 59 -131 -40 -145 -44 -139 -34 12 20 169 115 234
141 36 15 92 34 125 44 90 25 92 37 5 28 -41 -4 -85 -11 -98 -15 -42 -16 -43
-10 -5 40 l38 50 86 0 c49 1 107 -5 137 -14z m-2136 -372 c31 -16 57 -31 57
-34 1 -4 -36 -10 -81 -14 -101 -9 -84 -20 42 -29 106 -7 280 -36 280 -47 0
-10 -65 -19 -198 -26 -73 -4 -119 -10 -114 -15 15 -15 161 -37 245 -38 60 0
77 -3 77 -14 0 -16 -22 -22 -115 -31 -137 -14 -300 41 -400 136 -69 65 -63 76
60 120 67 25 81 24 147 -8z m2130 7 c35 -10 72 -25 82 -33 17 -12 15 -16 -28
-54 -88 -78 -251 -147 -370 -158 -67 -7 -146 4 -149 20 -1 6 39 16 88 22 118
17 150 31 75 34 -117 3 -122 13 -19 32 149 29 144 39 -15 32 -166 -8 -180 6
-40 41 49 12 127 36 174 53 102 36 120 37 202 11z m-4 -325 c67 -49 97 -87 88
-110 -3 -9 -32 -28 -63 -43 -52 -24 -70 -27 -163 -27 -103 0 -106 1 -190 42
-47 24 -98 54 -115 68 l-30 26 31 -15 c17 -8 78 -22 136 -30 124 -19 118 -18
118 -8 0 5 -42 21 -92 36 -51 15 -107 35 -125 44 -32 17 -32 17 70 19 67 1
126 8 172 21 39 10 77 20 86 21 9 0 44 -19 77 -44z m-1818 0 c0 -12 -69 -37
-186 -66 -109 -28 -125 -34 -105 -43 21 -9 188 2 311 20 l35 5 -25 -20 c-35
-29 -120 -60 -214 -79 -65 -13 -94 -14 -166 -5 -92 12 -150 34 -150 57 0 16
50 62 106 96 36 23 52 25 199 30 88 4 168 7 178 8 9 1 17 0 17 -3z m1372 -168
c40 -24 106 -61 146 -82 106 -55 212 -186 212 -261 0 -39 -14 -44 -127 -44
-107 0 -170 14 -268 59 -81 38 -205 139 -205 167 0 20 4 18 58 -21 86 -62 206
-105 132 -48 -58 46 -130 115 -130 126 0 6 8 3 18 -6 25 -22 225 -147 230
-142 2 2 -18 23 -45 47 -127 114 -163 152 -154 161 9 9 151 -82 276 -176 131
-99 51 1 -112 139 -113 97 -138 124 -114 124 5 0 42 -19 83 -43z m-1340 -71
c-67 -71 -124 -160 -164 -257 l-32 -79 -72 0 c-40 0 -85 5 -99 10 -24 9 -26
14 -20 43 10 44 68 154 108 200 28 33 42 40 102 53 39 8 102 30 140 48 39 19
74 35 79 35 5 1 -14 -23 -42 -53z m82 -86 c-50 -78 -90 -170 -74 -170 6 0 10
4 10 8 0 10 148 176 161 180 19 7 7 -21 -51 -117 -33 -55 -71 -124 -85 -153
l-26 -53 27 30 c15 17 68 76 118 133 50 57 92 99 94 93 2 -5 -11 -38 -29 -73
-18 -35 -47 -108 -64 -163 l-32 -100 -68 -34 c-48 -24 -83 -34 -119 -35 l-51
-1 1 90 c2 143 56 273 166 399 70 79 83 59 22 -34z m973 -108 c42 -61 78 -142
98 -217 17 -66 20 -201 5 -210 -18 -11 -131 58 -177 109 -25 28 -58 73 -74
101 -30 53 -74 173 -66 181 2 3 25 -28 50 -68 25 -40 71 -100 102 -133 l56
-60 -26 45 c-33 55 -115 228 -115 241 0 20 17 7 51 -38 20 -27 46 -65 58 -85
13 -21 26 -38 31 -38 13 0 -8 87 -35 140 -21 41 -24 55 -14 66 17 21 21 18 56
-34z m-732 -127 c-20 -69 -34 -129 -31 -132 3 -3 17 18 30 48 71 159 87 191
91 187 7 -7 -40 -190 -60 -229 l-16 -34 26 30 c21 26 57 101 94 199 12 29 41
26 41 -4 0 -39 -43 -188 -65 -226 -37 -63 -138 -144 -199 -160 -24 -6 -26 -4
-26 27 0 93 51 282 94 353 9 14 23 38 32 52 29 48 26 16 -11 -111z m307 -64
c9 -73 19 -138 22 -144 2 -7 5 52 5 130 1 78 5 144 10 147 13 9 21 -19 22 -82
1 -31 4 -68 8 -82 6 -20 9 -15 14 30 17 126 20 140 32 140 48 0 16 -307 -41
-395 -60 -92 -133 86 -119 293 10 142 26 129 47 -37z m624 53 c13 -9 53 -27
87 -39 l62 -22 14 -57 c19 -80 13 -90 -52 -82 -86 12 -97 16 -102 45 -3 14
-14 59 -24 99 -10 39 -16 72 -14 72 2 0 15 -7 29 -16z m-297 -287 c17 -15 31
-33 31 -40 0 -21 -31 -121 -40 -131 -14 -14 -72 36 -115 98 l-38 55 16 53 c9
29 19 65 23 80 6 27 7 27 49 -30 24 -31 57 -69 74 -85z m-439 28 c7 -22 23
-59 37 -83 24 -42 24 -44 6 -64 -30 -34 -95 -78 -115 -78 -20 0 -56 69 -65
125 -4 25 0 33 26 47 17 10 44 37 59 62 15 24 30 41 33 38 4 -4 12 -25 19 -47z
m1077 -359 c4 -3 -7 -21 -24 -39 -17 -17 -58 -70 -91 -117 -111 -157 -214
-237 -327 -254 -39 -6 -39 -6 20 24 33 17 52 28 42 25 -66 -18 -150 -27 -142
-15 3 5 15 10 26 10 10 0 19 4 19 9 0 6 26 18 58 27 73 22 86 34 38 34 -54 0
-36 16 45 41 79 24 93 45 24 36 -25 -4 -45 -5 -45 -2 0 2 44 25 97 52 78 38
93 49 72 51 -14 2 -57 -9 -94 -23 l-69 -26 24 27 c14 15 45 40 70 56 40 26 42
29 15 23 -37 -9 -104 -41 -128 -63 -9 -8 -30 -35 -45 -59 -15 -23 -30 -43 -34
-43 -13 0 11 62 37 96 30 39 20 45 -18 10 -28 -26 -77 -116 -77 -141 0 -8 -3
-15 -8 -15 -4 0 -6 21 -4 48 l3 47 -20 -25 c-11 -14 -32 -47 -45 -75 -29 -59
-34 -36 -7 34 50 133 181 221 372 250 68 10 205 9 216 -3z"/>
<path d="M9052 8911 c-24 -42 -26 -51 -14 -51 7 0 52 73 52 84 0 18 -19 1 -38
-33z"/>
<path d="M8783 8818 c2 -7 10 -13 17 -13 7 0 15 6 18 13 2 7 -5 12 -18 12 -13
0 -20 -5 -17 -12z"/>
<path d="M8900 8820 c0 -5 5 -10 10 -10 6 0 10 5 10 10 0 6 -4 10 -10 10 -5 0
-10 -4 -10 -10z"/>
<path d="M8667 8799 c-14 -8 -16 -14 -7 -25 16 -18 52 0 44 21 -7 18 -13 18
-37 4z"/>
<path d="M8985 8801 c-7 -12 12 -24 25 -16 11 7 4 25 -10 25 -5 0 -11 -4 -15
-9z"/>
<path d="M8790 8769 c-112 -22 -200 -93 -247 -196 -23 -49 -25 -64 -21 -146 6
-116 34 -183 105 -248 66 -62 131 -83 248 -83 78 0 98 3 147 27 132 64 208
225 178 373 -32 159 -147 261 -310 277 -30 3 -75 2 -100 -4z"/>
<path d="M8585 8730 c-15 -15 -26 -33 -23 -40 2 -6 18 5 37 23 18 19 29 37 23
41 -5 3 -21 -8 -37 -24z"/>
<path d="M8494 8636 c-3 -9 -3 -24 1 -33 6 -17 7 -17 21 2 8 10 13 24 11 29
-6 17 -27 18 -33 2z"/>
<path d="M8290 8565 c0 -22 25 -35 67 -35 31 0 43 4 43 15 0 15 -17 21 -77 28
-20 2 -33 -1 -33 -8z"/>
<path d="M8460 8530 c0 -11 7 -20 15 -20 8 0 15 9 15 20 0 11 -7 20 -15 20 -8
0 -15 -9 -15 -20z"/>
<path d="M8303 8440 c-30 -12 -29 -30 1 -30 45 0 86 13 86 26 0 16 -52 18 -87
4z"/>
<path d="M9066 8102 c-3 -6 1 -16 10 -23 8 -7 27 -32 41 -56 13 -24 29 -43 34
-43 21 0 6 46 -28 84 -41 46 -49 51 -57 38z"/>
<path d="M8651 8036 c-15 -59 -14 -76 3 -76 8 0 18 19 25 44 6 24 13 51 17 60
4 11 1 16 -14 16 -15 0 -22 -11 -31 -44z"/>
<path d="M7889 7344 c-13 -16 -34 -183 -45 -375 -18 -306 82 -579 295 -801
l73 -77 -11 -68 c-26 -150 -62 -267 -146 -470 -15 -35 -15 -45 -5 -58 19 -22
46 -18 69 11 45 57 161 410 161 490 0 20 11 29 55 50 139 66 228 235 228 434
1 166 -39 301 -126 425 -126 182 -262 312 -431 413 -76 46 -97 50 -117 26z
m156 -168 c105 -79 226 -204 284 -293 27 -43 57 -86 65 -95 9 -10 26 -48 38
-85 20 -58 23 -89 23 -203 -1 -116 -4 -143 -24 -192 -21 -54 -99 -148 -122
-148 -7 0 -8 27 -3 71 5 57 16 90 55 167 27 52 46 98 43 101 -7 7 -60 -56 -76
-91 -7 -16 -16 -28 -20 -28 -17 0 -7 111 17 190 25 85 32 154 16 164 -5 3 -12
-13 -15 -37 -4 -23 -15 -60 -25 -82 -18 -38 -19 -39 -25 -15 -3 14 -14 62 -25
106 -24 97 -118 292 -186 382 -26 34 -49 62 -51 62 -5 0 8 -31 61 -145 43 -94
127 -335 117 -335 -4 0 -43 43 -87 95 -72 87 -95 108 -95 88 0 -7 35 -64 162
-264 32 -51 62 -139 48 -139 -6 0 -10 4 -10 8 0 12 -110 132 -121 132 -12 0
-1 -21 77 -147 58 -91 64 -106 64 -154 l0 -53 -31 30 c-90 85 -173 229 -213
366 -39 136 -52 224 -36 252 8 16 10 38 5 62 -7 41 4 284 13 284 3 0 38 -24
77 -54z"/>
<path d="M6920 6318 c-155 -22 -397 -127 -563 -245 -104 -74 -347 -315 -461
-458 -102 -128 -221 -304 -281 -417 l-42 -79 -17 26 c-17 25 -16 27 7 45 58
46 59 126 2 189 l-34 38 59 97 c111 179 268 370 313 380 16 3 44 21 63 40 29
29 34 41 34 81 0 64 -39 105 -100 105 -52 0 -76 -13 -95 -50 -19 -37 -19 -71
1 -113 l16 -34 -43 -44 c-107 -107 -218 -262 -275 -384 -16 -33 -29 -61 -29
-61 0 -1 -18 -5 -40 -8 l-40 -7 -17 49 c-28 77 -148 249 -252 359 l-96 101 21
36 c60 102 -69 207 -159 131 -17 -14 -33 -39 -37 -55 -14 -62 37 -140 91 -140
45 0 275 -278 364 -442 l28 -51 -31 -40 c-27 -33 -32 -47 -31 -90 0 -42 5 -54
29 -74 27 -23 27 -26 14 -55 l-15 -30 -61 104 c-138 231 -264 396 -448 587
-318 330 -651 511 -941 511 -203 0 -326 -86 -356 -249 -24 -127 20 -266 140
-445 110 -165 104 -147 106 -335 2 -140 6 -175 23 -222 31 -85 48 -112 104
-173 95 -104 192 -146 357 -155 l114 -6 -64 -47 c-122 -90 -202 -189 -247
-308 -77 -200 -58 -407 54 -580 123 -190 323 -283 532 -246 107 19 187 62 261
141 69 74 111 152 231 433 50 116 113 256 140 309 l49 98 -1 -115 c-1 -148 26
-260 78 -320 11 -12 9 -36 -11 -135 -31 -152 -41 -289 -25 -338 23 -68 87 -95
150 -62 70 35 72 145 10 429 -20 89 -20 89 0 110 56 59 85 212 71 366 -4 47
-6 87 -4 89 5 6 133 -261 220 -459 168 -384 229 -465 399 -530 81 -31 230 -32
325 -1 71 22 169 77 213 119 43 41 123 164 146 226 26 71 44 215 35 291 -23
210 -135 378 -342 515 -21 14 -17 15 67 16 246 4 438 147 496 371 10 39 15
107 15 209 l0 152 61 83 c144 194 189 297 189 435 0 182 -81 289 -250 328 -72
17 -122 18 -220 4z m179 -159 c35 -12 51 -35 51 -72 0 -30 -18 -46 -62 -53
-73 -12 -127 40 -94 91 15 22 45 42 67 44 3 1 20 -4 38 -10z m-3219 -19 c27
-27 26 -75 -2 -94 -12 -9 -40 -16 -61 -16 -74 0 -109 76 -54 115 31 22 93 19
117 -5z m400 -107 c103 -51 228 -141 336 -242 76 -70 75 -70 -41 7 -103 69
-252 142 -384 190 -57 20 -106 42 -108 49 -2 6 6 22 17 33 29 29 58 23 180
-37z m2515 41 c9 -9 15 -25 13 -37 -2 -16 -32 -30 -153 -71 -174 -60 -309
-126 -409 -198 -60 -43 -66 -46 -41 -18 75 83 169 159 285 230 158 98 267 132
305 94z m-2787 -291 c46 -52 6 -123 -69 -123 -66 0 -100 61 -68 121 24 46 98
47 137 2z m3002 -1 c26 -32 25 -63 -1 -96 -43 -54 -139 -21 -139 48 1 77 93
109 140 48z m-316 -26 c64 -27 83 -84 46 -143 -25 -42 -56 -57 -197 -94 -347
-90 -604 -215 -793 -386 l-64 -58 24 40 c75 125 210 275 350 388 243 196 513
304 634 253z m-2297 -21 c202 -68 460 -250 629 -443 77 -88 161 -202 148 -202
-4 0 -28 19 -53 43 -170 158 -399 267 -830 393 -115 34 -161 71 -161 128 0 21
5 46 10 56 29 55 137 65 257 25z m-64 -286 c204 -41 447 -140 602 -244 39 -26
63 -44 54 -42 -122 39 -171 50 -274 67 -149 24 -345 40 -484 40 -135 0 -216
19 -253 60 -34 37 -35 51 -5 85 49 58 183 70 360 34z m2508 10 c45 -15 89 -57
89 -85 0 -31 -37 -69 -80 -84 -19 -6 -129 -16 -245 -21 -115 -4 -255 -14 -310
-20 -113 -12 -313 -52 -376 -74 -23 -9 -44 -13 -46 -11 -6 5 63 52 152 103
141 82 350 158 520 188 89 17 252 18 296 4z m-1487 -134 c-26 -35 -44 -45 -44
-25 0 14 46 60 60 60 6 0 -1 -16 -16 -35z m-1011 -130 c-102 -28 -202 -95
-219 -147 -11 -36 -99 -8 -110 36 -19 76 97 122 306 124 l75 1 -52 -14z m2344
5 c87 -10 156 -37 173 -69 24 -45 2 -83 -55 -95 -27 -6 -34 -2 -65 40 -39 52
-120 99 -204 120 l-51 12 60 1 c33 0 97 -3 142 -9z m-1835 -54 c61 -14 145
-43 195 -66 83 -39 193 -112 193 -129 0 -4 -42 -13 -92 -20 -51 -6 -176 -26
-278 -43 -229 -39 -450 -45 -537 -15 -66 23 -102 51 -120 94 -37 89 76 171
282 203 88 13 235 3 357 -24z m1616 9 c166 -39 247 -141 177 -224 -65 -76
-252 -99 -500 -62 -238 37 -425 61 -465 61 -22 0 -42 5 -46 12 -11 18 61 73
161 123 206 102 467 137 673 90z m-1498 -404 c-47 -15 -150 -55 -230 -89 -128
-53 -156 -61 -235 -67 l-90 -7 25 20 c78 61 231 113 445 151 158 28 187 25 85
-8z m1061 -1 c156 -27 250 -54 336 -97 111 -54 112 -63 6 -57 -75 5 -100 12
-168 44 -44 21 -141 59 -215 84 -74 26 -137 49 -140 52 -5 6 7 4 181 -26z
m-781 1 c0 -13 -18 -30 -52 -50 -85 -48 -154 -103 -317 -254 -220 -204 -296
-253 -361 -232 -45 14 -63 105 -35 173 53 125 318 269 660 358 110 28 105 28
105 5z m475 0 c120 -29 327 -105 445 -163 140 -69 222 -147 240 -229 23 -101
-15 -160 -93 -145 -50 9 -130 69 -293 220 -157 147 -279 243 -355 282 -27 13
-49 31 -49 39 0 19 9 19 105 -4z m-472 -94 c-4 -7 -40 -60 -80 -118 -77 -114
-156 -265 -222 -424 -73 -175 -114 -254 -153 -292 -21 -20 -40 -34 -43 -31
-18 17 155 414 246 567 58 96 174 246 220 286 34 28 44 32 32 12z m403 -12
c102 -78 286 -364 389 -604 49 -116 96 -251 87 -251 -11 0 -85 79 -104 110 -9
14 -41 86 -73 160 -108 253 -187 400 -287 533 -33 42 -56 77 -52 77 4 0 22
-11 40 -25z m-1168 -142 c-37 -38 -77 -113 -78 -145 0 -9 -19 -27 -43 -41 -24
-14 -65 -44 -92 -66 -27 -23 -53 -41 -57 -41 -14 0 -9 95 8 143 17 52 82 130
125 152 35 19 93 33 139 34 l34 1 -36 -37z m1534 -158 c106 -120 188 -242 248
-367 58 -120 80 -192 63 -209 -6 -6 -29 -13 -52 -16 -59 -8 -84 12 -99 78 -19
80 -96 270 -159 389 -47 88 -106 182 -193 304 -32 46 118 -94 192 -179z m494
170 c47 -19 110 -80 133 -128 24 -50 44 -143 35 -169 -5 -16 -13 -12 -62 28
-30 25 -73 55 -94 67 -26 15 -39 31 -44 52 -9 43 -38 95 -73 133 -17 18 -31
36 -31 39 0 9 100 -7 136 -22z m-1542 -101 c-105 -169 -242 -465 -275 -597 -9
-37 -18 -51 -38 -58 -31 -12 -85 -4 -101 16 -27 32 59 229 179 407 64 96 261
318 281 318 5 0 -16 -39 -46 -86z m-519 -231 c15 -9 8 -22 -51 -101 -61 -82
-72 -92 -101 -92 -43 0 -73 38 -73 96 0 53 30 92 114 146 l59 38 18 -39 c9
-21 25 -43 34 -48z m2090 47 c72 -49 115 -107 115 -154 0 -48 -31 -86 -71 -86
-21 0 -40 17 -97 87 l-71 87 30 33 c16 19 29 40 29 48 0 22 17 18 65 -15z
m-278 -54 c18 -9 45 -16 61 -16 32 0 35 -3 136 -144 60 -83 68 -118 40 -161
-14 -22 -60 -45 -90 -45 -7 0 -20 24 -30 53 -22 69 -86 196 -140 280 -48 73
-54 89 -26 65 9 -9 31 -23 49 -32z m-1620 -27 c-48 -76 -106 -193 -133 -269
-19 -55 -26 -65 -48 -68 -36 -5 -86 46 -86 86 0 43 19 83 86 176 58 82 60 84
105 88 26 3 60 14 75 26 16 11 30 19 32 17 2 -1 -12 -27 -31 -56z"/>
<path d="M1598 6274 c-65 -15 -132 -47 -165 -76 l-21 -20 -83 32 c-143 55
-311 52 -437 -7 -73 -34 -162 -110 -202 -172 -25 -39 -47 -59 -89 -81 -155
-79 -297 -253 -346 -424 -26 -90 -17 -240 19 -329 28 -69 28 -69 10 -104 l-19
-34 30 -25 c106 -88 142 -126 213 -226 96 -136 206 -245 325 -323 91 -59 217
-115 303 -135 27 -7 55 -13 61 -15 16 -5 -27 -89 -68 -134 -16 -18 -29 -39
-29 -48 0 -23 91 -9 162 25 l57 28 -26 -49 c-15 -26 -42 -61 -60 -77 -45 -40
-43 -60 5 -61 64 -2 92 2 148 21 49 16 54 16 54 1 0 -20 -40 -373 -73 -651
-14 -113 -28 -238 -32 -279 l-7 -73 -32 98 c-37 113 -106 264 -159 347 -30 46
-35 61 -28 81 21 54 33 222 22 310 -20 165 -64 276 -157 403 -81 110 -161 170
-332 248 -232 108 -379 182 -429 217 -108 78 -115 80 -137 46 -13 -20 -11 -48
10 -233 50 -442 98 -570 279 -750 134 -134 256 -193 586 -286 l77 -21 40 -72
c78 -135 140 -285 201 -486 18 -60 19 -80 11 -240 -5 -96 -10 -301 -10 -455
-1 -207 -4 -272 -12 -250 -49 143 -138 315 -219 426 -47 64 -49 69 -49 136 0
150 -53 266 -180 394 -92 93 -164 139 -305 194 -154 61 -345 90 -390 61 -35
-23 -32 -52 16 -143 92 -176 256 -359 397 -442 65 -39 301 -140 328 -141 21 0
96 -86 149 -171 73 -118 104 -182 168 -349 81 -210 100 -295 132 -568 15 -133
29 -168 71 -178 37 -10 101 13 120 42 15 21 15 34 5 97 -31 196 -43 371 -48
695 -4 243 -2 346 6 355 6 8 28 65 50 128 70 205 109 285 210 429 50 71 175
198 231 236 24 16 82 33 182 53 227 46 376 111 514 223 58 46 199 200 236 257
23 33 23 74 1 94 -48 42 -195 77 -329 77 -248 0 -451 -107 -563 -299 -51 -85
-72 -157 -76 -254 l-3 -77 -58 -44 c-131 -97 -257 -256 -340 -430 -24 -50 -44
-82 -44 -71 0 11 11 106 25 210 55 423 135 1112 135 1162 0 2 19 -9 43 -25 68
-47 140 -65 164 -41 7 7 6 22 -3 49 -13 38 -45 251 -39 258 2 2 24 -4 50 -12
171 -59 393 -35 602 64 114 54 208 113 217 136 20 52 -104 119 -275 148 l-69
11 61 45 c184 134 289 317 289 504 0 198 -102 358 -285 448 l-61 30 -17 79
c-10 44 -39 121 -64 172 -123 247 -387 374 -645 311z m228 -108 c130 -34 253
-135 314 -257 62 -123 88 -325 56 -433 -39 -129 -163 -222 -453 -341 -57 -23
-100 -45 -97 -48 3 -3 29 -3 57 0 47 6 50 5 42 -13 -4 -10 -16 -55 -27 -99
-10 -44 -23 -84 -28 -89 -5 -5 -20 13 -35 40 l-26 49 6 -75 c8 -101 -7 -84
-56 66 -21 64 -42 121 -47 126 -17 17 -23 -62 -13 -162 6 -52 8 -96 6 -98 -22
-22 -160 106 -227 209 -17 27 -33 48 -34 46 -7 -7 30 -126 52 -171 17 -34 20
-47 10 -43 -8 3 -33 11 -55 17 -31 8 -54 26 -98 77 -32 36 -68 77 -80 89 -23
25 -22 28 20 38 33 8 36 26 3 26 -13 0 -55 10 -92 21 -208 64 -312 168 -351
352 -42 201 56 471 209 575 82 56 218 91 283 74 l30 -9 -35 -11 c-59 -20 -119
-80 -139 -139 -14 -40 -28 -60 -59 -82 -40 -30 -85 -88 -112 -146 l-14 -30
-11 60 c-11 55 -13 58 -20 31 -4 -16 -5 -79 -2 -140 6 -120 36 -233 84 -314
13 -24 23 -46 20 -48 -8 -8 -85 83 -107 125 -11 23 -27 70 -34 104 l-13 62 -7
-41 c-10 -54 9 -156 39 -220 29 -60 84 -103 182 -141 63 -25 82 -27 253 -31
175 -3 193 -2 345 28 294 57 396 96 495 189 52 49 104 145 98 182 -3 19 -6 17
-28 -16 -26 -40 -137 -142 -145 -134 -2 3 13 46 34 95 44 102 61 177 53 244
l-5 45 -32 -89 -32 -88 -12 93 c-21 162 -29 204 -44 239 l-15 35 -1 -57 c-1
-32 -4 -58 -9 -58 -4 0 -16 16 -26 35 -45 84 -176 187 -274 216 -36 11 -40 14
-25 22 49 28 152 34 229 13z m-280 -106 c221 -76 345 -297 313 -554 -15 -116
-28 -141 -80 -154 -24 -6 -45 -9 -47 -8 -2 2 6 31 18 65 93 278 -56 555 -329
612 -57 12 -201 8 -235 -6 -31 -14 -9 13 27 32 88 46 222 51 333 13z m-200
-129 c-3 -5 -22 -12 -43 -16 -94 -17 -207 -104 -258 -197 -25 -45 -29 -64 -29
-128 0 -41 5 -85 12 -97 16 -29 11 -29 -38 2 -49 31 -60 51 -60 113 0 135 97
260 239 309 65 22 188 32 177 14z m137 -77 c48 -24 77 -55 77 -81 l0 -23 -37
24 c-99 65 -207 53 -293 -33 -65 -65 -84 -136 -60 -220 12 -44 4 -53 -19 -22
-31 41 -42 112 -27 170 20 79 94 160 168 188 49 17 153 16 191 -3z m-907 -101
c-56 -163 -14 -389 101 -546 28 -38 32 -47 16 -38 -39 21 -154 156 -183 216
l-30 60 7 -50 c8 -67 27 -118 61 -169 l28 -42 -85 2 -86 2 -22 53 c-60 147
-31 296 87 450 42 53 112 120 119 114 2 -2 -4 -26 -13 -52z m884 -38 c27 -14
50 -58 37 -72 -3 -3 -20 5 -36 17 -48 33 -90 36 -131 8 -66 -45 -49 -98 31
-98 26 0 50 -4 53 -9 9 -14 -42 -43 -85 -48 -45 -6 -66 7 -86 55 -20 48 -2 95
49 133 47 34 119 40 168 14z m200 -126 c0 -97 -31 -163 -102 -220 -77 -60
-162 -82 -301 -77 -96 3 -119 8 -162 30 -27 14 -58 35 -68 46 -18 20 -18 20
24 6 70 -25 186 -29 270 -10 161 36 264 130 310 284 17 59 29 36 29 -59z m742
-47 c44 -29 74 -67 114 -142 27 -51 29 -63 29 -161 0 -102 -1 -108 -38 -182
-69 -139 -251 -304 -437 -397 l-65 -32 106 109 c106 108 194 212 185 220 -2 2
-63 -42 -134 -99 -159 -126 -222 -172 -222 -161 0 14 97 132 174 212 65 68 68
72 31 51 -84 -49 -177 -124 -259 -210 -47 -50 -87 -90 -91 -90 -16 0 0 42 36
89 22 29 38 55 36 58 -3 2 -31 -19 -63 -47 -58 -51 -76 -57 -82 -27 -6 33 100
127 277 245 205 137 301 225 349 321 39 79 42 106 5 60 -15 -19 -52 -56 -82
-84 l-54 -50 36 71 c40 80 67 173 67 231 0 60 10 62 82 15z m-359 -392 c-3
-16 -22 -37 -54 -58 l-49 -32 0 32 c0 30 6 36 53 58 28 14 53 25 54 25 1 0 -1
-11 -4 -25z m-182 -97 c-10 -35 -31 -59 -78 -87 -10 -5 -13 8 -13 57 l0 65 48
9 c26 5 48 5 50 2 2 -4 -2 -25 -7 -46z m-840 33 c19 -4 28 -14 32 -33 4 -16
10 -39 13 -52 l7 -24 -32 19 c-27 16 -81 82 -81 99 0 4 8 4 18 2 9 -3 29 -8
43 -11z m-377 -53 c45 -13 180 -74 301 -133 206 -102 294 -136 560 -219 122
-39 177 -70 215 -123 49 -68 40 -84 -61 -107 -37 -9 -38 -8 -61 38 -15 29 -36
52 -57 63 -52 26 -63 14 -35 -35 13 -23 24 -52 24 -64 0 -22 -4 -23 -72 -23
-95 0 -149 26 -246 115 -40 37 -75 65 -77 63 -9 -8 18 -72 47 -115 33 -49 29
-51 -45 -23 -63 24 -147 102 -248 233 -38 49 -69 83 -69 75 0 -21 64 -162 90
-199 27 -36 21 -34 -65 26 -81 57 -148 131 -225 245 -35 52 -91 124 -124 159
l-61 64 64 -7 c35 -4 101 -19 145 -33z m-342 -464 c56 -28 141 -68 189 -89 48
-21 112 -54 142 -74 30 -20 63 -36 74 -36 12 0 42 -18 68 -39 149 -123 245
-322 245 -506 0 -152 -30 -129 -56 44 -8 52 -20 115 -27 140 l-12 46 -5 -100
-5 -100 -47 71 c-46 68 -48 74 -67 208 -11 77 -23 141 -26 144 -3 3 -5 -45 -5
-106 0 -62 -3 -112 -7 -111 -5 0 -30 27 -58 60 -91 110 -348 350 -360 337 -2
-2 56 -77 130 -166 74 -90 135 -165 135 -167 0 -2 -15 2 -32 9 -18 8 -67 19
-108 25 -41 6 -87 14 -102 16 -62 10 -21 -14 110 -64 75 -30 158 -66 183 -82
53 -33 125 -116 93 -107 -10 3 -62 19 -114 36 -52 16 -111 33 -130 36 -34 7
-34 6 -15 -10 11 -9 90 -50 175 -91 141 -68 200 -104 200 -124 0 -4 -17 -3
-37 2 -21 5 -60 8 -88 8 l-50 -1 60 -28 c33 -16 90 -43 128 -61 68 -32 89 -55
40 -43 -71 17 -216 69 -290 105 -164 78 -289 214 -363 392 -20 48 -22 60 -11
67 12 7 9 21 -13 80 -36 98 -72 330 -51 330 3 0 51 -23 107 -51z m2084 10 c43
-6 92 -16 109 -24 l30 -13 -50 -22 c-136 -60 -196 -74 -310 -75 -88 0 -118 4
-147 19 -40 20 -49 36 -20 36 22 0 157 64 166 79 9 14 122 14 222 0z m352
-800 l33 -14 -56 -67 c-139 -169 -321 -273 -545 -312 l-35 -6 37 25 c20 14 58
33 84 43 59 24 47 32 -31 21 -33 -4 -61 -7 -62 -5 -2 1 10 14 25 29 26 25 153
67 202 67 11 0 20 5 20 10 0 6 -17 10 -38 10 -21 0 -42 3 -45 6 -18 19 122 90
253 128 l85 25 -61 0 c-98 1 -249 -52 -323 -114 -38 -33 -41 -21 -4 17 17 18
22 28 13 28 -8 0 -40 -28 -72 -62 -62 -67 -74 -70 -33 -11 13 20 22 39 20 42
-9 9 -68 -54 -106 -114 -43 -66 -53 -51 -15 23 26 51 111 140 165 173 47 29
128 59 181 69 66 13 269 5 308 -11z m-2333 -711 c146 -47 228 -93 316 -176 61
-57 87 -90 113 -145 19 -40 37 -85 40 -102 l6 -30 -25 30 c-14 17 -39 60 -57
98 -17 37 -38 73 -46 80 -13 10 -15 9 -9 -6 27 -71 22 -73 -39 -14 -32 32 -89
78 -126 103 -68 46 -178 99 -177 86 0 -4 34 -31 75 -61 86 -63 194 -158 194
-172 0 -5 -12 -9 -27 -10 -25 0 -24 -2 16 -20 45 -20 125 -78 118 -86 -9 -8
-183 68 -236 103 -76 51 -178 158 -250 263 -34 49 -61 92 -61 95 0 11 84 -6
175 -36z"/>
<path d="M9495 5741 c-38 -17 -95 -72 -95 -91 0 -5 -19 2 -42 15 -111 64 -254
3 -287 -121 l-11 -40 -63 0 c-48 0 -72 -6 -100 -23 -81 -50 -125 -133 -112
-212 15 -89 113 -245 262 -415 56 -65 61 -74 39 -74 -8 0 -28 -16 -46 -36 -27
-31 -31 -43 -28 -78 3 -22 8 -49 12 -58 14 -31 -40 -23 -66 10 -13 15 -54 59
-93 98 -135 136 -300 187 -491 153 -75 -13 -242 -94 -316 -153 -131 -105 -265
-296 -339 -484 -56 -145 -54 -191 11 -177 92 19 169 17 315 -11 278 -53 465
-37 640 54 98 51 210 164 258 261 20 40 37 82 37 93 0 18 5 19 68 13 37 -4 69
-9 72 -12 2 -2 3 -21 1 -43 -1 -21 4 -51 13 -68 18 -36 81 -92 103 -92 11 0
14 -6 9 -22 -24 -81 -18 -153 15 -208 20 -32 22 -33 35 -15 8 10 14 33 14 49
0 17 12 56 26 86 l26 55 14 -52 c20 -76 47 -124 93 -166 37 -34 81 -49 81 -29
0 5 -14 34 -31 66 -35 65 -42 131 -19 186 l13 32 19 -35 c23 -45 76 -86 121
-94 31 -5 36 -10 46 -47 46 -187 81 -515 80 -756 -1 -134 -14 -304 -18 -229
-2 37 -35 131 -66 182 -37 64 -125 143 -196 177 -113 53 -269 63 -414 25 -90
-24 -220 -92 -281 -148 -64 -59 -68 -83 -14 -109 19 -9 73 -34 120 -56 47 -22
136 -77 199 -121 121 -86 196 -126 276 -147 75 -21 201 -27 285 -16 41 6 77 9
79 6 14 -14 -64 -452 -115 -644 -44 -165 -104 -350 -163 -500 l-56 -145 -7 95
c-8 92 -7 97 21 150 71 136 69 316 -7 465 -53 105 -235 255 -310 255 -51 0
-57 -25 -37 -163 29 -211 83 -355 201 -533 l54 -80 0 -113 c0 -266 -57 -447
-297 -946 -75 -154 -137 -291 -140 -305 -6 -35 39 -80 79 -80 48 0 79 43 173
237 l89 181 55 7 c302 37 513 166 718 439 101 134 109 151 88 182 -14 22 -22
24 -88 24 -221 -1 -411 -70 -554 -204 l-63 -58 51 108 c72 155 140 318 199
479 28 76 55 144 60 150 6 7 47 32 92 56 60 31 106 66 165 125 96 96 149 194
188 349 37 146 32 195 -20 195 -41 0 -235 -185 -302 -287 -22 -34 -24 -25 -8
37 23 83 62 326 82 500 12 108 17 235 17 420 0 293 -17 476 -60 665 -52 229
-50 209 -26 240 12 15 24 42 28 61 8 41 14 42 41 7 43 -59 55 -94 51 -152 -4
-65 11 -74 45 -29 27 36 33 127 14 190 -14 45 -14 47 3 38 10 -5 45 -39 78
-76 69 -75 88 -76 77 -6 -8 56 -33 107 -72 149 l-29 31 37 40 c65 69 71 165
14 210 l-23 19 34 67 c40 81 44 131 12 187 -22 39 -69 69 -107 69 -12 0 -21 1
-21 3 0 1 14 56 30 122 40 157 60 282 60 376 0 63 -5 85 -27 130 -58 113 -194
150 -293 79 l-27 -19 -22 29 c-48 66 -154 89 -236 51z m177 -122 c47 -56 53
-94 53 -336 0 -195 -4 -248 -19 -232 -2 2 -11 65 -20 139 -14 113 -62 318 -72
307 -2 -2 3 -52 11 -113 8 -60 15 -160 15 -222 l0 -113 -26 3 c-25 3 -28 9
-50 107 -13 57 -41 161 -64 231 -51 164 -51 181 0 232 39 39 42 40 92 36 44
-5 57 -11 80 -39z m264 -14 c53 -22 68 -67 61 -190 -6 -111 -22 -195 -69 -362
l-31 -111 -26 30 c-25 31 -25 32 -27 232 -2 111 -7 215 -12 231 -8 24 -10 12
-11 -64 -1 -114 -20 -323 -30 -334 -4 -4 -11 105 -14 243 -7 283 -5 293 58
321 49 23 56 23 101 4z m-586 -33 c35 -26 69 -91 97 -186 32 -110 63 -260 62
-305 l0 -36 -24 50 -23 50 -1 -64 c-1 -36 -5 -61 -9 -55 -5 5 -19 44 -31 87
-31 109 -104 295 -109 275 -2 -9 17 -97 43 -194 45 -175 48 -204 23 -204 -13
0 -147 245 -200 364 -35 78 -37 151 -6 191 43 55 123 67 178 27z m-280 -177
c16 -8 40 -34 54 -58 24 -40 156 -340 170 -385 14 -42 -11 -22 -49 41 -78 126
-187 288 -192 284 -5 -6 58 -134 139 -280 l60 -108 -18 -35 -19 -36 -59 63
c-116 123 -243 310 -267 391 -27 96 85 173 181 123z m537 -464 c-19 -21 -37
-44 -39 -52 -4 -11 -11 -9 -30 8 -13 13 -38 26 -56 29 -47 9 -39 21 21 33 88
18 91 19 116 20 22 1 22 0 -12 -38z m206 -32 c40 -31 50 -82 33 -170 -18 -94
-49 -176 -81 -214 -21 -25 -24 -27 -25 -11 0 20 0 20 -16 0 -14 -17 -15 -17
-10 -1 5 15 2 17 -14 12 -15 -5 -20 -2 -20 11 0 16 -1 16 -14 -1 -13 -17 -15
-14 -27 40 -7 33 -13 101 -13 150 -1 75 3 97 22 132 37 70 113 94 165 52z
m245 -63 c7 -56 -47 -164 -104 -208 l-29 -23 18 28 c31 47 8 45 -34 -3 -42
-49 -47 -48 -25 4 7 18 17 53 21 77 17 103 65 163 125 157 19 -2 26 -10 28
-32z m-599 -1 c66 -34 113 -133 127 -270 6 -55 4 -65 -9 -65 -9 0 -18 4 -21 9
-6 9 -46 3 -46 -7 0 -3 8 -14 18 -25 17 -20 16 -20 -13 -13 -56 13 -194 170
-214 242 -28 101 66 177 158 129z m-793 -95 c60 -29 194 -139 194 -159 0 -3
-48 -7 -108 -9 l-107 -3 -84 55 c-85 56 -157 89 -225 101 -48 9 -36 20 39 40
97 24 207 15 291 -25z m528 -54 c29 -12 52 -37 140 -155 12 -16 10 -15 -56 26
-21 13 -38 21 -38 18 0 -3 17 -24 37 -46 l38 -42 -61 31 c-76 38 -115 70 -139
115 -16 30 -17 38 -6 51 16 20 42 20 85 2z m-831 -17 c64 -21 218 -110 201
-116 -5 -2 -53 -14 -105 -26 -83 -20 -98 -22 -117 -9 -43 29 -164 62 -225 62
-71 0 -70 2 28 69 71 49 119 53 218 20z m1687 -150 c0 -43 -62 -105 -115 -115
-41 -7 -111 5 -108 20 1 5 27 19 57 31 31 12 79 39 108 58 29 20 54 36 56 37
1 0 2 -14 2 -31z m-1805 -18 l49 -22 -75 -32 c-81 -36 -217 -108 -316 -169
-35 -21 -63 -35 -63 -32 0 3 16 29 35 58 38 58 88 102 155 136 52 27 39 37
-25 21 -83 -21 -84 -8 -2 40 47 27 58 30 122 26 43 -2 89 -12 120 -26z m638
-7 c9 -10 -36 -93 -83 -152 -75 -93 -217 -178 -329 -197 l-44 -7 52 62 c28 34
61 80 72 103 l21 41 -52 -47 c-62 -56 -210 -160 -210 -148 0 5 32 46 71 92 39
46 87 116 106 155 l34 71 102 12 c94 11 140 15 223 19 17 1 33 -1 37 -4z
m-431 -87 c-48 -69 -138 -145 -221 -186 -147 -74 -155 -66 -29 31 44 35 90 71
102 81 l21 18 -25 -7 c-14 -4 -90 -38 -170 -76 -134 -63 -142 -66 -115 -37 73
77 236 165 377 204 46 12 85 21 86 19 2 -1 -10 -22 -26 -47z m947 -37 l76 0
-27 -26 c-50 -51 -164 -43 -208 14 -28 35 -17 42 37 26 25 -8 80 -14 122 -14z
m329 14 c29 -8 28 -29 -3 -59 -40 -41 -155 -30 -155 15 0 37 91 62 158 44z
m-315 -1034 c79 -30 146 -78 178 -128 28 -45 65 -140 57 -148 -3 -2 -26 28
-53 66 -26 39 -56 75 -66 80 -16 9 -15 4 6 -42 13 -29 23 -54 21 -56 -2 -1
-32 27 -67 64 -35 36 -82 76 -104 89 -37 22 -115 48 -115 40 0 -3 24 -20 53
-38 59 -39 135 -115 102 -103 -104 39 -199 66 -226 66 -29 0 -12 -11 101 -67
l135 -67 -75 -13 c-41 -6 -76 -12 -77 -12 -2 -1 -3 -5 -3 -11 0 -6 26 -10 58
-10 73 0 202 -32 251 -62 l36 -23 -45 -7 c-55 -8 -154 6 -220 31 -26 10 -115
63 -197 117 -81 55 -167 108 -190 118 -24 11 -43 23 -43 27 0 23 127 83 224
105 77 17 187 11 259 -16z m-123 -1054 c52 -71 76 -121 90 -193 12 -61 7 -168
-9 -177 -4 -3 -17 36 -30 87 -12 51 -29 106 -36 122 -14 30 -14 29 -10 -20 l4
-50 -19 55 c-10 30 -19 64 -20 75 0 11 -5 27 -11 35 -11 15 -7 -41 6 -107 5
-24 3 -23 -15 9 -19 36 -70 224 -70 261 0 16 6 14 41 -14 22 -17 58 -55 79
-83z m739 57 c-28 -84 -89 -180 -150 -240 -53 -52 -129 -109 -129 -98 0 28
276 395 296 395 2 0 -6 -26 -17 -57z m-125 -1134 c-94 -118 -212 -218 -329
-276 -87 -44 -255 -93 -255 -75 0 2 25 35 55 73 66 82 136 120 268 145 96 19
106 39 17 35 -27 -1 -50 0 -50 3 0 8 56 36 135 67 97 38 44 38 -70 0 -47 -16
-85 -26 -85 -24 0 2 38 22 84 44 90 42 177 67 239 68 l38 1 -47 -61z"/>
<path d="M10150 5433 c-6 -32 -19 -97 -29 -145 -10 -49 -14 -88 -9 -88 18 0
52 125 63 228 8 79 -10 83 -25 5z"/>
<path d="M8746 5138 c23 -45 97 -149 123 -172 28 -26 38 -13 16 21 -85 133
-185 242 -139 151z"/>
<path d="M7137 3676 c-67 -24 -107 -79 -107 -143 1 -120 142 -193 240 -123 30
22 32 22 46 4 57 -73 173 -373 147 -381 -39 -13 -108 -70 -133 -110 -58 -91
-63 -175 -16 -259 l24 -43 -56 -31 c-30 -16 -56 -29 -57 -27 -1 1 -13 34 -25
72 -62 189 -132 243 -235 180 -99 -60 -89 -58 -116 -17 -19 30 -31 38 -61 40
-28 2 -40 -2 -52 -20 -21 -30 -20 -56 4 -95 25 -41 73 -66 127 -66 33 0 55 8
98 37 79 55 95 48 130 -56 15 -46 34 -95 41 -109 13 -25 11 -28 -52 -79 -35
-29 -91 -81 -123 -116 l-59 -65 -34 21 c-47 28 -95 26 -150 -9 -25 -16 -49
-34 -52 -40 -13 -21 -45 -11 -62 19 -39 64 -117 63 -129 -3 -16 -86 83 -162
178 -136 21 5 55 26 76 45 39 34 92 46 106 24 4 -6 -16 -50 -44 -99 -28 -48
-60 -109 -72 -136 -19 -44 -23 -47 -51 -41 -44 9 -90 -15 -138 -73 l-43 -51
-29 35 c-34 41 -83 48 -112 16 -55 -61 16 -161 114 -161 56 0 101 26 135 80
18 29 32 40 50 40 l24 0 -24 -71 c-33 -96 -55 -216 -55 -298 l0 -66 -59 -26
c-71 -32 -91 -60 -98 -138 -5 -54 -8 -60 -32 -66 -36 -9 -71 -44 -71 -72 0
-67 109 -99 166 -49 26 22 28 29 32 117 4 97 14 119 52 119 12 0 20 -17 29
-68 29 -157 122 -349 233 -483 112 -134 315 -265 468 -303 101 -25 280 -31
375 -13 201 38 368 130 513 281 90 93 128 148 191 274 37 74 44 82 70 82 l28
0 -5 -94 c-4 -91 -4 -95 21 -120 53 -53 167 -21 167 46 0 38 -27 68 -62 68
l-30 0 7 58 c6 50 3 61 -17 92 -16 24 -37 39 -67 49 -41 13 -43 15 -36 45 18
85 24 211 15 303 -5 54 -10 101 -10 106 0 4 12 7 28 6 21 0 34 -10 57 -47 58
-89 133 -114 221 -72 45 22 70 64 59 99 -18 59 -79 69 -128 20 l-31 -31 -61
66 c-60 64 -63 66 -112 66 l-50 0 -13 58 c-10 47 -56 189 -85 265 -6 14 -1 17
27 17 29 0 39 -7 70 -48 20 -27 53 -57 73 -66 108 -52 262 77 185 154 -32 32
-68 26 -109 -20 l-35 -40 -63 62 c-57 57 -67 62 -106 63 -23 0 -54 -3 -69 -8
-24 -6 -29 -2 -63 54 -21 33 -64 96 -96 140 l-59 79 56 83 c64 93 84 117 95
117 5 0 31 -20 58 -44 68 -60 109 -73 167 -51 52 20 94 66 94 104 0 32 -37 71
-67 71 -20 0 -73 -44 -73 -61 0 -22 -39 -5 -75 31 -63 65 -126 71 -183 17 -12
-12 -45 -56 -72 -98 -28 -43 -54 -80 -59 -83 -7 -5 -101 60 -101 70 0 2 13 22
29 46 15 24 33 58 40 77 29 87 -2 201 -75 276 -24 25 -44 51 -44 57 0 36 133
243 233 363 l25 30 33 -25 c24 -17 51 -25 89 -28 49 -4 60 -1 88 23 65 55 80
129 39 199 -58 103 -202 101 -254 -4 -13 -24 -23 -59 -23 -76 0 -26 -12 -44
-60 -92 -67 -67 -166 -214 -206 -307 l-27 -62 -51 20 c-53 20 -188 28 -233 13
-19 -6 -23 -4 -23 14 0 76 -86 285 -153 373 -29 36 -37 56 -37 87 0 62 -33
118 -83 141 -50 22 -69 23 -120 5z m78 -46 c4 -6 -6 -10 -22 -10 -29 0 -68
-22 -90 -50 -7 -8 -13 -11 -13 -7 0 15 30 65 42 70 23 9 77 7 83 -3z m1079
-49 c3 -5 -9 -11 -27 -15 -18 -3 -44 -20 -60 -39 -26 -30 -28 -30 -21 -7 3 14
11 31 17 39 21 25 80 40 91 22z m-791 -647 c3 -3 -10 -20 -29 -36 -43 -38 -54
-59 -69 -123 l-12 -50 -12 38 c-16 48 -1 99 42 145 28 29 64 41 80 26z m-362
-733 c57 -27 146 -62 197 -77 72 -22 91 -31 88 -43 -3 -9 -17 -79 -31 -156
-15 -77 -28 -145 -30 -152 -8 -25 -277 56 -420 129 -44 22 -84 43 -88 48 -10
9 29 89 90 185 38 59 81 115 88 115 2 0 49 -22 106 -49z m1077 -193 c55 -113
87 -201 79 -222 -7 -19 -160 -54 -294 -67 -95 -10 -388 -8 -397 2 -2 2 5 78
15 169 10 91 19 168 19 171 0 4 87 9 193 12 119 3 213 11 247 20 87 23 83 26
138 -85z m-1383 -515 c91 -46 243 -100 356 -128 56 -13 104 -26 106 -29 2 -2
-3 -65 -13 -140 -21 -158 -10 -150 -150 -116 -161 38 -408 147 -418 184 -8 28
-8 226 0 265 l6 31 27 -19 c14 -10 53 -32 86 -48z m1515 -278 c-17 -94 -40
-154 -61 -166 -38 -20 -195 -48 -330 -59 -103 -9 -174 -9 -285 0 -82 6 -150
12 -151 14 -3 2 27 290 31 293 1 1 47 -3 101 -8 183 -20 473 0 652 44 l48 12
3 -35 c2 -19 -2 -62 -8 -95z m-1348 -454 c36 -17 107 -41 159 -54 l94 -24 7
-40 c3 -22 13 -57 22 -77 15 -37 15 -37 -7 -30 -42 13 -122 57 -182 99 -55 40
-177 155 -164 155 4 0 35 -13 71 -29z m668 -138 c79 -3 170 -1 219 6 46 6 86
9 89 7 9 -9 -206 -105 -270 -120 -37 -9 -103 -16 -146 -16 l-80 0 5 48 c7 81
12 95 31 87 9 -4 78 -9 152 -12z"/>
<path d="M2837 3239 c-25 -15 -47 -70 -40 -100 3 -13 30 -48 59 -77 39 -38 67
-80 103 -155 64 -131 68 -144 41 -152 -11 -4 -36 -22 -54 -41 l-33 -34 -44 72
c-109 185 -262 268 -439 238 -234 -39 -421 -247 -530 -586 -17 -54 -47 -126
-66 -160 -83 -149 -123 -321 -104 -452 33 -233 171 -404 370 -458 36 -10 66
-18 67 -19 2 -1 -6 -25 -17 -54 -29 -76 -36 -182 -16 -258 44 -174 160 -296
321 -338 189 -49 365 25 502 210 l22 30 1 -40 c0 -62 37 -261 60 -331 25 -75
46 -97 66 -70 18 25 51 171 64 286 6 52 13 111 16 130 l6 35 30 -60 c18 -34
59 -88 97 -126 84 -84 137 -104 266 -104 295 2 545 253 522 527 l-6 68 57 -6
c169 -17 352 87 429 244 25 51 28 67 28 162 0 100 -2 109 -34 175 -28 56 -57
92 -147 180 -62 61 -117 120 -123 132 -7 14 -10 89 -9 205 1 156 -2 196 -20
270 -93 380 -407 570 -709 429 -103 -49 -212 -169 -267 -296 l-17 -40 -52 50
c-29 27 -51 57 -49 65 9 44 106 223 145 266 52 58 63 91 43 137 -24 59 -93 72
-147 28 -32 -26 -33 -90 -1 -124 12 -13 22 -26 22 -30 0 -4 -15 -30 -33 -59
-28 -44 -68 -137 -91 -210 -6 -21 -45 -24 -50 -5 -21 71 -56 150 -93 207 l-45
70 21 26 c12 15 21 41 21 61 0 68 -84 116 -143 82z m70 -75 c8 -21 -13 -42
-28 -27 -13 13 -5 43 11 43 6 0 13 -7 17 -16z m411 -7 c4 -21 -25 -34 -40 -19
-8 8 -8 16 2 27 16 19 34 15 38 -8z m597 -256 c120 -59 227 -210 260 -366 16
-78 19 -135 7 -135 -11 0 -25 29 -57 124 -40 118 -95 196 -138 196 -10 0 -17
-3 -15 -7 2 -5 24 -51 50 -103 26 -52 50 -111 53 -131 l7 -36 -50 -5 c-132
-13 -223 -128 -209 -264 6 -62 26 -102 73 -149 72 -72 181 -89 276 -42 l52 26
76 -81 c108 -116 125 -147 125 -233 -1 -112 -61 -202 -173 -257 -60 -30 -75
-33 -157 -33 -124 0 -195 29 -300 121 -29 25 -29 26 -5 19 117 -32 149 -37
215 -31 68 6 185 49 171 63 -3 4 -48 6 -99 5 -193 -5 -296 46 -617 308 -41 34
-105 76 -143 93 l-67 32 6 45 c12 91 74 389 95 456 105 341 335 498 564 385z
m-1330 -38 c78 -27 160 -115 222 -238 28 -55 58 -122 67 -150 35 -108 116
-514 116 -581 0 -30 -3 -32 -44 -38 -93 -14 -213 -85 -426 -251 -174 -135
-215 -154 -335 -156 -118 -2 -224 68 -282 186 -78 157 -76 295 7 479 33 72 47
84 30 25 -24 -81 35 -193 123 -235 96 -44 174 -27 258 56 45 45 58 65 69 108
28 121 -34 257 -145 315 -46 24 -155 29 -193 8 -13 -7 -26 -10 -29 -7 -11 11
79 206 127 274 74 106 172 186 260 213 44 13 124 10 175 -8z m525 -138 c0 -2
-20 -13 -44 -24 -24 -10 -54 -29 -66 -41 -24 -24 -40 -19 -24 8 18 28 75 62
105 62 16 0 29 -2 29 -5z m78 -306 c42 -15 51 -40 12 -34 -17 3 -42 7 -57 9
-29 4 -106 -6 -134 -18 -11 -5 -19 -1 -23 9 -13 36 128 60 202 34z m126 -531
c77 -65 196 -188 289 -298 39 -47 111 -131 158 -187 101 -118 135 -172 145
-229 19 -121 -93 -236 -258 -264 -217 -38 -397 115 -443 376 -20 116 -19 214
5 429 22 194 27 225 37 225 4 0 34 -23 67 -52z m-310 -105 c15 -109 19 -351 7
-414 -58 -300 -251 -471 -484 -429 -107 20 -167 64 -208 155 -33 71 -19 148
39 215 30 36 506 438 587 498 43 31 52 28 59 -25z"/>
<path d="M3590 2608 c-68 -46 -90 -136 -47 -199 65 -96 168 -105 240 -19 52
61 45 139 -18 200 -28 27 -44 34 -87 38 -44 3 -59 0 -88 -20z"/>
<path d="M3466 2264 c-36 -35 -7 -104 42 -104 28 0 62 34 62 60 0 48 -71 78
-104 44z"/>
<path d="M3512 2040 c-12 -5 -27 -21 -34 -35 -24 -54 58 -110 103 -69 28 25
24 68 -7 93 -30 23 -30 23 -62 11z"/>
<path d="M3731 2006 c-19 -22 -9 -59 18 -73 44 -21 79 14 57 58 -14 28 -57 37
-75 15z"/>
<path d="M3841 1824 c-29 -37 -26 -70 8 -105 57 -57 141 -29 141 46 0 50 -36
85 -89 85 -31 0 -44 -6 -60 -26z"/>
<path d="M3677 1822 c-22 -24 -21 -39 2 -52 30 -15 49 -12 61 11 9 16 8 25 -6
40 -21 24 -36 24 -57 1z"/>
<path d="M4286 1803 c11 -36 11 -136 0 -190 -7 -35 -6 -43 7 -43 20 0 44 38
58 95 18 70 -16 165 -59 165 -11 0 -12 -6 -6 -27z"/>
<path d="M2390 2793 c-76 -37 -177 -141 -223 -229 -38 -75 -44 -98 -27 -109
17 -10 38 12 72 79 45 84 140 179 220 216 34 16 69 30 76 30 8 0 12 8 10 18
-5 28 -65 25 -128 -5z"/>
<path d="M2535 2556 c-40 -17 -90 -75 -105 -121 -38 -115 54 -259 174 -272
166 -19 270 161 181 313 -48 82 -162 118 -250 80z"/>
<path d="M2588 2029 c-27 -16 -23 -65 7 -85 23 -15 27 -15 50 0 32 21 33 59 3
80 -26 18 -36 19 -60 5z"/>
<path d="M2354 1876 c-15 -40 21 -80 54 -60 37 24 21 74 -25 74 -13 0 -26 -6
-29 -14z"/>
<path d="M2541 1826 c-20 -24 -5 -65 26 -72 20 -6 31 -2 45 16 16 20 17 25 5
44 -18 26 -59 32 -76 12z"/>
<path d="M2130 1740 c-45 -45 -8 -132 56 -132 61 0 88 92 38 131 -34 26 -68
27 -94 1z"/>
<path d="M1947 1733 c-12 -12 -7 -37 17 -89 43 -92 126 -164 191 -164 36 0 31
16 -10 30 -44 15 -124 102 -158 174 -28 58 -29 60 -40 49z"/>
<path d="M2356 1694 c-23 -23 -20 -51 9 -70 23 -15 27 -15 50 0 27 18 33 54
13 74 -17 17 -54 15 -72 -4z"/>
<path d="M3400 1666 c0 -11 105 -224 118 -238 18 -22 82 -25 82 -5 0 8 -18 42
-41 77 -55 86 -159 194 -159 166z"/>
<path d="M3286 1469 c-50 -40 -22 -129 46 -145 21 -4 33 0 52 20 36 35 34 79
-3 117 -35 34 -59 36 -95 8z"/>
<path d="M3526 1304 c-38 -37 -1 -98 44 -74 27 14 27 65 1 80 -25 13 -27 13
-45 -6z"/>
<path d="M3681 1256 c-21 -25 -9 -69 21 -80 50 -17 89 42 52 78 -19 20 -58 21
-73 2z"/>
<path d="M3375 1218 c-28 -16 -35 -28 -35 -65 0 -37 29 -63 71 -63 59 0 81 81
33 119 -30 24 -41 25 -69 9z"/>
<path d="M3587 1112 c-20 -22 -22 -63 -5 -80 7 -7 24 -12 38 -12 14 0 31 5 38
12 20 20 14 65 -10 82 -29 21 -41 20 -61 -2z"/>
<path d="M2788 1504 c-74 -40 -76 -169 -3 -202 47 -22 94 -15 125 18 91 97 -8
246 -122 184z"/>
<path d="M2596 1361 c-41 -46 18 -107 64 -66 25 23 26 47 2 68 -24 22 -45 21
-66 -2z"/>
<path d="M2467 1222 c-39 -43 -3 -122 55 -122 56 0 84 85 39 122 -30 23 -73
23 -94 0z"/>
<path d="M2661 1174 c-12 -15 -21 -35 -21 -45 0 -28 36 -59 68 -59 57 0 83 69
42 110 -28 28 -64 25 -89 -6z"/>
<path d="M5432 3134 c-188 -198 -292 -439 -292 -677 0 -164 44 -300 127 -400
41 -49 41 -49 47 -155 7 -113 31 -301 45 -365 9 -36 8 -37 -12 -31 -12 4 -22
7 -23 8 0 0 -15 59 -32 129 -23 96 -41 147 -74 205 -53 94 -136 180 -207 215
-103 51 -151 29 -151 -68 0 -116 62 -249 164 -351 80 -80 159 -126 275 -158
l74 -21 79 -230 c43 -127 81 -238 84 -248 4 -9 2 -17 -2 -17 -17 0 -31 15 -37
40 -10 39 -90 174 -137 230 -80 96 -221 176 -327 187 -68 7 -93 -11 -93 -70 0
-94 142 -273 268 -336 72 -36 185 -67 285 -77 l68 -7 51 -101 c130 -260 307
-506 364 -506 34 0 77 41 77 74 0 29 -3 33 -96 143 -63 73 -209 287 -251 367
-32 60 -34 57 102 159 172 128 262 280 262 439 0 77 -19 108 -67 108 -71 -1
-189 -86 -252 -182 -63 -96 -93 -201 -90 -318 2 -52 -1 -97 -6 -100 -12 -7
-98 212 -127 324 l-23 89 75 66 c129 114 194 185 227 246 70 133 85 310 29
347 -54 37 -181 -55 -261 -187 -58 -97 -75 -168 -75 -313 0 -74 -4 -122 -9
-116 -23 25 -69 268 -78 415 l-6 106 56 37 c79 53 140 125 187 220 106 216
108 440 5 761 -49 152 -71 189 -115 193 -31 3 -40 -3 -108 -74z m122 -157 c36
-111 59 -232 52 -272 -6 -28 -3 -36 14 -45 18 -10 20 -17 15 -63 -23 -204 -98
-361 -208 -439 l-32 -22 26 34 c27 36 69 113 69 127 0 4 -20 -13 -45 -37 -45
-44 -45 -44 -45 -17 0 14 21 66 47 114 58 109 103 201 103 209 0 14 -44 -32
-87 -90 -23 -32 -43 -55 -43 -51 0 4 12 75 26 159 30 174 43 297 32 290 -13
-8 -94 -274 -112 -369 -34 -176 -31 -169 -44 -82 -7 43 -12 92 -13 110 l-1 32
-9 -30 c-13 -39 -16 -219 -6 -268 13 -61 -8 -35 -29 35 -24 82 -24 238 -1 328
21 80 84 214 139 295 62 92 110 147 119 138 4 -4 19 -43 33 -86z"/>
<path d="M7103 3163 c-12 -2 -34 -18 -48 -34 -35 -42 -33 -88 4 -128 73 -78
202 1 161 98 -21 51 -63 74 -117 64z"/>
<path d="M8159 3011 c-92 -92 39 -230 139 -146 48 41 48 101 0 153 -33 34
-101 31 -139 -7z"/>
<path d="M125 1625 c-5 -2 -36 -6 -67 -10 l-58 -6 0 -56 0 -55 38 7 c72 14
198 20 257 12 33 -4 81 -7 107 -7 61 1 303 -79 362 -120 138 -95 255 -305 272
-489 l7 -68 -107 103 c-77 75 -106 110 -106 128 0 35 -48 214 -66 245 -15 26
-15 26 -10 -14 3 -23 9 -81 12 -130 6 -77 5 -88 -7 -79 -8 6 -34 26 -59 46
-25 19 -75 53 -113 75 -62 38 -70 46 -107 121 -60 119 -95 141 -45 28 14 -31
25 -60 25 -65 0 -5 -52 18 -117 49 -112 56 -219 97 -229 88 -5 -5 238 -169
271 -183 21 -9 4 -14 -100 -31 -56 -9 -24 -19 88 -28 49 -3 105 -13 125 -22
39 -16 182 -106 182 -114 0 -3 -35 -3 -77 -2 -89 4 -203 -6 -203 -17 0 -5 48
-14 108 -20 130 -15 233 -36 270 -55 35 -18 172 -151 172 -167 0 -18 -209 -4
-305 21 -153 39 -300 123 -427 243 -49 46 -65 66 -57 74 8 8 -5 31 -45 84 -31
41 -70 101 -86 134 l-29 60 -1 -125 0 -125 41 -62 c75 -116 270 -274 422 -343
129 -58 197 -72 395 -79 215 -7 187 10 283 -176 71 -138 92 -165 129 -165 30
0 60 27 60 54 0 22 -62 144 -120 236 l-48 75 -6 125 c-11 244 -93 439 -247
590 -98 97 -269 192 -288 162 -6 -10 -15 -9 -42 7 -57 33 -167 51 -312 50 -73
0 -136 -2 -142 -4z"/>
</g>
</svg>
