<?xml version="1.0" standalone="no"?>
<!DOCTYPE svg PUBLIC "-//W3C//DTD SVG 20010904//EN"
 "http://www.w3.org/TR/2001/REC-SVG-20010904/DTD/svg10.dtd">
<svg version="1.0" xmlns="http://www.w3.org/2000/svg"
 width="1024.000000pt" height="1024.000000pt" viewBox="0 0 1024.000000 1024.000000"
 preserveAspectRatio="xMidYMid meet">

<g transform="translate(0.000000,1024.000000) scale(0.100000,-0.100000)"
fill="#000000" stroke="none">
<path d="M5036 9742 c-5 -8 -11 -72 -21 -202 -8 -111 -32 -239 -60 -325 -28
-83 -31 -115 -14 -132 9 -9 7 -11 -9 -6 -16 4 -26 -3 -41 -28 -12 -19 -21 -44
-21 -56 0 -31 -12 -34 -40 -13 -22 17 -24 25 -22 79 4 67 -31 199 -73 281 -12
25 -30 66 -39 91 -20 56 -127 228 -171 274 -22 24 -38 33 -50 29 -22 -9 -13
-42 30 -114 37 -62 95 -178 115 -230 7 -19 18 -42 25 -50 20 -27 79 -280 68
-291 -7 -7 -27 -1 -64 20 -54 30 -139 52 -139 35 0 -5 7 -18 15 -28 24 -31 18
-36 -40 -36 -57 0 -68 -10 -37 -32 30 -21 45 -57 32 -73 -16 -20 9 -73 54
-112 20 -18 36 -35 36 -38 0 -20 -88 12 -218 78 -55 29 -74 34 -78 24 -4 -11
-30 -4 -117 31 -200 79 -300 100 -327 66 -20 -23 2 -38 109 -74 52 -18 130
-50 175 -71 44 -22 95 -39 114 -39 18 0 31 -4 28 -9 -16 -25 199 -129 294
-141 30 -4 68 -14 84 -23 l29 -16 -29 -6 c-16 -4 -43 -13 -60 -21 -41 -18
-126 -40 -192 -49 -36 -5 -55 -13 -63 -26 -5 -10 -17 -19 -27 -19 -20 0 -362
-114 -409 -137 -37 -17 -42 -37 -15 -52 13 -7 39 -5 83 5 115 27 303 85 336
104 20 12 33 15 35 8 6 -18 224 20 333 58 6 2 21 12 35 21 28 20 -81 -122
-136 -179 -32 -32 -43 -58 -21 -51 12 5 9 -4 -22 -65 -51 -102 -111 -315 -137
-483 -17 -113 -13 -142 18 -137 28 4 31 10 78 193 50 191 124 413 145 434 13
14 15 12 15 -14 0 -26 4 -22 30 32 17 34 53 85 80 113 28 29 50 56 50 60 0 5
8 8 18 7 16 -1 18 -6 11 -37 -5 -19 -14 -120 -20 -224 l-10 -190 23 -17 c12
-10 19 -21 15 -25 -4 -4 1 -17 11 -28 11 -12 27 -50 36 -86 46 -170 169 -494
228 -600 50 -91 76 -110 97 -72 7 13 0 40 -30 107 -57 128 -180 491 -185 547
-2 27 -18 76 -35 109 -22 45 -29 69 -24 88 4 14 6 42 6 61 -1 19 6 96 14 172
8 75 15 142 15 148 0 32 20 -1 49 -82 85 -231 227 -490 325 -590 87 -89 178
-108 278 -57 113 58 139 296 52 477 -59 122 -155 204 -370 317 -51 26 -102 57
-115 69 -13 12 -33 28 -44 35 -16 10 -6 11 60 7 272 -18 271 -18 282 -5 6 8
12 21 14 31 6 27 210 -129 442 -338 193 -175 341 -286 376 -282 18 2 27 10 29
24 2 16 -24 44 -115 120 -65 55 -137 113 -160 129 -24 17 -41 35 -39 41 6 17
-30 56 -134 144 -177 151 -292 230 -336 230 -13 0 -14 3 -5 14 19 23 -18 27
-254 32 -121 3 -226 7 -233 10 -14 4 60 74 78 74 5 0 36 25 70 56 45 42 59 61
55 75 -5 16 -2 18 22 13 17 -3 57 4 104 20 75 25 228 56 278 56 35 0 63 21 52
38 -29 47 -320 25 -432 -34 -19 -9 -41 -13 -60 -9 -23 5 -37 0 -71 -28 -50
-40 -182 -127 -193 -127 -4 0 -3 6 3 13 21 25 54 161 49 199 -3 21 1 59 9 85
44 142 81 562 55 611 -12 22 -35 29 -45 14z"/>
<path d="M1670 9670 c-15 -3 -34 -21 -46 -44 -12 -21 -28 -45 -37 -53 -14 -14
-18 -14 -46 10 -43 36 -65 41 -100 22 -64 -33 -78 -91 -47 -196 31 -102 14
-191 -46 -245 -28 -26 -85 -56 -170 -88 -106 -39 -168 -75 -218 -125 -80 -80
-92 -151 -46 -280 22 -60 20 -92 -10 -195 -23 -77 -25 -94 -15 -128 10 -33 20
-43 69 -66 53 -26 59 -31 82 -91 30 -74 69 -113 139 -138 28 -10 51 -20 51
-24 0 -3 -33 -1 -72 4 -101 13 -249 -6 -325 -43 -110 -52 -145 -96 -208 -259
-78 -205 -139 -288 -256 -350 -121 -63 -153 -109 -147 -210 3 -56 10 -76 46
-135 67 -112 67 -131 -10 -233 -43 -56 -57 -108 -38 -142 16 -31 75 -54 116
-46 30 5 34 3 39 -22 17 -79 59 -107 150 -101 46 3 55 0 89 -29 42 -37 55 -40
136 -28 43 6 46 4 62 -24 16 -28 22 -31 68 -31 91 0 140 42 140 118 0 69 23
105 105 161 104 72 120 101 122 225 l2 99 70 66 c83 79 97 115 86 230 -10 110
-7 197 9 234 30 73 121 147 180 147 36 0 82 -59 137 -175 82 -174 126 -329
136 -477 6 -105 5 -108 -43 -84 -51 27 -51 33 -25 -241 9 -86 16 -114 50 -186
51 -108 61 -170 61 -385 0 -100 4 -181 10 -193 12 -22 84 -27 96 -7 4 6 9 81
11 167 5 171 26 306 66 411 44 117 57 199 57 353 0 112 -3 147 -14 156 -11 10
-18 5 -32 -26 -23 -44 -39 -52 -48 -21 -11 42 -6 85 18 169 45 154 183 475
230 534 16 20 17 19 47 -15 17 -19 43 -57 57 -85 26 -48 27 -56 27 -210 0
-155 1 -161 27 -205 14 -25 47 -61 73 -80 26 -19 52 -44 58 -55 7 -11 12 -60
12 -111 0 -82 3 -94 27 -132 20 -29 52 -55 107 -87 100 -58 128 -86 135 -136
3 -21 9 -57 12 -79 3 -22 15 -51 26 -65 18 -24 24 -25 118 -25 97 0 98 0 124
31 14 17 26 35 26 40 0 5 27 9 60 9 52 0 64 4 93 30 25 21 45 30 70 30 47 0
82 16 97 46 7 13 29 29 49 35 63 20 128 57 150 85 35 45 27 67 -49 143 -85 85
-90 112 -35 163 84 76 120 175 96 265 -15 53 -46 83 -152 143 -111 64 -185
142 -235 248 -20 42 -54 114 -75 159 -89 186 -240 261 -483 237 -106 -10 -108
-6 -15 41 29 15 62 45 89 82 52 69 94 109 135 130 71 36 83 100 39 206 -29 68
-35 168 -15 220 20 51 14 120 -15 163 -58 87 -121 137 -269 214 -164 85 -185
115 -167 238 22 141 11 211 -39 246 -35 24 -69 20 -105 -15 -38 -36 -49 -33
-57 17 -12 71 -45 82 -100 34 -19 -16 -42 -30 -50 -30 -9 0 -23 -8 -32 -17
-15 -14 -16 -29 -11 -103 6 -76 5 -89 -12 -110 l-19 -23 -32 22 c-26 19 -40
22 -75 17 -48 -7 -40 -16 -77 84 -13 35 -37 45 -72 29 -45 -20 -57 -7 -57 61
0 34 -5 70 -10 80 -18 35 -87 61 -130 50z m-445 -1751 c27 -26 55 -38 55 -23
0 3 -12 21 -26 40 -36 46 -13 43 40 -6 63 -58 75 -53 48 19 -6 16 -2 14 72
-36 26 -18 53 -33 58 -33 5 0 7 -4 4 -9 -3 -4 -39 -11 -81 -15 -156 -14 -305
-67 -444 -158 -41 -26 -76 -46 -78 -44 -3 2 1 14 7 26 9 16 9 25 1 33 -24 24
-12 40 23 33 47 -9 56 10 20 39 -24 20 -26 25 -13 30 9 3 33 -1 54 -9 23 -10
43 -13 53 -7 12 7 7 13 -26 32 -48 27 -51 34 -20 42 13 4 38 -4 65 -20 63 -37
78 -16 21 27 -24 19 -46 36 -51 40 -4 3 7 5 24 4 17 -1 53 -16 80 -33 51 -31
68 -28 23 5 -60 43 -70 53 -53 54 8 0 38 -16 65 -35 66 -47 88 -45 41 3 -20
21 -37 41 -37 45 0 12 41 -13 75 -44z m1457 24 c-34 -49 -34 -53 -13 -53 11 0
36 14 54 30 19 17 45 30 58 30 22 0 22 -1 -9 -33 -57 -58 -30 -66 41 -12 25
19 56 35 69 35 20 0 15 -7 -32 -50 -62 -55 -50 -65 25 -20 84 50 122 29 45
-25 -55 -38 -39 -56 27 -32 27 9 54 17 61 17 23 0 12 -28 -19 -51 -29 -20 -30
-23 -14 -35 12 -9 24 -10 42 -3 35 13 47 2 29 -26 -13 -20 -13 -25 0 -44 23
-33 2 -26 -93 32 -150 90 -239 123 -405 149 -43 7 -78 16 -78 20 0 5 11 14 25
20 14 6 25 15 25 19 0 4 14 18 32 30 29 21 31 21 26 3 -3 -10 -9 -27 -13 -36
-13 -32 21 -20 63 22 22 22 47 40 57 40 15 0 15 -3 -3 -27z"/>
<path d="M8195 9441 c-47 -12 -69 -27 -108 -74 -32 -39 -42 -45 -86 -49 -36
-4 -60 -14 -91 -38 l-42 -33 -44 51 c-94 107 -264 144 -329 72 -11 -13 -31
-20 -52 -20 -79 0 -183 -85 -183 -149 0 -23 -27 -41 -60 -41 -37 0 -87 -60
-105 -126 -22 -75 -30 -84 -72 -84 -78 0 -113 -45 -113 -144 0 -28 -5 -68 -11
-88 -25 -91 36 -254 126 -336 l54 -50 -57 -7 c-127 -16 -195 -81 -217 -208 -5
-30 -16 -44 -61 -78 -108 -80 -111 -171 -9 -260 31 -27 35 -37 35 -78 0 -40 5
-53 40 -91 22 -25 40 -54 40 -65 0 -11 9 -36 19 -55 11 -19 29 -54 40 -78 25
-53 66 -72 151 -72 33 0 60 -4 60 -9 0 -5 17 -16 38 -25 20 -10 49 -24 64 -32
39 -21 85 -17 139 13 l49 28 73 -76 c79 -84 110 -99 204 -99 29 0 86 11 127
24 75 23 75 24 93 4 26 -29 79 -53 161 -73 68 -16 87 -16 155 1 l27 6 0 -768
c-1 -883 -17 -1561 -36 -1541 -2 2 -7 30 -10 63 -10 90 -41 169 -107 274 -111
173 -114 182 -137 392 -26 233 -55 354 -120 484 -60 121 -114 195 -292 402
-190 221 -277 285 -294 218 -3 -14 -3 -29 0 -34 3 -5 17 -76 31 -158 37 -218
61 -308 111 -410 54 -113 118 -199 253 -340 173 -181 219 -267 305 -570 70
-246 180 -764 156 -737 -4 4 -19 42 -34 84 -53 150 -150 285 -298 417 -111 99
-147 147 -217 288 -111 226 -222 356 -261 309 -10 -11 -6 -32 18 -97 16 -46
37 -119 46 -163 34 -162 59 -242 99 -320 44 -86 74 -119 312 -340 71 -66 149
-147 173 -180 47 -63 127 -216 157 -300 10 -27 23 -56 28 -62 10 -14 114 -18
134 -5 7 4 17 37 22 72 27 166 109 334 235 483 23 27 104 103 181 170 210 183
276 260 336 393 70 153 83 219 129 624 21 183 95 453 131 476 15 9 10 54 -7
61 -24 9 -99 -31 -155 -84 -90 -84 -129 -176 -184 -432 -15 -68 -40 -161 -56
-206 -34 -93 -119 -229 -204 -325 -178 -203 -279 -377 -372 -640 l-33 -95 5
75 c8 94 12 145 25 290 6 63 13 142 16 175 10 125 17 159 44 210 15 29 31 73
35 97 4 23 18 66 31 93 34 73 53 205 59 410 12 408 24 529 71 679 22 70 24 81
10 94 -13 13 -18 13 -48 -5 -64 -37 -106 -124 -186 -393 -7 -26 -10 87 -11
418 -1 423 0 453 17 458 52 18 125 59 165 94 25 22 48 40 52 40 3 0 17 -13 31
-29 13 -16 61 -51 105 -78 132 -79 145 -87 183 -117 26 -20 52 -30 86 -34 42
-4 54 -1 93 28 37 26 50 30 80 25 41 -8 57 5 117 96 66 99 80 109 152 109 83
0 118 21 152 93 20 44 32 57 55 62 38 8 64 37 100 115 34 72 39 122 16 177
-12 29 -13 43 -4 71 15 46 6 127 -18 160 -10 15 -43 39 -73 54 -29 15 -55 30
-58 32 -2 3 14 26 37 52 43 49 60 101 44 137 -6 12 -38 45 -71 72 -34 28 -61
56 -61 63 -1 7 13 33 30 58 60 88 93 173 95 249 2 38 6 85 9 103 12 54 -9 89
-69 111 -50 18 -51 19 -54 64 -3 38 -9 51 -35 72 -64 52 -73 64 -90 119 -35
108 -110 161 -199 138 l-43 -11 -76 79 c-133 139 -204 144 -349 25 -30 -25
-59 -45 -63 -45 -5 0 -24 12 -43 26 -32 25 -40 26 -101 21 l-67 -7 -51 49
c-69 65 -145 85 -240 62z m132 -82 c15 -5 50 -31 76 -57 l48 -47 78 0 c103 -1
112 -8 109 -90 -3 -72 8 -91 72 -120 45 -20 49 -35 20 -83 l-20 -33 -30 21
c-48 34 -85 41 -132 24 -91 -32 -109 -9 -78 102 25 88 22 119 -4 48 -27 -71
-42 -91 -84 -113 -32 -16 -50 -19 -107 -13 l-69 7 -16 72 c-8 39 -19 75 -24
80 -5 5 -7 1 -3 -9 3 -9 9 -54 13 -100 l6 -83 -40 -22 c-51 -29 -54 -29 -74 6
-9 17 -34 39 -56 50 -23 11 -43 29 -46 39 -3 9 -13 44 -21 76 -14 53 -14 61 0
83 19 29 53 43 103 43 32 0 43 8 96 65 57 63 61 65 107 65 26 0 60 -5 76 -11z
m652 -34 c15 -7 50 -40 77 -71 90 -105 105 -113 164 -94 52 17 90 3 112 -41 9
-19 28 -59 42 -89 16 -35 38 -64 61 -79 32 -21 35 -28 35 -71 0 -55 22 -80 85
-100 22 -7 43 -16 48 -19 4 -4 -6 -25 -22 -47 -26 -35 -28 -41 -15 -55 8 -9
16 -30 19 -48 5 -43 -53 -157 -110 -216 -87 -89 -292 -206 -421 -239 -99 -26
-107 -17 -13 13 132 42 379 199 469 296 l35 39 -55 -39 c-182 -128 -223 -156
-288 -194 -59 -36 -222 -106 -222 -96 0 2 43 24 96 50 61 29 151 88 252 165
256 192 323 266 91 99 -157 -114 -285 -200 -344 -234 -66 -37 -54 -26 105 92
136 102 349 297 337 309 -4 4 -36 -23 -73 -59 -76 -77 -173 -157 -261 -216
-35 -24 -65 -47 -69 -52 -3 -5 -10 -9 -16 -9 -18 0 39 55 128 125 88 69 167
151 216 224 24 37 8 24 -83 -65 -113 -109 -189 -173 -189 -157 0 5 39 58 88
118 111 140 176 234 167 243 -4 4 -16 -7 -28 -23 -30 -42 -190 -226 -217 -250
l-21 -19 6 25 c4 15 0 41 -8 61 -14 34 -14 38 19 99 64 120 134 259 134 264 0
19 -27 -21 -110 -160 -77 -129 -96 -155 -116 -155 -12 0 -25 4 -28 8 -3 5 12
53 33 108 21 54 50 151 65 214 15 63 30 122 32 130 4 10 2 12 -5 5 -8 -8 -111
-312 -142 -420 -17 -57 -1 138 19 240 24 123 36 223 24 210 -5 -6 -14 -35 -21
-64 -6 -30 -23 -93 -37 -140 -22 -69 -28 -81 -36 -66 -7 11 -8 50 -4 99 23
279 14 333 -18 111 -10 -66 -20 -128 -22 -137 -8 -27 -24 -21 -24 8 0 14 -7
51 -16 82 -11 38 -15 78 -12 128 5 75 -6 92 -17 26 -11 -61 -35 -141 -45 -147
-16 -10 -34 38 -40 105 -6 66 -9 64 -25 -14 -4 -18 -10 -23 -25 -19 -36 10
-25 55 27 114 93 102 149 127 212 94z m-1289 -23 c73 -34 152 -141 183 -249
l16 -52 -52 -28 c-37 -20 -59 -40 -75 -71 -13 -24 -27 -41 -30 -38 -3 3 -16
43 -29 88 -18 65 -22 73 -19 38 21 -201 21 -187 -1 -167 -30 26 -110 50 -148
44 -32 -5 -33 -4 -48 46 l-15 52 1 -68 c2 -60 -1 -71 -20 -84 -21 -14 -22 -12
-63 114 -23 70 -46 133 -52 138 -8 7 -9 4 -4 -10 42 -112 103 -423 77 -385
-10 14 -82 183 -95 224 -4 10 -9 16 -12 13 -3 -3 6 -41 20 -84 29 -87 66 -238
66 -267 0 -31 -12 -13 -100 157 -45 87 -84 156 -86 155 -6 -7 84 -215 146
-338 52 -102 76 -136 149 -212 94 -99 75 -102 -28 -4 -82 79 -134 146 -266
339 -59 87 -109 156 -111 154 -6 -5 107 -200 181 -312 33 -49 93 -123 133
-164 72 -71 73 -73 31 -50 -59 32 -206 180 -312 313 -93 115 -111 127 -49 30
76 -117 220 -277 317 -352 l30 -22 -33 15 c-17 9 -98 71 -180 138 -160 134
-172 143 -172 129 0 -5 48 -52 107 -103 160 -140 153 -134 108 -108 -179 101
-279 218 -277 322 5 204 12 227 62 227 34 0 90 37 107 70 7 14 13 39 13 56 0
44 33 82 78 89 73 12 92 25 92 59 0 67 55 120 138 132 26 3 58 14 72 23 51 33
82 33 150 3z m1140 -364 c0 -10 -59 -40 -71 -36 -5 2 2 20 17 41 24 36 27 37
40 20 7 -10 14 -21 14 -25z m-836 -41 c34 -35 67 -91 73 -121 2 -10 17 -80 33
-155 16 -75 32 -154 35 -176 3 -22 8 -51 10 -65 2 -14 9 -65 15 -115 6 -49 22
-121 35 -160 13 -38 22 -72 20 -74 -7 -6 -71 104 -115 199 -25 52 -70 169
-102 260 -65 188 -75 193 -22 10 59 -206 142 -400 196 -457 14 -15 17 -23 8
-23 -7 0 -42 31 -79 68 -109 112 -191 267 -281 531 -39 115 -41 127 -30 164
27 91 77 136 164 146 4 1 22 -14 40 -32z m430 -1 c38 -18 60 -18 153 0 30 6
37 1 87 -50 59 -62 56 -62 139 -12 84 50 137 21 137 -75 0 -112 -20 -179 -86
-286 -105 -172 -250 -363 -276 -363 -9 0 13 58 78 208 25 57 44 107 42 112 -2
5 -52 -85 -112 -200 -60 -116 -111 -208 -113 -206 -2 2 30 86 71 188 74 184
163 445 154 453 -3 3 -24 -48 -48 -112 -23 -65 -75 -194 -115 -288 -40 -93
-79 -190 -86 -215 l-14 -45 -6 45 -6 45 -1 -42 c-1 -24 -6 -43 -12 -43 -12 0
-12 237 0 360 4 47 6 86 5 88 -11 12 -38 -166 -43 -276 -4 -112 -7 -131 -18
-120 -20 20 -33 136 -35 308 -1 112 -4 143 -10 110 -4 -25 -8 -129 -8 -232 -1
-104 -5 -188 -10 -188 -10 0 -17 69 -27 255 -11 213 -23 213 -19 0 2 -110 6
-211 9 -225 4 -14 -3 -6 -14 17 -11 23 -34 107 -50 185 -30 152 -98 461 -106
491 -3 10 0 17 9 17 7 0 19 11 25 24 14 32 124 86 175 86 39 0 39 0 33 -32 -3
-18 -8 -91 -10 -163 -3 -71 -3 -116 0 -100 2 17 8 62 14 100 5 39 13 95 16
125 6 53 19 83 33 77 3 -2 24 -12 45 -21z m-821 -117 c12 -6 39 -27 59 -46 37
-36 52 -38 101 -18 13 5 17 2 17 -12 0 -67 186 -523 250 -613 12 -17 17 -30
12 -30 -16 0 -80 103 -134 216 -28 58 -52 103 -54 101 -7 -7 67 -185 101 -242
20 -32 33 -60 31 -62 -8 -9 -75 91 -125 187 -53 102 -100 212 -137 325 -21 64
-23 67 -24 32 0 -65 123 -374 199 -498 23 -37 26 -47 13 -42 -52 19 -195 151
-267 246 -16 22 -55 57 -88 79 -87 59 -103 109 -72 229 9 33 14 76 13 96 -3
31 1 39 22 50 31 16 55 16 83 2z m1475 -221 c67 -67 -127 -317 -339 -437 -31
-17 -58 -31 -61 -31 -3 0 0 24 7 54 9 38 33 83 84 155 39 56 92 137 118 181
l48 79 55 4 c30 2 60 4 66 5 5 1 15 -3 22 -10z m-1780 -357 c60 -27 123 -52
141 -56 17 -3 31 -10 31 -14 0 -7 -309 -29 -440 -32 l-55 -2 65 -8 c36 -5 178
-6 315 -3 138 4 247 4 244 0 -8 -8 -341 -67 -464 -81 -27 -3 -72 -10 -100 -15
-27 -5 -80 -12 -118 -16 -37 -3 -70 -11 -73 -16 -3 -5 5 -7 18 -4 12 3 66 7
118 11 141 9 366 34 440 50 36 7 103 16 150 20 47 3 94 9 105 11 16 4 17 3 5
-4 -8 -6 -40 -13 -70 -17 -30 -3 -125 -24 -210 -45 -149 -37 -218 -51 -435
-86 -55 -9 -107 -20 -115 -25 -22 -12 -11 -11 198 15 208 27 279 42 451 93
157 46 158 39 4 -27 -40 -17 -112 -39 -160 -49 -145 -31 -343 -79 -417 -100
l-69 -19 -32 31 c-17 18 -44 40 -58 50 -43 29 -35 55 42 127 66 62 70 68 76
120 8 64 16 78 69 114 35 24 48 26 136 26 95 0 101 -1 208 -49z m2226 30 c10
-10 13 -21 9 -24 -17 -11 -150 -60 -263 -98 -86 -29 -106 -38 -80 -38 69 0
223 48 315 97 50 27 54 28 75 12 29 -22 20 -28 -110 -74 -102 -37 -109 -38
-280 -43 -96 -3 -172 -3 -169 0 3 4 39 11 80 17 77 11 168 49 304 128 80 47
95 50 119 23z m16 -161 c-25 -36 -30 -91 -10 -115 8 -9 38 -28 67 -41 42 -18
57 -31 69 -59 13 -33 13 -39 -7 -86 l-22 -50 22 -43 c38 -77 42 -76 -169 -19
-172 46 -272 79 -361 118 -42 18 -106 43 -143 54 -77 24 -120 45 -71 35 17 -3
109 -28 205 -55 206 -58 486 -121 509 -116 27 6 -24 23 -194 62 -88 20 -189
45 -225 55 -36 11 -132 38 -215 61 -129 35 -218 67 -193 69 4 0 70 -13 146
-30 353 -75 692 -125 692 -102 0 5 -31 12 -68 15 -38 4 -106 14 -153 22 -46 9
-131 24 -189 34 -107 20 -378 86 -388 96 -8 8 5 6 144 -15 128 -19 402 -41
499 -39 101 1 2 17 -245 39 -135 12 -246 23 -248 25 -1 1 55 5 125 8 209 9
380 50 422 101 24 28 24 9 1 -24z m-1825 -104 c-208 -81 -485 -210 -485 -226
0 -5 30 5 68 22 208 94 285 128 289 125 2 -3 -38 -36 -89 -74 -205 -153 -327
-242 -402 -293 -43 -30 -82 -63 -86 -74 -7 -19 -9 -18 -28 13 -12 19 -19 38
-16 42 2 5 43 31 90 60 47 28 83 53 80 56 -2 3 -45 -16 -96 -42 -50 -26 -93
-46 -95 -43 -3 2 -6 15 -7 28 -3 21 9 30 82 70 112 62 188 110 173 110 -7 0
-72 -30 -145 -66 l-132 -66 -33 36 c-25 27 -33 45 -33 74 l0 37 96 24 c52 12
166 43 252 67 157 44 212 52 137 20 -46 -20 -261 -103 -382 -148 -75 -27 -105
-48 -70 -48 23 0 454 172 532 212 69 36 232 92 295 102 60 8 61 3 5 -18z m55
-20 c0 -2 -19 -16 -42 -32 -118 -80 -247 -180 -373 -289 -181 -156 -223 -189
-262 -204 -34 -14 -76 -6 -70 12 2 7 57 50 123 96 65 46 176 127 246 180 201
152 229 172 303 207 72 35 75 36 75 30z m83 -44 c-18 -15 -64 -48 -103 -72
-300 -189 -348 -228 -387 -319 -17 -40 -123 -151 -144 -151 -17 0 -59 36 -59
49 0 12 146 148 243 227 151 121 423 293 466 294 9 0 1 -12 -16 -28z m230 -69
c-63 -167 -104 -303 -90 -303 2 0 17 35 32 78 15 42 47 118 72 167 78 157 84
147 34 -60 -22 -88 -42 -182 -45 -210 l-6 -50 21 65 c11 36 39 125 61 198 41
129 42 132 60 114 23 -23 38 -175 38 -400 0 -88 4 -151 9 -148 5 3 10 115 10
248 1 133 3 243 5 245 1 1 16 -3 33 -9 29 -11 32 -17 47 -92 9 -45 19 -101 22
-126 11 -80 17 -57 11 40 -4 52 -9 133 -12 180 l-5 85 24 -61 c13 -33 41 -123
61 -200 20 -76 41 -148 45 -159 7 -17 9 -16 9 10 1 44 -44 249 -73 334 -14 41
-24 76 -22 78 8 8 93 -123 119 -182 41 -96 51 -146 38 -205 -23 -108 -95 -215
-173 -257 -19 -10 -68 -21 -118 -25 -47 -4 -104 -10 -127 -14 -64 -9 -141 12
-206 57 -64 45 -71 46 -167 10 -61 -23 -124 -27 -167 -10 -15 6 -66 49 -112
96 -79 83 -83 88 -78 124 7 50 56 119 114 162 27 19 104 65 173 103 69 37 156
92 195 121 113 85 110 67 -9 -66 -42 -46 -76 -89 -76 -95 0 -6 37 26 83 72 45
45 86 82 90 82 5 0 -14 -43 -42 -95 -53 -97 -95 -195 -88 -202 2 -2 21 29 42
69 63 120 176 298 190 298 2 0 -8 -30 -22 -67z m707 57 c8 -5 11 -10 5 -10 -5
0 -17 5 -25 10 -8 5 -10 10 -5 10 6 0 17 -5 25 -10z m18 -39 c68 -23 159 -63
217 -96 182 -104 304 -156 474 -204 117 -32 71 -9 -108 55 -154 55 -378 167
-421 211 -8 9 -10 14 -5 11 32 -17 160 -75 220 -100 97 -40 358 -115 433 -124
34 -3 62 -9 62 -11 0 -3 -16 -32 -35 -64 -27 -43 -44 -60 -70 -69 -19 -6 -39
-9 -44 -6 -5 3 -8 0 -8 -7 2 -28 -27 -108 -42 -116 -9 -5 -59 -11 -112 -12
l-96 -4 -54 36 c-30 20 -81 56 -114 79 l-60 41 50 -46 c28 -25 78 -64 113 -87
34 -22 62 -44 62 -49 0 -5 -10 -29 -22 -54 -33 -68 -51 -62 -150 47 -46 50
-119 130 -163 178 -44 47 -109 118 -145 159 -36 40 -87 91 -114 113 -27 21
-57 49 -65 61 -15 22 -15 22 9 4 14 -9 63 -37 110 -62 47 -25 101 -55 120 -67
33 -20 32 -19 -8 18 -24 21 -74 56 -110 76 -59 33 -63 37 -32 32 66 -10 150
-45 252 -103 57 -33 114 -62 128 -65 17 -4 12 1 -15 16 -22 13 -89 56 -149 96
-60 40 -137 89 -172 108 -58 32 -74 44 -59 44 3 0 58 -18 123 -39z m42 19 c13
-9 13 -10 0 -10 -8 0 -22 5 -30 10 -13 9 -13 10 0 10 8 0 22 -5 30 -10z m-101
-240 c40 -36 132 -135 204 -220 73 -85 152 -176 175 -202 33 -35 42 -52 37
-67 -15 -50 -51 -14 -266 263 -85 110 -181 229 -214 265 -66 72 -48 60 64 -39z
m62 -152 c202 -270 274 -377 260 -391 -15 -15 -30 2 -128 138 -234 326 -351
509 -298 465 9 -8 84 -103 166 -212z m-30 -133 c38 -82 82 -165 97 -185 16
-19 32 -42 37 -50 14 -23 -68 50 -88 79 -52 75 -157 317 -157 363 0 28 15 -1
111 -207z m-27 -70 c52 -102 54 -107 23 -73 -49 55 -107 173 -106 217 l0 36
13 -35 c7 -19 39 -84 70 -145z m134 -30 c67 -99 116 -182 111 -184 -17 -5 -44
26 -103 117 -46 72 -150 269 -133 252 3 -3 59 -86 125 -185z m-1538 156 c0
-14 -47 -67 -54 -61 -5 5 41 70 50 70 2 0 4 -4 4 -9z m1338 -113 l32 -73 -43
49 c-32 36 -42 56 -39 73 2 13 7 23 11 23 4 0 21 -33 39 -72z"/>
<path d="M7550 9262 c0 -24 73 -277 83 -287 6 -7 7 -3 4 10 -3 11 -20 76 -38
145 -28 111 -49 168 -49 132z"/>
<path d="M7755 7704 c-31 -31 -54 -59 -51 -62 7 -7 69 51 98 91 30 41 16 33
-47 -29z"/>
<path d="M7596 7579 c-31 -28 -62 -61 -68 -73 -6 -11 16 4 48 34 87 81 87 81
81 86 -2 3 -30 -18 -61 -47z"/>
<path d="M8060 7301 c0 -10 -3 -34 -6 -52 -4 -19 -4 -31 0 -28 10 10 24 99 15
99 -5 0 -9 -8 -9 -19z"/>
<path d="M8850 7815 c0 -16 425 -273 435 -263 2 2 -42 30 -98 63 -56 32 -153
92 -215 132 -111 71 -122 78 -122 68z"/>
<path d="M9185 7490 c10 -11 20 -20 23 -20 3 0 -3 9 -13 20 -10 11 -20 20 -23
20 -3 0 3 -9 13 -20z"/>
<path d="M4865 6847 c-57 -19 -82 -33 -146 -83 l-56 -43 -48 25 c-95 47 -179
25 -342 -92 -46 -32 -122 -79 -170 -104 -157 -80 -239 -184 -282 -353 l-18
-71 -73 -33 c-54 -25 -86 -48 -128 -94 -32 -34 -94 -98 -138 -143 -64 -63 -85
-91 -94 -126 -26 -96 -32 -110 -62 -147 -28 -36 -30 -42 -24 -99 4 -40 1 -84
-9 -127 -12 -52 -13 -87 -6 -170 10 -121 39 -194 116 -293 41 -53 44 -60 29
-69 -52 -30 -95 -80 -109 -128 -18 -62 -20 -263 -3 -304 6 -15 37 -53 67 -84
31 -30 70 -78 86 -105 35 -57 135 -130 193 -139 20 -3 69 -22 107 -41 39 -19
94 -37 122 -41 40 -4 61 -13 84 -35 56 -54 113 -73 217 -73 77 0 91 -2 87 -15
-11 -27 -18 -137 -11 -172 7 -39 65 -112 105 -132 15 -8 56 -20 91 -27 51 -10
72 -20 96 -45 23 -25 41 -34 80 -38 27 -4 81 -11 121 -18 66 -10 75 -9 116 11
25 12 51 28 57 36 11 13 18 10 52 -17 47 -37 99 -57 151 -58 l37 0 0 -47 c1
-132 26 -298 60 -398 26 -75 103 -223 141 -268 26 -31 37 -38 62 -35 27 3 33
10 60 73 33 78 58 117 184 292 108 151 175 266 208 360 37 107 58 243 53 349
l-4 92 81 7 c228 19 437 102 631 251 89 68 194 177 218 227 23 50 36 133 25
170 -21 73 -129 161 -238 194 -31 9 -57 18 -59 19 -2 1 6 20 17 42 18 35 20
59 20 217 1 160 -1 182 -20 219 l-20 42 35 52 c19 29 40 70 46 90 12 46 13
171 0 320 -9 116 -23 154 -70 197 -17 15 -20 31 -20 94 0 88 -9 104 -85 153
-44 29 -53 42 -82 113 -42 102 -59 125 -113 153 -71 36 -157 27 -207 -20 l-23
-21 0 42 c0 79 -51 149 -197 266 -105 83 -170 115 -238 115 -21 0 -45 11 -71
31 -64 52 -111 69 -191 69 -62 0 -80 -4 -133 -33 l-62 -33 -61 31 c-70 34
-174 44 -242 22z m235 -106 c41 -21 82 -36 90 -33 8 3 36 20 63 39 41 31 55
35 106 35 53 0 97 -13 111 -32 19 -26 97 -70 126 -70 88 0 128 -19 230 -104
153 -129 159 -137 158 -204 -1 -62 -20 -142 -33 -142 -5 0 -26 23 -46 52 -37
51 -37 53 -26 101 6 27 11 55 11 64 0 24 -27 -2 -35 -35 -11 -46 -25 -55 -45
-32 -17 19 -17 25 -3 77 19 75 3 90 -25 23 -20 -47 -23 -50 -42 -40 -29 16
-33 30 -22 89 7 41 7 51 -4 51 -8 0 -19 -20 -26 -46 -24 -88 -73 -61 -62 33 3
31 2 53 -3 53 -11 0 -33 -67 -33 -99 0 -16 -5 -21 -17 -19 -15 3 -18 13 -15
68 4 74 -5 72 -33 -8 -12 -31 -28 -58 -36 -60 -13 -2 -13 11 -4 108 6 60 8
110 4 110 -4 0 -10 -12 -13 -27 -30 -136 -46 -194 -62 -219 -9 -13 -18 -23
-20 -21 -3 3 19 187 31 260 7 43 -13 32 -25 -14 -16 -60 -41 -190 -42 -216 0
-13 -7 -23 -14 -23 -11 0 -14 28 -14 143 -1 162 -13 167 -30 11 -15 -128 -14
-128 -41 -112 -19 12 -20 20 -17 111 3 80 1 95 -9 81 -7 -9 -15 -37 -18 -63
-4 -25 -9 -54 -12 -64 -8 -29 -28 -14 -31 24 -8 108 -32 139 -32 41 0 -32 -2
-61 -5 -64 -3 -3 -16 -3 -29 -1 -20 4 -26 15 -36 66 -7 34 -19 71 -27 82 -12
17 -13 9 -7 -62 6 -71 5 -83 -8 -83 -10 0 -23 24 -38 70 -12 38 -28 77 -36 87
-12 17 -13 16 -14 -9 0 -14 9 -55 20 -89 10 -35 17 -65 14 -68 -12 -12 -41 20
-75 83 -20 38 -39 64 -42 59 -3 -5 8 -42 24 -82 41 -101 25 -111 -41 -27 -28
36 -54 66 -56 66 -12 0 0 -33 31 -84 19 -32 35 -62 35 -67 0 -20 -35 -6 -77
31 -42 36 -63 48 -63 35 0 -3 16 -23 37 -45 27 -31 33 -44 25 -52 -9 -9 -25
-6 -67 15 -46 22 -54 30 -47 44 5 10 19 39 31 64 54 111 192 195 301 182 19
-3 69 -21 110 -42z m-509 -77 c22 -20 23 -38 8 -83 -14 -39 -30 -36 -42 10
-16 63 -27 56 -27 -19 0 -40 -4 -72 -8 -72 -5 0 -16 32 -26 70 -18 69 -36 92
-36 47 0 -13 7 -47 16 -76 14 -50 12 -91 -6 -91 -4 0 -20 29 -35 65 -16 36
-32 65 -37 65 -15 0 -8 -39 17 -96 19 -42 22 -60 15 -75 -6 -10 -14 -19 -19
-19 -5 0 -24 35 -42 78 -40 92 -52 71 -19 -34 16 -53 18 -69 8 -75 -9 -6 -26
16 -55 69 -49 88 -56 72 -17 -35 25 -68 27 -112 4 -98 -6 4 -34 41 -62 83 -68
100 -75 74 -15 -48 24 -49 41 -90 37 -90 -4 0 -21 19 -38 43 -18 23 -47 60
-67 82 -42 49 -47 28 -10 -45 31 -60 31 -60 1 -60 -17 0 -36 14 -62 45 -20 25
-39 44 -41 42 -2 -3 3 -24 11 -48 8 -24 14 -44 13 -45 -1 -1 -14 -5 -29 -9
-23 -6 -29 -3 -37 18 -17 44 -35 45 -28 2 6 -39 1 -49 -46 -76 -16 -9 -17 -7
-11 18 11 54 63 148 101 185 21 20 87 64 148 97 60 32 147 87 193 121 118 88
188 104 243 54z m557 -199 c2 -2 -13 -13 -35 -23 -45 -24 -114 -94 -137 -140
-23 -45 -37 -48 -86 -16 l-41 27 -29 -21 c-40 -30 -67 -27 -101 9 -29 31 -31
32 -97 25 -37 -4 -87 -10 -111 -13 -56 -8 -53 2 24 67 65 55 109 65 154 34 31
-22 103 -13 180 21 75 34 194 55 241 42 19 -5 37 -11 38 -12z m501 -76 c46
-21 84 -50 140 -107 64 -65 85 -96 134 -194 32 -65 64 -136 72 -158 26 -74 65
-253 65 -298 0 -24 -3 -21 -21 18 -45 99 -122 141 -203 110 -36 -13 -102 -76
-116 -110 -13 -32 -30 -40 -30 -15 0 8 -20 37 -45 65 -38 43 -45 56 -43 90 1
29 -7 53 -30 90 -39 63 -40 92 -6 119 33 26 64 26 114 1 31 -16 40 -17 40 -6
0 7 -7 19 -15 26 -8 7 -15 23 -15 35 0 31 46 85 73 85 20 0 18 3 -11 26 -18
15 -44 50 -56 78 -29 65 -46 80 -140 120 -79 35 -91 45 -59 57 29 10 83 -1
152 -32z m-317 -36 c26 -14 48 -30 48 -36 0 -5 20 -6 49 -2 41 5 58 2 115 -24
62 -28 68 -34 92 -85 l25 -56 -27 -35 c-14 -19 -33 -35 -41 -35 -7 0 -25 24
-38 53 -25 53 -35 39 -14 -20 10 -29 7 -34 -40 -81 -46 -46 -52 -49 -61 -32
-5 10 -10 31 -11 47 0 15 -4 37 -8 47 -7 18 -12 16 -53 -22 -55 -51 -79 -53
-111 -9 -55 73 -79 126 -72 157 9 41 -6 38 -49 -10 -20 -23 -41 -38 -46 -35
-6 3 -10 22 -10 42 0 20 -7 44 -15 53 -13 14 -12 20 6 48 44 74 161 90 261 35z
m913 -37 c26 -11 41 -29 63 -73 45 -89 46 -106 16 -143 -27 -31 -27 -31 -47
-12 -20 20 -20 20 1 49 11 15 22 37 24 47 6 34 -16 26 -46 -15 -17 -25 -34
-39 -45 -37 -22 5 -18 50 9 88 38 53 16 54 -25 1 -33 -43 -44 -51 -72 -51 -18
0 -33 4 -33 9 0 12 56 52 62 45 3 -2 8 4 11 16 3 11 3 20 1 20 -14 0 -90 -45
-111 -66 -14 -14 -27 -23 -30 -20 -8 8 34 62 83 105 39 35 55 42 97 50 4 0 23
-5 42 -13z m-1555 -71 c0 -39 -17 -71 -49 -94 -45 -32 -89 -31 -118 3 -29 34
-43 25 -72 -39 -17 -38 -24 -44 -60 -50 -22 -4 -45 -4 -51 0 -30 19 7 168 50
198 12 8 59 11 159 9 l141 -3 0 -24z m-492 -64 c9 -5 -2 -13 -35 -26 -97 -36
-159 -74 -209 -127 -83 -88 -95 -124 -73 -212 8 -35 8 -50 -5 -81 -9 -20 -16
-39 -16 -40 0 -1 18 -5 39 -9 27 -4 47 -16 65 -37 29 -34 30 -38 16 -73 -8
-21 -6 -28 13 -41 12 -8 31 -15 43 -15 32 0 64 -45 64 -89 0 -50 -12 -66 -38
-52 -33 18 -92 13 -130 -11 -38 -23 -72 -86 -82 -153 l-6 -40 -12 66 c-7 36
-12 87 -12 112 0 26 -4 47 -10 47 -18 0 -10 -104 19 -235 16 -71 28 -131 26
-133 -6 -6 -55 91 -83 165 -17 43 -35 105 -41 137 -16 84 -14 272 3 353 15 68
80 252 109 309 23 45 105 132 141 151 72 37 181 55 214 34z m733 -47 c6 -33
18 -227 23 -371 0 -23 -3 -38 -7 -34 -9 9 -33 199 -43 350 -6 87 -5 103 7 99
8 -3 17 -22 20 -44z m-126 2 c44 -19 47 -46 5 -46 -52 0 -133 -37 -163 -76
-26 -32 -31 -34 -45 -21 -10 8 -35 24 -57 35 l-40 21 48 1 c59 0 98 19 133 65
30 40 61 45 119 21z m255 -53 c21 -25 68 -31 88 -11 18 18 39 -6 52 -63 12
-50 7 -99 -10 -99 -5 0 -12 12 -16 28 -3 15 -9 36 -14 47 -7 16 -9 12 -9 -20
-1 -22 -10 -65 -21 -95 -12 -30 -23 -62 -26 -70 -11 -31 -24 15 -25 90 -1 83
-9 121 -24 121 -11 0 -12 -2 -21 -166 -5 -81 -9 -111 -14 -93 -7 25 -14 259
-11 353 2 38 2 39 17 20 8 -11 24 -30 34 -42z m-760 -71 l23 -19 -32 -46 c-35
-52 -45 -56 -61 -28 -5 11 -28 27 -50 37 -23 11 -40 25 -40 34 0 9 -9 25 -20
35 -27 24 -12 41 54 60 28 9 58 19 66 25 11 7 17 0 26 -35 6 -24 21 -53 34
-63z m1855 56 c41 -20 142 -102 182 -148 12 -14 29 -45 38 -70 9 -25 27 -72
41 -105 69 -172 50 -380 -49 -529 -58 -87 -122 -145 -200 -181 -78 -35 -127
-50 -127 -38 1 16 36 50 65 62 42 17 127 73 121 78 -2 3 -35 -7 -71 -22 -37
-14 -69 -24 -72 -21 -11 11 8 37 34 47 76 29 202 104 218 129 3 5 -44 -15
-106 -45 -62 -30 -114 -53 -117 -51 -12 12 13 44 52 67 61 37 198 140 193 145
-2 2 -53 -25 -113 -61 -60 -36 -112 -65 -116 -65 -20 0 10 40 56 73 28 21 88
72 132 113 l79 76 -60 -42 c-120 -84 -197 -132 -201 -127 -9 9 19 41 116 132
157 147 159 168 5 46 -123 -97 -139 -84 -33 27 40 42 89 97 108 122 l35 45
-33 -27 c-18 -15 -44 -41 -58 -57 -13 -16 -47 -46 -75 -66 -59 -42 -54 -24 15
54 42 47 94 119 110 151 4 8 -10 -5 -31 -30 -65 -77 -146 -160 -151 -156 -2 3
17 38 44 78 57 87 114 186 114 199 0 13 -46 -42 -106 -126 -40 -58 -50 -66
-52 -48 -3 22 52 142 89 194 10 15 19 34 19 43 0 20 -39 -23 -90 -99 -33 -48
-34 -49 -41 -25 -3 14 0 41 8 60 40 98 53 132 53 141 0 15 -44 -39 -65 -81
l-19 -35 -9 33 c-7 22 -7 49 1 80 6 26 9 49 7 51 -2 2 -13 -11 -23 -28 l-19
-32 -17 41 c-20 50 -20 48 2 53 27 6 74 -3 117 -25z m221 -13 c-9 -14 -21 -23
-26 -20 -15 9 -12 26 7 47 25 28 40 6 19 -27z m63 -8 c17 -21 -33 -65 -53 -48
-14 11 -13 16 1 37 17 27 35 31 52 11z m-1953 -22 c-11 -8 -27 -15 -35 -14 -9
0 -2 7 14 14 39 18 45 18 21 0z m-720 -30 c-9 -14 -20 -25 -24 -25 -5 0 -14
-16 -22 -35 -11 -27 -16 -32 -27 -24 -16 14 -18 -3 -3 -32 6 -11 7 -31 2 -50
l-8 -32 -33 38 c-46 53 -56 31 -14 -32 25 -38 33 -58 28 -74 -7 -20 -9 -19
-49 20 -23 23 -45 41 -49 41 -16 0 -5 -28 19 -51 41 -38 66 -78 60 -95 -4 -12
-22 -2 -76 41 -59 47 -71 53 -77 39 -6 -17 0 -24 97 -107 69 -59 39 -65 -55
-12 -44 25 -84 50 -88 54 -22 22 7 75 81 150 43 42 102 103 132 135 48 52 108
92 119 80 2 -2 -4 -15 -13 -29z m2724 0 c0 -13 -8 -40 -17 -60 -17 -35 -17
-35 -30 -13 -18 33 -16 52 8 82 23 30 39 26 39 -9z m-1673 -29 c17 -17 53
-167 53 -225 0 -62 -15 -67 -24 -8 -6 36 -49 147 -58 147 -2 0 -3 -37 -3 -82
0 -82 0 -83 -26 -86 -23 -3 -31 5 -57 51 -21 37 -39 57 -56 61 -34 8 -34 44 0
82 14 16 37 43 50 60 24 30 26 31 67 22 23 -6 47 -16 54 -22z m-758 -9 c6 -15
26 -30 54 -41 79 -30 97 -95 47 -166 -25 -35 -36 -31 -56 16 -8 19 -19 34 -24
34 -6 0 -10 -2 -10 -4 0 -15 44 -102 65 -130 13 -18 28 -50 33 -72 6 -30 13
-40 30 -42 28 -4 52 14 52 38 0 9 -11 30 -25 46 -30 34 -30 42 -7 74 9 14 22
43 28 65 10 39 12 40 52 39 67 -1 82 -22 82 -116 0 -66 -3 -80 -17 -85 -35
-12 -63 -46 -63 -76 0 -25 -2 -28 -15 -17 -8 7 -35 11 -67 8 -41 -2 -60 2 -83
18 -16 11 -38 23 -47 27 -9 3 -22 24 -28 47 -12 44 -60 105 -90 115 -14 4 -19
15 -18 44 0 21 -3 57 -7 80 -6 39 -5 44 33 81 45 46 69 50 81 17z m1340 -6
c12 -8 11 -13 -10 -30 -32 -27 -39 -26 -39 4 0 32 -18 32 -26 0 -5 -20 -9 -23
-20 -15 -16 14 -8 37 14 43 30 8 67 7 81 -2z m-851 -14 c13 -9 8 -45 -14 -88
-20 -40 -8 -69 30 -69 43 0 73 -23 81 -63 12 -56 30 -74 82 -81 81 -12 99 -23
124 -79 27 -64 31 -125 7 -140 -14 -9 -26 -3 -65 34 -26 24 -66 52 -88 62 -38
17 -41 21 -37 51 2 19 -1 37 -7 40 -6 4 -11 2 -11 -3 0 -9 -61 -41 -76 -41 -2
0 -4 11 -4 25 0 21 -3 24 -18 16 -22 -12 -77 10 -91 38 -6 11 -11 39 -11 63 0
74 -42 139 -104 161 -5 2 -3 14 4 27 26 52 36 56 112 55 40 0 79 -4 86 -8z
m1963 -104 c11 -20 10 -26 -3 -40 -15 -14 -17 -12 -27 23 -13 46 -14 66 -4 91
6 14 9 11 14 -16 4 -18 13 -44 20 -58z m-989 12 c15 -27 28 -53 28 -56 0 -11
-91 -30 -111 -24 -24 8 -26 80 -3 113 25 36 55 25 86 -33z m-194 -8 c6 -5 12
-24 12 -42 0 -25 8 -40 35 -64 37 -32 44 -34 134 -35 49 -1 56 -4 88 -41 39
-44 83 -125 83 -151 0 -9 -16 -34 -36 -56 -42 -47 -65 -97 -62 -136 4 -55 -24
-68 -62 -27 -13 14 -41 31 -63 37 l-38 12 31 24 c44 34 61 72 46 100 -6 12
-22 29 -34 38 -30 20 -29 68 0 88 25 18 17 21 -13 5 -34 -18 -42 -57 -23 -108
17 -44 17 -45 -6 -63 -33 -27 -57 -22 -82 17 -13 19 -27 35 -31 35 -5 0 -6 -4
-3 -8 5 -8 -14 -12 -66 -14 -34 -1 -96 44 -104 76 -7 30 16 76 56 110 27 22
35 24 53 15 12 -7 26 -18 30 -25 4 -8 17 -19 28 -25 19 -10 20 -9 9 10 -6 12
-38 50 -70 85 -36 38 -60 72 -60 86 0 12 13 35 30 51 26 26 34 29 67 23 21 -4
44 -11 51 -17z m1236 -69 c25 -39 30 -95 12 -123 -16 -25 -46 -34 -46 -15 0 5
10 30 22 55 23 47 18 74 -8 37 -8 -12 -19 -22 -23 -22 -14 0 -20 53 -8 72 16
24 33 23 51 -4z m-1394 -57 c0 -5 -7 -17 -16 -25 -8 -9 -20 -16 -25 -16 -15 0
-10 22 9 36 20 16 32 18 32 5z m758 -26 c35 -25 70 -95 93 -186 28 -111 23
-263 -10 -359 -27 -76 -38 -92 -39 -53 -1 43 -23 207 -28 212 -2 2 -4 -20 -4
-50 l0 -54 -18 30 c-27 43 -84 91 -128 105 -21 7 -59 10 -90 7 -39 -4 -54 -2
-54 7 0 26 48 79 90 100 48 23 48 20 34 113 -7 49 17 92 70 124 38 23 55 24
84 4z m-2418 -109 c45 -30 87 -57 93 -59 7 -2 9 -8 5 -12 -13 -13 -198 67
-198 86 0 10 11 39 15 39 2 0 40 -24 85 -54z m3080 0 c0 -26 -24 -51 -40 -41
-15 9 -12 31 6 49 22 23 34 20 34 -8z m-2101 -43 c19 -13 40 -23 49 -23 10 0
12 -6 8 -22 -4 -13 -9 -57 -11 -98 l-5 -75 15 60 c17 66 39 105 59 105 7 0 34
-14 59 -31 43 -28 47 -34 47 -72 0 -63 -21 -167 -34 -167 -71 0 -170 -78 -206
-162 -57 -133 26 -368 194 -546 27 -29 46 -55 42 -59 -19 -20 -152 128 -222
247 -24 41 -44 69 -44 62 0 -22 67 -145 112 -207 65 -89 65 -88 17 -68 -70 27
-164 144 -199 246 -12 34 -24 103 -27 152 -5 74 -8 85 -15 60 -11 -39 -2 -156
17 -219 8 -27 33 -83 55 -124 22 -41 38 -77 36 -79 -11 -12 -76 41 -120 96
-96 123 -134 257 -122 431 3 52 2 77 -3 64 -5 -11 -12 -68 -16 -125 -10 -149
18 -247 107 -377 28 -41 29 -43 7 -32 -105 57 -228 257 -263 432 -9 42 -16 89
-16 104 0 15 -3 25 -6 21 -13 -12 -4 -122 15 -192 11 -40 38 -110 60 -156 l40
-84 -50 55 c-60 67 -116 176 -135 262 -18 85 -18 219 1 263 27 66 100 66 132
0 19 -40 17 -40 73 -20 60 21 84 19 119 -11 27 -22 118 -74 130 -74 3 0 -8 13
-23 29 -28 29 -28 29 -7 40 15 8 27 9 40 1 29 -15 41 -12 50 13 6 14 4 33 -4
52 -6 17 -15 51 -19 77 -4 25 -13 51 -20 57 -11 9 -11 2 -3 -39 5 -28 7 -53 4
-56 -14 -15 -26 12 -36 86 -13 88 -6 115 32 129 26 10 40 5 86 -26z m-988 -52
c31 -17 62 -38 69 -46 12 -15 -2 -10 -165 51 -38 14 -45 24 -33 49 l11 24 31
-23 c17 -13 56 -37 87 -55z m3099 5 c0 -14 -10 -30 -25 -40 -33 -22 -35 -21
-35 14 0 22 6 33 23 40 33 13 37 12 37 -14z m-3105 -76 c108 -39 127 -48 121
-59 -3 -4 -59 5 -126 22 l-120 29 0 36 c0 33 1 34 18 20 9 -9 58 -30 107 -48z
m769 34 c22 -21 29 -57 22 -99 -4 -19 -8 -35 -10 -35 -2 0 -21 7 -41 16 -21 9
-49 14 -62 11 -13 -2 -23 -3 -23 -2 0 8 34 82 47 102 18 27 45 30 67 7z m2315
-75 c-13 -10 -32 -20 -42 -23 -14 -3 -17 0 -11 17 8 26 3 21 39 40 27 14 30
14 34 0 2 -9 -7 -24 -20 -34z m-1547 -6 c31 -29 59 -25 76 12 13 29 26 31 75
10 20 -8 49 -15 65 -15 32 0 52 -16 52 -42 0 -14 -35 -90 -58 -127 -1 -3 -24
16 -50 41 -79 77 -108 83 -188 43 -46 -24 -51 -24 -87 -10 -20 8 -48 15 -61
15 -29 0 -73 -40 -82 -74 -7 -28 -34 -35 -53 -13 -10 13 -2 96 14 148 7 23 32
24 59 4 30 -22 61 -18 114 15 54 34 82 33 124 -7z m-1504 -44 c45 -12 82 -25
82 -30 0 -5 -6 -9 -12 -9 -23 0 -241 39 -245 44 -3 2 -2 13 1 24 6 18 9 18 49
6 23 -8 79 -24 125 -35z m3046 -2 c-15 -26 -48 -57 -61 -57 -10 0 -11 8 -7 28
9 37 8 37 43 39 22 2 30 -1 25 -10z m-3071 -58 c67 -11 124 -22 127 -26 3 -3
-58 -3 -135 1 -142 7 -155 11 -155 49 0 15 3 16 21 6 12 -6 76 -20 142 -30z
m2310 -26 c63 -54 87 -117 87 -227 0 -82 -20 -133 -76 -201 -42 -49 -75 -71
-50 -32 28 43 68 236 47 222 -6 -3 -15 -29 -21 -58 -14 -71 -58 -160 -109
-225 -45 -56 -63 -63 -38 -15 25 48 57 155 56 187 0 28 -2 26 -18 -19 -35 -98
-94 -199 -149 -257 -72 -76 -87 -75 -56 2 52 126 85 316 83 465 -2 78 -2 76
-14 -50 -18 -191 -90 -433 -147 -498 l-19 -22 5 30 c3 17 15 74 26 128 11 55
19 122 19 150 l-1 52 -9 -50 c-19 -109 -33 -163 -61 -242 -17 -46 -33 -83 -37
-83 -4 0 1 33 11 73 23 87 38 354 20 343 -7 -4 -12 -31 -12 -62 0 -107 -42
-305 -73 -348 -9 -13 -11 13 -9 117 3 95 -1 159 -13 223 -19 103 -78 288 -83
261 -2 -9 6 -45 17 -80 62 -186 70 -488 14 -549 -31 -34 -43 -23 -44 45 0 34
-4 85 -8 112 -6 46 -7 41 -13 -52 -7 -100 -22 -154 -38 -137 -8 9 -60 314 -60
353 0 11 -5 21 -10 21 -10 0 -9 -22 11 -200 13 -121 12 -183 -3 -178 -22 8
-61 89 -116 243 -65 184 -64 135 1 -92 24 -84 41 -153 37 -153 -18 0 -41 33
-69 100 -51 122 -62 143 -67 137 -3 -2 10 -51 29 -108 19 -57 33 -106 31 -108
-15 -16 -119 121 -173 227 -17 34 -33 62 -36 62 -10 0 46 -135 77 -184 32 -53
21 -50 -35 9 -97 101 -166 218 -186 316 -21 100 16 196 90 234 36 19 60 19
102 -1 30 -14 35 -23 46 -77 16 -82 40 -155 53 -163 6 -4 8 -2 4 4 -3 6 -15
52 -25 102 l-19 91 37 71 c20 39 41 73 48 75 6 2 27 -13 47 -33 l36 -37 49 47
c69 64 104 60 159 -20 50 -73 118 -64 163 20 31 56 43 66 84 65 37 0 67 -16
95 -51 29 -38 57 -35 121 11 30 21 66 41 79 43 37 5 89 -8 113 -29z m-2260
-49 c128 -10 87 -24 -70 -24 -128 0 -133 1 -133 21 0 19 4 20 58 15 31 -3 97
-8 145 -12z m2961 -55 c26 -30 26 -33 26 -190 0 -182 -6 -204 -67 -235 -49
-24 -60 -39 -74 -92 -7 -27 -26 -58 -48 -79 -38 -38 -123 -83 -156 -83 -26 0
-85 -36 -85 -52 0 -18 -31 -35 -76 -43 -57 -10 -82 -30 -94 -75 -23 -86 -82
-125 -230 -155 -152 -31 -276 -7 -416 80 -68 43 -144 114 -144 135 0 6 19 10
43 10 36 0 50 -7 94 -45 70 -62 85 -57 28 10 -65 76 -38 71 94 -19 113 -76
221 -126 269 -126 22 1 17 5 -28 24 -95 39 -300 174 -300 196 0 14 -2 15 117
-41 123 -59 222 -95 288 -105 66 -9 55 8 -22 35 -38 13 -108 43 -158 67 -183
91 -182 118 2 50 136 -49 237 -76 291 -76 51 0 37 16 -25 29 -65 12 -215 66
-283 101 -79 41 -20 39 124 -2 106 -31 154 -40 251 -45 66 -3 117 -2 113 2 -3
4 -56 15 -115 25 -105 18 -295 78 -317 100 -17 17 45 12 177 -15 67 -13 158
-27 202 -31 90 -7 82 -7 115 -5 39 2 5 18 -55 26 -104 14 -355 75 -355 86 0
17 37 17 142 -2 134 -24 356 -35 413 -21 l40 10 -40 1 c-81 2 -302 29 -383 47
-127 27 -91 40 69 24 169 -16 429 -5 429 20 0 4 -45 5 -100 2 -101 -5 -365 13
-403 27 -40 15 2 20 174 22 177 1 361 19 413 38 44 17 28 21 -49 11 -83 -11
-393 -12 -450 -2 -66 12 -26 21 136 31 85 6 188 15 229 21 140 20 207 48 88
37 -140 -13 -433 -19 -418 -8 8 6 29 11 46 11 85 0 428 63 449 81 14 14 -28
11 -160 -11 -66 -11 -147 -20 -180 -20 l-60 1 135 43 c152 48 251 90 275 116
14 15 6 14 -52 -7 -91 -34 -164 -53 -157 -42 14 23 168 139 184 139 10 0 30
-14 44 -31z m-3114 2 c27 -7 188 -19 283 -21 4 0 7 -7 7 -15 0 -13 -23 -15
-147 -15 -128 0 -145 -2 -128 -14 12 -8 64 -16 125 -20 110 -8 187 -22 175
-34 -4 -4 -52 -9 -108 -12 -96 -5 -100 -6 -62 -16 22 -6 80 -16 128 -21 140
-16 135 -34 -13 -41 -55 -2 -97 -8 -95 -12 6 -9 98 -26 197 -36 88 -8 115 -34
37 -34 -71 0 -93 -14 -48 -29 19 -6 54 -13 78 -17 24 -4 54 -16 68 -28 l25
-21 -89 6 c-89 6 -145 24 -243 78 -94 52 -214 197 -234 284 -7 30 -6 31 44 18z
m245 -421 c12 -5 -26 -8 -94 -9 -63 -1 -124 -4 -137 -7 -51 -13 -14 34 46 60
36 15 44 13 185 -44z m15 -56 c-58 -14 -290 -31 -290 -21 0 32 12 34 178 34
159 0 164 -1 112 -13z m119 -39 c-6 -5 -271 -51 -351 -60 -58 -6 -73 1 -62 30
5 13 16 15 53 12 25 -3 89 1 141 8 97 13 227 19 219 10z m256 -3 c-31 -28
-550 -142 -642 -142 -29 0 -33 3 -33 25 0 23 4 25 44 25 66 0 267 27 376 50
204 44 270 55 255 42z m75 -51 c0 -22 -438 -139 -639 -170 -56 -9 -66 -8 -77
7 -15 19 -18 32 -6 32 4 0 69 9 145 20 150 22 355 66 482 103 77 23 95 24 95
8z m63 -38 c16 -15 -219 -100 -466 -168 l-208 -58 -24 23 c-30 28 -24 40 20
40 85 0 499 104 615 154 39 17 54 19 63 9z m16 -83 c-41 -21 -175 -76 -299
-123 -279 -106 -308 -119 -292 -124 20 -8 457 144 593 206 117 53 149 62 149
41 0 -12 -213 -119 -380 -190 -80 -34 -169 -75 -197 -91 -56 -31 -73 -34 -101
-20 -9 4 -33 16 -52 25 -58 28 -80 50 -83 81 l-2 29 170 43 c94 24 253 72 355
106 102 35 191 61 199 59 8 -3 -18 -21 -60 -42z m2326 16 c44 -8 119 -17 168
-21 48 -4 87 -11 87 -15 0 -5 -28 -11 -62 -15 -92 -11 -105 -18 -198 -109 -47
-45 -102 -95 -123 -110 -82 -60 -268 -126 -354 -126 -49 0 -121 36 -104 53 8
8 19 3 39 -16 52 -50 82 -24 31 29 -27 28 -30 34 -16 40 11 4 32 -8 63 -35 26
-23 50 -41 55 -41 25 0 12 24 -41 74 -36 35 -57 62 -54 71 4 10 21 1 65 -35
73 -60 111 -81 128 -70 10 5 -2 19 -40 48 -117 86 -125 124 -13 56 108 -66
135 -77 158 -66 21 10 21 10 1 18 -11 5 -56 31 -98 58 -74 46 -77 49 -58 63
19 13 30 10 115 -33 73 -36 98 -44 112 -36 15 8 6 16 -62 50 -43 22 -88 47
-99 55 -40 31 12 30 107 -2 51 -17 103 -31 116 -31 44 0 21 18 -58 46 -44 15
-80 31 -80 35 0 17 43 19 114 5 86 -18 109 -20 102 -7 -3 5 -37 17 -76 27 -73
19 -82 26 -52 43 22 13 32 13 127 -3z m-2090 -46 c-7 -12 -151 -96 -295 -173
-113 -60 -148 -83 -140 -90 6 -6 290 130 409 196 89 50 150 66 101 27 -31 -25
-207 -135 -352 -220 -60 -35 -106 -66 -103 -68 4 -5 99 42 261 129 40 21 115
65 168 99 91 57 117 69 115 53 -1 -14 -103 -94 -229 -178 -108 -73 -206 -146
-175 -132 28 13 282 173 368 231 54 36 102 66 108 66 27 0 -7 -32 -125 -116
-71 -50 -140 -104 -154 -119 -35 -36 -26 -31 158 93 226 152 236 155 183 64
-89 -152 -338 -309 -508 -320 -94 -6 -143 9 -187 56 -33 36 -41 39 -104 45
-53 5 -77 13 -108 36 -47 33 -54 46 -29 54 46 14 314 132 453 200 146 71 199
90 185 67z m446 -223 c-28 -102 -58 -283 -91 -537 -6 -47 -14 -94 -17 -105 -4
-15 -2 -17 7 -9 6 7 20 72 30 145 11 74 28 181 40 239 19 100 87 360 96 369 7
7 -6 -216 -22 -393 -14 -164 -18 -263 -9 -254 9 9 56 419 62 546 3 67 10 122
14 122 18 0 22 -91 16 -408 -3 -184 -4 -332 -2 -330 2 2 6 48 10 103 3 55 8
127 11 160 16 177 21 267 20 365 -1 60 3 102 7 94 20 -35 57 -428 57 -603 0
-52 2 -92 4 -90 2 2 6 77 9 167 5 151 -4 366 -19 437 -8 40 10 22 25 -25 20
-63 50 -273 61 -420 6 -79 13 -147 16 -149 2 -2 4 56 4 130 0 117 -14 273 -35
406 -6 35 -5 37 9 19 36 -45 66 -199 91 -469 7 -82 16 -151 19 -155 8 -7 7 8
-4 198 -4 85 -16 204 -25 264 -9 59 -14 110 -11 113 21 21 86 -354 86 -498 0
-38 3 -69 8 -69 12 0 -5 360 -22 443 -8 43 -18 82 -21 87 -10 16 7 12 27 -7
34 -31 68 -169 97 -395 13 -101 24 -77 17 37 -7 108 -25 226 -45 294 -12 39
-10 44 12 35 33 -12 86 -228 88 -355 1 -38 5 -69 10 -69 11 0 11 0 9 115 -1
50 -10 134 -21 188 -21 99 -20 123 5 96 13 -15 62 -202 72 -281 4 -26 11 -45
15 -42 15 9 10 74 -16 198 -14 66 -23 122 -20 124 2 2 10 2 18 -1 15 -6 77
-198 78 -242 0 -26 1 -28 10 -12 11 19 3 79 -25 200 -13 54 -13 57 4 57 14 0
25 -20 48 -87 26 -77 30 -85 37 -61 6 23 -9 92 -31 146 -4 7 2 12 16 12 27 0
60 -68 60 -125 0 -184 -341 -410 -627 -416 -64 -2 -124 23 -137 56 -9 25 -89
19 -123 -8 -15 -13 -37 -27 -48 -31 -26 -10 -145 14 -145 29 0 7 9 38 20 71
30 85 98 360 105 424 7 58 86 301 93 282 2 -6 -11 -62 -27 -125z m-65 2 c-19
-52 -72 -191 -119 -309 -46 -118 -90 -232 -96 -252 -10 -30 -18 -38 -37 -38
-13 0 -24 6 -24 13 0 59 296 723 307 690 2 -5 -12 -52 -31 -104z m-122 -116
c-72 -173 -145 -358 -159 -405 -16 -57 -17 -58 -52 -58 -33 0 -35 2 -29 26 21
82 181 395 234 457 23 26 24 21 6 -20z m71 -179 c-64 -243 -97 -358 -106 -368
-5 -5 -19 -2 -33 7 l-25 17 19 56 c33 95 182 465 186 461 2 -2 -16 -79 -41
-173z m-240 -16 c-34 -79 -71 -167 -81 -195 -19 -54 -27 -60 -54 -43 -13 8 -3
33 59 157 61 123 122 223 136 223 2 0 -25 -64 -60 -142z m-109 -73 c-50 -105
-76 -135 -76 -88 0 33 115 222 127 209 3 -3 -20 -57 -51 -121z"/>
<path d="M5900 5950 c14 -13 45 -42 69 -64 40 -37 42 -38 23 -10 -12 17 -36
42 -54 56 -48 35 -67 45 -38 18z"/>
<path d="M4226 6018 c-9 -35 -7 -52 8 -74 13 -17 14 -14 12 33 -3 59 -10 75
-20 41z"/>
<path d="M3700 5969 c0 -5 5 -7 10 -4 6 3 10 8 10 11 0 2 -4 4 -10 4 -5 0 -10
-5 -10 -11z"/>
<path d="M4658 5894 c-5 -4 -8 -21 -7 -38 0 -30 0 -30 10 -7 11 27 8 57 -3 45z"/>
<path d="M4281 5614 c0 -11 3 -14 6 -6 3 7 2 16 -1 19 -3 4 -6 -2 -5 -13z"/>
<path d="M5441 4884 c0 -11 3 -14 6 -6 3 7 2 16 -1 19 -3 4 -6 -2 -5 -13z"/>
<path d="M225 5631 c-6 -21 9 -256 25 -371 5 -36 12 -92 15 -125 4 -33 19
-141 35 -240 16 -99 34 -216 39 -260 6 -44 20 -150 31 -235 22 -160 24 -180
35 -265 4 -27 24 -160 46 -295 67 -409 179 -820 339 -1235 101 -265 121 -333
149 -505 50 -315 57 -459 37 -785 -9 -143 -18 -370 -22 -505 -3 -135 -8 -252
-10 -260 -9 -26 -24 10 -24 58 0 51 -52 377 -80 504 -11 48 -43 152 -71 230
-65 180 -67 186 -144 466 -62 225 -80 305 -145 647 -40 211 -52 256 -74 269
-37 23 -43 -9 -49 -291 -4 -148 -11 -347 -17 -443 -24 -420 52 -763 244 -1090
44 -76 85 -129 148 -192 84 -85 86 -89 104 -162 14 -59 22 -76 38 -80 12 -3
73 -6 137 -6 128 0 128 0 147 66 15 52 33 67 112 96 95 35 166 86 278 202 104
108 175 204 312 421 113 178 167 244 354 430 191 189 256 266 443 520 187 253
250 347 286 423 46 98 19 122 -62 54 -105 -88 -281 -196 -706 -432 -423 -235
-556 -324 -698 -462 -119 -117 -201 -229 -272 -369 -104 -208 -131 -340 -134
-659 -1 -112 -5 -207 -8 -210 -6 -6 4 632 13 750 15 216 41 401 100 703 47
241 67 278 241 454 193 194 287 346 339 551 25 98 26 179 3 238 -6 19 2 36 45
96 69 94 123 198 177 337 24 61 48 111 55 111 22 0 73 -69 90 -122 11 -37 18
-103 21 -218 6 -191 11 -204 92 -239 39 -16 56 -32 77 -66 33 -58 68 -85 109
-85 43 0 74 26 110 92 28 49 30 61 30 154 0 101 -10 134 -40 134 -6 0 -23 -17
-36 -37 -26 -41 -111 -111 -116 -96 -2 5 12 43 32 85 64 139 81 259 51 347
-20 56 -84 148 -139 198 -91 84 -168 104 -250 64 -54 -26 -57 -26 -57 3 0 24
-27 189 -35 217 -4 13 11 19 78 32 177 35 414 160 561 297 99 92 220 265 297
424 70 144 41 174 -42 44 -173 -272 -356 -457 -561 -568 -177 -95 -384 -89
-506 15 -79 68 -79 134 0 290 121 239 222 379 415 576 73 75 133 142 133 148
0 18 -40 13 -79 -11 -89 -54 -237 -190 -330 -303 -83 -101 -126 -168 -238
-370 -55 -99 -115 -205 -133 -235 -70 -117 -110 -212 -110 -260 0 -53 11 -66
122 -144 137 -96 196 -195 186 -307 -5 -47 -48 -129 -68 -129 -5 0 -21 20 -35
44 -45 77 -178 185 -264 214 -115 40 -234 -19 -296 -145 -66 -135 -36 -247
129 -480 43 -60 77 -137 89 -200 6 -29 3 -33 -31 -50 -64 -31 -77 -67 -112
-313 -5 -36 -12 -98 -16 -138 -3 -39 -9 -74 -14 -77 -4 -2 -10 53 -14 123 -17
331 -46 516 -126 822 -85 324 -132 454 -300 835 -167 378 -202 462 -259 614
-73 195 -124 365 -147 493 -28 155 -39 193 -56 196 -9 2 -19 -6 -23 -17z"/>
<path d="M6721 3452 c-13 -24 10 -76 44 -98 25 -16 27 -16 47 3 23 23 19 46
-13 87 -24 30 -64 34 -78 8z"/>
<path d="M9350 3397 c-81 -36 -245 -132 -350 -205 -339 -237 -864 -623 -995
-732 -44 -37 -91 -73 -105 -80 -24 -13 -25 -12 -7 7 32 37 12 57 -33 33 -18
-10 -19 -8 -13 22 l6 33 -27 -24 c-14 -14 -28 -23 -30 -20 -2 2 2 33 10 69 13
63 12 67 -16 152 -39 117 -50 221 -31 315 13 70 13 75 -9 125 -35 80 -42 107
-49 183 -5 62 -9 70 -28 73 -54 8 -54 -88 -2 -241 26 -74 29 -93 20 -119 -25
-70 -10 -247 31 -371 l22 -69 -29 -56 c-29 -54 -32 -57 -103 -80 -71 -23 -74
-24 -94 -6 l-20 19 28 5 c33 6 35 21 5 35 -29 13 -27 21 11 31 43 13 49 34 9
34 -40 0 -40 16 -1 25 42 9 48 26 8 20 l-33 -5 33 12 c51 18 42 33 -18 28
l-25 -2 21 24 c29 31 40 68 21 68 -8 0 -20 -6 -26 -14 -6 -8 -21 -16 -32 -19
-18 -5 -19 -2 -13 44 8 57 -4 64 -41 22 l-24 -28 -1 46 c0 25 -7 54 -15 65
-14 18 -14 18 -15 -11 l-1 -30 -12 25 c-10 23 -11 21 -17 -30 -4 -30 -7 -48
-8 -40 -1 8 -12 31 -24 50 l-23 35 -5 -49 -5 -49 -25 38 c-35 54 -50 56 -50 6
0 -49 -9 -52 -34 -10 -22 38 -38 33 -49 -15 l-9 -37 -33 38 c-28 32 -31 42
-23 63 18 44 15 151 -5 203 -19 49 -38 58 -70 34 -16 -11 -16 -15 -1 -62 9
-28 21 -56 27 -63 5 -7 11 -49 12 -95 1 -45 6 -95 10 -112 l8 -30 -32 29 c-37
36 -46 30 -32 -20 6 -21 9 -39 8 -41 -2 -1 -34 23 -73 53 -93 75 -144 94 -158
58 -10 -25 20 -62 67 -84 46 -22 117 -76 117 -90 0 -5 -10 -10 -22 -12 -32 -5
-33 -25 -1 -32 34 -9 20 -19 -55 -41 -53 -16 -62 -35 -16 -35 28 0 32 -18 7
-27 -64 -21 -136 -59 -144 -76 -10 -18 -8 -19 32 -12 l43 7 -27 -36 c-38 -48
-25 -64 21 -26 43 35 54 31 24 -10 -12 -16 -22 -32 -22 -35 0 -7 45 -6 54 2 8
8 46 12 46 4 0 -2 -10 -15 -22 -28 -28 -30 -18 -39 15 -13 27 22 49 28 29 8
-7 -7 -12 -23 -12 -37 l0 -25 30 29 c17 16 30 24 30 17 0 -6 -4 -14 -10 -17
-5 -3 -10 -11 -10 -17 0 -6 11 -3 25 6 14 9 25 12 25 7 0 -5 -4 -13 -10 -16
-13 -8 -13 -25 0 -25 5 0 26 15 47 33 l38 32 -19 -30 -19 -30 22 20 22 19 -6
-27 c-10 -38 7 -34 44 11 27 33 30 35 31 15 0 -27 12 -29 30 -7 8 8 21 19 31
24 14 8 16 6 12 -10 -8 -30 10 -24 36 11 21 29 44 35 25 6 -5 -7 -2 -6 6 3 8
9 22 27 31 40 l15 23 42 -44 41 -44 -30 -3 c-34 -4 -34 -22 -1 -37 32 -14 27
-21 -25 -35 l-48 -12 30 -12 30 -12 -34 -12 c-24 -8 -31 -16 -24 -23 6 -6 18
-6 37 0 l26 11 -16 -33 c-40 -76 -95 -147 -121 -153 -37 -10 -108 17 -199 74
-140 88 -124 83 -269 78 -165 -6 -182 -10 -230 -51 -22 -20 -89 -54 -154 -81
-64 -26 -122 -52 -128 -57 -21 -16 3 -47 37 -47 38 0 231 84 293 127 l47 33
129 0 129 0 99 -66 c132 -88 166 -105 221 -106 65 -2 100 20 174 106 35 41 65
75 68 75 3 0 15 -22 28 -49 22 -48 23 -49 8 -149 -18 -116 -19 -120 -81 -192
-25 -30 -58 -74 -72 -99 -45 -77 -163 -252 -203 -299 -21 -25 -55 -77 -75
-116 -68 -128 -169 -269 -249 -349 l-79 -79 23 -19 c12 -10 27 -18 33 -18 6 0
43 33 82 72 68 70 184 236 255 363 18 33 45 74 60 90 15 17 58 75 95 130 127
185 138 200 196 261 61 65 79 97 79 143 0 28 57 128 67 118 3 -3 0 -20 -6 -38
-6 -19 -7 -37 -2 -47 8 -13 13 -10 31 21 l22 37 24 -35 c41 -62 51 -88 59
-159 4 -38 9 -75 12 -83 7 -18 30 -16 37 4 6 14 12 11 36 -18 21 -25 31 -31
40 -23 8 8 5 25 -10 65 -23 57 -22 95 1 162 16 44 22 46 38 10 10 -22 14 -24
22 -12 5 7 9 27 9 43 0 24 3 27 12 18 8 -8 13 -48 14 -110 1 -80 8 -121 41
-237 22 -77 50 -180 61 -230 20 -87 25 -120 37 -250 3 -33 8 -76 10 -95 3 -19
7 -83 11 -141 9 -152 14 -174 44 -174 25 0 25 2 26 85 1 187 -39 506 -93 729
-24 101 -43 190 -41 199 2 9 23 -16 52 -59 27 -41 65 -94 85 -118 19 -23 56
-84 81 -135 178 -351 348 -653 390 -691 23 -21 50 -13 50 14 0 10 -32 73 -72
138 -68 111 -308 576 -308 596 0 5 21 -7 48 -27 104 -80 332 -178 477 -206
115 -21 285 -31 371 -20 140 18 344 83 344 111 0 6 -19 29 -41 52 -24 23 -56
72 -75 114 -18 40 -35 73 -38 73 -11 0 -109 -135 -156 -215 -55 -95 -59 -83
-8 23 17 37 57 92 94 132 35 37 64 73 64 80 0 25 -98 156 -170 227 -137 136
-310 236 -554 322 -48 17 -95 31 -105 31 -25 0 -52 -32 -110 -128 -56 -94 -90
-178 -137 -337 -37 -124 -41 -125 -19 -4 31 168 95 315 180 419 l45 55 -37 8
c-89 20 -209 -9 -257 -62 -11 -12 -24 -21 -31 -21 -7 0 -40 18 -73 40 -66 42
-81 70 -36 67 36 -3 41 17 9 31 -29 13 -25 32 6 32 28 0 24 18 -6 26 -34 8
-31 20 6 33 34 12 35 36 0 35 -24 -1 -28 14 -6 22 8 4 12 10 9 15 -6 10 20 -4
143 -79 95 -58 260 -115 383 -133 50 -7 131 -10 204 -6 107 4 132 9 221 42 55
21 111 39 125 42 43 8 308 -165 454 -296 43 -39 82 -71 86 -71 4 0 15 9 25 20
18 20 17 22 -62 98 -76 74 -232 189 -355 262 -32 19 -58 38 -58 41 0 4 23 21
50 39 63 40 143 129 175 194 18 36 25 66 25 108 0 53 -3 62 -37 100 -21 22
-51 49 -66 58 l-28 18 43 48 c150 170 204 301 215 521 6 118 5 124 -21 178
-51 102 -154 124 -296 62z m187 -54 c54 -25 67 -66 60 -186 -4 -54 -13 -124
-22 -155 l-16 -58 -86 -22 c-194 -52 -438 -150 -638 -257 -158 -85 -526 -237
-540 -223 -2 1 67 36 154 76 86 40 195 95 241 123 280 167 689 380 818 425 54
19 73 41 25 29 -134 -33 -493 -213 -903 -451 -151 -87 -485 -243 -497 -231 -1
2 52 34 120 71 67 38 205 120 307 184 275 172 611 363 825 469 179 88 235 123
166 103 -148 -42 -593 -283 -1006 -545 -88 -56 -207 -128 -265 -160 -58 -32
-129 -71 -157 -87 -29 -16 -53 -27 -53 -25 0 3 33 29 73 58 39 29 151 112 247
184 189 142 219 164 500 361 267 188 435 288 535 320 54 17 71 17 112 -3z m2
-440 c-6 -16 -21 -47 -35 -70 -27 -47 -30 -48 -259 -108 -175 -45 -391 -103
-427 -115 -55 -18 -26 1 104 66 146 73 381 168 515 209 48 15 92 31 98 36 14
14 15 11 4 -18z m-108 -181 c-16 -31 -129 -131 -172 -153 -84 -42 -218 -72
-584 -129 -66 -11 -187 -33 -270 -51 -82 -17 -161 -33 -175 -36 l-25 -4 25 14
c48 28 248 77 575 142 317 62 401 83 347 84 -12 1 -66 -6 -120 -14 -53 -8
-115 -17 -137 -20 -59 -9 -126 -21 -260 -49 -66 -14 -121 -23 -123 -21 -8 7
212 73 473 140 99 26 241 64 315 84 74 21 136 36 138 35 2 -1 -1 -11 -7 -22z
m-2164 -138 c8 -23 -17 -63 -57 -90 -39 -27 -72 -31 -89 -10 -16 19 7 66 46
95 34 25 91 28 100 5z m2143 -86 c18 -13 40 -34 49 -48 15 -23 15 -24 -4 -17
-32 13 -245 21 -245 10 0 -11 100 -23 198 -23 61 0 62 0 62 -27 0 -53 -11 -58
-87 -45 -101 18 -328 42 -408 43 -62 1 -144 15 -105 18 8 1 72 10 141 21 120
18 147 25 269 69 71 26 90 26 130 -1z m-541 -143 c86 -27 121 -52 121 -84 0
-40 -66 -40 -252 0 -79 17 -179 37 -222 44 -43 8 -81 16 -83 18 -2 2 41 12 94
21 54 10 103 19 108 20 6 2 42 4 80 5 53 1 92 -5 154 -24z m346 -9 c198 -24
225 -28 225 -37 0 -5 -12 -22 -27 -39 l-28 -30 -120 33 c-66 19 -155 42 -198
51 -42 10 -79 21 -81 25 -9 14 96 12 229 -3z m-810 -166 c94 -69 181 -134 195
-144 l25 -18 -30 6 c-60 13 -133 57 -285 172 -85 64 -156 117 -158 119 -2 2
16 1 40 -2 35 -5 73 -29 213 -133z m20 130 c77 -12 321 -64 373 -81 26 -9 32
-16 32 -40 0 -25 -4 -29 -26 -29 -14 0 -63 11 -108 25 -44 13 -148 41 -231 60
-144 35 -215 58 -215 69 0 9 99 6 175 -4z m-239 -54 c35 -30 100 -81 143 -112
44 -32 78 -60 76 -62 -12 -13 -174 98 -280 192 -68 60 -12 43 61 -18z m949 25
c187 -48 210 -54 218 -61 4 -4 -7 -18 -25 -32 l-33 -25 -129 38 c-71 21 -133
44 -137 51 -5 7 -9 23 -9 36 0 18 4 22 18 18 9 -3 53 -14 97 -25z m-730 -42
c30 -11 55 -24 55 -27 0 -4 26 -23 58 -41 31 -19 100 -64 152 -100 85 -59 92
-66 68 -69 -15 -2 -36 2 -48 8 -15 8 -327 228 -349 247 -10 8 12 2 64 -18z
m213 -60 c55 -18 99 -42 130 -67 26 -22 71 -54 100 -72 28 -17 52 -34 52 -36
0 -2 -18 -4 -39 -4 -32 0 -58 13 -138 66 -54 36 -131 84 -170 106 -40 22 -73
42 -73 44 0 6 44 -6 138 -37z m520 2 c67 -19 122 -37 122 -41 0 -4 -18 -15
-39 -25 l-39 -17 -146 57 c-80 31 -146 58 -146 59 0 1 28 1 63 1 38 0 108 -13
185 -34z m-162 -31 c60 -22 125 -48 144 -57 l35 -16 -42 -18 -41 -19 -106 52
c-88 44 -106 56 -106 75 0 13 1 23 3 23 2 0 53 -18 113 -40z m-53 -68 c59 -25
107 -49 107 -53 0 -4 -18 -10 -40 -14 -36 -6 -49 -2 -115 36 -41 23 -84 52
-95 64 l-21 22 28 -4 c15 -3 76 -25 136 -51z m-137 -344 c-70 -108 -157 -284
-213 -428 -59 -154 -63 -163 -56 -120 25 163 169 475 275 596 52 59 49 37 -6
-48z m376 -244 c-102 -106 -239 -323 -280 -443 -19 -55 -24 -30 -6 30 29 98
118 255 197 349 30 36 149 142 153 137 2 -2 -27 -34 -64 -73z"/>
<path d="M6808 3335 c-9 -21 -7 -30 15 -65 36 -53 72 -77 92 -60 8 7 15 21 15
33 0 41 -63 117 -97 117 -8 0 -19 -11 -25 -25z"/>
<path d="M6917 3202 c-22 -24 -21 -44 3 -93 27 -53 63 -70 91 -43 19 20 19 20
-8 74 -16 29 -37 60 -49 67 -18 11 -23 11 -37 -5z"/>
<path d="M3593 2906 c-54 -24 -68 -58 -67 -156 3 -199 123 -441 307 -617 95
-91 161 -131 382 -232 88 -40 164 -76 168 -81 5 -4 -38 8 -95 27 -56 19 -124
37 -150 40 -26 3 -53 12 -59 19 -18 22 -41 17 -34 -7 6 -19 5 -20 -17 -8 -12
7 -40 23 -60 35 -42 27 -57 17 -32 -21 20 -31 4 -33 -36 -5 -33 23 -80 43 -80
32 1 -4 7 -18 15 -32 22 -39 18 -42 -25 -20 -21 11 -48 20 -60 20 -22 0 -27
-19 -8 -38 17 -17 -10 -15 -42 3 -14 8 -31 14 -37 15 -21 0 -15 -28 9 -44 l22
-16 -26 0 c-15 0 -50 5 -78 11 -69 15 -85 0 -33 -31 l38 -23 -35 -12 c-19 -7
-55 -15 -80 -19 -25 -4 -52 -11 -60 -16 -13 -9 -12 -13 8 -29 27 -24 28 -31 2
-31 -25 0 -80 -27 -80 -39 0 -5 6 -12 13 -15 8 -3 2 -13 -17 -27 -43 -34 -146
-167 -172 -224 -31 -66 -31 -100 1 -121 14 -9 25 -23 25 -30 0 -8 11 -20 25
-26 20 -9 33 -8 66 5 l41 16 -17 -25 c-24 -37 -9 -48 31 -24 45 26 47 25 30
-9 -25 -48 -4 -49 67 -3 20 14 40 22 44 18 3 -3 2 -6 -4 -6 -9 0 -19 -19 -28
-58 -5 -21 15 -14 67 24 55 39 68 38 49 -2 -21 -46 3 -50 48 -9 43 39 61 42
42 6 -22 -39 10 -34 56 10 45 44 46 44 28 -18 -9 -33 6 -28 50 17 45 47 54 49
47 15 -6 -35 6 -31 55 17 58 57 56 29 -6 -58 -119 -170 -180 -217 -290 -224
-88 -6 -111 -25 -74 -62 19 -19 33 -22 90 -22 87 1 150 29 219 100 58 59 150
187 188 261 22 45 29 51 52 49 15 -2 39 3 53 10 14 6 82 22 151 34 69 11 133
24 144 27 13 3 16 1 11 -7 -14 -23 -90 -50 -140 -50 -75 0 -143 -36 -201 -106
-27 -33 -97 -127 -156 -210 -136 -192 -191 -236 -337 -269 -84 -19 -107 -44
-73 -77 20 -20 20 -20 113 2 174 41 236 91 376 303 106 162 145 211 196 248
51 37 60 36 52 -1 -9 -39 1 -38 47 6 l37 37 7 -27 7 -27 33 32 34 33 0 -27 c0
-35 14 -34 42 3 28 38 38 38 38 0 0 -30 14 -41 23 -17 2 6 6 -8 8 -32 3 -31
-4 -70 -23 -130 -15 -47 -28 -107 -28 -132 0 -50 -14 -96 -54 -182 -28 -58
-26 -82 5 -92 39 -13 62 22 95 143 13 46 28 89 33 96 9 10 40 151 56 252 5 31
12 43 33 52 15 6 37 19 50 28 22 16 22 16 22 -20 0 -34 12 -47 25 -26 3 5 19
18 34 30 29 20 29 20 24 0 -3 -11 -9 -23 -14 -26 -5 -3 -9 -14 -9 -25 0 -17 3
-18 23 -8 12 6 34 23 50 37 32 30 35 16 7 -38 -11 -22 -20 -44 -20 -50 0 -18
27 -11 58 15 l30 25 8 -28 c4 -15 8 -35 9 -45 1 -10 9 -23 18 -30 14 -11 27
-47 41 -109 3 -15 12 -33 19 -40 6 -7 23 -36 36 -65 13 -29 38 -65 55 -82 59
-57 161 -58 161 -1 0 22 -5 26 -44 31 -67 9 -104 54 -126 155 -10 46 -35 115
-61 164 l-44 85 25 24 c28 28 42 23 25 -9 -18 -34 -3 -36 30 -5 35 33 46 28
41 -23 -3 -34 -2 -35 16 -22 10 8 22 20 26 25 4 6 7 -8 5 -30 -2 -43 14 -50
38 -17 14 19 24 14 29 -15 2 -10 4 -20 4 -22 1 -2 7 2 15 9 12 9 19 4 41 -29
30 -49 49 -53 43 -11 -6 42 9 38 64 -21 65 -69 93 -46 48 41 -11 22 -20 42
-20 45 0 11 38 4 50 -10 7 -8 30 -20 52 -27 38 -11 42 -10 59 11 26 32 24 51
-5 51 -34 0 -75 38 -82 78 -6 27 -4 32 14 32 37 0 34 30 -8 83 -22 28 -39 55
-37 61 2 6 23 12 46 14 134 10 275 -202 307 -458 11 -87 43 -108 70 -45 29 71
11 199 -45 320 -69 147 -165 239 -279 268 l-54 13 28 34 c34 40 79 60 137 60
85 0 272 -114 392 -239 63 -66 119 -48 80 26 -29 54 -173 183 -256 230 -73 41
-168 73 -219 73 -78 0 -198 -67 -215 -120 -3 -10 -12 -21 -21 -24 -11 -4 -12
-2 -4 14 5 10 10 21 10 24 0 11 -36 6 -48 -6 -9 -9 -12 -9 -12 1 0 7 10 22 23
33 l22 19 -47 -4 c-58 -5 -54 6 7 23 58 16 42 30 -34 30 -43 0 -52 3 -47 15 3
8 0 15 -7 15 -7 0 0 8 15 17 48 30 41 40 -23 35 -32 -2 -59 0 -59 4 0 5 9 20
20 34 33 42 26 51 -26 35 -33 -10 -44 -10 -41 -2 3 7 8 19 11 27 3 8 1 22 -4
30 -9 13 -12 13 -21 -2 -5 -10 -17 -18 -25 -18 -12 0 -12 4 2 25 21 32 11 47
-22 35 -34 -13 -34 -14 -34 18 0 40 -10 46 -36 21 -21 -19 -24 -20 -38 -6 -11
11 -14 25 -10 46 4 20 2 31 -5 31 -6 0 -11 -9 -11 -21 0 -11 -4 -19 -9 -17 -5
2 -101 93 -213 203 -194 191 -380 362 -553 509 -247 210 -534 341 -642 292z
m1751 -1667 c30 -24 35 -69 10 -93 -22 -22 -41 -20 -69 9 -30 29 -32 58 -5 85
25 25 31 25 64 -1z m-693 -126 c-12 -20 -14 -14 -5 12 4 9 9 14 11 11 3 -2 0
-13 -6 -23z"/>
<path d="M6206 2809 c-51 -40 -23 -79 58 -79 55 0 86 19 86 53 0 48 -94 65
-144 26z"/>
<path d="M6382 2818 c-18 -18 -15 -53 6 -71 21 -19 121 -24 153 -7 26 14 24
55 -3 74 -27 19 -138 22 -156 4z"/>
<path d="M6591 2797 c-7 -9 -11 -26 -9 -39 4 -33 104 -68 142 -50 34 15 35 56
2 77 -36 24 -119 31 -135 12z"/>
</g>
</svg>
