<?xml version="1.0" standalone="no"?>
<!DOCTYPE svg PUBLIC "-//W3C//DTD SVG 20010904//EN"
 "http://www.w3.org/TR/2001/REC-SVG-20010904/DTD/svg10.dtd">
<svg version="1.0" xmlns="http://www.w3.org/2000/svg"
 width="1024.000000pt" height="1024.000000pt" viewBox="0 0 1024.000000 1024.000000"
 preserveAspectRatio="xMidYMid meet">

<g transform="translate(0.000000,1024.000000) scale(0.100000,-0.100000)"
fill="#000000" stroke="none">
<path d="M1150 9253 c-14 -9 -27 -18 -29 -19 -2 -2 -11 -31 -21 -66 -16 -61
-17 -62 -30 -38 -26 49 -80 80 -115 66 -24 -9 -56 -68 -49 -91 5 -16 -1 -13
-28 12 -45 43 -89 52 -117 24 -12 -12 -22 -30 -22 -41 -4 -52 -10 -56 -54 -36
-65 31 -109 -4 -104 -83 2 -28 3 -51 1 -51 -2 0 -18 11 -35 24 -71 54 -144 51
-167 -5 -15 -36 0 -134 30 -192 l21 -40 -28 18 c-15 10 -37 24 -48 31 -36 23
-111 37 -133 25 -59 -31 -66 -72 -27 -145 38 -71 35 -77 -33 -70 -56 6 -58 6
-109 -37 -28 -24 -51 -45 -50 -46 1 -1 27 -4 56 -8 48 -5 157 -43 149 -51 -2
-1 -30 4 -63 12 -34 8 -78 12 -102 9 l-43 -6 0 -100 0 -99 93 -1 c124 -2 146
-5 235 -35 128 -42 116 -53 -20 -18 -84 21 -227 29 -271 15 -34 -12 -37 -16
-37 -51 0 -36 3 -40 53 -68 28 -17 112 -51 186 -76 189 -65 192 -72 9 -30 -62
15 -140 40 -174 55 -34 16 -65 29 -68 29 -3 0 -6 -20 -6 -44 0 -35 4 -46 19
-51 10 -3 23 -5 27 -3 16 4 104 -13 135 -26 26 -11 17 -12 -75 -8 l-106 5 0
-82 0 -81 32 -14 33 -14 -32 -1 c-28 -1 -33 -5 -33 -25 0 -23 2 -23 38 -15
100 25 309 38 297 19 -3 -4 -28 -11 -57 -14 -29 -4 -102 -19 -163 -34 l-110
-27 -3 -91 -3 -91 68 9 c37 5 105 18 151 28 99 24 106 24 68 4 -48 -26 -137
-55 -211 -68 l-70 -12 -3 -177 -2 -177 36 0 c30 0 35 -3 30 -17 -34 -89 -38
-110 -22 -147 19 -45 53 -60 124 -53 l53 6 -8 -32 c-4 -18 -8 -56 -8 -84 0
-97 54 -119 173 -71 53 22 62 24 57 10 -42 -103 -21 -192 45 -192 15 0 44 11
64 25 29 20 36 21 36 8 0 -30 23 -93 42 -113 32 -34 93 -25 144 22 l21 19 7
-42 c9 -58 32 -98 60 -105 32 -8 81 19 103 56 9 16 20 30 24 30 3 0 11 -17 17
-39 13 -41 56 -91 79 -91 34 0 75 34 105 88 l33 57 7 -47 c5 -25 7 -274 6
-553 l-3 -507 -57 113 c-31 63 -75 154 -98 202 -74 163 -171 286 -288 366
-184 124 -385 181 -644 181 l-138 0 0 -43 c0 -41 5 -48 69 -112 101 -100 162
-133 320 -175 62 -16 36 -28 -51 -22 -53 3 -69 1 -63 -8 16 -26 114 -59 192
-65 43 -4 85 -9 93 -12 29 -10 -23 -22 -100 -22 -64 -1 -85 4 -140 30 -99 47
-179 118 -268 237 l-47 64 -3 -51 c-3 -43 2 -58 26 -94 57 -82 176 -184 269
-230 120 -60 192 -77 368 -87 83 -4 170 -13 195 -20 116 -31 206 -109 273
-237 37 -70 87 -226 87 -270 0 -29 42 -73 70 -73 35 0 70 44 70 87 1 110 77
296 153 373 64 64 97 76 207 71 274 -12 358 -4 414 40 43 34 20 46 -92 51 -67
2 -104 8 -120 19 -21 15 -17 16 76 22 117 7 247 45 282 82 13 14 20 28 16 32
-4 5 -55 9 -114 11 -148 4 -148 6 3 41 135 32 183 60 315 185 64 61 140 125
168 141 58 34 67 60 25 76 -47 18 -332 5 -446 -20 -186 -42 -342 -115 -459
-215 -122 -105 -167 -165 -261 -346 -64 -124 -128 -235 -147 -254 -7 -7 -10
146 -10 445 l0 455 34 -4 c44 -5 76 33 76 90 l0 40 31 -26 c17 -14 36 -27 42
-27 42 -4 77 22 77 59 0 24 1 24 40 -12 68 -61 133 -40 133 43 l0 38 48 -30
c55 -34 101 -38 130 -11 24 21 38 73 32 110 l-6 29 29 -26 c43 -39 92 -62 121
-54 36 9 55 61 44 122 -5 26 -8 49 -7 50 1 2 21 -6 44 -17 51 -25 83 -25 112
-2 19 16 23 27 21 78 0 32 -3 71 -7 86 l-6 28 74 -6 c73 -7 75 -6 97 22 23 29
24 56 5 136 -6 27 -6 27 45 26 92 -2 117 58 66 155 -14 26 -23 52 -20 57 3 6
24 10 45 10 29 0 48 7 72 29 30 26 31 30 19 58 -6 16 -28 39 -48 50 l-35 20
51 13 c50 12 91 46 91 75 0 22 -38 61 -79 80 -22 11 -39 24 -38 30 2 5 25 17
52 27 61 22 78 39 78 77 0 42 -26 77 -83 109 l-49 28 60 28 c129 59 108 156
-44 200 -31 9 -57 19 -57 21 0 3 18 12 39 21 77 30 92 101 28 128 -17 8 -54
24 -80 36 l-48 21 25 43 c34 59 42 115 22 154 -9 17 -24 33 -34 36 -15 5 -19
16 -18 51 1 24 -4 49 -10 55 -17 17 -75 27 -109 20 -21 -5 -43 0 -71 14 -34
18 -40 24 -33 41 37 94 -43 134 -160 80 -29 -14 -49 -20 -43 -13 38 47 54 174
25 203 -21 21 -71 15 -112 -14 l-29 -21 -6 39 c-7 49 -47 97 -85 106 -25 5
-61 -5 -113 -33 -4 -2 -11 12 -16 30 -10 38 -35 48 -61 24 -17 -16 -19 -14
-25 23 -3 22 -16 52 -29 67 -22 25 -24 26 -59 11 -39 -17 -93 -89 -105 -140
-10 -46 -23 -41 -23 10 0 174 -112 243 -195 120 l-34 -50 -16 41 c-17 40 -65
82 -96 82 -8 0 -26 -8 -39 -17z m262 -140 c25 -27 45 -120 40 -178 l-5 -50
-13 60 c-20 99 -23 109 -42 134 -28 37 -38 36 -71 -10 -34 -46 -42 -31 -15 26
26 55 66 62 106 18z m-180 -40 c57 -60 98 -185 98 -293 -1 -48 -13 -24 -35 65
-17 70 -65 178 -90 204 -23 24 -62 6 -76 -36 -14 -43 -18 -229 -6 -313 6 -44
5 -51 -5 -35 -34 56 -52 302 -26 362 33 77 92 96 140 46z m753 -47 c13 -13 27
-39 30 -59 13 -66 -36 -203 -122 -348 -69 -116 -62 -85 26 120 66 153 78 251
31 266 -29 9 -101 -35 -146 -90 -43 -53 -53 -53 -26 2 34 64 118 133 165 133
10 0 29 -11 42 -24z m-1160 -15 c48 -22 100 -78 147 -157 35 -60 73 -152 66
-159 -2 -2 -28 37 -58 87 -71 116 -134 182 -190 199 -39 12 -44 11 -57 -7 -26
-34 -7 -114 70 -291 20 -46 33 -83 28 -83 -14 0 -76 101 -104 170 -53 131 -57
191 -14 238 25 27 58 28 112 3z m861 -36 c25 -38 31 -84 23 -165 -10 -90 -29
-157 -48 -173 -12 -10 -13 -9 -7 8 4 11 10 76 13 145 5 113 4 127 -14 149 -16
20 -22 22 -39 11 -28 -17 -56 -63 -90 -147 -16 -40 -32 -73 -36 -73 -4 0 2 30
12 68 40 142 80 202 136 202 25 0 38 -6 50 -25z m-295 -317 c9 -21 14 -72 14
-141 0 -59 3 -107 7 -107 4 0 12 19 18 43 31 116 43 146 66 168 25 24 26 24
40 4 21 -27 12 -95 -31 -232 -41 -133 -64 -193 -76 -193 -5 0 -9 29 -9 65 0
36 -4 65 -8 65 -5 0 -14 -24 -21 -54 -13 -60 -36 -90 -47 -61 -6 15 1 352 8
399 5 33 -20 28 -30 -6 -11 -36 -28 -181 -38 -320 -5 -74 -9 -88 -23 -88 -18
0 -48 79 -77 200 -20 84 -17 180 6 180 9 0 30 -101 30 -143 0 -18 4 -27 13
-25 7 3 14 31 18 69 12 133 48 209 98 209 23 0 31 -7 42 -32z m1014 -32 c27
-27 26 -63 -1 -117 -25 -49 -247 -239 -263 -223 -2 2 45 49 103 105 116 111
154 166 136 199 -14 26 -54 26 -124 0 -65 -25 -218 -119 -263 -163 -20 -19
-33 -25 -33 -17 0 21 117 132 174 165 130 76 227 95 271 51z m-1905 -42 c40
-19 90 -54 125 -89 33 -31 49 -50 35 -41 -183 117 -293 156 -345 122 -58 -38
-34 -90 104 -217 132 -121 130 -139 -5 -44 -145 103 -202 218 -138 282 23 23
31 25 92 21 48 -2 86 -12 132 -34z m567 4 c39 -43 51 -77 88 -248 19 -93 23
-152 10 -157 -6 -2 -26 28 -45 67 -19 38 -37 70 -40 70 -17 0 -16 -16 1 -73
20 -67 24 -107 10 -107 -11 0 -50 58 -109 165 -27 50 -63 112 -81 139 -46 74
-39 130 14 103 30 -15 51 -46 81 -114 14 -35 30 -63 35 -63 13 0 12 9 -16 96
-28 89 -29 98 -15 125 14 25 42 24 67 -3z m636 -70 c-1 -38 -15 -71 -78 -181
-75 -132 -108 -177 -122 -163 -11 11 42 206 76 277 39 82 73 121 104 117 19
-3 22 -8 20 -50z m910 -35 c9 -9 17 -23 17 -31 0 -12 -4 -12 -25 2 -34 22 -70
20 -140 -10 -33 -14 -67 -28 -75 -31 -27 -12 8 24 47 49 80 48 137 55 176 21z
m-750 -24 c21 -34 -5 -73 -140 -211 -75 -76 -140 -135 -145 -130 -19 19 128
268 192 326 43 39 75 44 93 15z m-1030 -19 c67 -53 221 -360 180 -360 -24 0
-195 206 -234 282 -22 43 -24 69 -7 86 17 17 31 15 61 -8z m-158 -55 c28 -14
106 -84 80 -73 -5 2 -32 14 -59 26 -61 28 -111 26 -111 -3 0 -16 7 -20 37 -21
68 -2 200 -100 287 -212 39 -51 51 -82 32 -82 -16 0 -287 198 -338 248 -56 54
-65 82 -36 114 20 22 64 23 108 3z m1292 -61 c11 -29 -17 -64 -99 -123 -46
-33 -113 -82 -150 -110 -37 -28 -69 -47 -72 -43 -23 38 180 249 269 280 41 14
45 14 52 -4z m624 -75 c68 -23 85 -60 55 -117 -36 -69 -210 -154 -401 -197
-49 -11 -17 10 60 39 196 75 315 151 315 203 0 54 -135 59 -310 12 -63 -17
-126 -33 -140 -36 l-25 -5 25 21 c79 64 327 111 421 80z m-496 -29 c12 -20
-34 -66 -113 -112 -44 -27 -83 -48 -87 -48 -4 0 -49 -21 -101 -47 -52 -25 -97
-43 -101 -40 -20 21 149 162 269 225 61 32 121 41 133 22z m-1474 -63 c100
-42 305 -194 287 -213 -18 -17 -387 152 -413 189 -14 20 -14 23 2 34 25 19 61
16 124 -10z m-43 -133 c37 -15 119 -52 182 -83 120 -58 126 -75 18 -52 -28 6
-53 9 -56 6 -6 -5 97 -55 114 -55 6 0 17 -7 24 -15 22 -27 -13 -27 -167 -1
-81 13 -178 28 -215 32 -38 3 -68 10 -68 15 0 16 85 31 142 25 32 -4 58 -3 58
2 0 5 -27 21 -61 37 -86 39 -122 71 -109 96 15 27 58 24 138 -7z m1548 11 c17
-43 -70 -97 -262 -161 -108 -36 -124 -39 -124 -25 0 5 28 21 63 35 66 29 115
61 106 70 -3 3 -43 -9 -90 -28 -46 -19 -85 -33 -87 -31 -12 11 25 45 75 68
170 78 305 109 319 72z m534 -60 c39 -35 15 -75 -55 -90 l-30 -7 31 20 c64 41
52 67 -34 78 -44 5 -52 9 -37 15 31 13 104 3 125 -16z m-476 -121 c61 -23 -43
-48 -292 -70 -77 -6 -150 2 -136 16 7 7 108 32 209 54 32 6 202 7 219 0z m311
-25 c91 -11 177 -43 208 -77 29 -32 29 -72 -1 -102 -48 -48 -213 -83 -327 -69
-49 6 -44 8 22 14 79 7 133 18 194 41 78 29 109 56 93 82 -28 45 -198 91 -343
92 -63 0 -63 8 0 16 24 3 46 7 48 10 6 5 3 6 106 -7z m-2042 -16 c-7 -2 -21
-2 -30 0 -10 3 -4 5 12 5 17 0 24 -2 18 -5z m267 -39 c73 -6 160 -35 160 -52
0 -43 -427 -81 -473 -43 -35 28 -20 39 42 34 32 -3 85 -2 117 2 89 11 42 28
-66 23 -48 -1 -86 0 -84 4 12 19 156 49 204 42 14 -1 59 -6 100 -10z m1510
-27 c16 -8 25 -21 25 -37 0 -58 -115 -73 -314 -41 -184 29 -258 64 -159 75
106 12 126 13 273 14 104 1 158 -2 175 -11z m-1339 -102 c0 -5 -17 -14 -38
-20 -46 -12 -80 -31 -72 -40 4 -3 27 -1 51 5 29 8 56 8 79 2 l34 -9 -48 -29
c-26 -16 -99 -65 -162 -110 -130 -93 -172 -115 -231 -122 -80 -9 -109 36 -58
91 14 16 70 49 123 73 137 64 144 67 149 83 4 11 -2 12 -24 6 -16 -4 -64 -13
-106 -20 -125 -20 -124 6 2 47 141 46 300 69 301 43z m981 -11 c177 -37 258
-78 258 -129 0 -46 -71 -56 -185 -26 -139 36 -265 87 -265 108 0 19 48 15 129
-12 43 -13 13 14 -50 45 -32 17 -59 32 -59 35 0 11 55 4 172 -21z m445 -104
c139 -38 227 -90 276 -162 20 -30 26 -50 23 -72 -12 -76 -99 -96 -229 -52 -91
31 -227 97 -210 103 6 2 24 -2 40 -10 15 -8 72 -29 126 -46 114 -36 184 -40
218 -12 l24 20 -20 38 c-27 51 -101 104 -214 154 -83 36 -126 59 -110 59 2 0
37 -9 76 -20z m-611 -14 c108 -37 276 -119 317 -155 42 -38 47 -63 15 -85 -29
-20 -36 -20 -100 4 -85 32 -327 227 -312 251 7 11 -1 13 80 -15z m-726 2 c0
-7 -22 -33 -50 -59 -27 -26 -50 -52 -50 -58 0 -13 13 -14 26 -2 17 17 134 80
134 72 0 -15 -174 -221 -222 -263 -25 -22 -48 -23 -48 -3 0 19 36 84 63 112
33 36 13 38 -37 3 -53 -36 -71 -32 -62 13 10 51 33 75 128 138 90 59 118 70
118 47z m-670 -76 c-153 -76 -220 -131 -220 -181 0 -20 7 -34 19 -41 29 -15
138 -12 204 5 72 19 89 19 57 0 -48 -28 -152 -55 -212 -55 -49 0 -63 4 -83 25
-63 62 4 174 145 241 58 29 185 72 210 73 8 0 -46 -30 -120 -67z m1357 -29
c129 -108 194 -196 165 -225 -18 -18 -51 2 -94 58 -39 49 -68 68 -68 44 0 -12
37 -78 62 -110 56 -71 -69 4 -129 78 -69 84 -109 155 -97 173 7 12 33 -3 89
-51 25 -22 50 -40 56 -40 18 0 9 29 -19 62 -75 89 -62 93 35 11z m-557 6 c0
-17 -139 -261 -162 -286 -34 -36 -58 -30 -58 13 0 56 37 121 119 206 68 72
101 94 101 67z m61 -109 c-41 -228 -60 -294 -89 -305 -8 -3 -19 0 -23 7 -10
16 -1 74 16 108 13 27 28 80 21 80 -2 0 -25 -34 -52 -75 -48 -73 -83 -100 -68
-52 3 12 10 27 14 32 4 6 27 46 50 90 24 44 63 112 89 150 40 62 46 67 49 45
2 -14 -2 -50 -7 -80z m99 66 c20 -53 52 -281 47 -329 -12 -95 -54 -122 -101
-66 -24 28 -26 38 -26 117 0 112 42 302 66 302 2 0 9 -11 14 -24z m115 -80
c31 -104 65 -245 65 -273 0 -18 -6 -23 -24 -23 -19 0 -27 9 -40 41 -24 60 -44
163 -52 270 -7 87 -6 93 9 80 10 -7 28 -50 42 -95z m68 74 c41 -49 78 -134 89
-207 17 -116 -24 -167 -63 -79 -17 39 -69 266 -69 302 0 22 16 16 43 -16z
m-830 -132 c-51 -56 -153 -202 -178 -253 -34 -73 -43 -146 -21 -165 15 -12 23
-11 59 7 52 26 132 95 222 191 37 40 70 70 72 68 9 -9 -82 -133 -139 -188
-104 -103 -210 -145 -253 -101 -14 13 -16 28 -12 70 10 100 95 244 202 341 58
53 84 69 48 30z m983 -65 c23 -39 25 -63 5 -63 -7 0 -54 96 -68 140 -7 22 33
-28 63 -77z m622 -11 c75 -56 142 -140 142 -178 0 -39 -37 -74 -78 -74 -50 0
-80 9 -86 26 -4 10 0 11 21 3 58 -22 112 15 99 67 -4 13 -50 70 -104 126 -105
110 -105 113 6 30z m153 4 c48 -27 116 -92 107 -102 -6 -5 -158 112 -158 122
0 7 6 5 51 -20z m-374 -58 c135 -138 187 -275 128 -333 -32 -33 -68 -32 -142
5 -73 37 -184 149 -227 230 l-29 55 91 -96 c103 -109 185 -169 242 -176 32 -5
40 -2 50 17 22 40 -21 129 -127 267 -35 45 -63 84 -63 87 0 16 21 0 77 -56z
m-1804 -33 c-56 -85 -45 -144 26 -145 23 -1 24 -2 8 -11 -21 -12 -72 -5 -94
12 -21 18 -15 76 11 118 21 33 70 81 82 81 3 0 -12 -25 -33 -55z m802 -105
c-3 -5 -8 -37 -11 -72 -3 -35 -7 -69 -9 -76 -3 -8 -5 -58 -6 -111 -1 -103 16
-166 46 -177 22 -9 59 29 83 84 22 50 52 183 52 229 0 15 4 35 9 42 28 44 24
-140 -4 -236 -8 -26 -28 -69 -45 -96 -49 -78 -111 -85 -152 -19 -33 54 -38
200 -10 308 23 89 39 134 47 134 4 0 4 -4 0 -10z m686 -105 c93 -190 87 -325
-14 -325 -60 0 -160 134 -198 265 -34 115 -32 115 28 -6 58 -116 117 -200 155
-220 29 -16 58 14 58 60 0 46 -30 155 -69 250 -55 131 -29 116 40 -24z m-932
9 c-85 -184 -92 -322 -15 -286 23 10 97 93 131 147 25 39 32 15 10 -33 -24
-51 -82 -120 -119 -143 -40 -25 -71 -24 -97 2 -19 19 -21 30 -17 88 3 37 15
90 29 121 27 66 100 190 110 190 4 0 -10 -39 -32 -86z m1045 -54 c42 -79 86
-134 99 -121 8 8 4 26 -16 67 -16 31 -26 58 -24 61 8 7 67 -70 74 -95 8 -32
-12 -72 -35 -72 -47 0 -102 76 -143 200 l-19 55 20 -25 c12 -14 31 -45 44 -70z
m-365 -136 c2 -122 -50 -224 -113 -224 -55 0 -93 59 -100 155 -6 77 5 75 25
-5 21 -82 41 -110 76 -110 19 0 29 10 46 48 18 39 22 70 26 192 l4 145 18 -70
c9 -38 18 -97 18 -131z m-864 -786 c55 -27 111 -60 125 -74 l25 -25 -40 18
c-58 27 -269 134 -275 140 -18 18 81 -17 165 -59z m1435 -32 c0 -2 -26 -19
-57 -37 -32 -17 -103 -63 -158 -102 -87 -61 -96 -65 -74 -36 14 19 48 51 75
72 70 54 214 123 214 103z"/>
<path d="M2140 7720 c-25 -5 -81 -9 -125 -9 -57 -1 -76 -4 -68 -12 12 -12 229
-15 264 -4 24 8 20 29 -7 31 -10 1 -39 -2 -64 -6z"/>
<path d="M567 7431 c-109 -49 -127 -63 -93 -69 21 -4 197 81 217 104 20 25
-10 16 -124 -35z"/>
<path d="M1920 7554 c0 -8 6 -14 13 -14 7 0 48 -14 91 -30 43 -17 81 -28 83
-26 16 16 -54 53 -134 72 -45 10 -53 10 -53 -2z"/>
<path d="M1819 7396 c30 -32 162 -96 197 -96 l28 0 -34 25 c-18 13 -49 30 -69
36 -20 7 -57 22 -83 35 -60 30 -67 30 -39 0z"/>
<path d="M1247 7173 c-11 -36 -19 -151 -12 -172 5 -18 9 -20 21 -10 12 10 14
30 9 103 -6 94 -10 110 -18 79z"/>
<path d="M5145 8930 c-36 -14 -93 -79 -100 -112 -12 -53 -16 -53 -47 2 -34 59
-82 87 -125 73 -19 -7 -37 -4 -63 9 -47 23 -81 16 -114 -23 l-25 -29 -35 21
c-49 29 -133 36 -174 15 -37 -19 -52 -43 -52 -85 0 -24 -4 -31 -20 -31 -11 0
-36 -7 -55 -15 -26 -10 -37 -22 -41 -45 -6 -30 -7 -30 -75 -30 -74 0 -109 -19
-109 -59 0 -10 9 -30 20 -44 11 -14 20 -27 20 -29 0 -2 -32 -2 -71 0 -82 5
-149 -11 -190 -46 -34 -28 -37 -57 -9 -74 27 -17 25 -24 -9 -36 -36 -13 -64
-52 -59 -84 2 -12 18 -32 36 -45 l33 -22 -67 -33 c-86 -42 -129 -92 -119 -138
8 -37 51 -60 112 -60 l37 0 -38 -37 c-80 -78 -96 -135 -49 -173 24 -19 38 -21
95 -18 38 2 68 0 68 -4 0 -4 -16 -31 -37 -59 -43 -60 -56 -133 -30 -173 35
-53 119 -57 257 -12 41 14 75 24 76 23 2 -1 -11 -33 -26 -70 -53 -122 -49
-205 10 -244 64 -44 149 -12 259 99 44 43 61 56 56 40 -13 -43 -8 -146 8 -185
21 -49 73 -73 122 -57 42 14 98 70 138 140 l32 55 6 -105 c7 -116 26 -193 64
-263 26 -45 26 -52 31 -284 6 -275 -5 -883 -16 -883 -12 0 -76 148 -103 240
-14 47 -33 128 -42 180 -41 247 -85 350 -146 350 -36 0 -44 -27 -36 -116 4
-35 3 -64 -2 -64 -4 0 -18 26 -31 58 -131 321 -301 511 -578 644 -98 46 -184
68 -210 52 -26 -17 -26 -56 2 -123 37 -92 92 -176 165 -254 36 -39 57 -67 46
-63 -37 15 -102 18 -124 7 -71 -39 46 -171 227 -257 41 -19 86 -40 101 -46 25
-11 23 -12 -27 -19 -58 -8 -92 -31 -92 -62 0 -57 163 -162 360 -232 229 -81
310 -144 392 -300 61 -118 85 -202 100 -342 6 -63 17 -121 22 -128 19 -24 60
-28 85 -8 19 16 25 33 31 98 20 195 75 328 180 435 80 82 144 115 337 179 188
62 236 85 290 136 48 46 52 63 23 90 -16 15 -31 17 -85 13 -36 -3 -65 -4 -65
-2 0 2 28 19 63 38 147 83 234 175 316 336 50 97 70 148 101 259 17 61 17 64
0 81 -16 16 -24 17 -57 8 -87 -24 -178 -83 -280 -182 -40 -38 -75 -67 -78 -65
-7 8 60 101 104 144 48 45 50 55 16 55 -57 0 -242 -113 -326 -199 -89 -91
-172 -242 -209 -381 -13 -45 -32 -93 -44 -107 l-21 -24 3 76 c4 79 -5 105 -37
105 -47 0 -77 -76 -106 -262 -21 -136 -57 -274 -92 -346 l-28 -56 -6 60 c-4
32 -7 292 -8 577 l-1 517 24 0 c14 0 39 12 57 27 32 27 79 113 79 146 0 25 13
21 39 -14 30 -40 79 -69 117 -69 70 0 109 87 102 233 -1 42 -1 77 2 77 3 0 14
-16 25 -36 30 -56 113 -133 157 -144 48 -13 90 6 115 53 19 35 25 171 10 237
l-7 34 27 -26 c36 -33 126 -83 178 -98 58 -17 120 1 140 40 23 44 18 78 -19
156 -29 62 -32 73 -20 89 8 10 14 29 14 42 0 22 3 23 88 23 68 1 92 4 108 18
35 29 47 61 40 105 -9 53 -62 152 -98 183 -16 13 -28 24 -26 25 2 0 17 2 34 3
36 3 79 27 92 53 13 25 0 54 -43 92 -38 33 -48 38 -149 76 l-59 22 53 7 c72
10 110 30 110 60 0 35 -36 74 -80 87 l-39 12 25 30 c54 64 -24 127 -157 127
-39 0 -41 1 -27 18 27 30 30 57 9 83 -17 21 -27 24 -88 23 l-69 0 4 26 c5 37
-37 70 -89 70 -33 0 -38 3 -44 30 -10 44 -42 78 -80 86 -47 8 -123 -19 -174
-62 -36 -32 -42 -33 -47 -17 -27 89 -111 135 -189 103z m101 -74 c36 -27 19
-131 -45 -271 -15 -33 -36 -81 -46 -107 -10 -26 -22 -45 -27 -42 -5 3 -6 42
-2 91 8 101 -4 105 -31 11 -10 -35 -22 -67 -27 -72 -4 -6 -8 30 -8 78 0 130
45 294 85 310 34 13 38 7 31 -50 -8 -71 9 -63 24 11 12 59 16 62 46 41z m-438
-33 c22 -33 62 -118 62 -133 0 -6 4 -9 8 -6 5 3 4 32 -2 66 -7 42 -7 63 1 71
31 31 87 -55 112 -169 13 -64 15 -199 2 -206 -5 -4 -18 22 -28 56 -22 74 -43
89 -36 26 3 -24 1 -54 -4 -67 -8 -21 -14 -10 -47 84 -35 101 -83 193 -128 242
-13 14 -18 28 -13 42 9 31 49 27 73 -6z m712 10 c0 -3 -20 -44 -45 -90 -25
-46 -41 -83 -37 -83 12 0 88 109 102 144 15 41 40 33 40 -13 0 -57 -60 -167
-139 -253 -53 -58 -109 -125 -148 -177 -2 -2 -6 -2 -9 2 -9 8 15 76 43 120 37
58 11 44 -62 -35 -59 -65 -66 -70 -60 -43 27 121 96 257 179 354 39 45 136 98
136 74z m-901 -31 c47 -22 131 -109 159 -165 28 -57 69 -213 58 -224 -8 -8
-25 10 -100 101 -21 26 -41 45 -43 42 -3 -3 5 -32 19 -63 30 -67 42 -113 30
-113 -9 0 -139 141 -189 205 -51 65 -83 138 -83 189 0 25 4 46 9 46 5 0 44
-44 87 -97 42 -54 79 -100 81 -102 2 -3 8 0 13 5 6 6 -17 44 -60 102 -39 51
-70 95 -70 98 0 9 48 -4 89 -24z m1246 -173 c13 -19 -29 -51 -139 -105 -115
-57 -157 -84 -218 -143 -21 -19 -38 -31 -38 -26 0 14 33 64 69 105 33 38 34
50 1 27 -31 -21 -117 -105 -135 -129 -28 -40 -27 -10 1 39 51 87 158 176 264
220 59 24 183 32 195 12z m-1463 -38 c96 -46 238 -183 238 -231 0 -7 -15 1
-34 18 -43 38 -126 95 -131 90 -2 -2 19 -32 46 -67 71 -91 66 -101 -16 -35
-22 17 -85 62 -140 99 -144 97 -188 143 -152 159 30 14 127 -3 189 -33z m1635
-104 c17 -17 17 -19 -2 -33 -11 -8 -35 -18 -55 -23 -19 -5 -93 -22 -164 -39
-94 -23 -155 -45 -228 -82 -55 -27 -104 -50 -109 -50 -20 0 -7 22 43 71 71 70
144 117 236 150 67 25 89 28 169 26 74 -2 96 -6 110 -20z m-1754 -40 c50 -25
113 -64 139 -86 53 -47 113 -119 105 -127 -3 -3 -29 10 -58 29 -80 51 -235
114 -350 142 -128 31 -169 44 -169 55 0 25 68 40 163 36 67 -4 89 -10 170 -49z
m-91 -117 c105 -33 227 -101 277 -154 l34 -35 -77 30 c-68 26 -261 75 -371 93
-22 4 -62 14 -90 23 -116 36 -93 73 47 73 70 0 106 -6 180 -30z m780 2 c16
-13 18 -13 24 2 8 21 50 21 62 0 9 -16 11 -16 32 -1 29 20 47 12 55 -25 7 -28
8 -29 26 -12 12 11 24 14 36 8 10 -4 25 -8 33 -8 8 -1 20 -15 25 -33 10 -28
12 -30 30 -17 29 21 38 17 33 -16 -5 -35 -5 -35 29 -13 l26 18 -6 -33 c-6 -28
-3 -34 18 -42 31 -12 31 -21 0 -50 -30 -28 -32 -40 -5 -33 16 4 20 0 20 -19 0
-14 -3 -28 -7 -32 -5 -4 -9 -12 -9 -17 -1 -5 -2 -13 -3 -18 0 -4 -23 -18 -51
-29 -58 -24 -60 -19 -26 51 20 41 22 50 10 62 -19 19 -18 32 5 44 10 6 21 18
25 27 4 9 -10 2 -30 -16 -27 -24 -39 -29 -45 -19 -4 7 -3 21 2 31 6 11 9 28 7
40 -3 20 -3 20 -30 -2 -31 -24 -31 -24 -28 40 l2 44 -21 -24 c-20 -23 -22 -24
-32 -7 -8 14 -14 16 -25 6 -18 -15 -24 -9 -34 33 -6 29 -8 31 -15 13 -8 -20
-24 -35 -36 -35 -4 0 -10 12 -13 26 l-7 25 -20 -23 c-11 -13 -22 -18 -25 -13
-17 38 -24 40 -47 13 -27 -33 -43 -35 -50 -8 -7 26 -27 26 -27 1 0 -27 -20
-38 -35 -18 -10 13 -13 11 -23 -15 -11 -31 -12 -31 -32 -13 -20 18 -20 18 -20
-8 0 -32 -9 -57 -21 -57 -5 0 -9 6 -9 14 0 8 -4 18 -10 21 -6 4 -7 -6 -4 -25
4 -17 2 -30 -3 -30 -6 0 -8 -12 -5 -27 5 -27 4 -27 -14 -11 -19 17 -20 16 -17
-33 1 -30 10 -63 23 -84 12 -19 20 -35 18 -35 -10 0 -88 41 -88 46 0 3 10 2
23 -1 16 -5 14 -1 -9 13 -32 21 -64 58 -64 76 0 5 10 0 23 -12 38 -36 40 -25
7 34 -35 60 -33 80 3 46 29 -28 41 -28 27 -2 -6 12 -10 33 -8 47 3 26 4 26 21
9 16 -17 17 -16 17 18 0 44 11 51 43 26 l26 -20 3 37 c3 36 5 38 36 37 21 -1
32 3 32 11 0 23 20 28 41 10 18 -17 20 -17 45 8 26 27 34 27 66 -1z m1038 18
c26 -18 -34 -55 -144 -90 -156 -49 -265 -90 -330 -122 l-58 -29 23 42 c28 50
104 113 175 146 111 51 294 80 334 53z m-1764 -180 c103 -26 145 -43 202 -83
l47 -32 -170 0 c-93 0 -224 -2 -291 -4 -147 -4 -197 11 -192 56 3 29 46 60
101 73 66 16 221 11 303 -10z m1783 -6 c46 -18 61 -48 37 -72 -13 -13 -50 -16
-218 -19 -232 -4 -280 -7 -298 -18 -8 -5 -11 -3 -8 6 7 22 120 78 200 99 93
24 232 26 287 4z m-118 -144 c91 -13 166 -45 198 -86 27 -35 26 -48 -5 -73
-47 -37 -125 -26 -330 47 -61 22 -143 45 -183 52 -39 7 -71 17 -71 21 0 6 84
28 165 42 50 8 151 7 226 -3z m-1463 -36 c59 -21 67 -34 21 -34 -40 0 -100
-15 -229 -55 -203 -64 -290 -68 -290 -11 0 27 52 73 106 95 99 39 288 42 392
5z m329 -6 c17 -29 20 -38 9 -38 -15 0 -66 55 -66 72 0 21 34 1 57 -34z m493
9 c0 -13 -9 -32 -20 -42 -19 -17 -20 -17 -20 0 0 17 -2 17 -23 -3 -22 -20 -47
-29 -47 -17 0 4 7 19 15 35 16 31 29 37 40 19 5 -6 13 -3 22 10 19 28 33 27
33 -2z m-438 -4 c18 -16 25 -53 10 -53 -11 0 -37 30 -45 53 -8 22 11 22 35 0z
m58 -13 c23 -16 48 -60 35 -60 -18 0 -55 27 -64 47 -19 40 -13 43 29 13z m105
-40 c0 -8 -9 -16 -19 -18 -22 -5 -46 22 -46 51 0 19 1 19 33 0 17 -11 32 -26
32 -33z m160 33 c7 -21 -27 -53 -56 -53 -24 0 -24 11 2 44 24 30 44 33 54 9z
m-95 -8 c17 -20 5 -45 -20 -45 -11 0 -23 7 -26 15 -6 15 11 45 26 45 4 0 13
-7 20 -15z m-435 -50 l30 -13 -27 -1 c-37 -1 -199 -86 -273 -142 -88 -67 -129
-89 -162 -89 -47 0 -56 19 -32 67 57 116 352 230 464 178z m1025 -22 c115 -30
200 -73 261 -133 68 -68 71 -134 8 -161 -43 -17 -101 -6 -192 40 -82 40 -307
176 -363 218 l-29 23 35 -6 c70 -13 145 -45 301 -129 87 -48 171 -87 185 -88
36 -3 42 19 7 27 -15 4 -107 49 -203 101 -96 51 -195 102 -220 114 l-45 20 80
-1 c47 -1 118 -11 175 -25z m-955 -66 c-27 -23 -89 -78 -136 -122 -108 -100
-158 -136 -208 -145 -47 -8 -71 3 -71 33 1 41 118 147 237 214 86 48 128 62
183 62 l45 1 -50 -43z m704 -34 c141 -98 239 -251 197 -308 -36 -50 -149 2
-273 124 -86 86 -200 231 -181 231 60 -1 257 -149 336 -254 34 -44 39 -22 7
26 -38 57 -125 148 -191 199 -30 23 -54 45 -54 50 0 15 102 -29 159 -68z
m-501 59 c9 -6 -6 -40 -59 -133 -94 -162 -119 -194 -174 -215 -43 -16 -46 -16
-65 1 -40 36 -16 125 62 229 69 92 117 126 177 126 25 0 52 -4 59 -8z m192
-30 c35 -26 76 -105 96 -184 23 -95 17 -236 -12 -275 -24 -31 -78 -42 -114
-23 -63 34 -132 215 -134 351 -1 92 11 129 48 148 28 14 84 6 116 -17z m483
-1374 c-34 -56 -262 -360 -290 -388 l-36 -35 23 40 c82 140 196 296 258 352
50 45 58 51 45 31z"/>
<path d="M5336 8006 c-14 -19 -26 -38 -26 -42 0 -10 50 37 61 59 17 30 -7 19
-35 -17z"/>
<path d="M4018 8123 c-74 -2 -128 -8 -128 -13 0 -6 10 -11 23 -12 45 -3 263 4
280 8 26 8 10 24 -21 22 -15 -1 -84 -4 -154 -5z"/>
<path d="M5895 7934 c130 -37 203 -43 131 -10 -45 20 -172 46 -219 45 -21 0
12 -13 88 -35z"/>
<path d="M4225 7965 c-5 -2 -44 -11 -85 -20 -93 -22 -154 -45 -143 -56 9 -9
253 62 253 74 0 7 -7 8 -25 2z"/>
<path d="M4424 7687 c-28 -23 -64 -52 -80 -63 -43 -32 -21 -41 23 -11 45 31
132 117 118 116 -6 0 -33 -19 -61 -42z"/>
<path d="M4713 7683 c-48 -57 -83 -113 -83 -132 0 -10 3 -11 14 -2 21 18 120
171 114 177 -3 2 -23 -17 -45 -43z"/>
<path d="M5109 7594 c-3 -5 -3 -58 0 -119 5 -100 7 -108 20 -86 10 18 12 44 7
98 -7 76 -19 123 -27 107z"/>
<path d="M8817 8915 c-21 -8 -51 -24 -68 -36 -21 -14 -33 -18 -42 -11 -7 6
-33 13 -59 17 -37 6 -57 3 -90 -13 -24 -11 -60 -22 -81 -25 -22 -4 -54 -18
-72 -32 -28 -21 -38 -23 -60 -15 -62 24 -134 5 -174 -45 -11 -15 -26 -25 -33
-24 -43 5 -70 -4 -103 -36 -19 -20 -35 -44 -35 -55 0 -17 -5 -19 -44 -14 -60
9 -106 -1 -137 -30 -18 -17 -33 -22 -56 -19 -49 8 -102 -23 -124 -71 -10 -23
-19 -48 -19 -56 0 -9 -16 -24 -36 -35 -49 -26 -76 -67 -79 -123 -4 -53 12 -98
55 -159 l30 -42 -57 -6 c-197 -24 -226 -225 -50 -342 l46 -30 -84 -16 c-108
-22 -164 -46 -219 -97 -75 -69 -85 -149 -26 -205 24 -23 41 -29 87 -33 50 -3
179 13 263 32 14 3 45 10 70 16 119 27 282 36 351 20 142 -33 276 -146 350
-294 53 -108 60 -182 34 -380 -20 -154 -15 -192 37 -286 52 -94 150 -167 282
-210 l48 -16 45 -110 c72 -180 71 -169 76 -594 6 -438 12 -424 -75 -170 -113
327 -203 462 -392 585 -210 137 -385 185 -675 185 -266 0 -508 -38 -721 -112
-159 -56 -230 -95 -230 -128 0 -24 20 -30 90 -30 152 0 342 -51 560 -150 179
-81 256 -109 364 -135 130 -31 159 -33 416 -35 239 -2 239 -4 14 -49 -177 -36
-209 -52 -172 -89 19 -19 154 -15 270 8 137 27 200 26 263 -4 149 -69 267
-334 299 -671 3 -36 11 -55 27 -68 26 -21 66 -16 87 10 10 14 18 95 13 127 -1
4 5 46 14 91 43 232 150 439 272 528 59 42 101 64 247 126 329 139 488 286
660 609 l66 124 0 158 0 158 -86 -34 c-291 -117 -607 -326 -726 -478 -22 -28
-50 -64 -63 -81 -42 -52 -141 -227 -173 -305 -17 -41 -46 -122 -65 -180 -49
-147 -115 -312 -133 -330 -13 -13 -14 30 -14 365 1 390 3 416 45 547 41 129
45 137 84 149 119 38 230 132 279 236 24 51 27 70 26 153 0 54 -6 112 -14 135
-23 66 -18 228 9 297 50 129 180 257 336 333 123 60 236 86 381 86 l114 0 0
60 c0 32 -1 59 -3 59 -1 0 -17 -4 -35 -9 -39 -12 -34 2 9 24 24 13 29 22 29
51 0 25 -4 35 -12 31 -7 -3 -31 -13 -53 -22 l-40 -17 53 47 52 47 0 93 c0 92
-1 94 -33 127 -17 18 -46 43 -62 54 -29 20 -29 22 -13 40 52 58 73 175 43 234
-21 40 -48 52 -108 48 l-52 -3 -6 46 c-8 54 -22 84 -56 120 -13 14 -23 30 -22
35 6 33 -6 61 -39 94 -45 46 -96 59 -161 41 -44 -12 -44 -12 -73 23 -31 38
-85 61 -125 53 -20 -4 -32 2 -50 24 -32 38 -90 54 -142 38 -35 -10 -42 -9 -67
10 -29 23 -85 28 -128 11 -21 -8 -30 -5 -52 15 -54 50 -194 70 -277 40z m93
-104 l6 -24 18 27 c15 24 23 27 49 22 44 -9 95 -51 113 -94 15 -34 17 -36 27
-18 22 37 56 66 77 66 27 0 70 -43 70 -70 0 -27 6 -26 52 15 30 27 45 34 61
29 36 -11 75 -54 82 -91 l6 -35 28 26 c15 14 39 26 53 26 36 0 74 -48 82 -104
4 -25 9 -46 10 -46 2 0 20 16 40 35 60 56 147 58 161 2 4 -13 -3 -46 -14 -75
-31 -78 -28 -92 12 -54 18 18 36 32 39 32 11 0 29 -66 23 -81 -5 -12 -73 -66
-96 -77 -4 -2 -10 14 -14 35 -8 45 -56 108 -97 129 -18 9 -47 14 -70 12 -33
-3 -39 -1 -44 19 -4 12 -24 38 -45 58 -42 37 -82 45 -134 25 -23 -9 -29 -6
-51 19 -42 51 -97 59 -178 28 -23 -8 -31 -8 -40 5 -26 36 -89 68 -132 68 -53
0 -81 -10 -116 -43 l-27 -25 -21 23 c-12 13 -35 29 -52 36 -19 8 -27 17 -24
26 4 8 6 21 6 28 0 8 10 24 23 36 48 45 107 50 117 10z m-240 -18 c16 -9 34
-27 41 -40 7 -13 16 -23 21 -23 4 0 8 -4 8 -10 0 -5 -9 -10 -21 -10 -24 0 -56
-16 -85 -41 -19 -18 -23 -18 -50 -4 -16 8 -37 15 -47 15 -23 0 -89 -34 -106
-54 -11 -13 -16 -13 -48 1 -46 19 -93 10 -134 -24 -22 -19 -33 -23 -38 -14
-13 21 -75 25 -109 7 -30 -16 -32 -15 -32 2 0 26 28 62 50 62 10 0 32 -11 48
-25 17 -14 32 -25 35 -25 2 0 7 16 10 36 13 79 84 109 132 58 14 -15 25 -31
25 -35 0 -25 28 -4 45 34 13 28 32 48 55 60 l35 17 27 -30 c15 -16 30 -30 33
-30 3 0 5 15 5 33 0 25 6 37 23 45 31 15 45 14 77 -5z m138 -200 c12 -13 22
-28 22 -34 0 -11 3 -11 -44 5 -26 9 -50 11 -75 5 -51 -12 -53 -11 -41 11 15
28 60 50 90 43 14 -3 35 -16 48 -30z m268 3 c45 -45 44 -58 -5 -50 -43 7 -101
-8 -144 -38 -23 -17 -28 -17 -33 -4 -11 28 17 87 50 107 49 30 92 25 132 -15z
m-504 -23 c10 -9 18 -19 18 -22 0 -3 -27 -6 -59 -6 -58 0 -61 3 -38 33 13 17
57 15 79 -5z m716 -9 c12 -8 22 -18 22 -22 0 -4 -32 -7 -70 -7 -39 0 -70 2
-70 4 0 3 7 13 17 23 20 22 71 24 101 2z m-900 -34 c31 -29 28 -32 -20 -25
-24 4 -56 2 -72 -5 -40 -15 -46 -3 -13 26 34 29 76 31 105 4z m-445 -7 c37
-19 52 -35 72 -82 16 -36 9 -50 -25 -51 -24 0 -70 -35 -91 -69 -15 -24 -26
-31 -51 -31 -18 0 -48 -9 -67 -21 -18 -11 -35 -19 -36 -17 -2 2 -13 31 -24 65
-53 156 -8 212 90 111 28 -29 46 -44 41 -33 -14 29 -23 98 -14 111 9 14 43 33
60 34 7 0 27 -7 45 -17z m245 -36 c2 -18 -5 -37 -21 -57 -14 -16 -27 -35 -29
-41 -2 -7 -12 -9 -26 -5 -28 9 -30 64 -5 107 14 24 24 29 48 27 24 -2 31 -8
33 -31z m1318 -1 c19 -19 34 -41 34 -51 0 -17 -2 -17 -59 22 -19 13 -44 23
-56 23 -29 0 -37 10 -24 27 21 25 69 15 105 -21z m-718 -30 c15 -8 36 -23 46
-35 l19 -21 -46 0 c-51 0 -123 -27 -150 -58 -16 -17 -27 -19 -76 -15 -43 4
-66 1 -92 -12 -71 -36 -119 -98 -119 -155 0 -16 -4 -30 -10 -30 -5 0 -10 4
-10 9 0 12 -83 134 -110 161 -11 11 -20 27 -20 35 0 27 42 55 81 55 31 0 41
-5 56 -30 21 -36 29 -38 37 -6 3 14 18 38 32 55 42 51 117 41 147 -18 18 -36
31 -35 45 2 14 38 71 76 115 77 15 0 40 -6 55 -14z m369 -23 c13 -9 27 -29 30
-45 5 -26 23 -40 23 -19 0 5 12 23 26 40 34 41 72 41 116 2 30 -27 33 -34 33
-90 l-1 -60 32 34 c33 37 60 43 97 23 34 -17 46 -39 47 -80 0 -37 -1 -38 -35
-38 -44 0 -131 -38 -176 -78 l-35 -30 -23 61 c-49 127 -128 187 -248 187 -34
0 -68 3 -77 6 -41 16 6 84 72 104 34 11 88 3 119 -17z m512 -39 c53 -38 77
-154 46 -225 -8 -19 -14 -29 -15 -22 0 7 -12 18 -26 26 -22 12 -26 20 -28 68
-1 34 -10 72 -25 103 -20 40 -21 50 -10 57 20 13 32 11 58 -7z m-1966 -118
c28 -35 34 -61 18 -70 -5 -3 -12 -22 -15 -41 -4 -19 -10 -35 -14 -35 -11 0
-78 71 -91 97 -16 31 -14 79 5 97 13 14 19 14 43 2 15 -8 40 -31 54 -50z
m1179 -3 c32 -30 51 -88 46 -139 -3 -44 10 -56 18 -15 4 17 23 50 43 73 32 36
42 41 76 40 46 -2 89 -38 107 -91 16 -49 14 -199 -5 -296 -9 -44 -32 -147 -52
-229 -19 -82 -50 -221 -68 -310 -17 -88 -33 -154 -34 -146 -1 8 -7 76 -12 150
-10 129 -50 323 -72 344 -5 6 -9 6 -9 2 0 -19 -62 -471 -65 -474 -1 -2 -8 37
-15 85 -7 48 -18 124 -26 168 -8 44 -17 120 -20 168 -4 53 -11 86 -17 84 -30
-10 -58 -303 -39 -405 13 -71 3 -57 -42 63 -22 55 -70 176 -109 269 -107 260
-142 377 -140 464 1 12 1 36 2 52 1 39 55 98 97 106 25 5 38 0 68 -26 20 -18
39 -43 42 -56 10 -38 21 -28 27 22 6 55 31 92 78 117 43 22 84 16 121 -20z
m-757 -8 c52 -30 103 -85 150 -159 29 -46 33 -57 19 -52 -99 40 -188 -16 -170
-107 7 -34 25 -62 170 -261 52 -72 117 -168 143 -215 50 -87 123 -248 123
-270 0 -7 -25 25 -56 70 -151 220 -343 433 -621 690 -73 68 -93 91 -98 121
-20 104 59 142 150 72 26 -19 45 -30 42 -22 -25 61 -29 88 -17 117 22 54 88
61 165 16z m1852 -24 c-3 -20 -9 -46 -12 -58 -5 -15 13 -2 53 39 34 33 67 58
74 56 25 -8 19 -61 -12 -115 l-30 -53 -59 6 c-65 7 -135 -11 -208 -53 -58 -32
-56 -17 11 90 81 129 108 152 159 134 27 -9 29 -13 24 -46z m-406 -151 c30
-16 24 -77 -17 -181 -19 -50 -34 -93 -32 -95 2 -1 37 38 78 87 41 49 86 99 98
110 l24 20 -7 -23 c-14 -51 -65 -132 -200 -318 -165 -229 -201 -285 -289 -445
-36 -66 -66 -115 -66 -108 0 19 108 326 140 399 17 37 46 93 65 125 19 31 35
60 35 65 0 26 -197 -221 -234 -294 -10 -19 -20 -32 -22 -29 -6 6 63 290 87
357 65 179 172 304 282 330 18 5 33 8 35 9 2 1 12 -4 23 -9z m399 -95 c16 -20
6 -56 -36 -128 -19 -32 -34 -60 -34 -63 0 -2 28 18 63 44 78 61 104 75 140 74
40 -1 57 -19 57 -58 0 -67 -88 -140 -365 -303 -229 -135 -342 -231 -430 -364
-53 -79 -57 -63 -5 20 56 90 154 202 327 374 132 132 156 159 135 159 -13 0
-219 -164 -305 -243 -45 -41 -86 -79 -91 -84 -27 -24 153 247 232 351 89 116
199 214 258 229 34 8 41 7 54 -8z m-2250 -50 c124 -63 283 -182 372 -280 37
-41 35 -51 -4 -22 -48 36 -288 160 -295 153 -3 -3 7 -16 22 -28 40 -32 239
-181 261 -195 11 -7 -19 1 -66 17 -328 110 -550 249 -550 346 0 9 10 26 23 36
19 17 33 19 92 16 56 -4 85 -13 145 -43z m578 -12 c73 -55 147 -172 245 -389
68 -150 170 -422 164 -437 -3 -7 -12 6 -22 28 -74 177 -159 319 -342 572 -116
162 -151 226 -133 248 16 19 42 12 88 -22z m-549 -365 c140 -39 150 -46 66
-47 -39 0 -153 -17 -255 -36 -205 -39 -210 -39 -262 -24 -48 13 -50 37 -4 77
87 76 252 87 455 30z m499 -162 c88 -69 143 -144 188 -251 20 -50 18 -47 -47
50 -29 44 -92 119 -140 168 -47 48 -82 87 -77 87 5 0 39 -24 76 -54z m257
-660 c-8 -107 7 -196 44 -268 26 -50 27 -57 10 -47 -51 27 -106 151 -95 212
12 63 41 187 44 187 2 0 1 -38 -3 -84z m215 -16 c-5 -25 -9 -79 -9 -120 -1
-86 30 -189 74 -246 32 -42 12 -47 -35 -8 -63 54 -95 156 -79 256 9 56 47 173
54 166 2 -2 -1 -23 -5 -48z m570 -120 c0 -76 -22 -130 -69 -174 -33 -32 -41
-25 -15 12 34 48 54 133 55 231 l1 96 14 -50 c7 -27 14 -79 14 -115z m-189 2
c16 -76 3 -151 -35 -209 -25 -38 -86 -83 -86 -64 0 5 5 13 10 16 21 13 59 105
71 170 6 37 9 100 7 139 -5 64 -4 68 8 41 7 -17 18 -59 25 -93z m429 -537
c-25 -66 -76 -157 -126 -222 -30 -40 -56 -73 -58 -73 -8 0 42 126 69 172 23
42 110 148 121 148 2 0 -1 -11 -6 -25z m-1434 -124 c46 -59 43 -70 -8 -29 -60
47 -128 111 -128 121 0 20 105 -51 136 -92z m1694 65 c0 -2 -30 -26 -67 -52
-79 -56 -95 -69 -137 -107 l-31 -28 30 5 c17 4 68 9 115 12 76 5 83 4 67 -10
-11 -8 -62 -29 -115 -46 -54 -17 -127 -48 -164 -67 -69 -36 -197 -138 -236
-188 -40 -51 -23 -13 24 52 58 82 218 248 300 314 79 63 214 135 214 115z
m-2275 -20 c22 -2 65 -8 95 -11 151 -18 342 -77 494 -151 105 -52 189 -104
141 -88 -11 4 -24 10 -30 14 -54 37 -269 94 -404 106 -73 7 -199 -13 -296 -46
-43 -15 -54 -16 -45 -5 18 22 90 61 138 75 72 22 55 34 -83 56 -49 8 -159 17
-244 21 -105 4 -147 9 -131 15 57 21 256 29 365 14z m-398 -32 c-3 -3 -12 -4
-19 -1 -8 3 -5 6 6 6 11 1 17 -2 13 -5z"/>
<path d="M1806 4894 c-45 -46 -68 -96 -71 -153 -2 -50 10 -95 23 -87 5 3 12
30 15 60 6 56 41 121 86 159 17 14 19 21 11 37 -15 28 -24 25 -64 -16z"/>
<path d="M1660 4771 c-10 -21 -14 -124 -4 -133 3 -3 14 -3 25 -1 17 5 19 12
15 42 -3 20 -5 53 -6 74 0 40 -13 48 -30 18z"/>
<path d="M1973 4738 c-18 -23 -40 -93 -39 -122 1 -28 28 -57 41 -44 4 4 8 22
10 42 2 19 11 51 20 70 10 20 15 43 11 51 -7 18 -30 20 -43 3z"/>
<path d="M458 4672 c-69 -76 -118 -221 -118 -348 0 -74 -10 -74 -31 1 -15 54
-27 69 -46 53 -16 -13 -12 -100 8 -158 6 -17 9 -33 7 -36 -3 -2 -40 47 -82
110 -71 106 -141 186 -180 208 -24 13 -21 -52 2 -78 54 -57 190 -279 179 -290
-2 -2 -17 14 -32 36 -16 22 -58 68 -94 102 l-66 62 -3 -28 c-2 -17 4 -38 15
-52 83 -103 117 -149 147 -202 20 -33 36 -63 36 -66 0 -3 -30 24 -67 62 -38
37 -83 75 -101 85 l-32 18 0 -25 c0 -17 17 -42 53 -78 57 -57 101 -117 136
-185 28 -56 27 -60 -10 -29 -37 32 -76 43 -92 27 -9 -9 -8 -15 7 -23 74 -42
133 -127 156 -228 27 -116 86 -192 163 -207 17 -4 34 -17 43 -34 16 -31 32
-37 40 -15 3 8 16 17 30 20 19 5 24 13 24 37 0 17 6 32 15 36 9 3 28 28 42 56
23 46 25 59 20 132 -3 44 -15 116 -27 160 -40 150 -37 308 7 392 22 42 9 60
-31 41 -42 -19 -77 -96 -83 -186 -6 -71 -7 -73 -20 -48 -44 84 -70 315 -49
426 20 104 50 176 93 222 29 30 27 62 -3 66 -14 2 -33 -10 -56 -36z"/>
<path d="M5233 4661 c-17 -11 -34 -29 -38 -40 -7 -24 -23 -27 -31 -7 -9 22
-71 48 -97 40 -12 -4 -36 -22 -54 -41 -31 -34 -32 -35 -68 -22 -31 12 -40 11
-64 -2 -26 -15 -29 -15 -59 12 -47 42 -103 40 -147 -4 -27 -27 -40 -33 -63
-29 -35 5 -86 -20 -107 -52 -10 -16 -29 -26 -56 -30 -23 -4 -50 -16 -62 -30
-13 -14 -40 -26 -64 -31 -49 -8 -103 -60 -103 -100 0 -31 -13 -38 -43 -24 -37
17 -105 -5 -125 -40 -15 -27 -18 -28 -84 -23 -52 4 -73 1 -92 -12 -30 -19 -44
-76 -27 -112 8 -19 8 -24 -3 -24 -23 0 -46 -35 -46 -70 0 -27 11 -44 60 -93
33 -33 60 -61 60 -62 0 -2 -19 -8 -42 -14 -24 -6 -57 -19 -74 -30 -35 -21 -68
-83 -59 -110 6 -21 70 -55 84 -46 23 14 18 -15 -5 -29 -33 -22 -64 -74 -64
-109 0 -16 10 -38 25 -52 31 -32 76 -32 184 -1 l83 24 -20 -21 c-40 -44 -62
-92 -62 -135 0 -56 14 -80 55 -97 50 -21 91 -6 240 89 205 132 356 142 454 31
44 -50 56 -80 93 -238 52 -223 90 -283 214 -342 69 -33 74 -37 84 -77 6 -24
13 -50 16 -58 3 -8 14 -76 24 -150 18 -122 19 -183 15 -630 -3 -272 -7 -508
-9 -525 -3 -16 -7 -59 -10 -95 -8 -87 -17 -154 -21 -158 -1 -2 -16 23 -31 55
-29 57 -29 60 -29 244 -1 200 -7 229 -56 244 -25 8 -42 -6 -67 -56 -21 -43
-56 -46 -85 -7 -17 23 -21 48 -26 185 -5 120 -11 166 -24 190 -34 64 -96 82
-136 39 -19 -20 -23 -36 -24 -97 -1 -40 -6 -74 -12 -76 -23 -7 -37 18 -56 103
-55 234 -128 380 -263 521 -138 145 -276 234 -330 213 -33 -12 -40 -43 -33
-149 12 -169 101 -416 201 -555 55 -77 100 -118 209 -190 97 -64 150 -118 145
-149 -5 -35 -50 -34 -95 1 -49 39 -78 47 -114 32 -16 -7 -29 -13 -29 -14 0 -1
-4 -15 -9 -33 -14 -48 24 -117 115 -213 121 -127 229 -191 439 -260 55 -18
120 -43 145 -56 59 -29 120 -95 153 -166 26 -55 41 -68 77 -68 25 0 56 42 65
87 24 132 137 267 309 370 137 82 207 135 290 218 82 84 157 193 211 308 55
117 63 158 40 193 -26 39 -81 29 -141 -26 -55 -50 -97 -53 -102 -7 -4 33 20
74 107 182 155 192 229 442 219 739 -4 136 -16 166 -65 166 -34 0 -108 -72
-148 -144 -87 -157 -122 -295 -135 -540 -12 -210 -16 -255 -24 -263 -10 -11
-15 22 -19 137 -4 125 -19 172 -61 192 -33 14 -74 -7 -100 -52 -18 -30 -21
-51 -20 -155 0 -66 4 -160 8 -210 5 -67 4 -96 -6 -115 -21 -38 -49 -36 -77 6
-31 45 -65 59 -103 43 -47 -19 -56 -59 -68 -290 -11 -219 -19 -280 -47 -364
-18 -57 -72 -169 -78 -163 -2 2 0 55 6 118 14 170 29 1080 18 1180 -18 175
-21 196 -30 244 -16 87 -12 105 32 153 105 115 114 245 27 417 -60 119 -84
216 -68 276 32 120 130 172 360 191 222 18 281 36 300 93 18 57 -22 115 -102
147 l-40 16 61 22 c82 30 121 64 121 105 0 65 -79 101 -205 94 -47 -2 -85 -3
-85 -2 0 1 21 46 48 100 71 148 63 220 -22 212 -23 -3 -49 -8 -58 -12 -14 -6
-18 -3 -18 12 0 50 -40 92 -87 92 -9 0 -35 -11 -59 -25 l-42 -25 -6 34 c-4 19
-20 48 -35 65 -35 37 -80 41 -128 12z m97 -82 c6 -10 10 -28 10 -40 0 -21 -1
-21 -18 -6 -22 20 -63 22 -80 5 -15 -15 -15 -8 -2 27 17 44 70 53 90 14z
m-200 -31 c21 -22 27 -48 11 -48 -5 0 -12 7 -15 16 -6 15 -8 15 -24 2 -9 -8
-25 -18 -34 -21 -15 -5 -18 0 -18 27 0 18 3 36 7 39 14 14 53 6 73 -15z m-342
-4 c22 -15 31 -54 12 -54 -5 0 -10 5 -10 10 0 16 -47 11 -54 -6 -8 -21 -26 -8
-26 20 0 44 37 59 78 30z m730 -56 c4 -32 -13 -97 -30 -121 -11 -15 -12 -10
-9 34 4 62 -11 59 -41 -8 -24 -55 -32 -50 -23 15 9 71 38 114 73 110 21 -2 28
-9 30 -30z m-546 -5 c30 -29 33 -39 18 -63 -7 -12 -13 -9 -35 14 -20 22 -29
25 -39 17 -8 -7 -12 -21 -9 -31 3 -11 1 -20 -4 -20 -18 0 -33 25 -33 55 0 60
54 74 102 28z m-322 -12 c12 -29 8 -51 -9 -51 -5 0 -11 9 -14 20 -3 11 -10 20
-16 20 -6 0 -15 -9 -21 -20 -15 -28 -40 -25 -40 4 0 33 25 56 60 56 21 0 30
-7 40 -29z m660 -10 c15 -30 13 -101 -4 -101 -8 0 -17 11 -20 25 -4 14 -10 25
-16 25 -9 0 -13 -10 -24 -62 -11 -47 -26 -31 -26 26 0 39 6 60 21 80 24 31 54
34 69 7z m-166 -37 c18 -17 22 -89 6 -99 -6 -3 -14 5 -20 19 -10 27 -34 34
-46 15 -8 -14 -24 8 -24 33 0 22 27 48 50 48 10 0 26 -7 34 -16z m516 -14 c0
-20 -58 -136 -118 -235 -32 -52 -37 -57 -40 -36 -5 34 25 138 55 191 47 83
103 127 103 80z m-1180 -13 c0 -20 -5 -24 -30 -24 -28 0 -46 19 -34 38 3 5 18
9 35 9 24 0 29 -4 29 -23z m327 1 c25 -23 32 -48 8 -28 -15 12 -53 10 -87 -5
-23 -9 -24 17 -2 39 22 22 54 20 81 -6z m-413 -73 c14 -13 26 -30 26 -37 0 -8
-3 -9 -8 -3 -4 6 -23 11 -43 13 -29 3 -40 -1 -53 -20 -14 -19 -18 -21 -26 -8
-13 21 -12 32 6 58 20 30 64 29 98 -3z m249 -6 c32 -40 15 -86 -18 -49 -21 24
-50 25 -87 6 -26 -14 -28 -13 -28 5 0 11 12 31 26 46 20 20 31 24 57 19 18 -3
40 -16 50 -27z m353 16 c19 -15 19 -15 -1 -30 -11 -9 -25 -13 -32 -10 -13 4
-31 -27 -48 -80 -5 -16 -8 -17 -15 -5 -20 31 -11 80 19 111 33 33 49 36 77 14z
m-177 -57 c19 -34 10 -44 -22 -24 -22 15 -26 15 -50 -5 -24 -18 -28 -19 -33
-5 -3 9 1 28 11 42 22 35 73 31 94 -8z m537 -23 c25 -38 16 -186 -15 -240
l-22 -40 6 95 c8 134 -4 145 -52 45 -53 -111 -55 -113 -63 -90 -9 27 7 120 32
177 33 77 83 100 114 53z m-255 -5 c16 -12 33 -36 39 -58 12 -44 13 -92 2 -92
-4 0 -25 20 -45 45 -38 46 -62 59 -50 28 5 -13 2 -15 -11 -10 -10 4 -22 7 -27
7 -19 0 -8 52 16 75 29 30 39 31 76 5z m-890 -48 c19 -17 29 -37 29 -55 l0
-28 -60 33 c-64 35 -77 52 -58 75 16 19 54 9 89 -25z m203 5 c15 -11 16 -22
10 -75 -3 -34 -10 -62 -14 -62 -10 0 -20 26 -20 50 0 10 -4 21 -9 25 -15 9
-43 -26 -38 -46 3 -12 0 -19 -9 -19 -10 0 -14 13 -14 47 0 72 48 114 94 80z
m173 -19 c30 -28 31 -68 2 -68 -11 0 -28 7 -37 16 -14 15 -17 15 -29 -2 -7
-10 -13 -24 -13 -31 0 -7 -7 -13 -15 -13 -11 0 -15 11 -15 40 0 71 59 103 107
58z m-549 -34 c39 -16 152 -127 152 -149 0 -16 -27 -2 -125 65 -45 31 -120 70
-132 70 -4 -1 3 -10 16 -21 32 -27 21 -35 -12 -8 -29 22 -34 38 -15 57 14 14
63 8 116 -14z m762 8 c18 -15 20 -21 11 -45 -6 -15 -12 -41 -13 -57 -1 -17 -3
-30 -5 -30 -1 0 -12 18 -23 40 -27 52 -43 43 -34 -18 6 -42 5 -46 -9 -34 -8 7
-23 29 -32 48 -14 29 -15 41 -5 64 19 47 72 63 110 32z m1026 -46 c10 -8 17
-16 14 -19 -3 -2 -50 -21 -105 -42 -149 -57 -217 -90 -268 -129 -26 -20 -47
-32 -47 -28 0 18 74 114 115 149 82 69 239 107 291 69z m-807 -33 c37 -28 60
-64 67 -103 l5 -35 -32 38 c-27 32 -94 77 -114 77 -3 0 8 -17 24 -37 24 -30
61 -109 61 -130 0 -2 -14 12 -32 32 -17 20 -53 47 -79 60 -26 14 -50 34 -54
44 -7 23 8 55 33 71 24 15 90 5 121 -17z m-409 -48 c27 -14 60 -51 60 -67 0
-12 -35 -9 -48 4 -9 9 -12 9 -12 0 0 -6 -7 -9 -15 -5 -12 4 -11 -2 5 -30 32
-54 7 -54 -39 0 -46 54 -47 59 -25 91 18 26 34 27 74 7z m-571 -47 c46 -22
181 -150 163 -156 -5 -1 -30 10 -55 25 -25 15 -74 45 -107 66 -34 20 -64 37
-68 37 -3 0 11 -18 33 -40 l39 -40 -34 13 c-41 15 -134 103 -124 118 10 16 96
3 153 -23z m397 -20 c38 -28 84 -84 84 -105 0 -22 -25 -15 -99 28 -39 22 -76
39 -81 37 -6 -2 9 -30 33 -63 57 -78 71 -105 56 -105 -30 0 -108 74 -141 134
-22 40 -22 65 -1 89 25 27 101 19 149 -15z m389 -39 c53 -15 126 -90 144 -148
16 -54 27 -203 13 -181 -5 8 -13 31 -17 50 -16 75 -87 175 -146 206 -41 20
-43 18 -16 -18 28 -37 61 -100 72 -138 6 -20 -1 -16 -33 21 -22 25 -64 61 -91
80 -73 48 -80 96 -20 126 30 16 43 16 94 2z m429 -11 c20 -29 20 -62 0 -122
-18 -53 -60 -133 -75 -141 -12 -8 -12 -5 5 43 8 22 18 66 22 98 6 55 6 58 -10
44 -10 -7 -37 -53 -62 -101 -24 -48 -47 -90 -52 -93 -4 -2 -5 28 -1 67 11 110
47 178 114 215 30 17 42 14 59 -10z m516 -27 c20 -10 36 -27 38 -39 5 -32 -55
-43 -225 -41 -163 2 -164 7 -3 38 l105 20 -92 -3 c-51 -1 -91 -1 -89 1 2 2 26
13 52 23 66 26 168 26 214 1z m-1661 -118 c49 -15 52 -18 28 -24 -36 -10 -238
-18 -265 -10 -38 10 -30 25 23 44 58 20 131 17 214 -10z m543 -4 c55 -28 115
-95 154 -172 41 -80 41 -104 0 -50 -37 48 -124 120 -183 150 -66 33 -81 30
-51 -9 14 -18 48 -66 77 -106 l51 -73 -42 22 c-70 35 -123 84 -152 141 -24 45
-26 57 -17 81 20 50 83 57 163 16z m-327 -123 c113 -39 117 -48 15 -43 -137 6
-277 -10 -385 -44 -65 -20 -115 -25 -115 -10 0 17 52 71 83 87 68 35 111 43
217 40 81 -3 123 -10 185 -30z m-75 -121 c0 -2 -19 -15 -43 -29 -45 -27 -91
-79 -85 -98 2 -6 20 3 40 21 20 17 60 42 89 55 61 27 123 41 114 26 -3 -6 -11
-10 -17 -10 -13 0 -132 -79 -173 -114 -38 -33 -101 -54 -117 -38 -6 6 -8 22
-4 38 9 34 94 123 123 129 13 2 31 8 40 14 19 11 33 14 33 6z m978 -357 c35
-71 49 -128 33 -128 -6 0 -11 7 -11 16 0 9 -18 57 -40 106 -44 100 -31 104 18
6z m-182 -9 c36 -91 85 -282 69 -269 -19 16 -63 139 -85 241 -29 127 -26 132
16 28z m124 -59 c23 -63 36 -140 23 -140 -9 0 -29 54 -64 180 -18 64 -18 65 1
40 10 -14 28 -50 40 -80z m-225 3 c14 -49 42 -116 61 -151 28 -52 31 -61 14
-52 -25 13 -63 81 -83 145 -15 49 -30 145 -23 145 2 0 16 -39 31 -87z m-658
-946 c119 -173 193 -290 186 -297 -15 -15 -187 223 -267 371 -82 152 -60 133
81 -74z m1513 -142 c0 -17 -57 -151 -100 -234 -49 -96 -128 -216 -136 -208 -6
5 186 408 204 430 14 16 32 23 32 12z m-1152 -363 c118 -154 215 -292 209
-298 -7 -8 -101 89 -170 175 -66 83 -167 236 -167 252 0 22 57 -36 128 -129z"/>
<path d="M1695 4620 c-65 -8 -106 -87 -70 -134 8 -11 15 -27 15 -37 0 -14 18
-29 35 -29 1 0 6 15 9 34 4 18 24 58 46 89 22 30 40 60 40 65 0 14 -29 18 -75
12z"/>
<path d="M1780 4581 c-6 -16 -21 -38 -32 -48 -56 -51 -63 -121 -17 -169 l30
-31 -20 -39 c-26 -49 -27 -99 -1 -147 24 -45 25 -55 4 -79 -14 -14 -14 -20 -4
-33 21 -25 37 -17 54 25 15 39 15 44 -6 103 -21 60 -21 93 1 126 7 11 25 -2
78 -55 180 -180 242 -218 358 -218 96 0 149 25 153 74 6 61 -25 152 -71 208
-46 55 -153 141 -232 184 l-50 28 37 0 c31 0 46 -8 80 -40 40 -38 89 -60 131
-60 23 0 77 -53 77 -75 0 -20 74 -55 101 -48 11 3 19 14 19 27 0 18 -8 25 -37
32 -29 7 -43 18 -59 48 -24 42 -66 66 -115 66 -19 0 -42 12 -66 34 -49 43 -75
56 -120 60 -72 5 -106 -11 -136 -64 -15 -27 -37 -56 -49 -64 -27 -19 -58 -70
-59 -99 -1 -17 -2 -18 -6 -4 -8 32 19 88 73 149 30 33 54 64 54 68 0 15 -48
49 -85 59 -60 16 -71 14 -85 -18z m390 -210 c0 -6 -12 -23 -26 -38 -24 -27
-25 -27 -13 -3 20 41 39 62 39 41z m32 -87 c-10 -20 -22 -33 -25 -28 -6 10 32
78 40 70 2 -2 -4 -21 -15 -42z m69 -12 c-5 -10 -18 -25 -27 -33 -16 -13 -16
-12 0 19 9 17 21 32 27 32 6 0 6 -6 0 -18z m-203 -64 c-18 -28 -33 -47 -35
-41 -4 12 47 93 59 93 4 0 -7 -23 -24 -52z m221 -33 c-19 -31 -45 -66 -59 -78
-23 -21 -23 -21 3 15 15 20 27 39 27 43 0 3 12 24 26 46 39 62 42 38 3 -26z
m-164 -9 c-26 -44 -42 -62 -50 -55 -5 6 66 112 71 106 3 -3 -6 -26 -21 -51z
m64 -35 c-29 -40 -38 -32 -9 9 12 17 24 29 27 26 3 -2 -5 -18 -18 -35z"/>
<path d="M1560 4480 c-86 -24 -210 -118 -210 -159 0 -37 20 -33 73 15 28 26
79 60 111 75 54 26 75 43 76 60 0 12 -24 16 -50 9z"/>
<path d="M1827 4227 c-9 -27 9 -59 59 -107 30 -28 55 -60 55 -71 4 -53 18 -76
60 -94 22 -10 47 -27 54 -38 15 -22 45 -17 45 7 0 22 -46 72 -80 86 -19 8 -30
20 -30 32 0 11 -5 29 -12 41 -17 34 -146 157 -151 144z"/>
<path d="M6908 4180 c-10 -6 -18 -21 -18 -34 0 -30 24 -50 80 -65 59 -16 159
-71 230 -126 123 -94 233 -239 291 -382 18 -46 20 -56 8 -64 -31 -20 -55 -7
-100 54 -60 82 -153 156 -264 211 -138 68 -180 77 -355 83 -148 5 -156 4 -182
-17 -58 -45 -14 -124 50 -91 32 16 147 19 231 6 88 -15 232 -76 309 -132 54
-39 162 -145 162 -160 0 -6 -9 -14 -19 -18 -29 -9 -234 -202 -250 -235 -12
-25 -21 -30 -49 -30 -50 0 -102 -54 -102 -107 0 -50 30 -85 68 -81 24 3 27 8
30 46 2 27 8 42 17 42 7 0 20 3 29 6 12 5 16 -1 16 -23 0 -56 73 -99 150 -89
42 6 50 3 120 -47 l75 -54 -3 -58 c-3 -66 18 -149 54 -214 13 -24 24 -45 24
-47 0 -12 -24 1 -70 37 -104 82 -188 98 -297 57 -46 -17 -74 -38 -135 -101
l-78 -80 -66 2 c-36 1 -84 -4 -105 -11 -44 -13 -89 -58 -89 -88 0 -39 68 -52
123 -23 18 9 72 20 120 24 103 10 132 22 210 89 54 46 63 50 109 50 50 0 53
-2 112 -61 89 -91 155 -115 247 -89 34 9 39 8 73 -23 20 -19 66 -51 103 -73
53 -31 62 -39 47 -45 -11 -4 -40 -14 -65 -23 -105 -37 -155 -130 -143 -268 6
-74 5 -79 -24 -123 -17 -25 -35 -69 -42 -98 -18 -81 -30 -104 -66 -132 -19
-14 -41 -39 -49 -55 -31 -59 -10 -150 35 -150 23 0 56 41 65 79 3 15 19 38 35
50 35 25 70 89 70 127 0 19 13 39 44 68 57 53 66 73 72 154 9 109 51 157 152
169 l50 6 11 -36 c21 -64 68 -117 128 -144 47 -22 65 -25 117 -20 l61 6 38
-65 c26 -44 58 -80 98 -111 33 -26 75 -71 95 -100 21 -32 57 -68 88 -89 49
-32 54 -39 66 -92 9 -44 21 -65 50 -93 21 -20 48 -55 60 -78 22 -43 50 -62 83
-53 28 7 37 42 25 97 -8 38 -21 59 -58 95 -46 45 -53 59 -74 152 -4 16 -32 58
-64 95 -68 80 -87 109 -46 72 58 -53 170 -89 276 -89 48 0 184 -69 247 -126
27 -25 64 -70 82 -101 32 -56 98 -109 149 -119 75 -15 134 -39 170 -69 49 -41
80 -51 109 -36 35 19 42 44 22 82 -25 48 -72 77 -139 85 -88 10 -98 17 -170
124 -60 88 -59 83 -21 75 52 -12 124 -7 168 11 38 15 44 15 83 -1 23 -9 59
-30 79 -46 58 -45 100 -59 186 -59 58 0 86 -5 108 -18 48 -30 84 -35 111 -17
28 18 30 37 7 76 -26 44 -74 63 -144 55 -47 -6 -68 -3 -103 12 -61 27 -63 39
-11 45 25 2 63 16 85 31 32 21 47 25 82 20 49 -7 123 21 196 75 l42 31 0 89
c0 87 -1 91 -44 168 -41 72 -114 167 -142 185 -8 5 -6 22 7 60 28 85 42 221
36 353 -19 388 -235 703 -609 887 -176 87 -329 119 -538 113 -155 -4 -218 -15
-345 -57 -143 -48 -280 -133 -383 -238 l-32 -34 -33 31 c-54 51 -94 66 -198
72 l-95 6 -52 53 c-34 34 -77 65 -125 88 -69 32 -75 38 -86 77 -19 63 -96 212
-145 281 -60 85 -190 205 -273 255 -121 72 -241 111 -275 91z m2241 -720 c54
-11 117 -27 141 -35 48 -17 174 -85 168 -90 -2 -2 -42 9 -88 25 -138 48 -212
60 -345 56 -114 -3 -237 -25 -259 -47 -18 -17 1 -18 59 -2 94 25 232 20 333
-12 46 -15 82 -28 80 -30 -1 -1 -50 -5 -108 -8 -58 -4 -132 -13 -165 -22 -90
-23 -233 -97 -297 -155 -93 -83 -190 -240 -224 -365 -13 -48 -20 -214 -11
-245 29 -89 8 -91 -26 -2 -68 179 -61 328 24 502 42 85 117 171 214 247 22 17
38 33 34 37 -10 11 -88 -36 -148 -91 -139 -126 -216 -298 -220 -493 -3 -150
30 -273 99 -368 45 -62 16 -51 -55 22 -51 52 -69 79 -95 147 -61 157 -51 348
26 502 53 103 138 202 227 263 20 13 37 31 37 39 0 33 -159 -87 -227 -170 -92
-112 -153 -292 -153 -451 0 -115 13 -179 55 -271 55 -120 161 -219 286 -267
56 -22 60 -25 32 -25 -51 -1 -185 46 -250 88 -245 158 -295 532 -112 838 69
114 231 254 362 311 112 49 301 89 435 91 41 0 118 -8 171 -19z m-1509 -64
c65 -32 103 -97 101 -171 -1 -60 -16 -98 -50 -129 -27 -24 -27 -17 0 29 17 28
20 47 17 90 -12 144 -184 217 -286 122 -53 -49 -77 -140 -52 -188 18 -32 1
-21 -20 14 -46 74 -8 191 75 235 68 36 141 35 215 -2z m-52 -76 c44 -41 22
-80 -44 -80 -88 0 -126 37 -79 77 34 30 93 31 123 3z m432 -108 c0 -34 -41
-165 -70 -222 -42 -84 -134 -178 -219 -224 -39 -22 -79 -48 -88 -58 -40 -44
-5 -145 81 -232 68 -69 133 -110 235 -149 83 -31 85 -32 48 -35 -21 -2 -67 6
-103 18 -144 48 -277 175 -310 297 -17 64 -17 67 2 101 13 26 43 50 99 84 136
81 210 167 251 293 38 117 74 179 74 127z m1365 -7 c172 -46 337 -177 409
-327 125 -259 95 -512 -81 -687 -74 -73 -160 -122 -253 -142 -78 -17 -243 -7
-313 19 -81 29 -192 106 -239 165 -73 93 -128 231 -128 321 0 20 -5 36 -11 36
-21 0 -2 -144 28 -218 34 -88 65 -135 131 -204 115 -121 240 -178 409 -186
175 -8 292 28 413 128 78 65 95 85 137 159 41 71 43 59 3 -21 -81 -163 -242
-278 -433 -308 -177 -29 -345 8 -485 106 -35 25 -66 43 -69 41 -6 -6 89 -95
135 -126 121 -82 297 -122 453 -102 126 16 277 83 329 146 7 9 27 26 44 38
l31 22 -16 -25 c-23 -36 -138 -130 -195 -161 -161 -86 -389 -103 -567 -41
-244 84 -418 268 -504 532 -20 63 -28 249 -14 339 41 261 255 477 501 508 25
3 47 8 50 10 9 10 175 -6 235 -22z m-2155 0 c-7 -9 -27 -26 -44 -38 l-31 -22
16 25 c9 14 27 31 40 37 31 17 34 16 19 -2z m61 -610 l34 -15 -40 6 c-22 4
-44 10 -49 15 -16 14 18 11 55 -6z m519 -474 c0 -5 -10 -11 -22 -15 -13 -3
-38 -19 -56 -36 -42 -38 -47 -38 -27 1 20 38 105 79 105 50z m585 -193 c2 -57
19 -115 47 -163 25 -43 22 -52 -8 -24 -34 31 -74 111 -74 146 0 36 20 107 27
99 3 -3 7 -29 8 -58z m670 -297 c40 -19 78 -50 105 -86 8 -11 -8 -3 -37 18
-28 20 -72 46 -97 58 -25 11 -46 22 -46 24 0 11 38 3 75 -14z"/>
<path d="M9220 3150 c0 -5 15 -10 33 -10 56 -1 119 -20 207 -62 177 -85 301
-265 300 -436 0 -48 -27 -173 -39 -185 -6 -6 -8 10 -4 45 24 235 -157 469
-381 493 -154 17 -317 -69 -385 -203 -11 -22 -28 -70 -37 -107 -22 -88 -9
-187 39 -283 62 -127 159 -208 301 -251 111 -34 222 -23 336 32 180 89 273
270 242 475 -29 183 -160 362 -325 441 -45 22 -102 45 -127 50 -58 13 -160 14
-160 1z m97 -250 c90 -15 162 -58 190 -115 l15 -30 -28 29 c-67 70 -225 103
-302 62 -44 -23 -72 -48 -72 -63 0 -9 15 -4 43 14 58 37 147 44 203 15 50 -26
88 -66 108 -116 21 -50 20 -81 -3 -131 l-18 -40 4 46 c10 87 -65 182 -147 189
-63 5 -83 -1 -116 -35 -45 -48 -61 -102 -45 -155 22 -75 110 -150 192 -164 56
-10 134 12 184 50 25 19 45 32 45 29 0 -14 -78 -89 -109 -104 -71 -36 -134
-44 -194 -27 -30 9 -66 25 -81 37 -44 35 -40 15 5 -26 66 -60 121 -80 217 -80
l82 0 -42 -18 c-67 -29 -178 -20 -249 21 -75 43 -122 95 -160 176 -60 129 -36
268 63 364 24 23 67 51 94 62 59 23 46 22 121 10z m25 -237 c32 -37 39 -62 27
-85 -16 -30 -28 -38 -60 -38 -39 0 -79 36 -79 71 0 58 76 93 112 52z"/>
<path d="M8885 3073 c-101 -52 -203 -223 -193 -325 3 -30 6 -25 30 43 40 110
75 167 142 231 64 61 70 76 21 51z"/>
<path d="M8985 3044 c-101 -67 -176 -168 -209 -283 -18 -60 -21 -111 -7 -111
5 0 11 19 15 41 19 121 113 263 219 331 46 30 59 48 34 48 -7 0 -30 -12 -52
-26z"/>
<path d="M2179 3843 c-15 -18 -20 -183 -6 -217 15 -36 32 1 33 72 0 37 4 88 8
115 6 37 4 47 -7 47 -8 0 -21 -7 -28 -17z"/>
<path d="M2328 3821 c-49 -50 -58 -71 -58 -139 0 -45 4 -61 16 -66 31 -12 35
-5 32 54 -2 57 0 62 35 98 37 38 48 76 24 85 -7 3 -29 -12 -49 -32z"/>
<path d="M2598 3682 c-48 -48 -68 -86 -68 -127 0 -55 55 -42 64 15 4 28 15 45
37 61 36 25 50 57 37 82 -12 24 -17 22 -70 -31z"/>
<path d="M1386 3599 c-42 -44 -99 -116 -128 -159 -43 -66 -55 -77 -69 -69 -46
24 -156 -1 -181 -41 -7 -11 -16 -20 -20 -20 -4 0 -46 25 -92 55 -153 100 -237
127 -244 80 -2 -16 6 -24 35 -34 39 -14 193 -105 251 -148 30 -23 33 -28 27
-63 -4 -21 -2 -41 3 -44 6 -3 36 10 67 29 67 40 143 58 223 53 52 -3 57 -1 54
17 -2 11 -12 33 -24 49 -19 27 -19 31 -5 60 25 51 134 192 182 234 51 45 61
82 21 82 -17 0 -46 -23 -100 -81z"/>
<path d="M1618 3611 c-74 -29 -117 -60 -159 -113 -38 -48 -51 -99 -30 -112 5
-4 26 17 47 45 42 58 130 119 205 144 36 12 49 22 47 33 -4 24 -54 25 -110 3z"/>
<path d="M2198 3601 c-43 -9 -64 -24 -84 -62 -19 -38 -19 -109 1 -109 9 0 15
-9 15 -24 0 -18 8 -27 30 -35 29 -10 30 -9 30 20 0 41 31 97 74 137 20 18 36
38 36 46 0 12 -42 37 -58 35 -4 -1 -24 -5 -44 -8z"/>
<path d="M2315 3550 c-8 -16 -23 -34 -33 -39 -52 -28 -98 -145 -68 -170 9 -8
16 -21 16 -30 0 -9 12 -24 28 -33 15 -9 36 -25 45 -36 17 -19 17 -21 -2 -58
-27 -50 -26 -76 4 -149 30 -73 31 -85 5 -117 -17 -22 -18 -28 -5 -44 19 -26
41 -11 67 48 l20 47 -27 58 c-29 64 -35 127 -14 149 12 11 24 5 79 -42 153
-131 221 -182 295 -219 75 -38 82 -40 174 -40 80 0 103 4 138 22 57 31 73 57
73 118 0 65 -35 137 -103 211 -69 76 -246 190 -377 243 -22 9 -20 10 20 10 60
0 102 -16 183 -72 58 -40 75 -47 117 -47 60 0 100 -17 100 -42 0 -32 36 -58
80 -58 49 0 55 26 10 41 -16 6 -30 17 -30 25 0 7 -12 27 -27 44 -23 24 -43 33
-105 45 -56 11 -92 26 -136 55 -77 51 -146 67 -219 49 -30 -7 -56 -16 -59 -21
-3 -4 -22 6 -43 23 -40 32 -115 59 -162 59 -21 0 -32 -7 -44 -30z m225 -83 c0
-7 -27 -46 -60 -86 -34 -41 -65 -92 -72 -115 -6 -23 -16 -45 -21 -51 -15 -15
2 85 20 120 14 25 120 145 130 145 1 0 3 -6 3 -13z m259 -216 c-34 -54 -39
-59 -39 -38 0 17 59 101 66 94 3 -2 -10 -28 -27 -56z m56 -50 c-14 -29 -30
-49 -35 -46 -4 3 6 27 23 54 18 27 33 48 35 46 2 -2 -8 -26 -23 -54z m64 -44
c-12 -31 -26 -54 -30 -51 -5 3 -9 9 -9 14 0 11 53 100 57 96 2 -2 -6 -28 -18
-59z m-199 -44 c-31 -55 -58 -89 -65 -81 -8 8 64 118 77 118 5 0 0 -17 -12
-37z m251 -37 c-33 -65 -89 -141 -98 -132 -3 2 13 31 35 63 21 32 49 78 61
101 12 24 25 41 28 38 3 -3 -8 -35 -26 -70z m-211 -41 c-17 -25 -35 -45 -40
-45 -16 0 -12 10 27 63 45 61 57 46 13 -18z m90 11 c0 -16 -50 -79 -57 -72 -5
5 44 86 52 86 3 0 5 -6 5 -14z"/>
<path d="M1869 3509 c-62 -9 -139 -44 -139 -63 0 -25 18 -28 78 -11 88 26 115
27 186 5 70 -22 86 -21 82 8 -6 41 -119 74 -207 61z"/>
<path d="M535 3348 c-23 -13 -35 -28 -35 -46 0 -10 15 -11 64 -6 88 9 147 -2
198 -36 41 -28 43 -29 46 -9 5 27 -32 67 -83 90 -46 21 -158 25 -190 7z"/>
<path d="M2217 3284 c-3 -3 -41 -6 -84 -6 -57 0 -88 -5 -115 -19 -41 -21 -74
-62 -63 -79 10 -16 26 -12 69 17 35 25 47 28 115 26 73 -3 121 12 121 37 0 12
-35 31 -43 24z"/>
<path d="M531 3130 c52 -195 69 -250 78 -250 4 0 18 14 30 31 l23 31 -26 96
c-15 54 -36 126 -46 162 l-19 65 -39 0 -38 0 37 -135z"/>
<path d="M1782 3228 c-5 -7 -13 -28 -17 -46 -8 -39 -23 -48 -95 -55 -73 -7
-144 -40 -176 -82 -21 -27 -36 -36 -82 -45 -60 -12 -121 -42 -135 -66 -6 -11
-20 -13 -55 -8 -74 9 -242 -55 -310 -120 -78 -73 -84 -138 -26 -271 35 -80 39
-99 39 -170 -1 -56 -6 -90 -18 -112 -22 -42 -13 -66 24 -61 15 3 26 1 23 -3
-2 -5 16 -38 41 -75 36 -52 46 -75 45 -103 -5 -101 0 -129 21 -136 11 -4 23
-4 26 -1 12 11 1 180 -13 214 -13 32 -80 123 -95 130 -3 1 0 31 8 65 20 83 12
137 -38 256 -46 113 -49 166 -10 205 l21 20 0 -54 c0 -61 44 -244 85 -360 56
-155 165 -339 250 -424 161 -162 351 -125 428 82 51 137 56 252 20 437 -18 96
-92 314 -138 408 -32 64 -32 68 -12 61 48 -15 65 -36 87 -107 48 -152 95 -219
177 -253 l33 -14 -22 -42 c-34 -65 -35 -141 -4 -212 14 -32 26 -64 26 -71 0
-15 19 -24 38 -18 19 7 14 49 -10 96 -36 69 -27 155 24 229 15 22 17 32 8 48
-6 11 -15 20 -19 20 -5 0 -35 18 -67 39 -67 44 -98 95 -135 219 -17 56 -29 79
-53 96 -28 21 -101 49 -151 58 -28 5 95 45 165 54 43 6 62 14 86 39 34 33 61
103 51 129 -8 19 -31 21 -45 4z m-129 -682 c-15 -26 -75 -69 -135 -98 -33 -15
-62 -28 -64 -28 -2 0 -4 9 -4 20 0 11 7 20 15 20 20 0 123 52 155 79 29 24 45
27 33 7z m11 -97 c-36 -38 -133 -98 -164 -101 -46 -6 -29 20 32 46 35 15 79
40 98 56 47 40 73 39 34 -1z m-287 -36 c5 -13 -43 -30 -107 -39 -64 -8 -180 4
-180 19 0 9 33 12 113 12 69 0 120 5 132 12 22 14 37 12 42 -4z m282 -85 c-24
-21 -68 -47 -97 -58 -62 -24 -62 -24 -62 -7 0 6 29 25 64 40 35 16 79 42 98
57 19 16 35 23 37 17 2 -6 -16 -28 -40 -49z m-259 -2 c0 -33 -156 -56 -239
-36 -28 6 -51 16 -51 21 0 4 37 6 83 3 54 -3 101 0 137 9 72 19 70 19 70 3z
m40 -85 c0 -28 -210 -56 -264 -35 -34 13 -12 19 77 21 50 1 106 6 122 11 39
13 65 14 65 3z m270 -126 c-19 -22 -130 -95 -146 -95 -35 0 -5 29 69 67 95 48
93 47 77 28z m-222 -107 c-6 -18 -105 -25 -159 -13 l-44 10 80 6 c44 3 91 6
103 7 15 1 22 -3 20 -10z"/>
<path d="M1167 3210 c-92 -16 -189 -80 -218 -144 -23 -51 -25 -119 -3 -140 38
-39 53 -39 124 -7 38 18 92 34 122 37 29 3 69 14 89 25 20 10 65 25 100 33 63
15 89 34 89 66 0 29 -56 96 -96 115 -44 21 -135 28 -207 15z"/>
<path d="M2397 3112 c-6 -29 20 -68 93 -134 56 -51 74 -75 89 -118 23 -65 33
-73 118 -96 55 -15 67 -22 75 -46 14 -39 48 -39 48 1 0 46 -33 78 -110 102
l-69 22 -20 56 c-18 48 -35 68 -120 143 -77 67 -101 83 -104 70z"/>
<path d="M731 2927 c-80 -20 -130 -71 -146 -147 -4 -19 -16 -50 -27 -68 -18
-29 -19 -36 -7 -47 11 -12 19 -12 39 -2 19 9 31 31 50 87 32 94 55 110 155
110 39 0 84 -4 102 -9 24 -7 35 -6 44 5 35 42 -119 95 -210 71z"/>
<path d="M94 2906 c-11 -29 77 -271 147 -405 27 -52 47 -96 45 -98 -2 -2 -28
24 -57 58 -60 69 -143 139 -165 139 -32 0 -22 -28 28 -81 29 -31 67 -76 85
-101 l32 -45 -39 10 c-29 8 -42 8 -54 -2 -20 -17 -16 -23 40 -51 57 -30 103
-85 141 -171 41 -89 63 -106 186 -133 15 -4 27 -11 27 -16 0 -21 153 -266 216
-347 36 -46 64 -86 62 -89 -3 -2 -35 9 -72 26 -256 117 -509 59 -602 -138 -46
-98 -42 -192 11 -212 35 -13 60 -1 156 76 102 82 200 130 298 145 166 25 310
-22 507 -166 101 -74 290 -265 374 -378 l65 -87 50 3 50 2 3 85 c3 116 19 203
49 278 19 49 22 67 13 75 -9 9 -18 4 -40 -19 -26 -30 -70 -129 -70 -159 0 -8
-4 -15 -8 -15 -4 0 -9 31 -9 69 -3 122 -19 215 -49 286 -50 122 -162 210 -203
161 -9 -11 -4 -26 24 -72 45 -76 81 -192 98 -321 7 -57 12 -103 10 -103 -10 0
-111 169 -166 278 -54 106 -164 346 -198 430 -5 12 -15 22 -23 22 -20 0 -24 9
-47 93 -11 39 -31 105 -45 145 -22 61 -29 72 -49 72 -32 0 -39 14 -40 85 -1
47 -19 117 -85 315 -46 140 -85 257 -87 260 -8 9 -41 -44 -45 -71 -11 -73 271
-814 481 -1264 33 -71 58 -131 56 -133 -4 -4 -38 22 -194 152 -135 113 -305
334 -395 514 -35 69 -36 73 -21 102 46 88 24 171 -87 324 -39 55 -85 125 -103
155 -33 60 -61 74 -58 30 1 -14 16 -57 34 -95 43 -91 44 -93 19 -64 -53 60
-96 180 -120 332 -13 77 -28 106 -51 93 -12 -8 -6 -144 7 -168 5 -9 4 -9 -5
-1 -7 6 -30 53 -51 105 -37 91 -63 119 -76 85z m451 -1356 c-11 -5 -29 -9 -41
-9 -43 -2 -151 -44 -208 -82 -63 -42 -66 -44 -66 -30 0 21 97 87 159 108 63
21 203 33 156 13z"/>
<path d="M2190 2539 c-18 -66 -40 -188 -40 -221 0 -47 -21 -29 -41 36 -18 61
-32 78 -56 69 -17 -7 -17 -33 3 -101 25 -84 15 -173 -26 -251 -18 -34 -35 -59
-37 -57 -3 2 5 39 17 81 12 42 20 79 17 81 -22 22 -88 -86 -142 -236 -44 -122
-35 -228 27 -312 9 -13 3 -37 -34 -135 -25 -65 -66 -179 -91 -253 -106 -321
-127 -386 -127 -393 0 -5 19 -7 43 -5 l42 3 28 90 c78 250 153 469 194 561 39
91 49 104 77 114 44 14 103 65 125 108 10 21 27 66 36 102 26 93 56 149 109
200 48 47 119 90 147 90 9 0 23 7 30 16 20 25 -14 46 -61 38 -63 -12 -107 -37
-166 -95 -24 -24 -44 -40 -44 -36 0 7 48 79 99 149 13 17 13 21 0 29 -20 13
-24 12 -59 -17 l-31 -27 7 29 c4 16 10 36 14 44 12 24 90 287 90 303 0 17 -22
28 -36 19 -6 -4 -24 -41 -41 -82 l-32 -75 4 73 c2 40 2 79 -2 87 -10 28 -32
15 -43 -26z"/>
</g>
</svg>
