<?xml version="1.0" standalone="no"?>
<!DOCTYPE svg PUBLIC "-//W3C//DTD SVG 20010904//EN"
 "http://www.w3.org/TR/2001/REC-SVG-20010904/DTD/svg10.dtd">
<svg version="1.0" xmlns="http://www.w3.org/2000/svg"
 width="1024.000000pt" height="1024.000000pt" viewBox="0 0 1024.000000 1024.000000"
 preserveAspectRatio="xMidYMid meet">

<g transform="translate(0.000000,1024.000000) scale(0.100000,-0.100000)"
fill="#000000" stroke="none">
<path d="M1447 9622 c-15 -9 -30 -25 -33 -35 -5 -16 -7 -15 -25 7 -38 48 -122
42 -150 -10 -11 -20 -18 -24 -39 -18 -74 20 -142 -5 -170 -63 -14 -29 -18 -30
-68 -29 -47 1 -57 -2 -78 -27 -21 -25 -32 -29 -82 -30 -36 -1 -68 -9 -85 -19
-35 -24 -54 -87 -41 -138 l11 -38 -70 -4 c-65 -4 -71 -6 -104 -42 -27 -29 -34
-44 -31 -66 4 -24 -1 -31 -29 -44 -38 -18 -73 -69 -73 -106 0 -14 9 -45 21
-69 15 -35 17 -46 7 -53 -7 -4 -16 -8 -20 -8 -3 0 -20 -12 -37 -26 -33 -27
-49 -81 -33 -109 6 -13 3 -32 -11 -66 l-21 -49 23 -31 23 -31 -32 -31 c-28
-28 -31 -36 -27 -71 4 -30 14 -48 38 -67 31 -25 32 -27 16 -50 -27 -38 -22
-96 11 -128 19 -17 29 -37 30 -58 0 -17 6 -41 12 -52 12 -24 60 -51 90 -51 24
0 24 1 4 -60 -28 -86 15 -150 101 -150 21 0 34 -4 30 -10 -11 -17 15 -89 37
-105 12 -8 43 -18 69 -21 42 -6 48 -9 53 -35 9 -48 48 -79 99 -79 23 0 48 5
55 12 9 9 20 4 50 -25 31 -31 45 -37 79 -37 33 0 48 -6 71 -30 28 -28 64 -37
118 -31 6 1 21 -10 34 -24 28 -29 83 -34 118 -9 l22 15 -1 -1143 c-1 -640 -5
-1128 -9 -1108 -5 19 -16 82 -25 139 -9 58 -19 114 -21 125 -2 12 -7 37 -10
56 -3 19 -14 69 -24 110 -11 41 -21 86 -23 100 -27 143 -109 338 -203 479
-125 189 -388 388 -539 406 -137 18 -153 -81 -64 -394 69 -243 187 -449 354
-617 73 -73 115 -105 224 -171 83 -49 172 -131 206 -189 33 -56 60 -135 85
-243 10 -46 24 -88 32 -92 20 -13 122 -11 140 4 8 6 26 57 38 112 55 244 109
327 326 501 183 145 263 232 367 394 64 99 158 293 196 405 70 207 138 562
128 671 -6 64 -21 92 -53 100 -141 36 -416 -191 -610 -503 -144 -231 -271
-508 -329 -717 -9 -32 -17 -57 -18 -55 -1 2 -1 365 1 806 l2 802 26 -9 c42
-17 65 -11 99 23 29 29 38 32 90 32 52 0 59 3 85 33 23 28 30 31 52 23 38 -14
75 -2 109 36 26 31 34 34 52 25 12 -6 31 -12 42 -13 68 -5 97 15 115 81 6 23
15 38 21 34 19 -12 77 6 103 33 19 18 26 36 26 63 0 37 0 37 47 43 35 4 53 12
71 33 24 28 26 52 10 148 -2 14 5 21 28 28 17 4 43 20 59 35 22 23 26 34 22
63 -4 31 0 38 27 55 25 17 32 28 34 62 2 24 -4 55 -13 72 -15 29 -14 31 9 46
30 20 50 66 41 95 -4 12 -20 36 -36 54 -28 33 -28 33 -9 51 26 23 25 65 -1 99
-18 22 -19 29 -8 43 16 19 13 70 -6 99 -8 12 -30 31 -49 43 l-35 22 15 36 c34
80 13 152 -52 179 -29 12 -33 18 -28 38 8 33 -20 82 -57 101 -17 9 -55 17 -85
18 -53 2 -55 3 -48 27 28 98 -37 177 -136 166 -42 -4 -47 -2 -61 23 -18 30
-68 45 -119 34 -25 -4 -30 -1 -45 31 -29 60 -105 84 -171 54 -22 -10 -28 -10
-32 0 -2 7 -14 25 -26 39 -25 29 -88 35 -114 9 -14 -14 -18 -13 -44 9 -36 30
-99 33 -141 7z m111 -48 c60 -41 82 -167 56 -317 -11 -61 -20 -93 -25 -85 -5
7 -9 73 -9 146 0 72 -4 132 -9 132 -4 0 -11 -91 -15 -202 -7 -221 -16 -311
-29 -268 -3 14 -12 72 -19 130 -13 121 -25 108 -27 -30 -2 -164 -24 -118 -51
110 -33 278 26 456 128 384z m-209 -18 c22 -24 42 -106 25 -106 -5 0 -18 15
-28 33 l-20 32 -5 -28 -6 -29 -22 31 c-28 37 -28 46 -3 71 26 26 32 25 59 -4z
m371 -6 c13 -24 6 -52 -16 -71 -12 -10 -13 -9 -8 4 10 28 -7 42 -21 17 -12
-22 -12 -22 -19 10 -10 54 40 85 64 40z m-506 -49 c82 -51 151 -208 175 -401
30 -233 25 -233 -48 0 -53 169 -97 278 -107 267 -3 -3 6 -41 20 -84 23 -69 53
-191 76 -305 4 -21 4 -38 -1 -38 -13 0 -63 113 -135 308 -37 100 -71 182 -76
182 -13 0 -10 -14 26 -128 109 -346 112 -361 66 -292 -57 85 -110 220 -136
349 -15 73 -15 82 1 114 9 20 24 38 33 40 39 10 77 6 106 -12z m701 -6 c64
-63 9 -273 -129 -495 -54 -87 -58 -77 -15 40 86 239 120 344 116 363 -3 21 -4
21 -11 2 -4 -11 -19 -51 -33 -90 -66 -178 -169 -403 -179 -392 -2 1 6 36 17
77 11 41 24 93 28 115 4 23 11 47 15 54 6 9 4 12 -4 9 -8 -2 -37 -67 -66 -144
l-53 -139 3 80 c5 112 59 324 103 405 42 78 68 108 108 126 45 20 73 17 100
-11z m-941 -75 c15 -5 34 -27 46 -52 l22 -43 -27 30 c-23 27 -25 27 -14 5 12
-24 11 -24 -6 -10 -17 14 -18 13 -12 -3 6 -16 5 -16 -26 -1 -49 26 -57 43 -31
68 18 19 16 19 48 6z m1121 -29 c0 -18 -10 -31 -35 -45 -29 -17 -33 -17 -21
-3 22 27 -16 22 -40 -5 l-18 -23 -1 26 c0 15 10 38 21 53 17 22 28 27 58 24
31 -3 36 -7 36 -27z m-1198 -46 c81 -37 118 -69 167 -144 49 -75 159 -301 146
-301 -4 0 -10 6 -13 14 -18 46 -250 346 -268 346 -15 0 -11 -9 34 -68 24 -31
63 -91 87 -132 24 -41 55 -93 70 -115 76 -115 73 -119 -21 -20 -129 135 -157
168 -218 253 -46 63 -71 86 -71 66 0 -21 225 -341 270 -384 22 -21 43 -52 30
-45 -52 29 -206 167 -254 226 -69 87 -140 230 -132 265 17 67 80 81 173 39z
m1371 3 c61 -61 -87 -308 -275 -458 -43 -35 -86 -70 -95 -78 -30 -26 -20 -6
30 56 65 82 262 366 262 377 0 20 -29 -7 -77 -72 -32 -43 -89 -114 -128 -158
-73 -83 -96 -110 -138 -160 -14 -16 -28 -27 -31 -24 -8 7 149 258 220 353 50
66 60 87 34 71 -17 -10 -148 -173 -213 -265 -32 -45 -61 -80 -63 -77 -7 7 114
235 154 290 40 56 122 121 178 141 48 18 126 20 142 4z m166 -178 c34 -13 46
-58 20 -77 -14 -11 -36 -13 -89 -9 -56 5 -75 3 -93 -10 -33 -23 -37 -12 -13
33 29 59 36 62 133 71 9 1 28 -2 42 -8z m-1729 -12 c15 -7 35 -29 46 -51 l20
-38 -22 12 c-16 8 -24 8 -27 1 -4 -12 -147 -4 -174 10 -23 11 -23 20 3 52 18
22 28 26 74 26 30 0 66 -5 80 -12z m3 -142 c96 -33 161 -69 230 -129 133 -114
152 -131 157 -145 5 -13 2 -12 -17 0 -156 101 -386 228 -415 228 -29 0 -7 -18
85 -70 53 -30 120 -73 147 -95 28 -22 76 -58 108 -79 32 -21 55 -41 52 -44 -6
-6 -222 103 -379 192 -54 31 -103 56 -108 56 -27 0 38 -47 182 -130 41 -24 89
-53 105 -66 17 -12 58 -38 92 -58 86 -51 87 -61 1 -30 -228 83 -375 157 -460
232 -38 35 -48 50 -48 75 0 18 7 40 14 50 33 43 149 48 254 13z m1823 7 c113
-67 -52 -234 -332 -334 -63 -23 -131 -47 -151 -55 -21 -7 -38 -10 -38 -6 0 6
130 91 235 153 44 26 69 52 54 57 -5 2 -15 -1 -22 -6 -7 -5 -64 -37 -127 -70
-104 -54 -180 -83 -180 -68 0 13 340 228 381 241 17 6 28 35 13 35 -15 0 -271
-134 -324 -170 -14 -9 -52 -31 -85 -49 l-60 -32 84 79 c91 86 239 183 335 218
76 29 175 32 217 7z m-1008 -157 c3 -8 0 -22 -8 -33 -13 -17 -14 -17 -20 0 -8
20 0 47 14 47 5 0 11 -6 14 -14z m67 -31 c0 -15 -27 -28 -41 -19 -13 7 -11 28
3 42 13 13 38 -2 38 -23z m-131 11 c9 -10 8 -16 -4 -26 -19 -16 -41 1 -32 24
8 20 21 20 36 2z m-85 -28 c-7 -22 -21 -38 -36 -38 -10 0 -10 4 2 34 12 33 45
36 34 4z m286 7 c14 -17 6 -49 -12 -43 -18 6 -30 58 -13 58 7 0 18 -7 25 -15z
m-370 -33 c-1 -17 -22 -52 -33 -52 -14 0 -15 34 -1 55 17 26 34 25 34 -3z
m-766 -13 l31 -19 -58 0 c-71 0 -67 -15 5 -25 64 -9 45 -19 -49 -28 -106 -9
-124 31 -37 80 41 24 58 23 108 -8z m1213 20 c14 -14 6 -39 -13 -39 -8 0 -14
10 -14 25 0 27 9 32 27 14z m860 -14 c48 -29 55 -55 19 -74 -27 -15 -62 -10
-59 7 2 8 -8 10 -33 6 -25 -4 -34 -2 -29 5 3 6 16 11 28 11 12 0 29 5 37 11
11 8 3 9 -33 6 l-48 -5 32 29 c18 16 35 29 37 29 3 0 25 -11 49 -25z m-1117
-10 c0 -8 -7 -15 -15 -15 -9 0 -12 6 -9 15 4 8 10 15 15 15 5 0 9 -7 9 -15z
m118 3 c19 -19 14 -28 -13 -28 -27 0 -28 1 -19 24 7 19 16 20 32 4z m-173 -18
c0 -8 -8 -16 -17 -18 -13 -2 -18 3 -18 18 0 15 5 20 18 18 9 -2 17 -10 17 -18z
m105 -5 c13 -16 6 -35 -14 -35 -18 0 -39 27 -31 40 9 14 31 12 45 -5z m280
-10 c18 -21 -6 -71 -26 -54 -9 8 -11 5 -7 -10 5 -20 -15 -30 -29 -16 -7 7 14
55 25 55 4 0 7 9 7 20 0 24 13 26 30 5z m-584 -19 c3 -8 0 -24 -6 -36 -9 -17
-14 -19 -26 -9 -17 14 -18 31 -2 47 16 16 27 15 34 -2z m114 7 c-1 -19 -19
-35 -34 -30 -21 8 -9 37 15 37 10 0 19 -3 19 -7z m360 -14 c0 -15 -4 -19 -16
-15 -9 3 -18 6 -20 6 -2 0 -4 7 -4 15 0 8 9 15 20 15 14 0 20 -7 20 -21z
m-298 -31 c-15 -15 -26 -4 -18 18 5 13 9 15 18 6 9 -9 9 -15 0 -24z m228 6 c0
-16 -16 -19 -25 -4 -8 13 4 32 16 25 5 -4 9 -13 9 -21z m-365 -55 c-5 -15 -10
-17 -20 -9 -10 8 -10 16 -1 35 9 19 13 21 19 9 5 -8 5 -24 2 -35z m595 41 c0
-5 -2 -10 -4 -10 -3 0 -8 5 -11 10 -3 6 -1 10 4 10 6 0 11 -4 11 -10z m-1142
-26 c91 -15 156 -33 232 -63 56 -23 94 -48 55 -38 -114 31 -308 57 -425 56
-135 -1 -114 -12 58 -29 68 -6 150 -22 205 -39 51 -16 105 -32 121 -35 15 -4
26 -9 23 -12 -4 -5 -209 11 -268 21 -13 2 -67 9 -119 15 -151 18 -232 30 -241
36 -5 3 -9 16 -9 29 0 64 174 92 368 59z m1902 -14 c70 -37 44 -83 -55 -95
-27 -4 -78 -11 -112 -16 -34 -5 -88 -12 -120 -15 -32 -3 -71 -7 -88 -10 -16
-2 -70 -6 -120 -9 l-90 -5 50 19 c28 11 58 20 67 20 9 1 29 6 45 13 15 6 35
13 43 14 14 2 134 24 223 40 20 4 37 11 37 15 0 5 -10 7 -22 5 -13 -3 -60 -8
-104 -11 -78 -6 -95 -8 -161 -20 -221 -41 -262 -44 -188 -14 46 19 160 56 195
63 38 9 159 27 190 29 63 4 184 -9 210 -23z m-1442 -8 c2 -14 -2 -22 -11 -22
-19 0 -40 26 -32 40 11 18 40 6 43 -18z m162 9 c0 -23 -25 -46 -35 -32 -7 13
12 51 25 51 6 0 10 -8 10 -19z m380 -16 c0 -19 -20 -29 -32 -17 -15 15 -2 43
17 36 8 -3 15 -12 15 -19z m159 11 c8 -10 8 -16 -1 -24 -14 -11 -58 1 -58 16
0 24 41 30 59 8z m-89 -50 c-15 -15 -34 9 -26 31 7 17 8 17 22 -1 9 -13 11
-23 4 -30z m-550 8 c0 -8 -7 -14 -15 -14 -15 0 -21 21 -9 33 10 9 24 -2 24
-19z m-90 -44 c0 -13 -7 -20 -19 -20 -22 0 -35 15 -26 30 12 19 45 11 45 -10z
m150 -5 c0 -15 -6 -25 -14 -25 -19 0 -28 14 -20 34 10 25 34 19 34 -9z m-77 0
c1 -5 -6 -11 -15 -13 -11 -2 -18 3 -18 13 0 17 30 18 33 0z m517 -10 c0 -30
-25 -34 -33 -6 -5 22 0 31 20 31 7 0 13 -11 13 -25z m160 5 c0 -13 -7 -20 -20
-20 -13 0 -20 7 -20 20 0 13 7 20 20 20 13 0 20 -7 20 -20z m-80 -35 c0 -8 -9
-15 -20 -15 -20 0 -26 11 -13 23 12 13 33 7 33 -8z m-600 -4 c0 -5 -7 -11 -15
-15 -9 -3 -15 0 -15 9 0 8 7 15 15 15 8 0 15 -4 15 -9z m-435 -31 c265 -45
260 -49 -53 -44 -268 4 -332 1 -332 -15 0 -4 68 -13 150 -20 83 -7 150 -17
150 -21 0 -13 -127 -23 -212 -17 -120 10 -184 49 -158 97 6 11 12 20 13 20 1
0 20 7 42 15 52 20 233 13 400 -15z m465 5 c0 -16 -6 -25 -15 -25 -18 0 -20
21 -3 38 17 17 18 16 18 -13z m70 10 c0 -8 -4 -15 -9 -15 -5 0 -11 7 -15 15
-3 9 0 15 9 15 8 0 15 -7 15 -15z m-162 -24 c-2 -9 -13 -17 -26 -19 -16 -3
-22 2 -22 16 0 11 6 22 13 25 20 7 38 -4 35 -22z m1490 9 c36 -22 43 -57 15
-83 -24 -21 -120 -37 -217 -36 -82 0 -155 16 -91 19 17 1 37 3 45 4 8 2 47 6
85 10 39 4 85 10 104 13 54 9 14 22 -65 21 -219 -3 -526 4 -508 12 24 10 205
37 302 46 37 4 69 8 71 10 2 2 54 4 115 4 93 0 116 -3 144 -20z m-748 -5 c0
-9 -7 -18 -16 -22 -18 -7 -39 11 -30 26 11 17 46 13 46 -4z m-182 -7 c-6 -18
-28 -21 -28 -4 0 9 7 16 16 16 9 0 14 -5 12 -12z m66 -14 c8 -21 -13 -49 -27
-35 -10 10 0 51 13 51 4 0 11 -7 14 -16z m-446 -21 c10 -19 6 -43 -7 -43 -7 0
-31 43 -31 55 0 13 30 3 38 -12z m-80 -20 c-4 -22 -22 -20 -26 1 -2 10 3 16
13 16 10 0 15 -7 13 -17z m432 -8 c0 -8 -6 -15 -14 -15 -17 0 -28 14 -19 24
12 12 33 6 33 -9z m-515 -21 c0 -10 -8 -20 -17 -22 -18 -3 -26 27 -11 42 12
11 28 0 28 -20z m695 6 c0 -15 -7 -20 -25 -20 -23 0 -24 2 -15 20 6 11 17 20
25 20 8 0 15 -9 15 -20z m-436 -31 c-8 -14 -34 -11 -34 4 0 8 3 17 7 20 9 9
34 -13 27 -24z m186 0 c0 -22 -22 -25 -39 -6 -8 10 -8 16 0 24 16 16 39 5 39
-18z m148 3 c2 -7 -3 -12 -12 -12 -9 0 -16 7 -16 16 0 17 22 14 28 -4z m-748
-14 c-25 -11 -74 -29 -110 -39 -83 -22 -160 -55 -160 -69 0 -13 10 -13 58 4
62 22 252 68 265 63 28 -9 -229 -136 -382 -188 -63 -22 -138 -42 -167 -45
-125 -15 -140 78 -25 150 101 64 373 141 510 144 l56 2 -45 -22z m260 8 c0
-17 -27 -29 -35 -16 -4 6 -3 15 0 20 9 15 35 12 35 -4z m854 -1 c184 -32 369
-107 426 -172 33 -37 37 -60 16 -89 -31 -42 -188 -13 -381 71 -175 76 -284
129 -285 138 0 12 27 8 187 -29 142 -33 182 -37 157 -15 -5 4 -63 24 -129 44
-134 39 -175 54 -175 62 0 10 99 5 184 -10z m-774 -34 c0 -5 -6 -14 -14 -20
-17 -14 -41 11 -32 34 4 13 10 14 26 5 11 -6 20 -14 20 -19z m158 21 c15 -10
5 -42 -13 -42 -18 0 -28 17 -21 35 6 17 15 18 34 7z m176 -29 c-24 -17 -44
-17 -44 2 0 21 32 36 48 22 11 -9 11 -13 -4 -24z m144 20 c-5 -25 -28 -28 -28
-4 0 12 6 21 16 21 9 0 14 -7 12 -17z m-633 -13 c8 -13 -14 -42 -26 -34 -5 3
-9 14 -9 25 0 20 24 26 35 9z m559 -37 c-15 -24 -34 -28 -34 -6 0 26 21 46 34
33 7 -7 7 -16 0 -27z m-1314 22 c0 -3 -9 -14 -21 -26 -13 -13 -19 -29 -16 -41
7 -27 -22 -37 -39 -13 -26 35 6 85 53 85 13 0 23 -2 23 -5z m990 -9 c0 -19
-27 -28 -33 -11 -7 15 1 25 20 25 7 0 13 -6 13 -14z m158 -4 c3 -9 -2 -13 -14
-10 -9 1 -19 9 -22 16 -3 9 2 13 14 10 9 -1 19 -9 22 -16z m1039 -4 c17 -14
16 -53 -2 -68 -15 -13 -39 -5 -29 11 3 5 -5 26 -17 46 l-23 36 30 -7 c16 -4
35 -12 41 -18z m-1367 -8 c0 -13 -7 -20 -20 -20 -19 0 -27 20 -13 33 13 14 33
6 33 -13z m1325 -31 c16 -25 -6 -19 -37 11 l-33 32 32 -16 c17 -9 35 -21 38
-27z m-927 -12 c2 -12 -3 -17 -17 -17 -15 0 -21 6 -21 21 0 25 33 22 38 -4z
m265 -19 c66 -33 266 -223 310 -294 33 -54 43 -106 27 -145 -24 -56 -73 -63
-160 -23 -83 38 -266 231 -363 382 -15 23 -25 42 -23 42 3 0 33 -25 67 -55 55
-49 79 -64 79 -50 0 3 -20 31 -44 62 -24 32 -40 60 -35 61 25 10 120 -67 267
-217 89 -91 162 -160 162 -154 0 22 -119 159 -241 279 -68 67 -131 129 -139
139 -14 17 -13 17 10 10 14 -4 51 -21 83 -37z m-783 24 c0 -5 -52 -59 -115
-121 -122 -119 -205 -213 -230 -262 -31 -59 10 -28 95 73 90 107 200 207 269
246 51 29 52 15 4 -40 -73 -85 -72 -81 -38 -67 17 7 56 38 88 68 31 30 57 50
57 42 0 -27 -109 -169 -207 -271 -111 -116 -190 -170 -257 -177 -57 -7 -76 18
-76 98 0 50 5 64 42 120 90 135 275 288 361 298 4 1 7 -3 7 -7z m230 -5 c0 -8
-3 -17 -6 -20 -10 -9 -46 12 -39 24 9 14 45 11 45 -4z m100 4 c0 -29 -12 -40
-32 -30 -15 8 -17 13 -7 25 13 16 39 19 39 5z m90 -1 c13 -8 13 -12 -3 -27
-15 -16 -19 -16 -27 -3 -22 34 -4 52 30 30z m164 -199 c68 -110 116 -230 123
-306 4 -52 2 -64 -17 -87 -26 -34 -87 -39 -113 -10 -31 34 -111 276 -122 370
-3 26 -8 64 -11 85 -3 20 -3 37 0 37 12 0 86 -160 132 -285 27 -71 50 -123 52
-117 4 14 -47 200 -91 324 -39 114 -28 111 47 -11z m-395 47 c-34 -67 -100
-267 -105 -323 -7 -65 5 -47 46 75 35 102 112 264 131 276 9 5 10 0 5 -17 -3
-13 -20 -82 -37 -154 -40 -172 -76 -282 -102 -306 -25 -23 -79 -25 -101 -3
-46 46 -28 184 44 323 22 44 130 184 137 178 2 -3 -6 -25 -18 -49z m163 -144
c10 -10 16 10 23 90 4 37 10 64 14 60 13 -15 31 -183 32 -290 2 -121 -18 -203
-57 -233 -36 -28 -60 -26 -94 7 -22 22 -30 42 -36 88 -9 74 17 237 53 332 14
37 30 83 37 102 10 33 11 29 16 -57 3 -50 8 -95 12 -99z m-788 30 c-69 -77
-129 -116 -165 -107 -59 16 -7 132 74 162 15 6 27 9 27 7 0 -2 -18 -26 -40
-52 -22 -27 -40 -52 -40 -56 0 -8 32 2 40 12 3 4 37 28 76 53 40 25 75 51 79
57 4 6 9 9 12 6 3 -3 -26 -40 -63 -82z m1693 -45 c37 -14 37 -7 0 33 -60 66
-61 70 -9 38 62 -39 85 -63 87 -93 7 -81 -105 -54 -186 45 -23 29 -50 61 -58
72 -9 10 19 -5 62 -33 43 -29 89 -56 104 -62z m-1307 -107 c-11 -29 -24 -60
-30 -70 -21 -38 -38 -92 -29 -92 5 0 23 21 39 47 l30 47 0 -41 c0 -46 -24
-123 -43 -135 -22 -14 -49 -8 -68 15 -24 29 -17 68 25 145 30 55 89 142 93
138 2 -1 -6 -26 -17 -54z m853 -37 c84 -126 87 -218 8 -218 -51 0 -65 21 -56
88 l7 57 19 -31 c10 -17 23 -31 28 -31 12 0 -14 91 -40 143 -11 21 -24 50 -30
65 l-9 27 20 -25 c11 -14 35 -47 53 -75z m-1273 25 c0 -12 7 -34 15 -50 17
-32 11 -37 -17 -16 -19 14 -26 86 -8 86 6 0 10 -9 10 -20z m1673 -19 c6 -23
-18 -61 -39 -61 -18 0 -18 8 1 26 8 9 15 24 15 35 0 25 16 25 23 0z m-719
-180 c4 -41 9 -77 11 -80 9 -9 14 5 16 47 2 23 6 42 10 42 20 0 38 -111 21
-136 -18 -27 -51 -35 -87 -20 -19 8 -38 21 -41 29 -2 7 7 38 21 68 16 34 25
72 25 104 1 71 16 37 24 -54z m-787 37 c22 -21 23 -21 43 -3 22 20 26 14 10
-16 -19 -35 -90 -14 -90 27 0 20 10 18 37 -8z m1325 -1 c23 20 33 11 18 -16
-16 -30 -52 -26 -86 10 l-29 31 39 -21 c37 -19 41 -19 58 -4z m-807 -109 c31
-29 31 -42 -2 -67 -49 -39 -94 -6 -92 68 1 25 3 37 6 26 7 -28 23 -43 23 -22
0 10 8 32 17 50 l18 32 3 -32 c2 -18 14 -42 27 -55z m459 -23 c-4 -8 -19 -15
-34 -15 -44 0 -46 18 -3 23 21 2 39 4 40 5 1 1 0 -5 -3 -13z m-314 -812 c0
-527 -9 -917 -23 -995 -14 -78 -17 75 -17 789 0 830 0 829 33 832 4 1 7 -281
7 -626z m690 -193 c0 -5 -33 -58 -74 -117 -233 -342 -431 -719 -540 -1027 -3
-10 -9 -17 -11 -14 -9 8 32 149 70 248 63 159 168 366 280 550 160 262 235
370 256 370 11 0 19 -4 19 -10z m-270 -173 c0 -12 -148 -307 -155 -307 -6 0
58 177 90 248 21 44 40 72 49 72 9 0 16 -6 16 -13z m357 -50 c-3 -8 -47 -52
-99 -97 -51 -46 -126 -114 -167 -152 -40 -38 -76 -66 -79 -64 -11 11 187 220
303 319 30 25 53 22 42 -6z m-1234 -204 c36 -81 79 -212 75 -230 -2 -8 -33 49
-70 128 -37 78 -65 146 -62 151 13 21 33 3 57 -49z m-126 -40 c74 -99 146
-213 138 -221 -4 -4 -15 5 -26 19 -10 15 -57 74 -104 133 -47 59 -85 113 -85
121 0 32 28 12 77 -52z m1283 -22 c0 -5 -24 -23 -52 -41 -29 -17 -102 -62
-163 -100 -60 -39 -114 -70 -120 -69 -21 1 108 106 197 161 86 53 138 71 138
49z m-1338 -171 c123 -83 154 -107 148 -113 -6 -7 -174 87 -235 131 -40 28
-52 52 -25 52 5 0 55 -31 112 -70z m1208 -48 c0 -10 -21 -22 -147 -88 -82 -43
-102 -50 -83 -31 34 34 189 127 212 127 10 0 18 -3 18 -8z m-1062 -163 c17 -6
32 -15 32 -21 0 -6 -6 -8 -14 -5 -7 3 -34 8 -59 12 -25 4 -54 14 -64 22 -16
13 -14 14 27 8 25 -3 60 -10 78 -16z"/>
<path d="M2413 8917 c-37 -25 -41 -37 -14 -37 23 0 51 25 51 46 0 8 -1 14 -2
13 -2 0 -17 -11 -35 -22z"/>
<path d="M558 8182 c-83 -33 -109 -52 -72 -52 9 0 42 11 73 24 31 14 70 29 86
34 30 9 38 26 13 28 -7 1 -52 -14 -100 -34z"/>
<path d="M2320 8211 c0 -6 6 -11 14 -11 8 0 52 -16 97 -35 46 -19 87 -35 92
-35 37 0 -109 75 -168 86 -23 4 -35 2 -35 -5z"/>
<path d="M1451 7768 c2 -97 3 -105 9 -58 12 81 11 158 0 165 -6 4 -10 -34 -9
-107z"/>
<path d="M4903 9460 c-47 -28 -94 -135 -84 -190 1 -8 -16 6 -38 31 -90 103
-209 113 -248 21 -17 -42 -20 -155 -5 -220 8 -32 7 -41 -1 -34 -7 5 -39 29
-72 55 -122 94 -251 126 -314 79 -47 -34 -39 -117 21 -213 17 -28 28 -52 26
-55 -3 -2 -25 4 -49 15 -87 37 -193 35 -234 -5 -25 -25 -18 -80 15 -129 17
-24 30 -46 30 -49 0 -2 -15 0 -32 5 -91 26 -188 -4 -188 -58 0 -31 29 -84 68
-125 14 -16 22 -28 16 -29 -100 -7 -177 -32 -204 -66 -23 -29 -26 -66 -7 -81
12 -11 109 -28 187 -34 35 -3 35 -3 -20 -22 -121 -42 -135 -76 -32 -76 l67 -1
-50 -26 c-153 -79 -230 -183 -160 -215 23 -10 38 -5 136 45 60 31 112 57 116
57 3 0 -2 -11 -11 -25 -20 -30 -20 -54 -1 -82 18 -26 53 -33 112 -22 51 10 65
5 41 -14 -43 -34 -144 -158 -164 -202 -42 -89 -28 -128 47 -127 53 1 111 30
211 107 45 35 84 62 86 60 2 -2 -1 -12 -7 -23 -19 -35 -13 -86 12 -110 13 -12
31 -22 40 -22 24 0 22 -7 -20 -95 -32 -69 -36 -86 -37 -161 -1 -78 1 -85 26
-110 33 -33 86 -36 145 -6 50 26 136 120 211 230 32 46 67 98 79 115 12 18 22
38 22 45 1 7 6 10 11 7 6 -4 8 -15 5 -25 -8 -25 28 -44 69 -37 l31 5 -3 -87
c-7 -161 57 -263 203 -326 44 -19 81 -40 82 -47 1 -7 4 -283 7 -613 6 -574 10
-762 20 -922 3 -43 1 -73 -4 -73 -6 0 -10 9 -10 20 0 29 -75 212 -126 310
-130 244 -276 410 -450 510 -148 85 -297 128 -348 101 -59 -32 -55 -120 13
-253 118 -231 244 -352 541 -518 192 -108 288 -220 366 -426 13 -36 23 -68 22
-70 -2 -2 -23 30 -47 71 -57 95 -118 165 -194 219 -192 136 -397 178 -397 81
0 -38 23 -51 205 -117 61 -21 138 -55 171 -73 135 -75 226 -221 260 -415 3
-14 9 -49 14 -79 6 -30 16 -58 23 -63 6 -4 33 -8 59 -8 61 0 73 19 82 120 16
172 56 310 144 485 89 179 155 265 363 475 128 130 243 290 310 436 51 110 70
179 76 276 5 73 4 78 -22 104 -24 24 -32 26 -82 21 -127 -13 -314 -183 -463
-422 -91 -145 -182 -356 -255 -590 -70 -223 -63 -205 -65 -170 -1 17 -3 41 -4
55 -2 14 -6 84 -10 155 -4 72 -9 168 -12 215 -10 178 -16 813 -9 992 l7 187
52 17 c122 40 197 116 222 229 9 38 11 170 3 198 -4 15 -7 27 -5 27 1 0 21 -9
44 -20 50 -24 75 -25 93 -4 11 14 9 24 -16 72 -17 30 -31 58 -33 62 -1 4 40
-34 91 -85 110 -108 193 -169 297 -218 130 -62 243 -67 300 -14 61 58 49 140
-41 275 -32 48 -57 88 -56 89 2 1 20 -2 42 -7 22 -4 72 -11 110 -14 253 -21
280 145 48 300 -88 59 -88 59 87 59 154 0 159 1 184 24 14 14 26 34 26 47 0
32 -56 76 -125 98 -33 11 -61 21 -63 22 -1 0 11 16 28 34 40 43 40 83 -1 121
-17 16 -48 34 -70 40 -45 14 -49 24 -14 33 14 4 43 24 65 45 46 45 52 79 18
112 -21 19 -32 20 -110 17 l-87 -4 32 39 c72 88 82 122 47 157 -16 16 -33 20
-86 20 l-65 0 20 29 c32 45 37 83 12 105 -30 27 -117 18 -170 -17 -44 -29 -56
-33 -45 -16 13 22 16 81 4 109 -15 35 -38 44 -95 35 -46 -6 -155 -70 -175
-102 -11 -17 -11 -17 -4 2 3 11 9 42 11 68 10 101 -20 157 -84 157 -45 0 -91
-28 -142 -87 l-40 -45 -6 29 c-36 179 -63 224 -137 217 -43 -4 -66 -22 -89
-66 l-21 -41 -19 32 c-34 56 -114 69 -160 25 -26 -25 -27 -25 -34 -5 -10 33
-63 71 -98 71 -18 0 -46 -9 -64 -20z m113 -90 c13 -25 30 -76 38 -115 21 -98
41 -635 26 -685 -5 -14 -9 -18 -10 -10 -1 8 -4 24 -7 35 -8 34 -22 117 -33
195 -17 123 -19 113 -14 -63 3 -113 1 -166 -6 -162 -5 3 -10 18 -10 33 -1 15
-10 74 -21 132 -10 58 -19 115 -19 127 0 12 -5 25 -11 29 -11 6 -10 -12 7
-273 4 -51 4 -93 1 -93 -3 0 -13 26 -22 58 -9 31 -21 71 -26 87 -6 17 -16 73
-24 125 -41 273 -24 553 38 611 35 32 67 21 93 -31z m406 23 c43 -50 68 -252
50 -406 -16 -147 -96 -447 -118 -447 -3 0 -3 24 0 53 3 28 8 88 11 132 3 44 8
100 11 125 23 188 30 416 14 440 -7 11 -10 -2 -10 -45 0 -33 -4 -100 -9 -150
-6 -49 -12 -121 -16 -160 -16 -185 -55 -405 -71 -405 -2 0 -2 42 0 93 2 50 7
169 10 262 7 194 16 359 22 389 11 62 29 109 48 121 27 19 40 19 58 -2z m-257
-156 c10 -96 29 -76 20 22 -3 42 -9 86 -12 99 -8 34 22 28 45 -10 36 -60 44
-130 39 -338 -3 -107 -10 -231 -17 -275 -7 -44 -13 -87 -13 -95 0 -8 -6 -24
-12 -37 -10 -19 -14 1 -25 127 -12 151 -31 196 -29 72 2 -133 -1 -202 -10
-202 -4 0 -11 44 -15 98 -40 582 -41 610 -14 652 l22 35 7 -40 c3 -22 10 -70
14 -108z m-497 79 c38 -20 86 -74 111 -124 21 -42 40 -142 28 -142 -4 0 -16
21 -28 47 -29 65 -49 94 -60 87 -5 -3 -3 -17 5 -32 45 -88 102 -295 132 -477
8 -49 17 -101 20 -113 7 -33 -12 -18 -21 15 -3 16 -13 42 -21 58 -19 42 -164
474 -164 491 0 8 -4 14 -10 14 -17 0 -11 -46 19 -137 54 -164 90 -298 97 -353
l6 -55 -20 40 c-79 157 -117 241 -142 320 -57 178 -65 320 -20 357 27 22 33
22 68 4z m1066 -42 c17 -43 -1 -186 -33 -266 -6 -16 -8 -28 -6 -28 11 0 -77
-223 -129 -330 -50 -102 -56 -110 -52 -74 2 23 27 115 56 204 29 89 50 164 47
166 -2 3 -21 -35 -40 -83 -20 -48 -51 -124 -70 -168 -19 -44 -37 -89 -41 -99
-4 -10 -9 -17 -11 -14 -3 2 11 78 30 169 18 90 37 205 41 254 5 73 12 101 36
148 53 100 153 170 172 121z m-1408 -141 c124 -60 277 -251 359 -448 21 -49
46 -106 56 -126 11 -20 19 -43 19 -50 -1 -8 -8 0 -17 16 -22 43 -143 226 -159
243 -24 23 -17 -9 10 -48 26 -40 106 -180 102 -180 -1 0 -41 46 -89 103 -109
130 -293 324 -300 317 -6 -6 76 -111 168 -215 78 -87 138 -165 128 -165 -16 0
-201 180 -266 258 -95 115 -177 249 -177 291 0 47 74 49 166 4z m1684 13 c0
-47 -44 -138 -114 -235 -184 -256 -276 -378 -301 -401 -25 -22 -24 -19 10 35
22 33 73 114 115 180 41 66 98 154 126 195 28 41 61 95 73 120 l22 45 -31 -35
c-34 -38 -220 -302 -294 -417 -26 -40 -49 -73 -52 -73 -8 0 104 209 137 255
57 82 116 171 144 220 l29 50 -28 -25 c-15 -13 -46 -50 -69 -82 -23 -31 -43
-55 -45 -53 -2 2 8 26 23 54 50 101 156 191 222 191 28 0 33 -3 33 -24z m217
-82 c6 -18 -72 -98 -150 -155 -112 -83 -214 -174 -311 -278 -116 -127 -122
-132 -100 -96 49 80 221 295 293 366 147 145 253 209 268 163z m-2000 -220
c82 -50 152 -105 246 -197 97 -93 79 -94 -37 -1 -87 69 -186 131 -186 116 0
-5 19 -22 43 -37 108 -71 390 -325 361 -325 -6 0 -21 12 -35 26 -29 32 -203
157 -399 289 -168 112 -184 122 -179 106 3 -7 43 -40 90 -74 313 -226 348
-258 184 -161 -222 131 -296 186 -349 263 -33 47 -26 68 27 73 44 4 163 -36
234 -78z m2113 64 c0 -32 -163 -188 -270 -259 -214 -142 -288 -185 -250 -146
24 24 224 189 277 227 62 45 114 92 109 98 -12 12 -462 -314 -560 -407 -72
-67 -36 -13 78 118 202 231 432 388 574 390 37 1 42 -2 42 -21z m-2326 -214
c72 -23 76 -32 12 -23 -64 8 -130 4 -170 -11 -36 -13 -33 -14 -51 20 -15 29
-15 31 6 38 27 10 138 -3 203 -24z m2446 4 c0 -24 -109 -84 -210 -116 -74 -23
-170 -59 -177 -66 -3 -3 -2 -9 1 -14 4 -7 25 -5 59 4 69 20 190 25 254 12 49
-10 93 -37 93 -58 0 -40 -182 -108 -450 -169 -96 -22 -213 -51 -259 -64 -46
-14 -79 -21 -75 -17 13 13 182 95 255 123 74 29 181 65 289 97 71 21 99 35 89
44 -18 16 -435 -102 -554 -158 -27 -13 -61 -26 -75 -30 -20 -6 -18 -3 10 15
19 12 60 38 90 58 30 20 80 48 110 61 66 29 102 51 96 58 -7 7 -156 -49 -196
-74 -47 -29 -140 -75 -140 -70 0 10 202 138 276 175 43 22 117 51 164 66 241
73 287 90 250 93 -19 2 -63 -4 -98 -12 -34 -8 -62 -12 -62 -10 0 2 24 16 53
31 35 18 75 29 122 33 75 6 85 5 85 -12z m-2373 -83 c147 -31 253 -80 415
-192 60 -41 108 -76 108 -78 0 -2 -43 18 -97 46 -53 27 -101 48 -107 46 -12
-4 61 -55 132 -91 28 -14 52 -28 52 -31 0 -2 -37 9 -82 26 -129 47 -214 74
-335 108 -140 38 -270 88 -294 112 -56 56 58 86 208 54z m1410 -97 c-3 -8 -6
-5 -6 6 -1 11 2 17 5 13 3 -3 4 -12 1 -19z m-1659 -16 c9 -6 1 -12 -25 -20
-54 -17 -153 -30 -153 -21 0 15 44 32 100 39 30 4 57 8 60 9 3 0 11 -3 18 -7z
m489 -153 c61 -15 126 -37 145 -49 42 -25 39 -25 -140 4 -164 27 -290 40 -276
27 5 -4 52 -13 104 -20 132 -18 264 -47 340 -77 57 -22 60 -24 25 -19 -22 3
-137 14 -255 25 -302 29 -390 48 -390 85 0 65 236 78 447 24z m554 -80 c20
-40 26 -99 10 -99 -18 0 -40 30 -56 80 -30 90 2 103 46 19z m575 9 c-8 -52
-36 -110 -55 -116 -10 -4 -12 5 -8 42 7 57 35 116 54 116 13 0 14 -8 9 -42z
m1038 27 c55 -9 107 -36 104 -55 -3 -12 -21 -16 -89 -18 -47 -1 -96 2 -110 7
-19 8 -12 10 39 10 35 1 62 5 62 11 0 12 -5 14 -69 30 -32 9 -40 14 -30 20 7
5 23 7 34 5 11 -2 37 -7 59 -10z m-1722 -64 c12 -20 26 -44 30 -53 6 -16 5
-16 -15 -5 -28 15 -43 33 -67 79 l-20 38 25 -12 c14 -6 35 -27 47 -47z m808
42 c0 -3 -11 -26 -25 -49 -38 -65 -88 -85 -52 -21 26 47 77 94 77 70z m-244
-99 c-4 -13 -11 -24 -16 -24 -14 0 -12 44 3 77 l12 28 3 -29 c2 -16 1 -39 -2
-52z m-367 18 c6 -19 6 -34 0 -37 -10 -7 -29 36 -29 68 0 29 18 10 29 -31z
m85 -9 c5 -33 3 -43 -7 -43 -19 0 -37 63 -25 85 13 23 24 9 32 -42z m206 27
c0 -23 -26 -90 -35 -90 -6 0 1 55 12 93 6 24 23 22 23 -3z m-1415 2 c-20 -17
-121 -80 -162 -101 -51 -25 -56 -15 -10 20 51 38 207 112 172 81z m1305 -47
c0 -47 -15 -62 -22 -22 -5 31 2 67 13 67 5 0 9 -20 9 -45z m-670 -6 c109 -23
125 -27 110 -28 -8 -1 -85 -4 -170 -7 -177 -6 -260 -16 -414 -50 -115 -26
-145 -22 -106 14 26 24 140 62 235 78 83 13 267 10 345 -7z m1603 -28 c66 -32
85 -91 28 -91 -44 0 -264 48 -275 61 -8 9 15 10 94 5 126 -7 117 7 -16 25
-143 18 -144 30 -2 25 104 -3 135 -8 171 -25z m-1349 -66 c-71 -32 -158 -100
-283 -220 -119 -115 -178 -148 -222 -125 -18 10 -21 18 -16 50 6 46 23 70 96
133 51 45 163 107 191 107 7 0 -15 -20 -49 -45 -74 -54 -197 -178 -182 -183 5
-2 49 30 96 72 117 102 244 186 329 217 83 30 111 26 40 -6z m1016 8 c114 -31
210 -98 210 -146 0 -58 -79 -43 -338 64 -206 84 -247 106 -177 95 115 -17 234
-51 337 -96 51 -22 94 -38 96 -35 14 13 -143 89 -250 120 -32 9 -58 18 -58 19
0 7 133 -8 180 -21z m576 -24 c120 -57 175 -131 128 -170 -24 -20 -145 -17
-234 6 -82 20 -204 75 -234 105 -20 19 -19 19 15 11 18 -5 75 -12 124 -16 50
-4 132 -15 184 -26 52 -11 96 -17 98 -15 8 7 -37 27 -121 55 -67 21 -81 29
-78 45 2 10 -1 23 -7 29 -40 40 16 29 125 -24z m-1305 -41 c-49 -81 -83 -176
-79 -219 3 -32 4 -30 26 33 36 108 126 247 147 226 3 -2 -18 -64 -45 -138 -28
-74 -49 -139 -47 -145 5 -12 76 136 107 222 20 57 24 61 43 52 17 -10 19 -18
15 -73 -9 -102 -79 -225 -149 -262 -75 -38 -159 5 -159 83 0 90 62 215 129
260 19 13 38 23 42 23 4 0 -9 -28 -30 -62z m278 21 c31 -18 82 -49 113 -70 73
-50 95 -51 33 -1 -70 54 -113 95 -90 83 11 -5 42 -19 68 -31 94 -43 144 -115
98 -140 -32 -17 -60 -12 -124 22 -59 32 -117 83 -159 141 -26 36 -9 35 61 -4z
m-575 -57 c-33 -31 -98 -91 -143 -132 -78 -70 -112 -110 -94 -110 5 0 46 33
93 73 165 142 317 244 335 225 6 -6 -152 -159 -267 -258 -114 -98 -167 -128
-205 -114 -90 32 46 209 263 339 32 19 63 35 68 35 6 0 -16 -26 -50 -58z
m-748 -138 c-25 -27 -43 -50 -40 -53 5 -5 104 48 123 66 7 8 16 11 20 8 9 -9
-80 -86 -129 -113 -70 -37 -105 -25 -74 25 29 46 87 103 105 103 10 0 21 5 24
11 4 6 9 8 11 6 3 -2 -16 -26 -40 -53z m2100 -164 c59 -38 111 -70 115 -70 20
0 6 24 -43 77 -56 60 -50 62 21 5 48 -39 81 -86 81 -118 0 -12 -10 -34 -22
-49 -20 -26 -25 -27 -92 -23 -98 5 -238 74 -337 166 -38 36 -68 66 -66 69 3 2
49 -26 102 -62 112 -74 147 -85 94 -27 -103 111 -102 111 51 6 103 -70 161
-104 177 -104 4 0 -39 45 -97 100 -58 54 -102 99 -97 99 4 1 55 -30 113 -69z
m-1735 -178 c-45 -64 -14 -70 53 -11 25 22 46 35 46 27 0 -17 -95 -128 -129
-150 -32 -22 -74 -23 -90 -4 -27 32 -6 166 26 166 10 0 13 -5 8 -17 -17 -42
-17 -53 -1 -53 9 0 16 4 16 10 0 12 81 72 88 66 2 -3 -5 -18 -17 -34z m789
-740 c0 -76 4 -142 9 -147 5 -6 11 -233 15 -505 3 -272 9 -529 12 -571 6 -66
-3 -276 -11 -267 -2 2 -8 122 -14 268 -7 146 -14 283 -16 305 -6 53 -23 607
-27 858 -3 182 -2 197 15 197 15 0 17 -13 17 -138z m940 -47 c10 -12 10 -15
-2 -15 -8 0 -37 -11 -65 -24 -98 -48 -242 -203 -333 -359 -25 -42 -47 -72 -49
-66 -5 17 73 169 127 245 78 110 230 234 288 234 12 0 27 -7 34 -15z m-260
-338 c0 -11 -120 -183 -175 -252 -31 -39 68 141 112 203 43 60 63 76 63 49z
m-1266 -223 c149 -172 154 -189 16 -59 -96 91 -123 122 -115 135 12 19 28 6
99 -76z m95 29 c41 -56 117 -200 109 -208 -2 -2 -21 24 -43 58 -22 33 -62 89
-88 124 -43 57 -52 83 -28 83 4 0 27 -26 50 -57z m935 -245 c-4 -7 -36 -55
-71 -107 -35 -51 -95 -157 -133 -235 -77 -156 -89 -164 -34 -23 71 182 191
377 231 377 9 0 11 -5 7 -12z m-484 -733 c0 -5 -5 -3 -10 5 -5 8 -10 20 -10
25 0 6 5 3 10 -5 5 -8 10 -19 10 -25z"/>
<path d="M8722 9220 c-12 -12 -22 -25 -22 -31 0 -6 -7 -6 -19 1 -26 13 -108
13 -116 -1 -5 -7 -15 -5 -31 5 -30 20 -73 20 -102 0 -12 -8 -31 -13 -42 -9
-27 8 -93 -11 -114 -34 -13 -14 -27 -17 -59 -14 -31 3 -51 -1 -75 -16 -35 -23
-92 -104 -92 -133 0 -21 -1 -21 -34 -8 -14 5 -40 7 -57 3 -39 -7 -89 -57 -89
-89 0 -16 -9 -28 -29 -39 -61 -31 -76 -85 -42 -141 l19 -31 -40 -14 c-81 -26
-115 -113 -65 -167 l22 -25 -37 7 c-119 22 -213 -88 -149 -174 22 -30 22 -33
6 -66 -19 -41 -12 -92 18 -130 25 -33 91 -63 135 -64 l33 0 -20 -26 c-40 -51
-22 -113 41 -145 24 -13 56 -22 72 -20 25 1 28 -1 22 -21 -17 -58 -17 -86 -2
-116 19 -36 71 -57 122 -48 19 4 34 3 34 -2 0 -6 15 -17 33 -25 34 -17 98 -10
120 12 7 7 17 3 33 -14 49 -53 116 -21 172 82 49 90 47 89 67 36 10 -26 37
-90 61 -141 49 -105 132 -199 196 -222 21 -8 39 -22 43 -34 11 -37 23 -476 29
-1055 3 -310 4 -562 2 -560 -2 2 -7 29 -11 59 -4 30 -8 57 -10 60 -2 3 -6 50
-9 105 -4 55 -8 123 -11 150 -2 28 -7 86 -10 130 -4 44 -8 87 -11 95 -2 8 -6
35 -9 60 -52 434 -182 779 -356 947 -96 92 -190 121 -224 69 -31 -47 6 -127
175 -381 69 -104 143 -219 163 -255 78 -141 142 -345 171 -550 10 -63 21 -142
26 -176 11 -65 12 -119 3 -94 -3 8 -11 29 -19 45 -7 17 -33 84 -58 150 -67
181 -100 257 -172 394 -85 162 -180 277 -294 352 -132 87 -238 51 -208 -72 27
-107 156 -283 385 -526 169 -180 253 -291 323 -431 62 -125 112 -285 135 -437
14 -88 23 -161 29 -245 3 -36 8 -90 11 -120 3 -30 7 -84 10 -119 2 -34 9 -69
16 -77 16 -19 113 -19 132 0 9 9 17 48 21 103 11 140 72 437 115 566 56 167
157 337 264 449 7 7 46 51 87 98 102 117 123 141 135 154 6 6 23 29 40 51 16
22 38 49 48 60 82 88 251 400 283 525 21 80 15 113 -26 130 -34 14 -65 8 -134
-26 -209 -105 -430 -382 -556 -699 -69 -173 -199 -596 -216 -703 -11 -70 -25
-60 -20 15 3 37 8 113 11 168 3 55 7 114 9 130 2 17 7 62 11 100 16 160 82
389 176 613 99 236 113 323 54 338 -52 13 -123 -74 -172 -210 -38 -107 -92
-348 -108 -481 -3 -27 -10 -68 -14 -90 l-9 -40 -2 35 c-1 19 -4 53 -5 75 -2
22 -7 211 -11 420 -7 383 1 559 28 670 12 46 17 51 68 76 102 49 193 176 220
306 l11 53 39 -49 c90 -114 190 -148 262 -91 23 17 28 18 64 5 55 -20 67 -18
95 11 19 21 30 24 56 19 36 -7 87 14 97 40 3 9 6 30 6 46 0 26 3 29 34 29 34
0 86 37 86 62 0 7 15 20 33 28 55 26 50 107 -8 142 -40 23 -38 32 13 54 56 23
72 42 72 87 0 30 -6 45 -30 67 -16 15 -30 30 -30 33 0 2 22 7 50 11 78 10 111
61 75 113 -8 12 -28 24 -45 28 -38 8 -42 15 -28 53 10 25 9 34 -6 56 -10 16
-22 24 -29 20 -9 -5 -9 -3 1 7 38 41 -13 113 -90 125 -35 6 -39 9 -34 30 10
39 -16 87 -96 175 -20 22 -35 29 -62 29 -31 0 -38 5 -56 39 -24 49 -69 81
-120 88 -34 5 -40 9 -40 30 0 15 -14 39 -34 59 -28 28 -42 34 -76 34 -31 0
-50 7 -73 26 -26 22 -37 25 -74 20 -24 -3 -55 -1 -70 5 -37 14 -85 4 -115 -25
-22 -20 -28 -21 -44 -9 -10 7 -35 13 -56 13 -22 0 -53 7 -70 16 -17 9 -42 14
-56 11 -16 -3 -32 2 -45 14 -29 26 -96 26 -125 -1z m105 -56 c23 -23 28 -24
55 -13 25 10 32 10 39 -2 25 -41 24 -41 62 -23 41 20 59 15 82 -20 19 -29 36
-94 26 -100 -14 -8 -52 15 -50 31 4 46 -14 61 -26 22 -7 -21 -8 -21 -31 6
l-24 28 -8 -24 c-9 -23 -9 -22 -17 7 l-8 29 -12 -29 -12 -29 -11 33 c-13 36
-35 36 -40 0 -4 -21 -5 -21 -23 10 l-20 33 -29 -28 -28 -27 -7 46 c-12 75 31
101 82 50z m-284 -44 l23 -27 17 28 c41 73 138 3 129 -93 -2 -21 -39 -13 -47
11 -3 9 -15 27 -26 41 -11 14 -18 19 -14 12 3 -7 3 -22 -1 -34 -6 -20 -8 -20
-19 -5 -11 15 -13 14 -19 -15 -7 -32 -7 -32 -19 -11 -14 24 -60 63 -76 63 -7
0 -7 -8 -1 -26 6 -14 10 -30 10 -35 0 -9 -48 21 -78 49 -17 15 -69 7 -94 -15
-9 -8 -22 -28 -28 -44 -12 -27 -14 -28 -26 -12 -13 17 -14 17 -7 -2 3 -11 9
-24 13 -30 27 -39 14 -44 -20 -7 -23 23 -42 42 -44 42 -2 0 7 -30 20 -67 13
-38 24 -77 24 -87 0 -20 0 -20 -15 0 -10 13 -14 15 -15 5 0 -11 -5 -10 -20 4
-28 25 -32 16 -15 -32 44 -128 15 -122 -51 12 -42 86 -44 126 -5 187 38 60 61
67 110 35 l38 -25 12 38 c14 48 51 65 100 44 32 -13 35 -13 56 10 28 30 55 25
88 -14z m670 28 c12 -6 27 -18 33 -27 10 -13 13 -13 28 2 26 26 71 22 90 -9
15 -22 22 -24 59 -19 56 8 81 -10 82 -61 1 -55 10 -64 61 -64 48 0 84 -14 84
-31 0 -6 9 -22 20 -36 26 -33 28 -118 3 -145 -22 -24 -32 -23 -25 4 4 18 2 20
-16 16 -25 -7 -26 -4 -12 23 14 24 -6 26 -39 3 l-23 -16 16 31 c9 17 20 31 25
31 5 0 11 13 13 28 l4 28 -44 -23 c-42 -23 -46 -17 -13 21 16 18 15 18 -23 2
-49 -20 -48 -21 -40 9 8 31 -3 32 -33 3 -20 -19 -23 -19 -23 -4 0 9 5 26 10
36 9 17 7 19 -20 17 -19 -1 -32 -9 -36 -19 -3 -10 -10 -18 -15 -18 -12 0 -12
2 11 54 19 45 19 46 1 36 -11 -5 -29 -22 -40 -36 -24 -30 -29 -12 -9 31 19 42
-2 42 -38 0 -36 -43 -43 -41 -19 4 8 16 11 31 8 35 -15 14 -31 3 -58 -39 -15
-25 -29 -44 -31 -42 -2 1 2 22 7 46 16 72 -28 95 -46 24 -5 -21 -8 -24 -16
-12 -13 20 -11 86 3 109 15 23 30 25 61 8z m-789 -133 c9 -9 23 -31 32 -50 9
-19 24 -37 33 -40 10 -3 28 -23 40 -45 15 -26 32 -42 49 -46 111 -25 142 -44
142 -88 0 -19 -4 -22 -24 -19 -14 3 -34 14 -45 24 -24 22 -41 25 -41 5 0 -12
-30 -32 -34 -24 -1 2 -7 15 -14 31 -18 41 -32 32 -32 -20 0 -60 -10 -47 -46
62 -33 101 -45 114 -39 44 l5 -54 -22 63 c-12 34 -25 62 -30 62 -4 0 -8 -17
-9 -37 l-1 -38 -15 35 c-18 40 -28 112 -20 135 8 19 51 19 71 0z m458 -22 c25
-24 28 -24 49 -9 44 31 69 16 69 -40 0 -28 -1 -28 38 -8 17 8 49 14 69 12 35
-3 38 -6 41 -35 3 -29 0 -33 -22 -33 -13 0 -31 -3 -39 -6 -12 -4 -14 0 -10 15
4 14 1 21 -9 21 -23 0 -45 -22 -81 -82 l-34 -57 5 73 c3 51 1 76 -8 81 -19 12
-29 -7 -47 -83 -10 -40 -20 -72 -23 -72 -4 0 -12 30 -19 68 -17 86 -37 135
-53 129 -7 -2 -12 -8 -12 -13 1 -5 4 -47 8 -94 6 -85 6 -85 -11 -54 -23 41
-62 85 -93 107 -32 22 -43 22 -30 -2 13 -25 14 -53 1 -32 -5 8 -19 12 -35 9
-14 -3 -26 -2 -26 2 0 4 -3 21 -6 38 -9 44 22 59 84 41 44 -12 45 -12 65 15
37 51 80 54 129 9z m-833 -94 c19 -18 31 -41 31 -57 l0 -25 -23 21 c-37 35
-50 29 -42 -20 l7 -41 -27 22 c-29 22 -46 21 -27 -2 6 -7 15 -25 21 -39 10
-27 10 -27 -17 -15 -15 6 -37 18 -49 25 -33 21 -30 -4 5 -41 l27 -30 -34 7
c-51 9 -81 32 -81 62 0 20 9 29 45 45 42 19 45 23 45 57 0 46 14 62 56 62 23
0 42 -9 63 -31z m1278 -36 c17 -42 14 -110 -8 -158 -13 -30 -13 -30 -19 29
l-5 59 -17 -36 c-24 -50 -40 -48 -32 3 8 48 -6 53 -37 11 l-21 -29 -35 19
c-44 25 -59 24 -79 -6 -9 -14 -21 -25 -26 -25 -15 0 -1 60 19 82 18 20 73 24
90 7 13 -13 64 21 88 58 10 14 25 23 41 23 19 0 28 -8 41 -37z m-920 -143 c68
-143 65 -164 -12 -77 l-46 52 26 -55 26 -55 -36 38 c-19 20 -38 37 -41 37 -6
0 3 -80 13 -109 3 -9 -9 -2 -26 15 -38 36 -53 102 -28 122 11 10 13 22 6 57
-12 63 5 102 46 104 6 0 38 -58 72 -129z m1080 115 c27 -19 39 -75 23 -105 -9
-17 -9 -25 4 -39 29 -31 12 -91 -24 -91 -11 0 -20 -4 -20 -10 0 -5 -6 -10 -14
-10 -8 0 -17 -7 -20 -16 -4 -9 -9 -14 -13 -11 -3 4 -1 13 6 20 6 8 14 34 17
58 l6 43 -36 -27 c-43 -33 -46 -26 -8 21 41 54 49 72 44 98 -6 32 -28 31 -36
-2 -9 -36 -31 -24 -29 17 2 35 32 69 62 69 9 0 26 -7 38 -15z m297 9 c10 -4
16 -18 16 -40 0 -29 4 -34 23 -34 35 0 49 -15 50 -53 1 -34 -16 -67 -34 -67
-5 0 -9 13 -9 28 0 31 -21 55 -57 66 -20 6 -23 14 -23 57 0 49 4 54 34 43z
m-610 -155 c38 -44 37 -139 -1 -146 -8 -2 -13 8 -13 28 0 36 -17 72 -30 64 -5
-3 -6 -13 -3 -23 6 -15 4 -15 -15 2 -16 14 -25 16 -35 8 -10 -9 -17 -8 -25 0
-18 18 -15 31 17 66 38 41 71 42 105 1z m-1037 0 c20 -12 44 -41 59 -70 24
-48 23 -65 -2 -31 -10 13 -15 14 -25 5 -9 -10 -19 -7 -43 14 -37 31 -44 17
-17 -28 49 -80 6 -94 -46 -15 -37 54 -42 99 -16 128 21 24 48 23 90 -3z m1611
9 c7 -7 12 -31 12 -55 0 -30 5 -45 15 -49 10 -4 15 -20 15 -48 -1 -44 -13 -66
-47 -84 -19 -10 -21 -10 -18 5 2 10 6 26 10 36 7 17 -2 22 -32 18 -15 -2 -17
25 -3 34 6 3 10 15 10 26 0 11 7 19 18 20 10 0 4 6 -16 15 -29 13 -36 12 -63
-2 -33 -16 -33 -9 -1 29 19 21 4 22 -27 1 -22 -16 -23 -15 -19 2 8 44 115 83
146 52z m-1040 -13 c1 -1 -3 -15 -10 -31 -11 -27 -12 -28 -15 -6 -6 32 -20 27
-28 -9 -6 -29 -8 -29 -25 -14 -17 15 -19 15 -31 -3 -8 -10 -24 -21 -36 -24
-19 -5 -23 -2 -23 16 0 45 82 91 140 78 14 -2 26 -6 28 -7z m283 -5 c28 -15
24 -32 -7 -24 -19 5 -32 0 -50 -17 l-26 -24 13 30 c20 45 35 53 70 35z m-1029
-69 l33 -30 -40 9 c-50 12 -95 13 -95 2 0 -5 19 -19 43 -32 86 -48 89 -52 25
-46 -32 3 -58 1 -58 -4 0 -4 23 -22 50 -39 49 -30 64 -51 36 -51 -47 0 -200
94 -211 130 -15 49 44 89 132 90 44 0 58 -5 85 -29z m843 4 c14 -13 25 -33 25
-43 0 -11 8 -30 18 -43 l19 -22 29 33 c49 56 55 60 80 60 32 0 74 -42 74 -75
0 -20 -5 -25 -25 -25 -18 0 -25 5 -25 20 0 27 -14 25 -30 -5 -17 -31 -30 -32
-30 -2 l-1 22 -20 -24 c-10 -13 -24 -43 -30 -68 l-12 -44 -34 53 c-19 29 -42
66 -50 83 l-16 30 -9 -24 c-4 -13 -6 -33 -3 -45 6 -21 6 -21 -9 -2 -9 11 -16
26 -16 33 0 7 -4 13 -10 13 -5 0 -10 -6 -10 -14 0 -21 -21 -31 -31 -15 -5 8
-6 23 -3 34 7 22 73 95 86 95 5 0 20 -11 33 -25z m1189 -11 c19 -18 20 -28 5
-56 -9 -17 -6 -25 17 -49 l28 -29 -22 -30 c-19 -25 -22 -38 -16 -80 8 -61 -1
-75 -75 -107 -54 -24 -80 -25 -42 -1 27 17 28 48 1 48 -11 0 -20 3 -20 8 0 4
9 13 20 20 29 18 25 32 -10 32 -16 0 -30 3 -30 8 0 12 32 36 68 51 28 12 31
16 17 23 -9 5 -35 7 -58 3 l-42 -6 23 20 c13 11 39 23 58 27 19 3 34 9 34 13
0 27 -65 42 -86 21 -7 -7 -11 -6 -11 4 0 8 13 20 29 27 34 14 28 29 -13 29
-39 0 -37 17 4 29 51 15 104 13 121 -5z m-650 -23 c25 -28 31 -83 12 -119 -19
-38 -26 -40 -24 -9 1 30 -4 49 -20 65 -15 16 -14 17 -35 -23 -9 -16 -17 -25
-17 -20 -7 60 -4 82 14 103 24 27 47 28 70 3z m255 -25 c7 -8 15 -30 18 -49 6
-40 -28 -123 -71 -171 -27 -30 -29 -29 -26 16 1 26 0 27 -32 21 l-33 -6 21 24
c27 30 44 63 44 84 0 13 -6 11 -33 -9 -19 -15 -37 -26 -40 -26 -14 0 27 92 50
110 30 23 85 26 102 6z m-1109 -31 c15 -14 21 -14 53 0 51 21 54 20 78 -27 29
-59 39 -70 53 -59 22 17 65 18 79 2 8 -9 34 -53 58 -99 24 -46 65 -108 92
-138 27 -30 48 -57 45 -59 -2 -2 -26 7 -53 20 -39 18 -60 38 -94 89 -24 36
-45 66 -47 66 -2 0 11 -54 25 -99 17 -56 6 -47 -38 28 -58 99 -82 105 -45 11
24 -60 10 -60 -23 0 -59 110 -73 127 -73 89 0 -13 4 -40 10 -58 14 -51 -3 -27
-50 67 -41 82 -66 106 -58 55 3 -16 9 -37 13 -47 17 -40 -16 -4 -40 44 -14 27
-29 51 -35 55 -13 8 -13 -29 -1 -73 14 -46 5 -40 -24 18 -29 58 -31 72 -9 105
19 29 58 33 84 10z m-238 -36 c13 -5 36 -28 51 -50 29 -40 26 -49 -7 -24 -25
19 -76 20 -76 2 0 -8 21 -29 48 -48 26 -18 64 -49 84 -67 28 -25 45 -33 70
-32 85 5 94 2 114 -37 10 -21 22 -40 25 -43 4 -3 16 -24 28 -48 12 -24 31 -52
42 -63 19 -19 20 -19 78 11 56 29 62 30 142 24 46 -3 99 -10 117 -16 36 -11
82 -69 82 -105 0 -43 27 -37 110 26 66 49 102 57 189 42 37 -7 74 -9 84 -5 26
10 20 32 -10 37 -16 2 6 5 47 5 57 1 92 -4 145 -23 100 -36 165 -30 165 14 0
37 -36 54 -125 59 -47 3 -85 8 -85 13 0 5 9 9 19 9 20 0 34 14 37 37 2 13 -41
26 -59 17 -7 -3 -1 4 13 15 14 12 51 31 82 42 32 12 63 28 70 36 11 13 6 15
-32 10 -25 -2 -56 -8 -69 -12 -32 -11 -22 5 26 38 24 16 55 27 83 29 40 3 45
0 53 -23 15 -42 1 -75 -48 -110 -55 -40 -63 -79 -16 -79 41 0 90 -19 101 -40
18 -34 10 -62 -30 -102 -39 -39 -41 -40 -98 -36 -37 2 -69 12 -88 24 -47 34
-68 34 -120 3 -58 -34 -98 -36 -174 -9 -30 11 -62 19 -70 20 -9 0 -34 -19 -55
-41 -40 -41 -124 -89 -157 -89 -29 0 -58 37 -58 74 0 80 -39 114 -86 77 -35
-27 -55 -26 -84 4 -29 31 -35 31 -82 -2 -59 -41 -93 -36 -145 21 -36 41 -47
47 -75 44 -29 -3 -33 0 -36 24 -2 15 4 38 13 51 21 33 8 41 -58 33 -49 -6 -54
-5 -81 23 -15 16 -57 43 -91 60 -35 18 -76 46 -90 63 -61 72 2 157 87 117z
m-176 -21 c-3 -13 -6 -36 -6 -53 0 -27 -1 -28 -16 -13 -21 21 -11 88 13 88 11
0 14 -6 9 -22z m1151 -14 c22 -22 25 -32 21 -75 -3 -28 -11 -56 -18 -62 -10
-10 -12 -9 -7 5 9 27 -4 29 -25 3 -28 -36 -36 -31 -30 20 7 64 -12 57 -47 -17
l-29 -63 -1 58 c-1 31 -5 57 -10 57 -15 0 -40 -41 -52 -84 -14 -50 -29 -31
-29 37 0 45 -1 47 -20 37 -12 -6 -23 -24 -27 -41 -3 -16 -12 -29 -19 -29 -37
0 9 132 53 153 18 8 33 7 59 -2 31 -11 38 -10 67 8 44 28 82 27 114 -5z
m-1409 -49 c52 -24 76 -54 28 -35 -36 13 -155 15 -168 2 -8 -8 -3 -14 18 -23
16 -6 44 -17 62 -25 18 -8 40 -15 50 -16 9 -1 -10 -4 -43 -7 -44 -4 -60 -10
-60 -21 0 -10 16 -17 51 -22 28 -4 64 -13 80 -20 27 -11 24 -12 -47 -19 -125
-11 -131 -35 -13 -48 l69 -8 -32 -14 c-39 -16 -43 -29 -8 -29 14 0 25 -5 25
-10 0 -7 -22 -9 -62 -5 -93 9 -133 23 -151 55 -22 36 -21 46 3 77 27 34 25 49
-10 89 -26 30 -28 37 -19 64 20 55 122 61 227 15z m1572 -70 c35 -36 67 -44
88 -23 10 10 16 8 29 -5 22 -22 5 -60 -39 -87 -43 -26 -50 -25 -42 5 7 30 -10
33 -44 9 -13 -9 -22 -11 -22 -4 0 6 7 13 15 16 19 8 19 24 0 24 -9 0 -12 6 -9
15 4 8 3 15 -1 15 -11 0 -50 -23 -57 -34 -6 -8 -8 -8 -8 1 0 6 -6 18 -14 25
-16 16 -6 33 34 61 32 22 31 23 70 -18z m-1294 -6 l39 -24 -63 -5 c-34 -3 -62
-8 -62 -12 0 -5 0 -12 0 -18 0 -5 8 -10 18 -10 9 0 44 -8 77 -18 l60 -18 -54
-7 c-56 -7 -86 -22 -60 -31 8 -3 54 -10 103 -17 107 -14 96 -24 -32 -32 -132
-9 -192 -48 -147 -97 31 -34 80 -32 155 5 79 41 133 45 165 15 19 -17 26 -19
53 -9 43 15 95 4 133 -28 36 -31 49 -59 60 -133 12 -83 14 -87 34 -110 23 -26
35 -26 35 0 0 29 27 77 49 89 17 10 19 6 17 -42 0 -28 4 -54 9 -56 6 -2 19 14
30 37 28 57 30 57 30 -1 0 -29 4 -54 10 -57 8 -5 31 33 51 85 7 18 8 17 12 -8
5 -40 44 -34 53 8 l6 30 12 -30 c54 -125 75 -135 66 -30 l-7 76 25 -23 c23
-22 62 -94 59 -110 -1 -5 2 -8 7 -8 15 0 22 32 15 76 -7 49 11 69 26 29 17
-46 12 -120 -11 -149 -18 -23 -27 -26 -86 -26 -62 0 -67 2 -97 35 -18 19 -38
35 -45 35 -8 0 -31 -16 -52 -35 l-39 -35 -33 17 c-17 9 -34 17 -37 16 -3 0
-20 -4 -38 -8 -30 -6 -37 -3 -73 37 -53 57 -66 83 -78 159 -17 102 -66 146
-121 108 -46 -31 -103 -25 -115 12 -9 28 -46 24 -104 -12 -97 -61 -192 -47
-236 34 -26 49 -15 79 40 108 l44 24 -28 30 c-32 34 -53 87 -44 113 3 9 13 25
22 36 22 25 95 17 147 -15z m2022 9 c3 -14 -3 -18 -27 -18 -25 0 -31 4 -31 21
0 16 5 20 27 17 17 -2 29 -10 31 -20z m-862 -104 c16 -24 16 -27 -3 -52 -10
-14 -32 -29 -48 -34 -34 -9 -48 -1 -22 13 18 11 24 39 7 39 -15 0 -92 -39
-112 -58 -13 -11 -18 -12 -18 -2 0 30 123 119 167 120 7 0 20 -12 29 -26z
m762 -50 c35 -23 28 -49 -21 -72 -24 -11 -49 -28 -57 -37 -17 -20 -56 -42 -46
-26 4 6 3 11 -3 11 -6 0 -8 7 -5 15 4 8 14 15 23 15 18 0 41 18 41 32 0 4 -7
8 -15 8 -9 0 -18 6 -21 14 -3 8 -13 12 -22 10 -9 -3 0 5 20 19 21 13 35 27 30
32 -11 12 50 -5 76 -21z m-2138 -184 c13 -8 12 -10 -3 -10 -31 0 -15 -34 23
-46 44 -15 49 -30 11 -39 -52 -11 -161 34 -161 66 0 27 99 49 130 29z m2101
-40 c25 -14 25 -40 -1 -40 -10 0 -24 -9 -30 -19 -10 -19 -12 -19 -55 -5 -40
14 -43 17 -29 31 8 9 24 13 37 10 21 -6 21 -5 4 8 -18 13 -17 14 5 18 41 8 49
7 69 -3z m-1942 -91 c-13 -11 -36 -27 -51 -35 -33 -17 -37 -44 -7 -44 11 0 55
16 97 35 l77 36 -35 -37 c-70 -73 -175 -115 -208 -82 -34 34 1 113 56 127 97
25 99 25 71 0z m1110 -31 c0 -39 -3 -48 -9 -33 -12 28 -12 85 0 85 6 0 10 -24
9 -52z m659 41 c6 3 35 4 64 1 45 -4 53 -8 53 -25 0 -17 -6 -20 -35 -18 -63 3
-130 26 -130 45 0 5 8 4 18 -1 10 -5 23 -6 30 -2z m-66 -35 c51 -26 68 -48 68
-88 0 -29 -21 -37 -65 -23 -38 13 -46 19 -68 55 -17 29 -17 30 3 25 11 -3 23
-9 26 -14 8 -14 24 -11 24 5 0 7 -18 25 -40 40 -70 46 -40 46 52 0z m-1382 -8
c-51 -135 -103 -185 -141 -135 l-18 24 -62 -23 c-61 -21 -90 -18 -74 8 4 6 45
36 91 66 46 31 86 60 90 65 3 5 10 9 15 9 5 0 -2 -17 -16 -37 -54 -80 -19 -85
59 -8 30 30 57 55 60 55 3 0 1 -11 -4 -24z m1187 -44 c67 -44 93 -33 37 15
-48 42 -12 27 59 -25 39 -28 47 -40 45 -60 -5 -39 -32 -51 -60 -26 -39 35 -45
35 -88 -1 -23 -20 -53 -35 -67 -35 -42 0 -91 40 -136 113 -17 27 -17 28 2 17
11 -5 23 -15 26 -21 10 -14 86 -69 97 -69 6 0 -4 19 -21 42 -17 23 -31 47 -31
52 0 8 3 8 8 1 14 -21 71 -55 91 -55 31 0 26 19 -16 63 -44 45 -25 41 54 -11z
m-703 -729 c22 -495 35 -2063 17 -2063 -6 0 -10 8 -10 18 0 9 -4 186 -10 392
-5 206 -12 537 -15 735 -3 198 -9 491 -12 650 -7 278 -2 405 15 405 5 0 11
-62 15 -137z m-789 -192 c65 -37 193 -172 232 -244 33 -61 29 -77 -7 -27 -74
105 -191 214 -272 256 -27 13 -48 29 -48 34 0 19 45 10 95 -19z m1515 -299 c0
-5 -19 -37 -43 -73 -23 -35 -83 -128 -131 -206 -49 -79 -91 -141 -93 -139 -8
8 105 223 171 324 36 56 73 102 81 102 8 0 15 -4 15 -8z m-170 -102 c0 -6 -6
-21 -13 -33 -55 -90 -80 -127 -84 -123 -6 6 78 166 88 166 5 0 9 -5 9 -10z"/>
<path d="M6505 4819 c-104 -83 -282 -415 -325 -611 l-13 -58 -40 36 c-95 87
-245 116 -333 65 -33 -19 -45 -21 -62 -12 -29 15 -124 13 -207 -4 -121 -26
-291 -98 -352 -149 -27 -23 -35 -24 -61 -15 -36 12 -94 -1 -162 -36 -25 -13
-157 -79 -295 -145 -733 -356 -1009 -503 -1093 -580 -50 -46 -74 -107 -61
-153 15 -57 48 -72 144 -71 94 2 196 35 333 110 46 25 82 40 79 32 -3 -7 -20
-49 -38 -93 -26 -65 -33 -94 -33 -155 -1 -64 3 -82 27 -126 24 -42 26 -54 18
-78 -28 -72 4 -161 64 -178 110 -32 344 50 611 213 l31 19 -17 -63 c-10 -34
-28 -115 -40 -180 -13 -64 -28 -117 -34 -117 -32 0 -86 -23 -86 -35 0 -8 5
-15 10 -15 24 0 6 -19 -55 -58 -36 -23 -68 -49 -72 -58 -6 -16 15 -37 29 -28
20 13 4 -12 -28 -44 -58 -57 -68 -109 -18 -99 30 5 30 3 -6 -88 -35 -88 -39
-125 -12 -125 10 0 22 4 28 9 5 5 25 11 44 13 34 3 35 4 34 43 0 22 -3 61 -6
88 -3 26 -3 58 -1 72 5 22 7 23 27 9 13 -8 25 -12 28 -9 3 3 4 34 1 68 l-4 62
52 59 c29 32 67 65 84 72 32 13 32 13 55 156 12 79 26 152 31 164 4 11 22 27
41 34 53 22 119 68 184 132 l61 60 12 -47 c15 -58 51 -132 86 -173 l26 -31
-73 -41 c-40 -22 -82 -47 -93 -56 -20 -16 -20 -16 3 -31 23 -16 22 -16 -41
-54 -35 -21 -70 -45 -77 -54 -11 -13 -9 -17 17 -27 l30 -11 -31 -41 c-65 -86
-83 -165 -35 -153 12 3 32 1 46 -6 33 -15 39 -3 48 96 l7 80 22 -28 c31 -39
45 -25 43 39 l-2 54 108 109 108 108 -5 55 c-3 30 -17 96 -32 145 -53 179 -53
154 -1 209 l46 49 6 -29 c22 -99 58 -182 99 -231 l25 -29 -24 -70 c-13 -38
-29 -97 -35 -132 -11 -53 -10 -65 2 -80 8 -9 18 -25 21 -34 4 -10 13 -18 20
-18 8 0 22 -20 31 -44 16 -40 16 -48 1 -81 -23 -56 -20 -78 8 -71 l24 6 -19
-73 c-9 -39 -18 -77 -18 -83 0 -20 32 -25 51 -8 10 9 26 13 37 10 27 -9 52 3
52 24 0 10 -13 47 -30 82 -31 65 -38 98 -20 98 6 0 10 -4 10 -10 0 -16 30 -12
36 5 3 8 -22 64 -55 125 -48 86 -61 120 -61 153 0 48 21 131 43 177 21 41 11
93 -47 268 l-44 131 21 28 c12 15 32 48 44 73 18 38 23 42 28 25 42 -120 141
-252 211 -277 19 -7 34 -16 34 -20 0 -5 -31 -42 -70 -84 -38 -41 -70 -79 -70
-85 0 -5 11 -9 25 -9 14 0 25 -3 25 -7 0 -5 -20 -39 -45 -77 -47 -72 -49 -91
-9 -83 21 4 24 -1 30 -32 12 -76 46 -123 61 -85 5 13 9 12 29 -7 13 -12 30
-19 38 -16 8 3 38 -3 67 -14 56 -21 106 -22 101 -1 -4 23 24 12 58 -23 27 -27
37 -32 52 -24 28 15 22 34 -26 85 l-44 46 -76 -7 c-65 -6 -81 -4 -119 14 -24
12 -54 33 -68 47 -23 25 -23 26 -7 67 21 55 95 233 114 274 14 31 13 36 -19
100 -19 38 -55 100 -80 139 -51 80 -87 148 -87 164 0 22 55 9 85 -19 49 -48
130 -96 194 -116 70 -23 70 -24 80 -195 5 -92 8 -105 23 -104 13 1 21 -10 28
-36 10 -37 40 -75 40 -51 0 23 19 10 25 -18 3 -16 13 -35 21 -42 8 -6 14 -29
14 -54 0 -45 27 -84 46 -65 7 7 28 -13 62 -59 38 -51 56 -68 70 -65 13 4 21
-4 30 -30 10 -27 19 -36 37 -36 32 0 37 22 14 65 -14 25 -17 41 -10 49 14 17
3 28 -64 65 -86 47 -152 114 -96 96 36 -11 33 15 -6 62 -133 158 -140 170
-148 224 -5 30 -8 57 -7 61 3 16 -31 126 -49 156 -10 19 -17 38 -14 43 4 5 26
9 49 9 l43 0 33 -72 c33 -74 38 -89 39 -120 1 -11 9 -18 20 -18 14 0 23 -11
32 -37 14 -45 28 -65 40 -58 4 3 15 -7 23 -23 19 -38 65 -92 77 -92 5 0 9 13
9 30 l0 29 72 -34 c79 -38 128 -45 128 -19 0 9 6 14 13 11 6 -3 28 -12 49 -21
31 -13 38 -13 48 -1 32 38 -60 96 -153 96 -28 0 -75 7 -104 15 -58 16 -104 64
-163 169 -18 33 -56 94 -83 136 l-50 76 -91 21 c-50 12 -121 31 -158 42 l-68
21 26 40 c13 22 30 65 36 94 11 54 20 66 34 44 6 -11 97 -72 143 -96 13 -7 43
-13 67 -13 32 0 44 -4 44 -15 0 -8 -4 -15 -10 -15 -13 0 -13 -47 0 -55 15 -9
49 18 60 49 15 44 13 55 -20 74 l-30 19 35 16 34 16 28 -33 c15 -18 51 -61 78
-94 58 -70 89 -92 107 -74 16 16 3 38 -72 122 -30 34 -68 81 -83 104 -27 39
-28 45 -22 116 4 51 1 98 -9 145 -15 69 -15 70 7 88 143 116 302 179 490 192
76 6 87 9 87 25 0 26 -50 34 -154 27 -135 -9 -316 -78 -404 -153 -23 -20 -42
-31 -42 -26 0 5 3 12 7 16 4 4 9 19 11 34 17 133 174 445 297 592 20 24 34 48
32 54 -7 20 -33 17 -62 -5z m-501 -626 c52 -26 80 -50 99 -82 l18 -30 -50 34
c-28 18 -67 39 -87 45 -53 18 -144 9 -181 -18 -29 -21 -31 -21 -26 -3 7 27 45
60 79 70 38 11 110 3 148 -16z m-296 -36 c4 -33 -16 -137 -27 -137 -4 0 -14
21 -22 47 -9 30 -21 49 -31 51 -14 3 -18 -7 -20 -65 l-3 -68 -20 60 c-13 38
-26 61 -37 63 -15 3 -16 -5 -11 -72 3 -44 2 -76 -3 -76 -5 0 -18 25 -29 57
-34 97 -81 99 -63 2 13 -74 6 -79 -30 -20 -36 58 -37 58 -125 14 -59 -29 -87
-57 -87 -84 0 -30 113 -171 216 -268 89 -84 147 -121 194 -121 34 0 109 36
143 67 41 40 33 9 -9 -32 -46 -46 -76 -58 -143 -56 -43 1 -63 8 -105 36 -65
45 -134 109 -223 210 -119 135 -143 184 -110 225 76 96 334 202 477 197 63 -2
65 -3 68 -30z m235 -41 c51 -21 114 -97 132 -160 27 -92 1 -176 -61 -196 -103
-34 -227 76 -241 214 -7 63 13 108 60 136 38 23 66 25 110 6z m-849 -128 c-8
-39 -20 -51 -94 -87 -119 -59 -513 -304 -780 -486 -221 -151 -439 -252 -567
-262 -71 -6 -72 -5 -84 21 -26 56 18 94 267 232 87 48 323 168 524 267 201 99
442 217 535 263 94 46 178 84 187 84 14 0 16 -6 12 -32z m60 -175 c26 -36 44
-68 40 -73 -5 -4 -99 -53 -209 -110 -292 -150 -490 -263 -625 -355 -41 -29
-93 -62 -114 -75 -134 -80 164 161 394 319 88 61 370 249 413 275 49 31 63 52
26 41 -12 -4 -36 -17 -54 -29 -18 -11 -82 -52 -142 -90 -219 -140 -249 -160
-318 -205 -38 -25 -86 -54 -105 -64 -49 -26 -131 -82 -224 -151 -43 -32 -77
-55 -75 -50 7 15 121 118 184 166 190 143 712 468 750 467 6 0 32 -30 59 -66z
m104 -139 c-7 -8 -81 -52 -163 -99 -221 -126 -217 -112 14 46 101 68 130 83
145 76 16 -8 16 -11 4 -23z"/>
<path d="M5831 4054 c-32 -27 -33 -30 -28 -84 14 -156 148 -253 236 -171 84
79 -4 260 -135 278 -34 4 -45 1 -73 -23z"/>
<path d="M1423 4413 c-31 -6 -81 -60 -88 -95 l-7 -30 -21 21 c-36 33 -74 43
-118 31 -22 -6 -45 -19 -51 -30 -10 -16 -20 -18 -54 -13 -24 3 -54 3 -68 -1
-29 -7 -60 -59 -53 -87 5 -20 2 -19 -43 12 -45 32 -117 28 -159 -7 -24 -20
-31 -34 -31 -61 0 -34 -1 -34 -32 -27 -32 7 -53 8 -90 5 -26 -2 -58 -42 -58
-73 0 -25 -4 -28 -31 -28 -65 0 -117 -50 -110 -107 1 -7 -11 -15 -26 -19 -39
-9 -86 -34 -100 -53 -18 -24 -16 -66 6 -92 18 -23 18 -23 -18 -41 -101 -50
-90 -159 18 -188 l41 -11 -15 -29 c-35 -68 0 -127 93 -150 36 -10 52 -19 52
-30 0 -18 22 -41 59 -60 14 -7 64 -12 126 -12 93 1 103 -1 108 -18 13 -48 117
-79 212 -63 54 10 55 9 48 -11 -5 -12 -8 -40 -8 -64 1 -53 44 -102 101 -111
34 -6 38 -10 48 -52 24 -94 74 -154 184 -223 l42 -26 0 -315 0 -314 -127 -1
c-122 0 -143 -2 -231 -15 l-38 -5 -17 72 c-24 105 -69 186 -145 263 -80 80
-146 119 -238 141 -87 20 -198 15 -244 -12 -156 -91 -59 -282 226 -442 140
-80 135 -73 92 -114 -20 -19 -40 -46 -43 -61 -10 -39 12 -333 27 -365 7 -15
29 -37 49 -50 l36 -23 26 -162 c15 -89 29 -173 32 -187 3 -14 7 -36 10 -50 3
-14 8 -41 11 -60 14 -86 67 -337 76 -360 37 -98 195 -151 493 -165 287 -14
552 34 643 118 30 28 33 39 87 352 3 17 8 41 10 55 3 14 8 39 10 55 3 17 14
77 25 135 10 58 24 140 31 184 7 43 17 82 23 87 81 62 77 55 92 194 17 159 17
236 3 268 -6 14 -29 34 -50 46 -44 25 -44 20 16 116 44 71 109 217 135 305 27
91 25 185 -5 206 -47 35 -158 -1 -241 -78 -99 -91 -175 -237 -208 -398 -10
-53 -16 -65 -32 -64 -10 0 -75 4 -144 8 -69 5 -147 9 -175 10 l-50 1 0 310 0
309 72 48 c87 57 143 132 150 202 5 42 7 45 47 55 58 14 93 45 107 92 9 30 9
45 1 65 -7 13 -12 26 -12 27 0 1 39 2 88 3 93 0 150 19 159 53 4 15 21 19 111
25 59 4 124 11 145 17 40 10 71 47 62 71 -5 12 5 17 44 22 90 12 132 75 97
144 -14 28 -14 28 35 45 57 21 84 60 74 107 -7 30 -50 74 -84 85 -19 6 -19 7
-1 38 36 61 -5 123 -89 134 -33 5 -37 8 -33 29 9 49 -56 104 -123 104 -20 0
-25 5 -25 26 0 71 -76 103 -162 69 -15 -6 -17 -3 -12 24 5 25 1 36 -24 61 -26
26 -38 30 -82 30 -31 0 -66 -8 -90 -20 -50 -26 -50 -26 -50 9 0 43 -40 71
-101 71 -26 0 -50 4 -54 9 -9 15 -66 41 -89 41 -12 0 -40 -11 -64 -25 l-43
-25 -14 33 c-27 65 -89 96 -162 80z m92 -77 c13 -13 27 -40 31 -61 10 -56 -31
-465 -47 -465 -4 0 -10 53 -14 118 -3 64 -10 167 -14 227 l-8 110 -2 -115 c-2
-121 -8 -228 -18 -320 -5 -51 -6 -53 -14 -25 -9 29 -25 136 -35 225 -3 25 -9
68 -14 95 -9 56 1 170 19 203 21 39 80 43 116 8z m-247 -62 c54 -37 83 -143
97 -358 3 -44 8 -93 10 -108 3 -16 1 -28 -3 -28 -11 0 -26 46 -67 205 -51 198
-66 248 -76 238 -4 -4 -1 -37 7 -73 34 -158 66 -289 80 -332 29 -89 8 -73 -44
32 -81 167 -122 312 -107 379 13 58 57 78 103 45z m480 -14 c28 -53 -4 -232
-65 -365 -25 -54 -75 -137 -79 -132 -3 2 7 51 20 108 13 57 27 124 31 149 4
25 13 70 21 100 8 30 14 66 14 80 l-1 25 -15 -28 c-15 -28 -23 -61 -64 -257
-11 -52 -27 -113 -35 -135 -14 -39 -14 -39 -16 -10 -2 55 2 220 7 255 20 144
32 178 75 214 41 34 87 33 107 -4z m-654 -26 c26 -26 20 -45 -11 -38 -36 9
-63 23 -63 33 0 25 51 29 74 5z m793 1 c7 -20 5 -22 -40 -30 -34 -7 -37 -5
-30 11 13 35 59 47 70 19z m-997 -60 c51 -26 139 -150 234 -327 31 -60 55
-108 52 -108 -5 0 -221 285 -251 333 -18 27 -35 36 -35 17 0 -6 33 -64 73
-128 41 -64 86 -139 102 -167 l27 -50 -67 65 c-90 88 -192 213 -223 277 -23
47 -24 55 -12 78 16 29 55 33 100 10z m1234 -1 c21 -20 20 -32 -5 -74 -50 -81
-269 -332 -269 -307 0 7 137 231 172 280 19 27 19 45 1 34 -4 -3 -69 -91 -143
-195 -74 -104 -136 -189 -138 -187 -5 4 146 284 187 343 69 103 153 148 195
106z m-1039 -46 c15 -12 38 -45 51 -74 23 -52 76 -236 69 -242 -7 -7 -195 287
-195 306 0 36 36 41 75 10z m812 6 c7 -20 -28 -93 -102 -213 -86 -140 -88
-135 -23 69 22 69 47 133 55 143 20 21 62 22 70 1z m-1138 -89 c22 -15 58 -50
79 -79 22 -28 54 -66 72 -85 30 -31 106 -123 134 -161 16 -22 -33 20 -66 57
-33 36 -181 139 -259 180 -87 46 -109 64 -109 87 0 13 3 26 8 30 15 16 102 -1
141 -29z m1547 20 c13 -33 -6 -63 -53 -85 -123 -57 -302 -184 -392 -279 -69
-73 -23 -2 74 114 132 158 185 211 236 238 59 30 126 36 135 12z m-1614 -141
c127 -62 250 -159 341 -269 l42 -50 -45 37 c-95 78 -395 258 -429 258 -22 0
-1 -18 62 -53 56 -32 247 -172 247 -182 0 -2 -21 6 -47 19 -27 13 -93 45 -147
71 -130 60 -222 122 -238 159 -10 26 -9 31 12 48 33 27 95 16 202 -38z m1750
29 c25 -23 23 -34 -14 -70 -46 -44 -399 -226 -398 -205 1 14 151 124 231 170
45 25 77 48 70 50 -31 10 -356 -183 -438 -261 -18 -17 -33 -25 -33 -18 0 25
158 169 255 232 166 108 281 144 327 102z m-1934 -142 l54 -39 -49 5 -48 4 28
-23 27 -24 -34 -2 c-64 -5 -166 46 -166 82 0 13 59 35 95 35 31 0 53 -9 93
-38z m2081 14 c13 -12 12 -17 -5 -36 -37 -41 -120 -73 -148 -57 -17 9 -17 11
0 29 9 10 23 19 31 19 7 0 13 5 13 11 0 7 -9 9 -22 5 -73 -20 -75 -20 -38 13
19 16 44 32 55 35 33 7 99 -4 114 -19z m-1884 -139 c33 -7 78 -21 100 -30 60
-26 177 -101 205 -132 23 -26 20 -25 -50 13 -131 71 -296 127 -276 95 4 -7 13
-12 20 -12 17 0 185 -83 211 -104 17 -14 11 -13 -35 2 -30 11 -95 32 -145 47
-177 55 -232 91 -190 121 23 17 82 17 160 0z m1698 -5 c5 -5 6 -14 2 -20 -11
-18 -94 -57 -180 -84 -44 -14 -118 -39 -165 -56 -69 -25 -80 -27 -60 -11 29
23 222 120 238 120 6 0 14 4 17 10 16 27 -184 -41 -284 -96 -75 -42 -64 -21
23 41 88 62 181 99 271 108 49 5 128 -2 138 -12z m-1945 -7 c36 -25 25 -34
-44 -34 -41 0 -63 -4 -59 -10 3 -5 24 -10 45 -10 31 0 130 -32 130 -42 0 -3
-140 -3 -185 0 -16 1 -45 11 -63 22 -28 18 -31 23 -22 41 25 45 151 66 198 33z
m1113 2 c119 -26 208 -85 251 -169 19 -38 19 -67 -2 -67 -5 0 -10 9 -10 19 0
10 -7 22 -16 25 -8 3 -13 10 -10 15 3 5 -3 20 -13 32 -18 22 -20 22 -26 6 -10
-24 -38 -2 -30 24 8 24 -34 38 -47 15 -10 -17 -48 -22 -48 -6 0 6 7 10 15 10
17 0 19 9 4 30 -8 13 -12 12 -26 -7 -17 -25 -35 -30 -32 -10 3 26 -2 37 -17
37 -12 0 -15 -7 -12 -24 3 -15 0 -27 -8 -30 -16 -6 -28 11 -29 39 0 32 -40 27
-40 -5 0 -23 -5 -26 -35 -21 -6 0 -8 12 -4 27 6 23 4 25 -17 22 -15 -2 -25
-12 -29 -28 -3 -14 -14 -26 -24 -28 -15 -3 -18 1 -13 18 3 13 0 23 -9 27 -20
8 -45 -17 -39 -38 4 -12 -1 -22 -14 -29 -18 -9 -21 -8 -18 12 3 32 -37 32 -41
1 -3 -19 -8 -21 -33 -16 -25 5 -29 2 -29 -16 0 -14 -9 -25 -25 -31 -17 -6 -27
-20 -32 -40 -4 -20 -9 -28 -15 -22 -28 28 55 150 121 178 150 66 225 77 352
50z m1042 1 c18 -8 38 -22 46 -31 13 -15 12 -20 -6 -37 -17 -17 -43 -23 -146
-33 -70 -7 -124 -10 -122 -8 14 14 125 52 152 52 17 0 35 5 38 10 7 11 1 12
-73 12 -47 -1 -52 1 -41 15 29 34 97 42 152 20z m-1928 -159 l40 -12 -85 -6
c-129 -10 -223 -44 -133 -49 53 -2 65 -8 37 -16 -10 -4 -28 -11 -39 -17 -31
-17 -84 -21 -116 -8 -39 17 -38 50 2 84 29 25 40 29 99 40 38 7 150 -2 195
-16z m1816 2 c90 -47 91 -105 1 -117 -31 -4 -50 1 -93 26 l-54 31 59 -6 c39
-5 57 -3 52 4 -9 15 -95 33 -198 41 l-93 7 65 17 c74 19 221 18 261 -3z
m-1548 -99 c43 -10 80 -21 83 -24 2 -2 -21 -7 -53 -11 -78 -9 -150 -31 -195
-61 -33 -22 -49 -25 -126 -25 -85 0 -152 13 -152 30 0 31 74 86 135 101 60 14
228 9 308 -10z m1348 4 c65 -23 119 -62 119 -85 0 -30 -38 -40 -156 -40 -95 0
-108 2 -145 26 -59 37 -116 55 -176 56 -29 1 -53 3 -53 4 0 9 81 36 130 43 96
15 234 12 281 -4z m-1187 -90 c17 -8 22 -13 10 -10 -26 6 -151 -19 -196 -40
-31 -14 -27 -14 72 -9 58 3 109 9 114 12 5 3 6 0 2 -7 -27 -42 -192 -82 -263
-62 -70 19 -69 66 2 101 84 41 189 47 259 15z m892 10 c62 -18 114 -67 98 -93
-19 -30 -56 -41 -121 -38 -59 4 -87 14 -173 63 -23 14 -18 14 52 9 42 -3 95
-12 118 -20 29 -10 40 -11 37 -3 -5 17 -113 58 -172 67 l-50 7 35 10 c51 16
119 15 176 -2z m-395 -74 c25 -15 72 -58 105 -95 32 -36 65 -66 72 -66 18 0
-41 81 -100 136 -44 41 -45 44 -22 44 35 0 78 -24 131 -73 77 -71 94 -129 47
-166 -18 -14 -41 -21 -72 -21 -69 0 -100 30 -166 160 -31 60 -52 110 -48 110
4 0 28 -13 53 -29z m-395 -44 c-64 -66 -94 -112 -82 -124 4 -5 22 10 39 32 56
70 151 155 174 155 21 0 19 -5 -24 -87 -75 -142 -106 -172 -180 -173 -45 0
-69 17 -79 55 -17 70 106 202 192 204 18 1 10 -11 -40 -62z m228 17 c3 -26 6
-87 6 -135 0 -72 3 -89 15 -89 13 0 15 22 15 135 0 151 8 165 53 96 67 -102
72 -208 12 -268 -28 -28 -40 -33 -82 -33 -41 0 -54 5 -75 28 -14 15 -31 37
-37 49 -16 31 -14 114 5 158 21 52 57 105 70 105 6 0 14 -21 18 -46z m910
-784 c-1 -43 -9 -67 -35 -112 -32 -54 -59 -79 -44 -40 17 43 28 102 22 109
-15 15 -40 -14 -93 -107 -33 -57 -54 -86 -54 -73 0 12 5 25 10 28 13 8 13 65
1 65 -14 0 -61 -63 -87 -118 -27 -55 -32 -32 -7 30 27 69 99 173 150 218 55
48 78 60 113 57 24 -2 25 -5 24 -57z m-1759 -34 c112 -41 182 -101 239 -207
35 -63 29 -73 -10 -17 -45 65 -209 188 -252 188 -3 0 25 -28 62 -61 66 -61
133 -145 123 -156 -3 -3 -27 15 -54 39 -69 63 -131 111 -183 141 -57 33 -127
49 -152 36 -34 -18 -20 20 15 41 45 28 129 26 212 -4z m885 -391 c0 -228 -1
-235 -20 -235 -19 0 -20 7 -20 235 0 228 1 235 20 235 19 0 20 -7 20 -235z
m-102 -67 c-3 -22 -8 -23 -135 -30 -73 -4 -156 -11 -185 -17 -52 -9 -73 -2
-65 24 7 19 159 41 315 44 71 1 73 0 70 -21z m362 7 c142 -9 175 -16 175 -40
0 -23 -8 -24 -140 -7 -49 7 -120 12 -157 12 -60 0 -68 2 -68 19 0 24 15 30 60
25 19 -2 78 -6 130 -9z m-994 -105 c51 -85 278 -122 734 -119 214 1 282 5 450
24 126 14 203 45 243 96 25 32 26 32 51 16 32 -22 33 -47 2 -76 -33 -31 -107
-57 -232 -80 -146 -27 -179 -30 -464 -37 -370 -9 -654 22 -782 87 -81 40 -94
63 -58 99 27 27 36 25 56 -10z m14 -195 c12 -14 6 -35 -10 -35 -18 0 -70 53
-70 71 0 18 1 18 34 -2 19 -11 40 -26 46 -34z m1480 33 c0 -16 -51 -68 -67
-68 -25 0 -13 38 20 58 38 24 47 26 47 10z m-1472 -173 c6 -25 -34 -18 -57 11
-11 15 -18 31 -15 36 8 12 68 -27 72 -47z m1462 41 c0 -17 -46 -56 -66 -56
-27 0 -14 36 19 53 41 20 47 20 47 3z m-472 -174 c6 -18 -102 -24 -375 -20
-247 3 -300 8 -289 26 7 12 660 5 664 -6z m-373 -118 c99 -3 219 -2 268 3 92
9 118 5 93 -16 -30 -25 -607 -24 -632 2 -16 16 11 28 50 22 22 -3 122 -8 221
-11z"/>
<path d="M618 3393 c-21 -8 -38 -19 -38 -23 0 -9 121 19 135 31 16 15 -58 9
-97 -8z"/>
<path d="M2206 3401 c6 -6 35 -14 65 -17 63 -5 41 9 -31 21 -33 5 -42 4 -34
-4z"/>
<path d="M9145 4226 c-34 -15 -80 -64 -90 -95 -6 -19 -6 -19 -40 1 -31 18 -81
26 -110 17 -5 -2 -24 5 -42 14 -40 21 -119 22 -166 2 -20 -8 -49 -31 -64 -50
-18 -22 -40 -37 -60 -41 -18 -3 -44 -17 -58 -30 -14 -13 -31 -24 -36 -24 -6 0
-24 -8 -40 -17 -37 -22 -63 -76 -55 -115 5 -26 3 -29 -14 -23 -69 22 -171 -11
-214 -69 -14 -17 -27 -52 -31 -78 -5 -33 -13 -49 -25 -53 -11 -3 -33 -22 -49
-41 -25 -28 -31 -44 -31 -80 0 -25 4 -53 10 -63 7 -15 1 -27 -34 -63 -47 -49
-58 -81 -46 -134 12 -50 34 -79 77 -99 21 -10 39 -19 41 -20 2 -1 -7 -19 -19
-39 -30 -52 -24 -144 14 -204 31 -49 109 -102 150 -102 23 0 31 -7 43 -35 14
-34 13 -38 -12 -81 -23 -39 -26 -53 -21 -96 15 -123 125 -197 273 -184 l72 7
37 -56 c40 -60 69 -85 98 -85 9 0 20 -8 23 -17 40 -129 128 -250 235 -324 22
-15 24 -24 23 -90 0 -41 -3 -94 -7 -119 -15 -122 -39 -279 -47 -315 -5 -22
-20 -110 -34 -195 -14 -85 -32 -194 -40 -242 -8 -48 -18 -105 -21 -125 -19
-128 -23 -73 -18 232 7 448 -16 655 -88 797 -37 72 -107 100 -149 58 -25 -25
-25 -60 -1 -136 33 -101 80 -276 91 -334 23 -119 39 -217 44 -270 13 -127 16
-210 9 -210 -4 0 -24 51 -43 113 -36 118 -152 362 -217 459 -115 171 -340 383
-576 541 -152 102 -358 187 -454 187 -121 0 -109 -129 40 -413 163 -312 347
-550 514 -665 99 -69 287 -142 443 -172 194 -38 284 -187 316 -523 7 -77 23
-107 59 -107 40 0 56 22 61 85 2 33 9 87 14 120 5 33 17 107 25 165 9 58 20
128 25 155 17 87 49 269 56 309 6 38 60 114 111 156 10 8 48 40 84 71 66 56
170 128 244 169 164 92 227 126 308 166 105 52 137 78 137 110 0 28 -35 54
-72 54 -66 0 -267 -96 -389 -187 -87 -64 -208 -171 -303 -268 l-79 -80 7 40
c6 32 46 241 61 318 2 9 11 44 19 78 9 33 16 62 16 65 0 2 18 13 41 25 90 45
178 155 219 271 14 41 24 54 47 61 41 14 93 55 116 94 19 32 22 34 62 29 73
-10 118 22 159 116 14 31 33 59 43 61 10 3 30 8 44 11 59 13 110 94 111 176 0
47 0 48 32 48 65 0 135 45 158 102 6 14 12 48 14 75 2 28 7 68 10 91 4 29 2
44 -9 52 -13 11 -13 17 -2 40 25 52 23 88 -10 136 -13 20 -20 36 -14 36 9 0
39 59 39 77 0 4 -10 24 -22 43 -14 23 -21 48 -19 75 3 50 -36 100 -93 119 -39
13 -58 13 -123 0 l-32 -6 9 33 c17 57 12 102 -15 142 -14 20 -36 39 -49 43
-20 5 -24 13 -28 58 -7 86 -63 139 -157 152 -33 4 -57 14 -72 30 -12 13 -38
27 -58 30 -20 4 -48 20 -62 36 -22 23 -35 28 -71 28 -23 -1 -54 -7 -68 -15
-22 -12 -27 -11 -42 2 -24 21 -106 27 -143 9z m118 -66 c14 -11 34 -20 45 -20
10 0 31 9 45 20 14 11 32 20 40 20 16 0 41 -26 50 -52 4 -12 16 -17 39 -16 48
2 71 -8 88 -39 14 -25 20 -27 68 -24 50 2 55 0 88 -35 47 -49 45 -91 -5 -116
-18 -9 -51 -31 -73 -48 -37 -30 -38 -31 -34 -8 7 35 17 58 27 58 10 0 12 50 3
74 -3 9 -10 14 -15 11 -4 -3 -5 -13 -2 -23 6 -15 5 -15 -10 -3 -15 12 -20 11
-37 -4 -11 -10 -20 -24 -20 -31 0 -7 -5 -16 -12 -20 -8 -5 -10 8 -5 49 6 57 1
67 -21 45 -9 -9 -12 -6 -12 14 0 47 -32 42 -41 -6 -7 -36 -26 -28 -33 14 -3
22 -10 40 -14 40 -4 0 -15 -18 -25 -40 -23 -50 -36 -51 -31 -2 9 68 -28 84
-40 17 -9 -45 -26 -46 -26 -1 0 34 -21 63 -39 52 -5 -4 -12 -20 -16 -36 -4
-17 -11 -30 -16 -30 -6 0 -7 5 -4 10 10 17 -6 91 -18 87 -7 -2 -19 -25 -28
-51 l-16 -49 -7 47 c-6 40 -10 45 -22 35 -8 -6 -14 -22 -14 -35 0 -12 -4 -25
-9 -28 -11 -7 -22 19 -17 37 3 6 7 25 10 40 13 58 109 86 159 47z m-410 -60
c27 -21 62 -26 72 -10 11 18 43 10 64 -17 30 -38 36 -69 18 -106 -14 -28 -17
-29 -22 -12 -15 46 -35 85 -45 85 -18 0 -24 -31 -11 -52 7 -11 10 -23 7 -26
-3 -3 -6 0 -6 7 0 8 -6 11 -16 7 -11 -4 -20 5 -31 32 -15 36 -16 36 -24 13 -6
-16 -5 -32 4 -51 12 -22 12 -27 0 -27 -7 0 -11 2 -9 5 2 2 -3 12 -12 22 -9 10
-25 30 -35 44 -29 41 -38 32 -33 -31 l6 -58 -26 43 c-34 57 -48 55 -41 -8 7
-57 0 -62 -28 -20 -19 29 -43 45 -52 36 -3 -3 3 -28 12 -56 16 -50 15 -80 -4
-80 -5 0 -13 12 -19 28 -5 15 -19 38 -30 52 l-21 25 -1 -23 c0 -12 6 -38 14
-57 21 -50 7 -51 -24 -1 -16 24 -33 47 -39 50 -24 15 -29 -6 -10 -49 18 -40
18 -47 5 -66 -14 -21 -15 -20 -45 27 -17 27 -31 61 -31 76 0 31 41 68 75 68
12 0 29 10 38 23 11 17 24 22 61 22 38 0 46 3 46 18 0 51 50 86 121 87 32 0
54 -6 72 -20z m301 -162 c9 -12 16 -30 16 -40 0 -24 7 -23 42 7 41 34 74 33
93 -5 21 -40 19 -50 -10 -50 -18 0 -30 -10 -45 -37 -19 -34 -22 -23 -6 17 3 8
1 22 -4 30 -9 13 -15 9 -40 -20 -29 -33 -30 -34 -30 -10 l-1 25 -14 -25 c-13
-23 -14 -23 -15 -4 0 21 -34 64 -50 64 -6 0 -10 -12 -10 -26 0 -37 -24 -25
-28 15 -7 70 66 111 102 59z m-195 -42 c30 -16 61 -68 56 -95 -2 -9 -4 -20 -4
-24 -2 -17 -24 7 -37 40 -15 35 -34 37 -34 2 0 -10 -5 -19 -11 -19 -5 0 -8 4
-4 9 3 5 -5 13 -17 17 -13 4 -24 2 -26 -5 -7 -20 -22 -12 -22 12 1 31 33 67
68 76 2 1 16 -6 31 -13z m529 2 c7 -7 12 -27 12 -46 0 -25 9 -41 36 -68 32
-29 36 -38 30 -66 -6 -31 -41 -78 -58 -78 -5 0 -6 15 -3 34 4 19 4 44 0 56
l-7 22 -25 -24 -26 -23 6 65 c7 73 -1 95 -31 86 -14 -5 -19 -13 -16 -29 2 -13
1 -16 -2 -7 -4 8 -13 19 -20 23 -19 11 -18 27 3 49 19 21 82 25 101 6z m-691
-26 c7 -4 19 -26 28 -47 12 -30 12 -36 2 -22 -16 19 -62 23 -73 5 -5 -8 -11
-6 -20 7 -25 34 26 81 63 57z m1006 -23 c58 -30 72 -89 36 -148 -19 -31 -19
-36 -5 -46 17 -13 46 -75 46 -99 0 -8 -23 -28 -50 -45 -56 -35 -82 -41 -58
-13 9 9 18 26 21 37 3 11 8 30 12 43 8 27 -10 30 -37 5 -24 -22 -23 -3 3 49
16 31 18 43 9 52 -9 8 -16 5 -28 -12 -53 -73 -52 -74 -31 22 10 49 17 91 15
93 -2 2 -21 -18 -42 -44 -21 -26 -41 -52 -45 -57 -4 -4 0 19 8 53 25 99 83
142 146 110z m-1413 -58 c32 -20 47 -38 66 -81 27 -61 12 -67 -38 -14 -26 26
-49 46 -52 44 -2 -3 6 -27 18 -53 13 -26 20 -47 17 -47 -4 0 -25 18 -46 40
-63 64 -86 50 -40 -25 36 -59 30 -72 -15 -31 -38 34 -70 47 -70 28 0 -5 9 -17
20 -27 20 -18 27 -45 13 -45 -5 0 -21 9 -38 20 -16 11 -33 20 -37 20 -15 0 -8
-26 12 -48 23 -25 22 -26 -13 -13 -37 14 -54 -2 -25 -25 28 -22 34 -39 13 -39
-15 0 -17 -9 -7 -34 3 -8 0 -27 -5 -42 -7 -16 -7 -29 -2 -29 5 0 9 -7 9 -15 0
-11 -9 -14 -31 -13 -48 4 -48 -20 0 -39 52 -20 52 -33 0 -33 -34 0 -39 -2 -30
-14 6 -8 31 -19 54 -25 80 -21 78 -33 -4 -28 -92 6 -133 25 -148 68 -21 60 44
128 110 114 33 -8 36 0 11 36 -9 14 -27 40 -38 58 -33 50 -15 94 51 125 28 14
33 22 39 65 14 109 116 159 206 102z m320 -12 c0 -28 -19 -61 -31 -54 -13 9
-11 49 3 63 18 18 28 15 28 -9z m649 2 c31 -31 38 -88 14 -119 -26 -35 -37
-31 -43 15 -6 43 -37 60 -47 25 -6 -26 -29 -36 -37 -16 -13 33 41 114 76 114
10 0 27 -9 37 -19z m-526 -49 c16 -14 21 -14 48 2 25 15 32 16 46 4 25 -21 43
-70 32 -90 -10 -18 -30 -25 -28 -10 7 43 -24 59 -37 20 -7 -23 -7 -22 -16 5
-5 15 -14 27 -19 27 -5 0 -15 -12 -21 -27 l-11 -28 -10 33 c-12 40 -22 41 -36
1 -14 -41 -35 -28 -28 19 7 39 34 75 51 65 6 -3 19 -13 29 -21z m-213 5 c21
-17 48 -52 33 -44 -17 11 -27 -11 -33 -73 l-5 -55 -23 39 c-32 54 -45 30 -21
-37 28 -76 22 -80 -13 -12 -34 67 -39 131 -13 172 17 25 51 30 75 10z m522 -4
c8 -10 18 -26 21 -35 4 -11 12 -15 22 -11 13 5 16 0 13 -23 -2 -22 -8 -29 -24
-29 -12 0 -31 -8 -42 -18 -18 -16 -20 -16 -26 -2 -3 9 -6 28 -6 41 0 15 -6 24
-15 24 -17 0 -20 -7 -30 -63 -6 -38 -7 -39 -27 -20 -16 14 -19 27 -15 60 7 65
30 93 76 93 24 0 43 -7 53 -17z m-442 -103 c17 -9 19 -21 18 -94 -1 -67 -4
-83 -15 -79 -32 13 -60 113 -43 157 11 29 13 30 40 16z m1351 -7 c34 -20 44
-48 35 -96 -5 -26 -2 -38 14 -52 31 -28 26 -64 -10 -78 -21 -8 -30 -18 -30
-34 0 -13 5 -23 10 -23 6 0 22 -11 35 -25 32 -31 32 -72 0 -115 l-24 -33 24
-23 c29 -27 31 -37 9 -54 -12 -10 -14 -25 -9 -65 4 -31 3 -61 -4 -72 -13 -25
-69 -53 -104 -53 -25 0 -92 48 -72 51 6 1 24 2 41 4 46 3 84 14 84 24 0 5 -21
12 -46 16 -26 3 -56 10 -68 15 -24 9 -25 8 73 27 59 11 63 29 10 40 l-43 8 47
25 c50 27 57 47 14 42 -24 -3 -25 -2 -14 22 7 14 20 29 30 32 25 8 17 38 -11
42 -27 4 -29 22 -2 22 11 0 20 5 20 10 0 6 -12 10 -26 10 l-26 0 22 18 c28 22
19 42 -18 42 l-27 1 25 14 c19 11 21 14 8 15 -24 0 -23 3 14 40 30 31 31 33
12 44 -10 6 -19 18 -19 26 0 9 -10 15 -25 16 -27 0 -30 23 -5 36 7 5 11 17 8
29 -5 18 -11 20 -39 14 -29 -5 -34 -3 -34 13 0 39 73 53 121 25z m-421 -12
c15 -29 13 -50 -12 -108 -33 -76 -50 -77 -44 -3 5 63 -3 74 -28 38 -22 -31
-29 -17 -11 24 27 66 73 89 95 49z m-157 -31 c4 -14 -3 -26 -24 -41 l-29 -20
0 25 c0 38 -20 43 -47 12 -24 -28 -32 -14 -9 16 36 48 97 53 109 8z m-173 0
c20 -20 28 -70 11 -70 -5 0 -14 7 -21 15 -7 8 -21 15 -30 15 -25 0 -50 10 -50
20 0 16 31 40 51 40 10 0 28 -9 39 -20z m-443 -45 l36 -24 23 24 c44 48 84 27
108 -54 19 -63 19 -71 7 -71 -5 0 -21 20 -35 45 -15 25 -29 45 -32 45 -3 0
-10 -14 -16 -30 l-10 -30 -30 25 c-23 19 -41 25 -79 25 -55 0 -68 14 -49 49
14 27 33 26 77 -4z m357 -33 c20 -12 35 -34 47 -67 15 -42 19 -47 24 -28 4 12
25 34 47 49 37 26 41 27 53 11 16 -23 31 -21 49 4 21 30 50 18 42 -17 -8 -31
-35 -74 -47 -74 -4 0 -23 9 -42 20 l-33 20 -30 -33 c-16 -19 -35 -32 -42 -29
-6 2 -12 -2 -12 -9 0 -19 -16 0 -39 46 l-20 40 -18 -40 -18 -40 -3 48 c-3 51
-17 61 -32 22 -11 -29 -35 -33 -49 -7 -7 14 -5 30 11 60 17 36 25 42 52 42 17
0 44 -8 60 -18z m-834 -20 l25 -17 -23 -3 c-31 -5 -23 -22 21 -45 37 -19 53
-45 20 -33 -9 4 -37 10 -61 13 -60 8 -53 -16 9 -34 53 -16 149 -63 149 -74 0
-4 -12 -2 -27 6 -15 8 -31 11 -36 8 -12 -7 29 -49 64 -63 47 -20 33 -31 -16
-12 -51 19 -67 11 -39 -19 38 -43 69 -51 162 -44 124 10 157 -5 214 -95 55
-89 75 -98 155 -71 68 23 91 20 147 -21 36 -26 44 -28 100 -22 43 4 74 1 108
-10 34 -12 66 -15 120 -10 93 7 133 21 117 40 -6 8 -21 14 -33 15 -11 0 -1 6
23 12 25 7 47 18 49 26 4 11 -5 13 -43 8 -27 -4 -45 -4 -42 0 4 4 26 9 49 12
47 7 65 31 23 31 -15 0 -24 4 -20 10 3 6 26 10 50 10 24 0 45 4 47 9 2 6 14
12 28 15 71 13 114 26 124 36 8 9 -12 11 -89 7 -55 -3 -91 -4 -80 -1 30 8 75
25 125 48 l45 21 -65 5 -65 5 57 19 c31 11 55 23 52 28 -3 5 -9 6 -13 4 -4 -3
-21 -2 -37 3 l-29 8 40 21 c22 12 36 21 31 22 -6 0 -1 7 10 15 19 14 19 14 -3
15 -12 0 -34 -5 -50 -11 l-28 -10 25 26 c41 44 116 95 139 95 44 0 37 -31 -18
-82 -44 -40 -49 -49 -34 -54 45 -14 82 -38 87 -58 20 -74 -11 -154 -71 -180
-21 -9 -45 -21 -54 -26 -9 -5 -33 -12 -53 -16 -29 -5 -41 -14 -56 -44 -14 -27
-31 -42 -60 -54 -23 -9 -38 -21 -35 -26 4 -6 -7 -24 -23 -40 -30 -29 -32 -30
-119 -27 -58 2 -99 9 -120 20 -31 17 -56 20 -142 17 -34 -1 -53 5 -87 29 -45
33 -67 37 -111 20 -38 -14 -97 -14 -132 0 -15 7 -49 41 -74 75 -36 51 -55 67
-92 81 -40 16 -52 17 -93 5 -26 -7 -61 -13 -78 -13 -47 -1 -100 37 -126 91
-19 40 -33 53 -82 77 -69 35 -95 66 -103 123 -12 92 67 137 147 84z m536 -133
c31 -53 60 -63 98 -34 24 18 65 19 86 2 8 -7 31 -32 50 -56 l34 -44 22 26 c27
32 61 42 96 28 22 -8 28 -6 46 19 25 33 64 44 111 30 28 -8 38 -7 53 7 10 9
18 24 18 34 0 23 44 36 65 19 8 -7 15 -25 15 -41 0 -22 -8 -34 -37 -53 -21
-13 -55 -43 -75 -65 l-38 -42 0 36 c0 19 -2 35 -4 35 -16 0 -36 -14 -36 -25 0
-7 -7 -18 -15 -25 -14 -11 -14 -10 -5 14 14 37 13 46 -5 46 -8 0 -29 -28 -46
-62 l-31 -62 -14 32 c-7 18 -20 35 -29 38 -20 8 -54 -22 -72 -65 -16 -38 -20
-36 -48 22 -24 49 -42 57 -51 23 -9 -37 -22 -32 -34 14 -6 22 -12 40 -15 40
-2 0 -10 3 -19 6 -13 5 -16 -3 -16 -52 l0 -59 -28 54 c-32 64 -57 80 -50 32 8
-57 -10 -36 -48 54 l-16 40 -12 -34 -12 -33 -19 41 c-17 38 -50 69 -61 58 -2
-2 0 -28 6 -57 6 -29 8 -55 6 -57 -2 -2 -13 11 -24 29 -26 41 -72 86 -72 69 0
-7 5 -32 11 -57 14 -55 7 -65 -24 -33 -48 51 -61 123 -27 154 18 16 22 16 59
2 37 -15 41 -15 63 2 13 10 30 20 38 23 29 10 77 -24 106 -73z m-668 -211 c-3
-7 -18 -16 -36 -20 -56 -15 -47 -28 19 -28 70 0 70 -5 -4 -36 -51 -22 -71 -51
-32 -47 11 2 54 5 95 8 72 5 74 5 39 -9 -70 -27 -103 -48 -89 -56 6 -4 28 -4
49 1 20 5 49 9 65 9 27 0 23 -4 -37 -40 -76 -46 -101 -49 -148 -17 -60 41 -95
133 -72 192 13 36 162 78 151 43z m438 -177 c-3 -5 -22 -16 -42 -26 -50 -24
-31 -35 44 -26 49 6 62 4 62 -6 0 -7 15 -20 33 -27 59 -26 82 -37 64 -31 -18
5 -36 -20 -23 -32 3 -4 34 -7 69 -8 34 -1 74 -7 89 -13 33 -14 127 -139 128
-170 0 -32 59 -59 77 -35 11 14 16 9 36 -38 14 -30 27 -64 31 -76 4 -14 15
-23 27 -23 23 0 23 -4 -1 98 -11 46 -20 86 -20 90 0 16 56 -72 92 -146 30 -62
43 -81 52 -72 8 8 2 36 -22 106 -19 53 -32 98 -29 100 3 3 28 -27 56 -65 28
-39 56 -71 61 -71 16 0 12 27 -10 62 -32 52 -23 56 24 9 60 -59 76 -45 30 27
-31 48 -33 53 -13 39 74 -53 100 -69 105 -64 10 9 -23 61 -70 110 -25 26 -43
47 -40 47 8 0 93 -59 141 -97 76 -62 59 -2 -26 90 l-26 28 28 -10 c15 -6 41
-18 58 -27 26 -13 33 -14 40 -2 13 20 12 23 -31 62 -51 46 -31 47 62 4 37 -17
71 -28 74 -25 11 10 -37 64 -78 87 -21 12 -37 24 -35 26 2 3 37 -4 78 -15 40
-12 75 -19 77 -16 11 11 -11 37 -55 65 -26 16 -45 30 -40 30 17 0 132 -51 139
-63 13 -21 9 -107 -7 -138 -15 -28 -43 -45 -89 -55 -30 -6 -57 -35 -84 -93
-32 -67 -71 -94 -114 -79 -40 14 -69 0 -104 -53 -16 -23 -41 -51 -55 -62 -29
-21 -103 -33 -143 -23 -40 10 -87 57 -112 111 -17 37 -34 57 -66 76 -33 19
-46 35 -58 70 -15 44 -71 128 -94 141 -6 3 -37 0 -68 -9 -73 -21 -101 -12
-137 41 -37 53 -46 57 -99 43 -55 -15 -91 -1 -121 46 -21 32 -30 37 -60 36
-31 0 -41 -7 -74 -50 -31 -41 -43 -50 -64 -47 -14 2 -32 13 -40 25 -14 21 -11
24 57 68 70 47 72 47 148 46 42 0 93 3 112 8 48 12 62 13 56 2z m-297 -238
c-16 -20 -39 -60 -39 -68 0 -8 47 13 91 41 l43 27 -35 -42 c-66 -81 -73 -91
-66 -97 9 -9 24 0 102 61 38 30 73 55 77 55 5 0 -10 -27 -33 -60 -62 -91 -49
-103 39 -35 39 31 72 54 72 51 0 -4 -13 -25 -30 -47 -16 -23 -27 -46 -24 -51
6 -9 10 -7 73 40 l31 23 -9 -25 c-6 -13 -16 -34 -23 -45 -10 -16 -10 -23 -1
-32 9 -9 23 -2 60 34 26 25 48 45 50 43 2 -1 -8 -31 -22 -66 -45 -115 -24
-137 39 -40 41 65 52 73 42 36 -7 -27 3 -86 13 -86 4 0 17 19 28 43 l22 42 2
-70 c1 -38 1 -78 1 -88 -4 -38 22 -9 34 37 20 79 34 80 34 3 0 -40 4 -67 11
-67 5 0 7 -4 4 -10 -3 -5 -3 -10 0 -10 10 0 36 70 30 80 -4 6 -1 10 4 10 6 0
11 9 11 21 0 11 5 17 10 14 6 -3 10 -24 10 -45 0 -51 18 -61 22 -13 4 41 9 34
28 -40 13 -50 33 -58 38 -16 6 56 13 74 23 58 22 -35 3 -131 -28 -143 -8 -3
-32 3 -54 15 l-40 20 -43 -22 c-39 -19 -47 -20 -72 -8 -18 9 -38 32 -52 63
l-23 48 -65 -7 c-76 -8 -90 0 -124 70 -30 62 -73 80 -155 63 -71 -14 -123 0
-170 47 -68 69 -54 162 30 193 43 15 50 14 34 -5z m-805 -520 c117 -52 286
-163 286 -189 0 -23 -13 -17 -101 41 -100 67 -277 155 -309 155 -12 0 -29 -8
-36 -17 -17 -22 -19 -1 -3 29 9 18 17 20 56 14 25 -3 73 -18 107 -33z m684
-563 c27 -33 59 -79 71 -101 20 -36 21 -39 5 -28 -27 17 -148 156 -152 174 -7
34 30 11 76 -45z m-194 -15 c97 -73 240 -208 309 -293 101 -123 74 -105 -133
89 -63 59 -150 136 -192 170 -71 58 -95 89 -67 89 6 0 43 -25 83 -55z m-187
-87 c80 -30 268 -125 282 -142 14 -17 -184 59 -279 106 -35 18 -66 39 -68 46
-5 16 -4 16 65 -10z m228 -217 c76 -24 55 -25 -61 -2 -94 19 -114 26 -114 41
0 9 82 -9 175 -39z"/>
<path d="M5089 1881 l-24 -19 3 -554 c2 -355 -1 -591 -8 -658 -6 -58 -14 -128
-16 -156 -6 -58 10 -80 50 -70 18 4 29 20 46 66 24 65 81 137 133 168 18 11
86 35 152 53 197 53 309 113 416 220 113 113 240 305 310 469 82 193 100 294
57 324 -48 34 -160 14 -303 -54 -301 -144 -542 -419 -707 -810 -23 -52 -43
-97 -46 -100 -2 -3 -2 22 2 55 44 422 57 808 31 953 -15 90 -26 117 -51 126
-21 8 -18 9 -45 -13z m626 -621 c6 -10 -32 -55 -152 -177 -67 -67 -83 -81 -83
-68 0 8 130 168 173 213 43 44 52 49 62 32z m-185 -26 c0 -16 -134 -257 -137
-247 -4 12 70 193 94 230 14 21 43 32 43 17z m195 -234 c-5 -9 -160 -67 -197
-74 -13 -2 -31 -7 -40 -11 -10 -4 -18 -4 -18 -1 0 4 35 23 78 43 111 51 195
72 177 43z"/>
<path d="M4094 1699 c-89 -25 -172 -71 -241 -134 -116 -105 -178 -283 -153
-438 22 -140 124 -277 252 -339 75 -37 100 -43 423 -104 105 -19 246 -46 314
-60 162 -31 234 -32 255 -2 9 12 16 26 16 31 0 11 -79 87 -91 87 -23 0 -30 43
-20 128 27 218 10 357 -60 510 -115 249 -433 396 -695 321z m86 -101 c-26 -46
-34 -54 -69 -60 -48 -8 -81 -25 -81 -40 0 -7 -5 -6 -15 2 -21 17 -30 77 -15
95 16 20 125 54 173 54 l37 1 -30 -52z m155 32 c-3 -5 -13 -10 -21 -10 -9 0
-38 -23 -65 -51 -48 -49 -64 -47 -38 4 25 47 51 67 91 67 24 0 37 -4 33 -10z
m102 -74 c64 -58 100 -125 113 -215 28 -179 -21 -333 -142 -448 -69 -65 -146
-104 -218 -110 -49 -5 -56 -3 -57 13 0 11 -13 55 -28 99 -38 112 -44 135 -36
135 3 0 22 -42 41 -92 37 -102 56 -138 74 -138 23 0 115 49 164 87 27 21 62
57 77 81 l28 43 -30 37 c-16 20 -51 51 -77 69 -33 23 -42 33 -29 33 26 0 110
-56 130 -87 14 -21 18 -22 25 -9 35 62 50 219 28 283 -16 45 -96 62 -180 39
l-25 -7 25 15 c16 10 51 15 94 16 l69 0 -19 21 c-50 55 -157 90 -186 61 -26
-26 -28 -10 -4 30 21 35 85 88 107 88 4 0 29 -20 56 -44z m103 9 c65 -39 126
-97 154 -145 l18 -32 -23 15 c-13 8 -42 21 -65 27 -32 10 -45 21 -66 58 -15
26 -41 62 -58 80 -41 41 -32 41 40 -3z m-585 -45 c4 -16 11 -32 16 -35 17 -11
9 -35 -11 -35 -11 0 -29 -9 -41 -21 -20 -20 -20 -21 -2 -34 11 -9 13 -14 5
-15 -13 0 -104 21 -110 25 -8 6 48 91 76 116 42 37 59 37 67 -1z m215 -115
c79 -41 101 -139 54 -234 -50 -100 -148 -134 -269 -93 -45 16 -55 22 -42 28
10 4 36 2 56 -5 113 -33 219 18 237 116 7 39 -5 55 -70 88 -40 21 -54 19 -92
-10 -18 -14 -40 -25 -49 -25 -14 0 -16 6 -10 36 9 49 29 79 68 98 41 20 80 20
117 1z m507 -17 c40 -11 49 -18 65 -55 16 -36 27 -81 43 -173 3 -14 8 -38 11
-53 l7 -28 -64 38 c-35 22 -72 42 -81 46 -18 7 -25 27 -9 27 5 0 24 -6 42 -14
19 -7 45 -17 59 -21 l25 -7 -25 27 c-14 15 -48 40 -77 57 -99 56 -68 73 41 23
l48 -23 -33 35 c-19 19 -50 44 -69 55 -40 24 -60 46 -60 65 0 16 17 16 77 1z
m-822 -28 c23 -9 25 -14 24 -60 -1 -30 -7 -50 -14 -50 -6 0 -32 -13 -58 -30
l-47 -30 0 46 c0 53 21 108 47 123 22 13 17 13 48 1z m30 -161 c-4 -5 -13 -9
-22 -9 -9 0 -33 -18 -55 -40 -23 -25 -38 -35 -38 -26 0 23 58 84 83 88 27 5
39 0 32 -13z m844 -151 c28 -17 49 -33 47 -35 -6 -6 -115 50 -116 60 0 14 19
7 69 -25z m-12 -135 c29 -15 53 -30 53 -35 0 -4 -2 -8 -4 -8 -10 0 -156 71
-156 76 0 10 51 -6 107 -33z m35 -186 c103 -41 140 -67 95 -67 -26 0 -143 41
-176 62 -18 11 -38 53 -23 46 4 -2 51 -20 104 -41z"/>
</g>
</svg>
