<?xml version="1.0" standalone="no"?>
<!DOCTYPE svg PUBLIC "-//W3C//DTD SVG 20010904//EN"
 "http://www.w3.org/TR/2001/REC-SVG-20010904/DTD/svg10.dtd">
<svg version="1.0" xmlns="http://www.w3.org/2000/svg"
 width="1024.000000pt" height="1024.000000pt" viewBox="0 0 1024.000000 1024.000000"
 preserveAspectRatio="xMidYMid meet">

<g transform="translate(0.000000,1024.000000) scale(0.100000,-0.100000)"
fill="#000000" stroke="none">
<path d="M1564 9681 c-24 -11 -64 -58 -64 -75 0 -7 -17 -20 -39 -29 -30 -14
-43 -28 -59 -65 -34 -82 -45 -149 -38 -236 10 -115 22 -158 77 -274 46 -95 60
-113 180 -237 146 -151 166 -184 198 -334 27 -122 62 -195 145 -304 76 -99
121 -187 112 -220 -3 -12 -28 -39 -55 -60 -41 -30 -58 -53 -90 -119 -21 -46
-44 -107 -51 -135 -7 -29 -13 -53 -15 -53 -2 0 -1 49 2 109 10 185 -29 308
-132 420 -30 32 -55 66 -55 75 0 9 -7 30 -15 46 -13 24 -22 30 -49 30 -45 0
-67 -28 -78 -96 -6 -39 -18 -69 -38 -94 -77 -97 -114 -223 -108 -367 4 -95 -1
-105 -21 -43 -6 19 -33 73 -61 120 -75 127 -71 182 28 351 100 173 126 273
120 455 -4 135 -23 191 -93 274 -59 71 -63 80 -85 190 -43 212 -114 279 -287
271 -43 -2 -87 -41 -116 -105 -28 -60 -51 -79 -160 -129 -108 -50 -180 -125
-241 -249 -114 -234 -101 -493 34 -668 79 -101 82 -106 102 -181 32 -121 60
-165 188 -290 l117 -116 -102 -12 -102 -11 -51 33 c-91 62 -211 58 -267 -7
-17 -21 -39 -36 -52 -36 -28 0 -83 -46 -83 -70 0 -10 -14 -32 -30 -48 -20 -20
-30 -40 -30 -60 0 -16 -6 -32 -14 -35 -25 -10 -26 -46 -2 -74 19 -22 31 -26
77 -26 66 0 134 28 244 99 153 99 215 122 350 131 98 6 173 -9 230 -47 36 -24
26 -25 -62 -4 -83 20 -194 14 -303 -17 -118 -32 -216 -100 -316 -217 -166
-194 -229 -434 -289 -1093 -31 -342 -32 -430 -5 -502 33 -87 92 -128 156 -107
56 19 74 52 74 134 0 108 14 124 165 196 147 71 215 131 267 238 27 55 34 80
36 148 5 98 -8 149 -77 302 -68 151 -84 215 -79 332 3 81 8 105 35 162 38 80
107 153 178 188 41 20 65 25 135 25 75 0 93 -4 153 -32 71 -34 163 -106 197
-154 l20 -27 -50 -148 c-53 -161 -96 -359 -105 -494 -6 -82 -8 -86 -35 -98
-35 -16 -42 -37 -70 -197 -55 -322 -31 -537 85 -764 66 -129 148 -239 290
-390 59 -63 114 -130 121 -148 11 -26 14 -124 14 -480 l0 -448 -47 70 c-149
224 -355 428 -568 562 -88 56 -247 126 -295 131 -50 5 -80 -13 -80 -47 0 -9
54 -68 120 -129 196 -184 352 -393 468 -627 69 -140 99 -217 147 -380 19 -65
43 -127 52 -137 24 -27 69 -23 89 7 15 24 15 30 -1 98 -70 289 -237 625 -417
837 -93 110 -21 55 88 -67 188 -212 367 -548 410 -770 13 -69 13 -80 -6 -153
-64 -251 -93 -545 -94 -944 l-1 -319 27 -20 c38 -28 75 -15 105 38 22 39 23
49 23 310 1 451 23 672 97 945 34 126 71 233 59 170 -12 -65 -47 -284 -57
-360 -15 -114 -24 -1069 -11 -1082 7 -7 18 -1 34 17 136 162 216 237 328 310
221 144 528 219 763 185 48 -6 87 -15 87 -19 0 -3 -54 -20 -119 -38 -160 -43
-308 -102 -419 -167 -201 -119 -492 -372 -492 -428 0 -51 30 -52 100 -3 148
105 300 155 464 155 114 0 181 -15 273 -60 139 -69 225 -187 261 -359 14 -69
22 -87 45 -104 l27 -21 28 21 c37 27 38 63 7 179 -79 300 -296 488 -590 512
l-80 7 55 31 c121 70 325 136 530 174 63 12 121 26 128 32 18 15 15 74 -5 94
-26 25 -108 61 -188 81 -53 13 -111 17 -240 17 -150 0 -182 -3 -275 -26 -58
-15 -141 -40 -185 -57 -44 -17 -81 -31 -83 -31 -6 0 83 127 171 245 361 481
791 914 1227 1237 127 93 291 194 440 269 156 78 179 101 144 140 -26 29 -79
22 -249 -35 -262 -88 -535 -228 -792 -407 -475 -331 -857 -735 -1103 -1164
-35 -60 -68 -115 -74 -122 -8 -9 -12 77 -14 305 -1 174 -6 387 -12 472 l-9
155 103 210 c237 479 664 1116 964 1437 39 43 72 83 72 91 0 26 -31 57 -58 57
-89 0 -469 -348 -707 -645 -131 -165 -294 -427 -431 -695 l-49 -95 -3 660 c-1
363 0 670 3 682 3 12 51 82 106 155 116 154 178 271 216 414 24 90 26 117 27
289 1 141 -4 217 -17 295 -30 177 -67 339 -103 459 -40 132 -41 126 38 218
219 257 463 299 649 114 103 -104 155 -256 146 -426 -4 -65 -17 -129 -47 -230
-54 -181 -60 -258 -30 -356 19 -65 29 -80 88 -139 56 -55 82 -72 158 -103 127
-52 154 -86 154 -194 0 -49 4 -59 33 -88 45 -45 81 -53 126 -29 51 27 71 73
71 165 0 157 -86 680 -161 984 -94 375 -216 563 -439 679 -93 48 -151 61 -265
61 -90 0 -168 -14 -240 -41 -17 -7 -18 -6 -7 8 28 34 130 69 220 75 117 7 189
-11 348 -89 106 -51 139 -63 189 -66 47 -2 67 1 93 17 27 18 32 26 32 61 0 30
-7 47 -25 65 -13 14 -29 25 -35 25 -5 0 -10 11 -10 25 0 15 -10 31 -26 42 -25
17 -48 39 -79 76 -10 11 -30 17 -61 17 -34 0 -54 6 -74 24 -65 54 -180 37
-253 -38 -38 -39 -47 -44 -104 -49 -35 -4 -63 -4 -63 0 0 3 20 27 44 53 60 64
87 120 97 204 14 116 17 122 101 213 98 107 130 154 173 246 51 111 68 207 62
345 -6 140 -23 207 -82 328 -180 368 -654 643 -1135 660 -74 2 -145 0 -156 -5z
m129 -142 c38 -28 67 -53 63 -56 -7 -7 -144 78 -150 94 -10 25 20 12 87 -38z
m-90 -93 c45 -29 98 -61 117 -71 61 -32 12 -28 -56 4 -71 33 -164 97 -164 112
0 18 23 8 103 -45z m598 -33 c-9 -15 -10 -13 -11 13 0 17 3 34 8 38 11 12 14
-32 3 -51z m145 -16 c6 -15 -35 -131 -43 -123 -3 3 0 35 7 71 12 62 25 81 36
52z m-830 -68 c25 -17 82 -51 127 -75 64 -35 74 -44 47 -39 -76 15 -230 106
-230 136 0 14 9 11 56 -22z m964 -31 c0 -23 -55 -128 -66 -128 -10 0 3 50 25
103 22 50 41 62 41 25z m-365 -137 c96 -145 195 -398 232 -592 13 -73 17 -146
17 -329 0 -270 -13 -358 -85 -548 -56 -150 -113 -247 -273 -462 -105 -142 -95
-92 28 138 125 235 155 301 194 424 86 267 90 637 12 949 -31 121 -97 304
-145 400 -25 49 -45 91 -45 94 0 15 22 -11 65 -74z m485 0 c-11 -14 -35 -44
-55 -66 l-36 -40 42 84 c38 76 43 82 55 66 11 -15 10 -22 -6 -44z m-1480 -203
c-12 -57 -48 -175 -81 -262 -90 -244 -113 -344 -113 -501 0 -246 62 -396 275
-659 187 -233 277 -365 264 -387 -4 -5 -10 -9 -14 -7 -5 2 -48 50 -96 108 -49
58 -125 146 -170 195 -222 248 -304 408 -335 656 -22 181 15 344 143 630 69
154 110 273 123 354 l8 50 9 -37 c7 -29 4 -63 -13 -140z m1590 109 c0 -16 -86
-100 -119 -117 l-24 -13 19 25 c88 110 124 141 124 105z m80 -151 c0 -22 -154
-146 -166 -133 -6 5 147 147 159 147 4 0 7 -6 7 -14z m-2072 -61 l12 -30 -20
24 c-11 13 -20 30 -20 39 0 21 13 6 28 -33z m-62 -92 c50 -75 52 -78 19 -57
-28 18 -85 89 -85 106 0 25 32 1 66 -49z m2178 -16 c-6 -16 -111 -80 -124 -75
-10 3 108 88 122 88 4 0 5 -6 2 -13z m-1504 -45 c0 -18 -89 -126 -97 -118 -7
7 82 136 94 136 1 0 3 -8 3 -18z m-738 -59 c51 -50 62 -71 27 -53 -35 19 -99
82 -93 91 9 15 17 11 66 -38z m32 -165 c48 -34 29 -36 -39 -4 -57 26 -88 53
-79 67 6 10 49 -13 118 -63z m736 42 c0 -11 -97 -90 -112 -90 -11 0 93 99 105
100 4 0 7 -4 7 -10z m-772 -173 c30 -16 51 -31 48 -34 -10 -11 -96 28 -107 49
-12 23 -14 23 59 -15z m1050 -414 c3 -45 1 -95 -3 -110 -8 -28 -8 -28 -16 12
-4 22 -8 81 -8 130 0 73 2 86 11 70 7 -11 14 -57 16 -102z m1182 -277 c0 -8
-7 -16 -15 -20 -8 -3 -15 -11 -15 -17 0 -8 23 -10 80 -7 75 4 112 -4 76 -18
-31 -12 -16 -24 29 -24 44 0 60 -12 30 -24 -28 -10 -15 -25 32 -39 26 -8 49
-20 51 -27 7 -20 -35 -7 -191 61 -77 32 -157 62 -178 65 -45 7 -48 16 -16 37
43 28 117 36 117 13z m-2215 -160 l29 -12 -58 -34 c-33 -18 -89 -53 -125 -77
-65 -42 -157 -80 -168 -69 -12 12 8 36 34 41 72 16 94 43 44 55 -12 3 -22 10
-21 15 1 16 51 25 107 18 49 -5 53 -4 53 15 0 12 -8 23 -20 27 -23 7 -26 21
-7 28 24 10 102 6 132 -7z m1067 -100 c10 -38 19 -71 22 -73 13 -13 26 13 26
50 0 50 19 91 43 95 24 5 40 -42 34 -100 -4 -44 9 -86 19 -63 19 44 52 90 64
90 23 0 23 -46 0 -108 -12 -31 -23 -57 -25 -57 -2 0 -25 10 -52 21 -66 29
-154 29 -212 0 -24 -13 -44 -21 -46 -19 -1 2 -14 26 -29 55 -30 60 -32 85 -11
103 20 16 36 3 60 -50 29 -65 46 -53 39 29 -8 83 -2 104 28 99 19 -2 26 -14
40 -72z m1139 -142 c57 -36 147 -143 186 -222 20 -39 34 -74 31 -77 -2 -3 -25
28 -51 68 -70 111 -121 171 -190 223 -62 47 -46 53 24 8z m-1045 -359 c18
-154 35 -329 39 -388 7 -91 10 -107 24 -105 22 4 30 58 31 228 1 109 4 139 11
120 51 -124 82 -627 60 -955 l-7 -100 -37 77 c-20 43 -51 122 -69 177 -26 78
-37 100 -51 101 -16 0 -17 -5 -12 -32 9 -41 46 -171 87 -303 34 -110 33 -108
20 -113 -13 -4 -55 81 -107 221 -32 85 -53 127 -63 127 -11 0 -13 -8 -8 -37 5
-34 74 -271 91 -315 4 -10 3 -18 -3 -18 -33 0 -207 404 -248 573 -8 34 -34 36
-34 3 0 -67 76 -314 150 -487 37 -88 17 -95 -33 -11 -57 93 -83 152 -120 262
-49 147 -60 243 -54 440 4 137 9 180 30 254 29 100 66 196 76 196 3 0 6 -92 6
-205 0 -172 2 -207 15 -215 8 -5 18 -6 21 -2 3 4 11 90 18 192 6 102 16 237
21 300 5 63 12 154 15 202 7 94 10 98 70 95 l30 -2 31 -280z m-1083 227 c-88
-79 -165 -210 -207 -354 -25 -85 -36 -69 -16 22 32 145 131 305 224 361 46 28
45 12 -1 -29z m696 -598 c-14 -137 -6 -395 16 -494 16 -72 74 -253 109 -335
l17 -40 -30 35 c-46 52 -116 195 -147 296 -25 81 -28 103 -27 249 0 112 5 182
17 235 19 86 46 173 52 167 2 -2 -1 -53 -7 -113z m650 -194 c30 -164 23 -457
-12 -543 -10 -22 -12 42 -12 297 0 179 3 322 6 318 4 -4 12 -36 18 -72z m-708
-721 c34 -59 104 -162 156 -229 52 -67 92 -124 90 -126 -2 -3 -40 24 -84 60
-82 66 -152 149 -205 244 -31 53 -66 73 -52 30 22 -71 81 -166 193 -309 60
-76 62 -81 31 -63 -18 10 -67 58 -108 107 -41 48 -77 87 -79 87 -3 0 -2 -15 2
-32 13 -59 -12 -17 -33 57 -32 110 -42 180 -42 301 0 154 7 165 41 64 16 -46
56 -132 90 -191z"/>
<path d="M1684 6857 c-8 -22 0 -595 9 -603 4 -5 16 -3 25 3 15 9 17 29 15 159
-5 313 -14 454 -29 454 -8 0 -17 -6 -20 -13z"/>
<path d="M1844 6215 c-7 -17 12 -231 21 -246 4 -5 11 -9 17 -9 12 0 5 221 -8
254 -8 20 -23 21 -30 1z"/>
<path d="M5432 9673 c-37 -18 -53 -42 -61 -92 -4 -19 -11 -36 -16 -38 -6 -2
-25 22 -43 52 -50 83 -105 103 -180 68 -41 -20 -193 -168 -232 -226 -14 -20
-32 -39 -42 -42 -9 -3 -42 7 -75 22 l-58 28 0 57 c0 64 -25 102 -75 113 -53
12 -96 -17 -150 -102 -72 -111 -215 -400 -245 -494 -81 -259 -12 -472 229
-702 39 -38 62 -66 51 -62 -168 54 -355 62 -498 21 -105 -31 -150 -32 -242 -6
-201 58 -345 -14 -345 -171 0 -58 26 -122 63 -157 12 -11 58 -40 102 -65 72
-39 83 -49 111 -101 58 -107 156 -187 286 -234 64 -22 89 -26 203 -26 111 0
140 3 195 22 89 32 154 76 248 171 59 60 88 81 114 86 75 14 94 -8 109 -128 5
-40 12 -83 15 -96 4 -21 2 -23 -19 -17 -53 13 -97 -53 -127 -192 -60 -269 18
-551 215 -785 111 -132 100 -45 103 -752 1 -341 1 -705 0 -810 l-3 -190 -51
100 c-206 402 -291 769 -266 1160 8 134 8 164 -4 183 -35 54 -78 14 -127 -114
-67 -173 -102 -352 -115 -582 l-7 -123 -84 168 c-82 164 -113 232 -268 593
-107 250 -168 421 -228 635 -22 79 -39 105 -70 105 -42 0 -49 -37 -30 -164 42
-291 128 -664 220 -961 84 -269 267 -766 355 -960 10 -22 62 -139 115 -260
149 -338 173 -384 203 -392 32 -8 56 7 60 39 2 14 -21 74 -53 144 -139 294
-349 786 -431 1011 -127 349 -243 718 -229 731 7 8 8 8 65 -128 71 -168 253
-559 297 -640 20 -36 53 -88 74 -117 30 -40 41 -66 49 -120 32 -204 143 -500
289 -771 30 -57 65 -115 78 -128 26 -29 81 -32 119 -8 23 15 26 15 43 0 10 -9
34 -19 54 -23 29 -4 40 -1 61 20 l26 26 0 1091 c0 943 2 1095 15 1120 8 15 39
62 69 104 99 137 146 302 146 505 0 167 -49 382 -105 466 -25 35 -26 41 -15
86 7 27 16 51 21 54 4 3 27 -11 49 -31 29 -26 57 -70 95 -149 45 -95 63 -120
122 -175 78 -74 142 -108 269 -145 315 -91 684 -25 865 155 96 95 129 192 95
286 -80 226 -388 479 -683 561 -90 26 -113 28 -276 28 l-178 0 38 30 c125 99
205 203 262 340 49 117 64 201 58 330 -5 122 -38 235 -102 351 -122 219 -355
435 -469 434 -12 0 -36 -8 -54 -17z m134 -122 c61 -45 187 -179 240 -256 114
-163 149 -264 149 -425 0 -133 -23 -220 -84 -321 -35 -58 -120 -154 -128 -145
-2 2 12 26 31 54 65 90 121 250 128 367 5 77 -20 66 -47 -20 -12 -38 -33 -92
-48 -120 -29 -57 -83 -123 -72 -90 63 196 68 220 72 360 2 78 0 146 -5 154
-17 24 -32 1 -32 -47 0 -73 -25 -173 -63 -255 -19 -41 -39 -77 -44 -80 -5 -3
-1 40 10 96 12 65 19 153 20 242 2 126 0 140 -15 143 -16 3 -18 -5 -18 -55 0
-97 -52 -281 -71 -251 -5 7 -6 63 -3 123 9 177 -25 242 -39 75 -8 -98 -18
-123 -39 -101 -9 8 -13 51 -14 134 0 87 -6 140 -19 187 -22 76 -26 204 -7 238
17 30 51 28 98 -7z m-343 1 c14 -15 77 -155 77 -170 0 -3 -25 22 -56 56 -31
35 -64 62 -75 62 -17 0 -16 -6 16 -70 19 -38 35 -72 35 -74 0 -3 -22 7 -50 21
-27 14 -76 28 -107 32 l-58 6 77 78 c81 81 110 93 141 59z m-611 -119 c-65
-130 -82 -255 -49 -375 13 -49 13 -58 1 -58 -8 0 -14 6 -14 14 0 16 -18 31
-26 23 -3 -3 0 -31 7 -64 9 -43 9 -64 1 -79 -10 -17 -12 -15 -30 26 -11 25
-23 60 -27 78 -8 40 -35 43 -35 5 0 -41 18 -146 41 -242 11 -45 19 -102 17
-125 l-3 -41 -26 45 c-14 25 -29 57 -33 73 -8 33 -36 37 -36 5 0 -36 36 -143
65 -195 l26 -48 -44 44 c-27 26 -58 72 -78 114 -28 62 -33 84 -37 174 -4 90
-2 112 22 187 29 93 180 395 236 473 30 41 35 45 38 26 2 -12 -5 -39 -16 -60z
m503 -142 c61 -28 110 -85 157 -180 29 -60 57 -100 91 -131 27 -25 66 -61 86
-80 110 -102 138 -463 52 -650 -12 -26 -19 -34 -17 -20 11 53 19 219 12 244
-11 45 -36 32 -36 -18 0 -71 -26 -190 -54 -245 -15 -28 -28 -51 -30 -51 -2 0
2 28 10 63 16 77 29 276 20 311 -3 14 -12 26 -20 26 -10 0 -15 -23 -20 -82 -8
-92 -33 -215 -46 -223 -4 -2 -10 75 -13 173 -4 138 -10 204 -31 302 -33 157
-34 160 -53 160 -17 0 -17 -4 12 -180 18 -112 20 -239 5 -224 -6 6 -23 66 -38
132 -17 80 -31 122 -39 122 -18 0 -16 -35 8 -191 16 -98 22 -182 23 -314 1
-160 -9 -304 -20 -293 -2 2 -13 107 -24 232 -22 245 -63 585 -81 679 -8 36
-17 57 -25 57 -19 0 -18 -17 10 -302 28 -269 45 -695 29 -685 -15 9 -47 129
-93 342 -48 227 -110 447 -128 453 -18 6 -15 -34 13 -193 13 -76 22 -141 20
-144 -9 -8 -55 106 -71 177 -15 66 -32 89 -48 64 -6 -10 45 -269 73 -372 l20
-75 -20 25 c-32 38 -65 108 -89 190 -28 92 -29 93 -44 80 -24 -19 18 -211 74
-334 26 -59 27 -65 10 -56 -59 31 -145 191 -176 325 -27 116 -25 341 4 449 37
136 115 247 204 292 35 18 53 35 69 67 38 75 66 97 123 97 28 0 69 -9 91 -19z
m-665 -1117 c41 -13 81 -28 88 -32 8 -6 -38 -14 -117 -21 -71 -6 -183 -25
-248 -41 -65 -16 -138 -32 -163 -37 -35 -7 -45 -13 -45 -28 0 -30 35 -30 177
0 142 29 282 45 317 35 21 -5 16 -9 -35 -26 -32 -12 -107 -38 -167 -58 -59
-20 -130 -40 -157 -43 -51 -6 -77 -23 -65 -44 12 -18 111 -3 249 38 158 47
236 62 318 63 75 0 154 -25 202 -63 l29 -24 -55 -6 c-77 -7 -122 -33 -203
-116 -150 -154 -340 -196 -551 -121 -87 30 -159 91 -198 167 -29 58 -76 102
-147 139 -74 39 -119 83 -119 116 0 19 4 20 57 14 32 -4 93 -16 137 -27 81
-21 106 -20 106 4 0 16 -145 62 -227 73 -58 7 -64 15 -31 38 33 23 106 20 195
-9 97 -31 110 -31 214 0 162 49 303 52 439 9z m1565 -69 c218 -38 413 -140
568 -298 72 -73 94 -106 65 -94 -145 58 -180 69 -189 60 -6 -6 -9 -16 -5 -21
9 -16 110 -63 193 -91 70 -23 78 -29 81 -53 2 -21 -1 -28 -13 -28 -30 0 -129
32 -189 61 -43 21 -63 26 -70 18 -22 -22 104 -94 209 -121 57 -14 80 -27 67
-40 -15 -15 -164 20 -237 56 -68 34 -85 36 -85 13 0 -19 129 -100 193 -122 71
-24 74 -40 6 -31 -66 9 -121 28 -241 83 -93 42 -118 46 -118 20 0 -15 157
-118 230 -151 l55 -25 -45 0 c-106 -1 -295 91 -450 220 -45 38 -87 69 -91 69
-47 0 98 -153 227 -240 40 -26 95 -58 122 -71 61 -28 67 -43 15 -33 -109 19
-262 111 -400 238 -82 77 -96 85 -109 65 -12 -20 190 -208 316 -293 53 -36 54
-37 20 -31 -77 16 -242 126 -328 219 -43 45 -62 57 -62 35 0 -20 121 -149 184
-196 81 -61 86 -67 56 -58 -38 10 -120 67 -168 115 -33 33 -46 40 -54 32 -9
-9 1 -25 42 -67 30 -30 49 -55 42 -55 -24 0 -137 66 -183 108 -38 34 -62 70
-104 157 -62 127 -121 192 -193 213 -48 14 -154 16 -201 2 -33 -9 -33 -9 -15
11 42 47 146 93 244 110 74 12 199 -4 314 -41 95 -31 263 -124 394 -220 69
-51 92 -56 92 -22 0 17 -117 109 -224 177 -148 94 -361 175 -460 175 -60 0
-26 17 51 26 163 17 380 -49 615 -188 108 -64 138 -29 41 47 -146 114 -424
214 -596 215 -38 0 -66 4 -63 9 6 9 115 37 171 44 74 10 200 6 280 -8z m-825
-459 c0 -3 -28 -26 -62 -53 -35 -26 -88 -71 -120 -101 -54 -51 -57 -52 -63
-31 -6 19 1 32 47 74 67 62 198 136 198 111z m0 -92 c0 -10 -180 -184 -190
-184 -22 0 -21 43 2 67 59 65 188 145 188 117z m-35 -169 c-86 -81 -105 -95
-105 -77 0 29 153 163 185 162 5 -1 -30 -39 -80 -85z m-251 -40 c42 -61 149
-166 275 -270 46 -38 78 -71 72 -73 -27 -9 -210 117 -299 206 -30 30 -48 40
-54 34 -7 -7 -1 -23 20 -49 34 -43 173 -178 242 -236 l45 -37 -40 15 c-63 25
-114 62 -202 148 -81 78 -110 93 -83 42 8 -14 56 -73 107 -130 52 -58 91 -105
88 -105 -17 0 -115 72 -147 108 -43 47 -48 50 -48 23 0 -21 34 -75 93 -145 53
-63 17 -44 -50 27 -75 79 -97 157 -90 315 4 95 19 182 31 182 2 0 20 -25 40
-55z m-244 -1659 c25 -196 115 -477 286 -893 55 -134 76 -193 69 -193 -2 0
-25 33 -51 73 -84 127 -168 324 -239 560 -25 82 -39 104 -51 74 -8 -21 81
-356 141 -532 53 -156 53 -159 25 -125 -77 92 -175 339 -206 522 -22 134 -30
468 -13 598 14 118 13 122 39 -84z"/>
<path d="M4360 7864 c-91 -39 -216 -74 -261 -74 -30 0 -48 -27 -23 -37 33 -12
153 6 230 36 123 47 214 112 157 111 -10 -1 -56 -17 -103 -36z"/>
<path d="M5552 7798 c6 -17 157 -110 168 -103 22 14 6 33 -60 73 -68 41 -116
54 -108 30z"/>
<path d="M8905 9527 c-51 -17 -101 -43 -142 -74 l-31 -24 -54 30 c-81 46 -142
56 -222 36 -54 -14 -72 -14 -102 -5 -48 16 -140 7 -190 -18 -21 -11 -59 -38
-84 -59 l-44 -40 -56 26 c-45 21 -70 25 -140 26 -73 0 -93 -4 -142 -28 -63
-31 -116 -87 -147 -157 l-20 -44 -48 3 c-67 3 -125 -22 -173 -76 -37 -43 -80
-133 -80 -171 0 -25 -11 -37 -48 -51 -51 -21 -100 -86 -124 -165 -17 -57 -20
-85 -15 -160 6 -107 42 -228 87 -300 17 -27 29 -54 26 -62 -3 -7 -22 -16 -43
-20 -85 -15 -119 -55 -117 -139 4 -136 98 -322 223 -437 56 -52 204 -138 237
-138 19 0 18 -13 -7 -55 -21 -35 -21 -37 -5 -80 34 -89 170 -184 321 -226 68
-18 97 -21 200 -17 113 5 171 18 286 63 13 5 16 -4 17 -52 3 -116 86 -230 211
-290 31 -14 58 -28 60 -30 3 -2 6 -167 8 -368 4 -367 1 -399 -31 -364 -7 8
-18 52 -25 98 -30 205 -152 422 -346 616 -162 163 -247 212 -289 166 -16 -18
-18 -33 -14 -133 10 -212 98 -419 265 -620 103 -124 218 -201 363 -244 l75
-22 3 -338 c1 -187 0 -346 -4 -354 -3 -9 -19 21 -38 75 -56 156 -145 306 -275
467 -80 99 -388 397 -419 405 -57 14 -46 -14 80 -204 149 -224 272 -426 356
-583 66 -124 155 -335 150 -357 -2 -8 -30 35 -62 94 -102 185 -450 746 -539
868 -22 30 -33 10 -18 -33 22 -61 144 -311 199 -405 47 -81 48 -86 22 -67
-186 132 -373 594 -406 1000 -3 47 -11 93 -16 103 -12 24 -64 23 -78 -2 -39
-74 33 -456 136 -720 55 -141 171 -374 247 -497 161 -260 385 -489 573 -586
l84 -44 3 -127 c4 -135 8 -148 54 -162 17 -4 29 1 48 19 24 24 25 31 25 129
l0 105 28 10 c15 5 59 20 97 32 248 78 505 292 691 576 198 303 341 670 414
1071 29 154 26 203 -10 215 -28 10 -49 -12 -89 -90 -74 -141 -190 -280 -433
-521 -398 -392 -530 -576 -657 -911 l-40 -105 0 390 0 390 65 40 c243 148 394
506 394 932 0 134 -14 183 -54 183 -36 0 -51 -20 -76 -102 -26 -85 -58 -152
-136 -280 -32 -51 -88 -151 -125 -223 l-69 -130 0 307 0 308 38 19 c59 30 115
84 145 138 37 69 61 167 53 221 -6 42 -5 44 17 37 86 -26 146 -35 242 -36 178
-2 292 38 380 132 49 52 53 70 30 126 -8 20 -14 37 -13 38 2 2 31 14 66 28 34
14 88 40 119 58 79 47 200 171 251 258 84 143 119 310 77 374 -19 30 -84 71
-127 81 l-27 6 14 41 c8 23 20 71 25 106 19 118 -25 259 -94 303 -30 19 -31
21 -28 87 4 80 -26 205 -63 268 -57 98 -182 175 -284 175 l-47 0 -22 53 c-28
68 -118 159 -192 194 -48 24 -69 28 -170 30 -75 2 -129 -2 -155 -10z m256
-103 c101 -32 172 -130 188 -259 5 -39 7 -72 5 -74 -2 -2 -15 1 -27 6 -19 9
-27 24 -36 75 -7 34 -20 79 -29 98 l-17 35 -5 -90 c-4 -71 -8 -90 -21 -93 -13
-2 -18 15 -27 92 -14 109 -19 126 -38 126 -10 0 -14 -13 -14 -42 -1 -76 -24
-172 -41 -176 -14 -2 -17 14 -23 110 -6 104 -16 142 -32 125 -4 -4 -13 -51
-20 -104 -7 -54 -16 -114 -20 -133 -9 -55 -22 -16 -29 91 -7 111 -12 139 -24
139 -12 0 -26 -47 -42 -137 -14 -77 -31 -85 -43 -18 -4 18 -20 59 -36 91 -28
55 -28 59 -12 77 44 49 172 89 252 80 25 -2 66 -11 91 -19z m-795 -51 l53 -27
40 29 c34 23 48 27 86 23 77 -9 161 -84 195 -173 10 -26 9 -27 -12 -21 -13 3
-44 6 -69 6 -46 0 -46 0 -59 45 -7 24 -19 50 -26 56 -16 13 -17 10 -14 -62 2
-81 -40 -87 -54 -8 -14 76 -56 91 -56 20 0 -113 -28 -136 -65 -53 -50 114 -58
113 -65 -5 l-5 -88 -17 40 c-10 22 -22 59 -28 83 -10 37 -13 42 -26 31 -12
-10 -15 -28 -12 -75 l3 -62 -25 13 c-14 7 -49 16 -79 20 -51 7 -53 8 -48 34
23 111 111 197 206 200 13 1 48 -11 77 -26z m-440 -67 c57 -26 71 -41 56 -59
-5 -7 -12 -29 -16 -50 -8 -44 -21 -41 -30 8 -7 35 -22 53 -34 40 -4 -4 -7 -32
-7 -62 0 -72 -21 -83 -31 -16 -8 58 -22 89 -35 76 -5 -5 -13 -43 -19 -86 -12
-94 -20 -127 -31 -127 -11 0 -39 96 -39 137 0 21 -5 33 -14 33 -19 0 -25 -29
-33 -157 -5 -93 -8 -111 -19 -102 -8 6 -21 34 -29 62 -40 133 5 260 110 308
54 25 110 23 171 -5z m1646 -170 c90 -43 147 -139 155 -265 4 -53 2 -80 -6
-85 -7 -5 -11 1 -11 16 0 36 -12 69 -23 65 -5 -1 -17 -23 -26 -47 -21 -58 -45
-67 -37 -14 6 43 8 96 7 162 -1 63 -25 54 -41 -15 -11 -54 -57 -159 -65 -151
-2 1 4 61 13 131 11 91 12 131 5 138 -15 15 -33 3 -33 -21 0 -23 -48 -135 -55
-128 -2 2 -2 57 2 122 l6 118 37 -5 c21 -2 53 -12 72 -21z m-2065 -44 c7 -4
17 -38 23 -74 5 -37 15 -79 20 -93 6 -15 10 -34 10 -43 -1 -28 -27 14 -52 80
-11 32 -25 58 -29 58 -15 0 -9 -101 15 -240 13 -74 22 -137 20 -139 -8 -9 -63
129 -75 187 -9 41 -18 62 -27 62 -31 0 -2 -238 44 -365 13 -37 -46 26 -71 75
-45 91 -60 151 -59 250 0 136 38 218 110 240 38 11 56 11 71 2z m1249 -7 c57
-17 106 -50 139 -95 l23 -32 -34 -71 c-19 -40 -38 -73 -43 -75 -19 -6 -51 43
-61 94 -6 29 -17 57 -24 63 -10 9 -14 -4 -19 -65 -9 -105 -20 -120 -36 -47
-24 110 -32 133 -46 133 -11 0 -15 -21 -17 -97 -3 -91 -4 -96 -17 -73 -8 14
-22 54 -30 89 -9 36 -21 66 -27 68 -13 4 -24 -41 -24 -96 l0 -37 -47 6 -48 5
-3 47 c-5 80 55 164 135 188 45 13 125 11 179 -5z m-573 -47 c49 -24 111 -86
137 -137 26 -52 25 -69 -4 -77 -13 -3 -36 -19 -52 -35 -37 -39 -54 -37 -54 4
0 18 -6 42 -14 53 -14 18 -15 18 -25 -9 -6 -16 -11 -35 -11 -43 0 -18 -19 -18
-43 0 -15 11 -18 26 -16 68 4 64 -19 75 -36 16 -13 -46 -19 -52 -41 -40 -14 8
-17 21 -15 63 3 53 3 54 -18 35 -11 -10 -22 -30 -26 -45 -5 -23 -13 -28 -82
-44 -42 -9 -78 -16 -79 -14 -2 2 7 26 20 54 28 58 87 128 127 149 70 36 163
37 232 2z m1056 -58 c69 -35 120 -112 146 -222 17 -73 19 -127 5 -148 -8 -12
-11 -11 -16 8 -13 45 -85 185 -115 224 -17 21 -37 38 -46 38 -8 0 -13 -3 -11
-7 2 -5 18 -37 36 -73 24 -48 36 -92 47 -170 8 -57 12 -106 10 -108 -9 -9 -23
10 -29 38 -13 68 -120 230 -152 230 -19 0 -19 1 26 -82 22 -40 40 -76 40 -80
0 -4 -28 10 -61 32 -34 22 -86 48 -115 57 -62 19 -63 23 -34 107 22 66 62 124
104 154 40 28 113 29 165 2z m-1988 -343 c11 -34 34 -86 50 -116 17 -29 27
-56 24 -59 -8 -8 -57 49 -87 101 -12 20 -26 37 -31 37 -14 0 1 -68 29 -129
l24 -54 -27 -29 c-32 -33 -35 -30 -62 62 -42 140 -35 259 17 322 l27 32 7 -52
c5 -29 17 -80 29 -115z m1284 91 c31 -16 65 -50 65 -65 0 -18 -79 -68 -90 -57
-4 5 -10 20 -12 34 -5 37 -32 32 -36 -7 -3 -30 -5 -31 -30 -22 -15 5 -32 17
-39 25 -10 14 -13 13 -23 -5 -14 -27 -90 -31 -90 -5 0 43 53 94 118 115 31 9
107 2 137 -13z m-533 2 c42 -12 127 -85 159 -136 12 -19 20 -36 18 -37 -2 -1
-26 -13 -52 -26 -99 -50 -169 -163 -191 -309 -12 -82 -14 -85 -21 -48 -9 47 0
198 14 225 8 14 7 22 -3 30 -11 9 -17 4 -28 -26 -9 -21 -21 -62 -28 -90 -6
-29 -16 -53 -21 -53 -21 0 -5 169 27 273 4 12 0 17 -15 17 -16 0 -24 -15 -45
-82 -14 -46 -28 -100 -32 -120 -7 -43 -10 -45 -36 -21 -13 11 -18 30 -18 62 1
42 5 67 25 159 12 52 -13 39 -41 -23 -14 -30 -28 -80 -31 -110 -5 -50 -8 -56
-27 -53 -30 4 -41 76 -26 167 16 95 43 135 94 138 22 1 55 13 75 26 20 14 45
30 56 36 25 13 99 14 147 1z m1806 -105 c44 -37 55 -74 50 -163 -6 -84 -23
-142 -70 -240 -29 -58 -62 -101 -44 -56 21 51 54 206 57 264 3 52 1 65 -11 65
-10 0 -17 -16 -22 -53 -17 -113 -100 -301 -158 -357 l-30 -29 26 64 c29 73 59
203 68 303 6 56 4 67 -9 67 -15 0 -16 -3 -40 -119 -9 -41 -26 -105 -39 -143
-25 -70 -84 -178 -98 -178 -4 0 4 29 17 65 31 82 51 203 36 218 -11 11 -19 -4
-46 -93 -24 -79 -105 -214 -119 -199 -4 3 3 35 13 70 11 35 23 84 27 108 6 37
5 43 -10 40 -10 -3 -30 -35 -50 -81 -87 -199 -134 -224 -101 -52 8 43 15 87
15 98 0 37 -26 -2 -53 -81 l-28 -78 -52 5 c-51 5 -52 6 -49 35 10 106 96 225
203 281 46 24 66 29 136 29 45 0 86 5 91 10 5 6 17 33 26 60 18 57 65 118 110
146 46 28 117 25 154 -6z m-812 -19 c69 -32 125 -83 149 -137 l18 -38 -34 -28
c-18 -15 -35 -27 -37 -26 -2 1 -13 21 -25 45 -25 48 -55 66 -43 27 15 -54 17
-117 6 -159 l-12 -45 -30 83 c-18 48 -35 81 -42 79 -13 -5 -13 -27 2 -121 13
-81 5 -166 -14 -166 -10 0 -14 13 -14 43 0 54 -23 145 -51 200 -31 59 -128
151 -183 172 -25 10 -43 21 -40 26 9 15 94 61 127 70 59 15 160 4 223 -25z
m-566 -126 c34 -11 88 -20 119 -20 67 0 123 -24 181 -76 58 -53 82 -105 88
-191 3 -46 1 -73 -5 -73 -6 0 -24 -3 -40 -6 l-30 -6 -6 61 c-5 60 -19 91 -40
91 -6 0 -8 -28 -3 -80 l6 -79 -37 -26 c-21 -14 -41 -25 -45 -25 -5 0 -8 19 -8
43 0 44 -17 169 -26 200 -3 9 -12 17 -20 17 -12 0 -13 -22 -8 -150 8 -167 9
-165 -56 -131 l-35 19 -15 138 c-13 122 -17 139 -34 142 -18 4 -18 -3 -14
-128 l5 -132 -30 6 c-16 3 -36 6 -43 6 -16 0 -44 62 -44 97 0 32 -18 65 -32
57 -7 -4 -8 -30 -4 -74 l7 -67 -32 -7 c-18 -3 -36 -3 -40 1 -12 14 -28 77 -35
141 -5 51 -9 60 -20 51 -16 -13 -19 -112 -5 -170 8 -33 6 -38 -16 -48 -40 -18
-50 -13 -63 33 -16 60 -9 171 15 221 46 95 168 172 291 184 6 1 40 -8 74 -19z
m-968 -156 c14 -8 36 -27 48 -44 19 -27 26 -30 79 -30 68 0 146 -35 186 -82
59 -70 145 -286 145 -365 0 -10 11 -42 25 -70 13 -29 21 -53 16 -53 -13 0
-134 131 -169 182 -27 39 -100 179 -115 221 -3 9 -8 9 -16 1 -27 -25 66 -257
144 -358 30 -39 32 -45 13 -35 -41 22 -149 132 -192 196 -23 34 -62 110 -86
168 -25 58 -50 105 -57 105 -19 0 -16 -19 18 -127 28 -88 106 -244 130 -259 5
-3 14 -14 20 -26 11 -20 11 -20 -21 -2 -48 28 -156 149 -200 224 -21 36 -49
95 -62 133 -12 37 -26 67 -29 67 -30 0 -3 -135 47 -240 l35 -75 -36 35 c-20
19 -55 73 -78 119 -39 78 -42 90 -42 166 0 74 3 85 28 118 42 55 100 65 169
31z m2498 -169 c16 -8 31 -24 35 -34 9 -30 -22 -138 -63 -216 -53 -102 -183
-231 -282 -279 -111 -54 -212 -76 -344 -76 -128 0 -170 14 -74 23 140 15 207
27 286 52 92 29 208 80 217 95 15 24 -30 18 -144 -21 -96 -32 -144 -42 -217
-46 -53 -4 -94 -2 -94 3 0 5 60 24 133 43 72 18 170 48 216 67 110 44 232 120
224 139 -7 19 -4 20 -71 -14 -93 -47 -183 -81 -252 -96 -36 -7 -67 -12 -69 -9
-2 2 31 20 75 40 129 59 211 101 271 141 31 21 66 45 79 53 25 16 33 50 12 50
-7 0 -26 -9 -43 -21 -34 -23 -141 -79 -151 -79 -4 0 19 26 50 58 32 31 72 76
89 99 36 47 66 54 117 28z m-2775 -125 c53 -170 194 -329 355 -403 70 -32 235
-77 282 -77 19 0 27 -4 22 -11 -10 -17 -191 -4 -287 20 -128 33 -202 74 -288
160 -80 80 -136 175 -163 276 -15 59 -8 87 25 96 31 8 33 5 54 -61z m1825 -55
c33 -16 69 -27 91 -26 50 1 101 -35 117 -83 10 -33 10 -48 -3 -92 -18 -61 -81
-146 -127 -170 l-32 -17 17 24 c39 54 90 200 74 215 -12 12 -24 -6 -52 -77
-21 -54 -43 -88 -93 -140 -35 -38 -68 -69 -73 -69 -4 0 3 20 17 44 31 55 61
142 70 202 6 41 5 46 -12 42 -10 -2 -20 -12 -22 -23 -13 -83 -111 -250 -170
-290 -20 -13 -37 -23 -39 -21 -2 1 10 29 26 62 29 59 45 116 57 207 5 38 3 47
-9 47 -9 0 -25 -31 -46 -91 -34 -95 -66 -155 -109 -201 -40 -43 -54 -37 -36
15 17 50 33 222 22 240 -13 21 -25 -4 -52 -108 -15 -55 -31 -104 -36 -109 -19
-19 -56 58 -90 192 -7 27 -16 42 -27 42 -14 0 -15 -11 -9 -85 6 -78 22 -154
41 -197 13 -32 -17 -20 -58 24 -42 44 -98 153 -119 232 -13 51 -38 63 -38 18
0 -46 39 -174 71 -229 16 -29 24 -53 18 -53 -6 0 -41 30 -78 68 -63 63 -141
188 -141 225 0 8 -7 21 -17 28 -15 13 -16 9 -10 -44 6 -58 53 -175 84 -209 24
-27 1 -21 -43 10 -90 66 -138 142 -138 222 -1 69 27 110 99 145 107 53 223 43
338 -28 73 -45 111 -43 170 9 98 86 254 107 367 49z m-1006 -516 c-69 -31
-154 -50 -259 -57 -79 -6 -100 -10 -100 -22 0 -48 274 -32 490 29 38 11 71 18
72 17 2 -1 -17 -17 -42 -35 -51 -37 -133 -67 -218 -81 -60 -9 -85 -26 -67 -44
26 -26 279 32 449 103 41 17 76 29 78 27 9 -9 -103 -89 -171 -123 -78 -39
-219 -73 -307 -73 -71 0 -196 32 -260 67 -27 14 -68 46 -90 70 l-41 44 25 32
24 32 159 7 c88 4 179 11 204 16 25 6 56 10 70 10 21 0 18 -3 -16 -19z m1269
-14 c131 -2 162 -5 178 -18 25 -22 24 -39 -4 -65 -83 -78 -297 -103 -467 -54
-69 20 -195 80 -187 88 3 3 88 -8 189 -25 102 -17 210 -31 241 -31 53 0 57 2
57 24 0 21 -6 24 -52 30 -29 4 -75 17 -103 28 -60 25 -84 44 -40 32 17 -4 101
-8 188 -9z m-476 -314 c-6 -72 -38 -151 -74 -183 -102 -93 -269 -40 -333 104
-20 45 -20 49 -4 85 l17 38 7 -60 c4 -33 12 -71 20 -84 l13 -25 21 40 21 39 3
-52 c4 -70 26 -78 53 -19 10 24 22 58 25 76 9 43 23 25 34 -45 17 -102 50
-100 58 5 2 33 8 60 13 60 5 0 9 -8 10 -17 0 -10 8 -36 18 -58 l18 -40 21 34
c11 19 28 65 37 102 10 38 20 69 23 69 2 0 2 -31 -1 -69z m-707 -438 c75 -78
121 -132 175 -208 24 -33 17 -29 -38 25 -37 35 -67 58 -67 50 0 -8 20 -50 45
-94 49 -85 49 -86 36 -86 -12 0 -80 91 -131 178 -24 39 -49 72 -57 72 -17 0
-17 -5 7 -68 30 -79 87 -189 132 -255 28 -41 33 -55 20 -48 -43 23 -132 137
-177 224 -44 90 -95 259 -95 319 l0 30 38 -30 c20 -17 71 -65 112 -109z"/>
<path d="M6152 6458 c-18 -18 -14 -104 7 -183 26 -93 68 -180 139 -292 59 -92
101 -204 89 -237 -4 -9 -15 -16 -25 -16 -30 0 -73 -53 -79 -98 -7 -55 2 -85
38 -127 41 -47 17 -47 -65 -1 -105 59 -126 93 -124 198 1 65 -2 81 -25 120
-30 51 -71 90 -128 118 -29 15 -45 34 -66 78 -20 41 -34 58 -51 60 -57 8 -68
-53 -24 -133 21 -39 40 -57 91 -85 36 -20 75 -52 88 -71 22 -31 24 -41 18
-105 -6 -62 -3 -78 15 -114 29 -57 95 -119 169 -159 33 -18 61 -39 61 -47 0
-18 3 -19 -74 16 -295 132 -398 135 -530 15 -53 -48 -95 -65 -162 -65 -49 0
-69 -19 -60 -55 8 -31 38 -39 120 -33 74 6 113 25 185 89 90 80 132 79 339
-10 75 -33 145 -62 155 -65 10 -3 17 -15 17 -30 0 -19 -6 -25 -32 -28 -65 -9
-364 -80 -401 -96 -50 -20 -93 -71 -107 -124 -6 -24 -16 -60 -21 -80 -6 -22
-22 -46 -40 -60 -69 -52 -80 -67 -69 -88 21 -39 126 -15 167 39 24 31 43 80
53 132 12 61 39 95 84 104 17 4 80 18 139 32 60 14 111 22 114 19 3 -3 -9 -22
-28 -43 -56 -63 -124 -155 -157 -213 -20 -36 -44 -62 -67 -74 -75 -41 -151
-155 -162 -244 -3 -29 1 -73 12 -117 23 -91 22 -142 -5 -194 -28 -56 -24 -85
14 -89 40 -5 83 39 102 106 16 55 15 74 -17 212 -15 66 -8 111 26 165 l24 40
1 -53 c0 -62 20 -116 48 -131 46 -25 89 -11 194 60 l57 38 6 -47 c29 -204 162
-383 287 -384 56 -1 95 20 151 82 62 69 104 158 124 260 9 47 17 91 19 98 2 8
32 -9 81 -47 90 -68 113 -77 153 -61 30 12 70 78 70 116 1 19 1 19 15 0 26
-35 28 -82 5 -185 -20 -95 -21 -103 -6 -155 28 -95 84 -142 129 -106 l22 18
-29 58 c-34 67 -36 112 -11 215 11 45 15 85 11 114 -9 56 -58 129 -116 173
-25 19 -48 44 -51 56 -15 52 -74 149 -143 235 -42 52 -75 96 -72 98 8 9 258
-61 280 -78 17 -13 25 -32 29 -68 7 -60 28 -104 71 -149 59 -63 139 -77 152
-26 8 30 0 40 -45 63 -52 27 -60 40 -72 112 -14 90 -42 134 -103 164 -50 24
-216 66 -348 88 -69 12 -80 20 -71 55 9 37 291 152 372 152 57 0 81 -12 149
-73 66 -58 112 -77 191 -77 68 0 91 13 91 51 0 33 -31 52 -69 42 -42 -11 -90
8 -157 63 -38 31 -80 61 -94 66 -101 41 -198 24 -422 -72 -50 -22 -88 -33 -88
-26 0 6 42 38 93 71 75 49 98 70 125 115 31 52 32 58 26 130 -7 91 10 124 83
166 75 43 112 83 129 140 16 56 12 80 -17 89 -36 12 -57 -5 -80 -61 -21 -50
-30 -59 -80 -84 -104 -53 -146 -126 -136 -237 7 -71 -1 -101 -35 -133 -29 -28
-158 -93 -166 -85 -4 4 1 11 10 16 27 15 58 74 58 111 0 61 -19 96 -66 124
-38 23 -43 29 -38 52 14 66 42 125 110 231 97 149 144 276 144 386 0 55 -12
75 -46 75 -31 0 -39 -15 -53 -103 -16 -103 -53 -190 -130 -310 -74 -116 -99
-172 -109 -241 -6 -41 -11 -52 -28 -54 -19 -3 -23 5 -33 60 -15 77 -43 140
-106 237 -71 112 -112 217 -129 336 -5 28 -13 56 -18 63 -13 15 -50 16 -66 0z
m308 -1038 c0 -5 -13 -31 -29 -57 -16 -27 -33 -60 -36 -75 -4 -16 -11 -28 -16
-28 -24 0 4 114 37 151 18 20 44 26 44 9z m-101 -405 c-30 -216 -53 -275 -128
-326 -19 -13 -75 -52 -123 -86 -48 -35 -92 -63 -98 -63 -29 0 4 142 55 239 39
73 164 234 252 324 31 31 57 56 59 54 1 -1 -6 -65 -17 -142z m322 98 c120
-126 256 -319 283 -401 20 -64 29 -134 17 -151 -7 -12 -19 -7 -58 26 -26 21
-82 65 -124 96 -97 72 -118 116 -153 318 -15 80 -26 149 -26 153 0 15 19 3 61
-41z"/>
<path d="M7437 4352 c-28 -31 -20 -63 51 -181 114 -193 251 -330 425 -426 l67
-37 -6 -71 c-4 -40 -8 -73 -9 -75 -2 -2 -13 13 -25 32 -25 42 -44 48 -30 11
11 -28 -1 -33 -20 -10 -21 25 -23 9 -4 -22 17 -27 16 -26 -19 6 -43 40 -61 34
-29 -9 30 -40 28 -45 -7 -21 -32 23 -71 28 -71 9 0 -7 15 -27 32 -45 l33 -34
-44 16 c-49 17 -61 18 -61 7 0 -4 20 -18 45 -31 44 -23 62 -47 28 -37 -10 2
-34 7 -53 11 l-35 6 28 -16 c44 -25 28 -26 -40 -2 -67 23 -73 31 -73 105 0 61
-37 97 -110 107 -110 15 -119 24 -182 190 -18 46 -29 62 -50 69 -22 8 -32 6
-48 -9 -27 -24 -25 -51 9 -126 15 -35 36 -84 46 -107 22 -52 86 -93 176 -113
l58 -13 7 -55 c8 -71 16 -85 54 -101 l31 -13 -73 -36 c-80 -39 -179 -130 -213
-194 -11 -20 -24 -36 -30 -34 -5 2 -22 41 -37 86 -32 100 -49 121 -97 122 -60
2 -85 13 -108 49 -44 68 -66 77 -103 40 -30 -30 -25 -55 19 -103 35 -38 72
-60 162 -95 19 -8 28 -20 32 -46 9 -54 36 -105 72 -132 31 -23 32 -27 24 -67
-13 -68 -10 -159 7 -218 12 -42 29 -66 73 -109 31 -31 67 -63 81 -72 24 -16
23 -17 -41 -11 -53 5 -74 2 -113 -16 -27 -11 -56 -21 -64 -21 -9 0 -32 18 -52
41 l-35 41 -59 -17 c-80 -24 -148 -16 -185 19 -37 35 -79 33 -100 -6 -14 -25
-14 -29 5 -55 37 -51 87 -68 203 -70 101 -1 104 -2 135 -32 40 -39 62 -39 170
0 52 19 92 29 103 24 13 -5 -17 -18 -97 -44 -63 -21 -145 -52 -182 -70 -88
-42 -176 -123 -213 -198 -27 -53 -30 -67 -30 -158 0 -90 3 -105 27 -152 l27
-51 -52 -33 c-28 -18 -62 -38 -74 -45 -31 -19 -38 -51 -17 -75 30 -33 70 -24
139 31 99 79 117 68 85 -54 -45 -177 -13 -324 91 -422 36 -34 105 -74 126 -74
21 0 16 -9 -37 -66 -62 -68 -67 -96 -41 -205 18 -76 19 -85 4 -94 -89 -56
-185 -173 -199 -243 -8 -41 18 -74 55 -70 26 3 32 11 94 117 23 39 51 69 97
101 57 41 65 51 68 82 2 20 -4 63 -12 96 -26 100 -24 111 45 180 34 34 63 62
65 62 1 0 6 -15 9 -33 12 -54 92 -215 142 -285 71 -101 207 -230 301 -286 99
-59 227 -108 341 -131 116 -24 372 -16 482 14 340 93 595 329 699 646 13 39
25 72 27 74 4 6 111 -99 123 -120 6 -11 2 -54 -10 -118 -24 -120 -21 -128 53
-175 68 -44 89 -68 127 -144 34 -69 64 -91 98 -73 29 15 35 55 16 94 -38 75
-108 159 -155 189 -54 33 -55 35 -28 138 22 85 11 119 -64 197 l-39 41 58 29
c75 36 129 90 162 162 39 85 43 218 8 325 -14 44 -23 83 -20 88 10 15 42 8 71
-15 97 -80 150 -96 179 -52 23 35 11 56 -48 88 -29 15 -63 35 -76 45 l-23 18
25 49 c73 147 24 335 -116 443 -62 48 -175 99 -290 133 -43 13 -78 27 -78 31
0 16 69 7 134 -17 88 -33 108 -32 141 7 27 32 29 33 119 34 163 2 267 68 214
136 -25 31 -54 31 -91 -1 -43 -39 -96 -47 -170 -28 -71 19 -91 14 -118 -29
-25 -40 -51 -44 -111 -13 -30 15 -55 20 -94 17 -30 -1 -54 0 -54 5 0 4 4 7 9
7 17 0 99 88 120 128 30 60 42 152 30 238 l-10 73 45 43 c31 30 47 57 56 88 6
25 13 50 15 56 2 7 35 24 74 38 76 29 151 97 151 136 0 61 -63 83 -97 35 -43
-61 -49 -65 -108 -76 -75 -15 -100 -37 -116 -103 -17 -74 -36 -116 -53 -116
-8 0 -25 19 -39 43 -39 65 -123 142 -200 183 l-69 36 30 18 c39 24 44 33 51
99 l6 56 84 27 c99 32 133 61 161 135 11 29 31 76 45 103 32 63 32 85 -1 107
-44 29 -71 4 -110 -100 -46 -124 -53 -133 -121 -147 -136 -28 -151 -41 -160
-140 l-6 -60 -56 -16 c-31 -8 -62 -17 -68 -19 -19 -6 -16 6 10 33 l22 24 -44
-22 c-23 -12 -40 -17 -36 -11 3 6 25 21 48 33 37 18 39 22 22 28 -11 4 -31 2
-47 -6 -46 -23 -55 -16 -15 13 49 34 52 64 3 34 -45 -28 -52 -26 -27 5 32 41
27 64 -7 31 -35 -34 -48 -35 -26 -2 25 38 8 43 -27 9 l-31 -29 7 30 6 30 -23
-27 c-13 -16 -26 -28 -28 -28 -3 0 -5 12 -5 28 0 15 -4 48 -7 73 -7 46 -6 47
24 60 68 28 213 133 293 212 126 125 251 328 236 384 -17 65 -78 51 -106 -25
-31 -79 -130 -214 -224 -305 -91 -88 -229 -187 -261 -187 -9 0 -25 10 -36 21
-10 12 -38 31 -62 41 -24 11 -42 25 -39 31 2 7 14 43 26 80 21 63 22 69 7 92
-35 54 -105 15 -128 -69 -12 -47 -28 -61 -28 -26 0 27 -17 25 -27 -2 -6 -20
-8 -18 -13 16 -7 52 -30 61 -30 12 0 -20 -4 -36 -10 -36 -5 0 -10 13 -10 29 0
46 -17 46 -25 1 -8 -45 -25 -45 -25 1 0 37 -17 38 -23 2 l-4 -28 -2 28 c-1 34
-21 36 -21 2 0 -37 -17 -30 -24 9 -7 36 -55 86 -82 86 -57 0 -68 -47 -34 -145
24 -70 24 -75 3 -75 -23 0 -99 -46 -107 -65 -3 -8 -10 -15 -15 -15 -5 0 -49
27 -98 59 -147 99 -280 247 -363 406 -55 106 -79 125 -113 87z m1031 -483 c51
-18 39 -32 -20 -23 -77 11 -128 11 -172 2 -38 -8 -56 -5 -43 9 4 3 28 12 54
19 51 15 129 11 181 -7z m-294 -82 c25 -19 17 -48 -21 -70 -25 -14 -36 -16
-52 -7 -27 14 -27 38 1 67 24 26 46 29 72 10z m444 -3 c25 -18 29 -59 6 -68
-40 -15 -94 7 -94 40 0 14 38 44 55 44 6 0 21 -7 33 -16z m-784 -273 c-6 -7
-54 29 -54 40 0 6 13 0 29 -13 15 -13 27 -25 25 -27z m721 6 c28 -8 66 -21 85
-29 42 -18 136 -88 155 -116 13 -17 12 -20 -10 -30 -22 -10 -26 -8 -42 21
l-18 32 -3 -42 c-2 -23 -9 -46 -16 -52 -11 -9 -15 -2 -20 31 -7 41 -29 78 -48
78 -4 0 -8 -24 -8 -52 0 -34 -8 -70 -22 -98 l-22 -45 -6 80 c-7 90 -26 158
-43 152 -7 -2 -15 -40 -19 -90 -4 -48 -15 -104 -25 -124 l-17 -38 -6 95 c-7
98 -24 175 -40 185 -12 7 -16 -12 -35 -149 -8 -60 -17 -111 -19 -114 -11 -10
-26 81 -26 160 0 126 -23 129 -54 6 -9 -37 -16 -104 -16 -148 0 -50 -4 -79
-10 -75 -17 11 -29 78 -33 185 -3 80 -7 105 -17 105 -20 0 -50 -108 -53 -187
-1 -39 -6 -66 -12 -65 -16 6 -33 77 -34 142 -1 33 -5 66 -10 74 -14 22 -40
-26 -47 -91 -7 -57 -7 -58 -26 -41 -15 14 -19 28 -16 65 2 27 0 48 -3 48 -9 0
-35 -33 -42 -52 -8 -22 -17 -22 -42 -4 -17 12 -16 16 26 60 63 69 170 118 304
140 52 8 238 -3 290 -17z m-754 -237 c152 -28 337 -177 416 -335 45 -89 31
-82 -100 50 -88 88 -142 135 -156 135 -11 0 -21 -3 -21 -7 0 -5 30 -37 66 -73
62 -61 136 -156 164 -209 16 -30 10 -27 -100 58 -168 131 -360 260 -469 316
-30 15 -32 18 -18 32 15 15 101 40 143 42 12 1 46 -3 75 -9z m1268 -8 c30 -10
56 -22 57 -27 2 -6 -56 -48 -128 -95 -123 -80 -252 -181 -419 -330 l-73 -65
33 60 c50 89 124 194 186 263 56 62 66 82 40 82 -31 0 -243 -237 -294 -327 -5
-10 -12 -15 -15 -13 -9 10 58 153 103 219 83 122 190 202 312 235 71 19 132
19 198 -2z m197 -135 c32 -38 66 -109 56 -118 -4 -4 -135 -66 -292 -139 -157
-73 -342 -161 -412 -196 -71 -35 -128 -60 -128 -54 0 17 232 244 330 322 52
42 155 117 229 167 l134 90 28 -19 c15 -11 40 -35 55 -53z m-1605 -23 c143
-89 260 -171 374 -262 96 -77 188 -163 182 -169 -7 -6 -111 32 -377 138 -248
98 -447 183 -458 194 -21 20 113 193 141 182 8 -3 70 -40 138 -83z m1704 -227
c16 -102 -34 -196 -132 -250 -61 -33 -189 -63 -303 -72 -85 -7 -322 10 -348
24 -8 5 73 49 225 121 131 63 305 147 388 187 167 82 156 82 170 -10z m-1875
13 c149 -69 658 -280 675 -280 8 0 15 -4 15 -10 0 -29 -265 -55 -425 -41 -273
24 -405 119 -405 290 0 65 6 91 23 91 6 0 58 -22 117 -50z m732 -432 c-11 -18
-41 -71 -67 -118 -188 -336 -487 -841 -563 -950 -101 -146 -182 -203 -285
-203 -33 1 -64 6 -69 11 -18 18 0 77 57 190 166 331 519 767 814 1009 63 51
119 93 124 93 5 0 0 -15 -11 -32z m359 -42 c162 -139 427 -424 591 -636 146
-190 318 -485 318 -547 0 -29 -32 -43 -96 -43 -106 0 -181 72 -341 325 -102
162 -338 558 -438 735 -48 85 -96 170 -106 188 -35 62 -20 57 72 -22z m576
-45 c364 -95 443 -128 522 -217 37 -42 69 -109 58 -120 -3 -3 -27 9 -55 26
-72 44 -323 163 -572 270 -195 85 -247 110 -227 110 4 0 127 -31 274 -69z
m-1408 55 c-2 -2 -103 -50 -224 -106 -237 -111 -388 -188 -490 -250 -36 -22
-65 -35 -65 -30 0 28 47 104 89 144 80 73 169 111 451 186 85 23 166 45 180
50 26 9 66 13 59 6z m61 -70 c0 -2 -80 -65 -177 -139 -217 -164 -331 -258
-447 -367 l-88 -84 -36 19 c-40 22 -88 92 -98 142 -6 29 -3 34 42 62 64 41
464 242 534 269 30 11 98 39 150 61 88 37 120 47 120 37z m1123 -15 c23 -10
122 -53 221 -95 183 -79 440 -202 534 -256 45 -26 52 -35 52 -61 0 -16 -6 -42
-14 -57 -26 -50 -116 -118 -124 -94 -9 27 -291 254 -574 460 -161 118 -184
143 -95 103z m-1081 -78 c-11 -16 -62 -77 -114 -138 -160 -188 -214 -257 -312
-402 -97 -143 -199 -327 -231 -418 -25 -69 -29 -71 -59 -33 -77 102 -76 260 4
418 30 61 180 204 358 343 152 118 349 257 364 257 5 0 1 -12 -10 -27z m1186
-112 c318 -228 491 -379 535 -466 74 -148 76 -330 4 -419 l-24 -29 -17 54
c-27 82 -101 220 -191 354 -81 122 -148 207 -364 465 -66 80 -121 149 -121
153 0 12 45 -17 178 -112z m-719 -373 c-1 -167 -16 -294 -45 -380 -15 -49 -32
-88 -36 -88 -10 0 -9 60 1 160 8 81 6 100 -14 100 -17 0 -64 -164 -72 -247 -8
-92 -19 -110 -29 -48 -10 69 -11 139 -1 208 7 48 6 57 -7 57 -35 0 -78 -190
-68 -302 2 -32 1 -58 -2 -58 -4 0 -18 24 -32 54 -20 45 -25 72 -27 152 -1 63
-6 99 -14 101 -21 7 -57 -125 -57 -214 -1 -46 -4 -83 -7 -83 -4 0 -14 19 -23
42 -12 29 -17 67 -15 132 2 98 -11 122 -35 64 -18 -42 -40 -189 -34 -227 2
-17 0 -27 -5 -24 -20 12 -37 76 -37 137 0 80 -17 81 -50 3 -18 -41 -21 -62
-16 -107 6 -49 5 -53 -7 -35 -8 11 -17 41 -21 68 -6 41 -3 54 22 100 62 110
216 363 234 384 31 33 277 109 366 112 l32 1 -1 -62z m183 51 c29 -5 107 -28
173 -50 l120 -40 95 -155 c52 -85 119 -192 148 -237 29 -45 55 -90 58 -99 5
-16 -33 -104 -41 -96 -2 2 0 23 6 46 10 45 1 103 -17 109 -6 2 -26 -26 -43
-62 -18 -37 -35 -64 -37 -62 -3 3 -1 31 4 63 10 64 5 141 -9 150 -10 6 -22
-20 -43 -96 -9 -32 -26 -66 -41 -80 -29 -27 -29 -28 -14 41 14 64 3 178 -17
186 -20 8 -23 3 -41 -63 -8 -33 -21 -70 -29 -84 -13 -23 -14 -20 -13 50 3 114
1 130 -14 124 -7 -2 -22 -41 -32 -85 -10 -44 -26 -90 -36 -102 -18 -22 -18
-20 -17 93 1 64 -2 121 -6 128 -15 24 -33 -7 -39 -67 -7 -61 -37 -153 -61
-186 -12 -17 -14 -3 -15 120 0 140 -7 194 -26 196 -11 1 -19 -26 -33 -106 l-8
-50 -13 40 c-12 39 -33 363 -24 378 5 9 2 9 65 -4z m-183 -841 c-1 -57 -4
-137 -8 -178 l-6 -75 -12 45 c-7 25 -16 63 -20 84 -5 22 -15 42 -22 44 -12 4
-13 -14 -7 -109 4 -69 3 -110 -3 -104 -10 11 -46 114 -56 158 -3 16 -11 27
-18 24 -8 -3 -12 -35 -12 -110 1 -124 -9 -127 -50 -14 -43 115 -44 117 -55
117 -24 0 -23 -46 5 -195 l6 -30 -30 35 c-17 19 -44 68 -60 110 -17 46 -35 76
-45 78 -10 2 -16 -3 -16 -16 0 -42 21 -128 45 -180 15 -32 20 -52 12 -50 -19
7 -103 116 -134 174 -29 57 -53 70 -53 31 0 -25 45 -143 62 -165 6 -7 9 -15 6
-18 -9 -9 -109 108 -134 157 -43 87 -69 54 -31 -40 l25 -61 -40 31 c-37 30
-67 65 -102 120 l-17 27 103 36 c127 44 458 143 541 161 34 7 77 14 95 14 l32
1 -1 -102z m209 87 c34 -8 172 -51 305 -94 133 -44 261 -85 285 -91 23 -6 42
-15 42 -21 0 -14 -80 -117 -115 -149 -25 -22 -27 -22 -20 -5 4 11 16 41 26 67
19 49 12 70 -13 40 -8 -9 -29 -41 -47 -70 -32 -50 -91 -105 -91 -83 0 5 4 13
10 16 5 3 17 32 26 63 8 31 18 65 20 75 4 12 0 17 -14 17 -13 0 -22 -11 -30
-38 -12 -41 -87 -152 -102 -152 -5 0 4 28 20 63 16 34 32 81 36 105 10 67 -15
53 -60 -33 -22 -41 -53 -87 -69 -102 l-30 -28 7 25 c9 33 36 169 36 181 0 5
-8 9 -18 9 -14 0 -29 -23 -57 -85 -20 -46 -44 -90 -51 -96 -16 -13 -16 -15 -4
78 5 40 7 80 4 88 -8 20 -34 19 -34 0 0 -20 -57 -145 -65 -145 -4 0 -4 38 0
84 5 57 4 86 -4 90 -13 8 -23 -14 -47 -99 -24 -87 -32 -52 -33 143 -1 123 2
162 12 162 6 0 40 -7 75 -15z"/>
<path d="M242 4208 c-29 -29 -12 -55 93 -148 266 -232 472 -521 651 -911 93
-201 149 -383 229 -732 30 -128 47 -157 97 -157 38 0 78 40 78 77 0 66 -32
303 -51 387 -56 240 -203 578 -344 792 -178 269 -422 530 -614 656 -74 48
-116 59 -139 36z"/>
<path d="M4626 3807 c-66 -86 -155 -317 -156 -403 0 -11 -13 -38 -30 -60 -16
-22 -34 -60 -39 -85 -13 -54 -26 -327 -18 -360 4 -13 30 -43 59 -65 l53 -42
18 -145 c9 -79 19 -152 23 -161 3 -9 27 -22 53 -30 100 -31 166 -64 163 -82
-10 -51 -22 -66 -50 -60 -15 3 -65 10 -112 16 -119 16 -123 18 -150 92 -55
150 -87 188 -197 241 l-63 29 0 176 c0 98 -3 186 -6 197 -3 11 -30 37 -60 59
-57 39 -67 55 -104 161 -21 60 -22 61 -161 160 -189 135 -182 131 -213 117
-20 -9 -26 -19 -26 -41 0 -27 11 -38 98 -97 191 -133 208 -148 221 -200 19
-76 47 -119 101 -158 l50 -36 2 -102 c1 -57 3 -142 3 -190 1 -53 6 -92 14
-101 7 -9 35 -28 64 -42 130 -68 132 -71 186 -211 17 -44 37 -88 44 -98 21
-28 81 -45 208 -58 l117 -11 6 -36 c11 -68 13 -66 -88 -86 -86 -16 -97 -17
-133 -2 -29 11 -50 13 -83 6 -25 -4 -96 -8 -158 -9 -110 0 -113 -1 -142 -29
-27 -25 -41 -30 -136 -40 -101 -12 -107 -11 -147 10 -23 12 -82 33 -132 46
-49 14 -118 36 -153 50 -52 21 -68 24 -88 15 -27 -13 -34 -61 -11 -80 15 -13
248 -92 269 -92 9 0 31 -12 49 -27 30 -25 40 -28 104 -27 121 2 246 24 285 49
31 19 55 24 168 30 98 5 136 4 147 -5 21 -18 100 -13 180 10 38 11 77 20 85
20 14 -1 60 -61 60 -79 0 -10 -95 -53 -202 -92 -44 -16 -115 -45 -157 -65
l-78 -35 -85 -141 -84 -141 -93 -38 c-152 -62 -272 -122 -282 -140 -5 -10 -9
-29 -9 -42 0 -14 -16 -63 -36 -109 -50 -115 -104 -275 -104 -309 0 -19 8 -34
25 -45 40 -26 69 -1 84 73 6 32 36 118 65 191 30 73 57 145 61 160 4 21 17 33
48 47 23 10 105 48 182 85 130 62 142 70 164 111 57 102 136 212 165 230 38
23 258 111 263 105 3 -2 -38 -60 -89 -128 -52 -67 -114 -152 -138 -187 -25
-35 -57 -77 -72 -92 -18 -18 -28 -38 -28 -57 0 -34 -37 -201 -48 -218 -4 -6
-32 -25 -62 -42 -30 -17 -77 -49 -105 -70 -43 -33 -51 -44 -56 -82 -4 -25 -26
-112 -50 -193 -44 -147 -44 -149 -89 -182 -31 -23 -63 -62 -103 -129 -62 -103
-67 -124 -39 -149 40 -36 68 -14 132 106 33 60 49 81 75 91 19 8 40 25 49 38
13 20 104 313 121 388 3 18 30 41 94 83 49 31 94 57 99 57 6 0 14 5 18 11 9
16 54 217 54 245 0 13 13 38 28 56 15 18 42 52 59 76 l30 42 7 -122 c16 -270
83 -447 221 -577 81 -77 150 -106 250 -106 69 0 89 4 145 31 85 41 158 115
208 212 75 144 102 260 103 446 l1 121 27 -34 c14 -19 42 -54 62 -77 28 -32
38 -54 43 -95 7 -52 42 -209 48 -214 2 -1 19 -10 38 -20 19 -10 67 -41 107
-69 58 -41 72 -56 72 -78 1 -38 94 -341 115 -373 10 -15 32 -33 49 -40 23 -9
46 -36 82 -96 27 -45 62 -92 77 -103 27 -19 28 -19 48 -1 11 10 20 28 20 39
-1 34 -121 216 -155 234 -16 10 -34 24 -40 32 -22 34 -89 260 -110 372 -5 27
-51 65 -157 128 l-56 34 -26 103 c-14 56 -26 115 -26 131 0 16 -7 36 -17 43
-32 27 -308 408 -300 415 4 4 164 -62 259 -106 16 -7 47 -45 77 -94 123 -199
107 -186 343 -293 l127 -58 11 -45 c6 -25 29 -86 50 -136 21 -51 45 -123 54
-160 21 -84 34 -112 57 -119 24 -8 56 10 64 35 7 23 -34 156 -96 313 -22 53
-39 110 -39 125 0 42 -17 58 -105 97 -44 20 -125 57 -180 82 l-101 46 -58 98
c-113 191 -102 183 -366 288 -197 78 -188 72 -161 106 11 15 21 34 21 41 0 18
2 18 101 -7 60 -15 97 -19 134 -14 27 4 110 6 184 5 124 -2 137 -3 165 -25 36
-28 117 -43 249 -47 82 -3 90 -1 107 19 12 15 64 39 152 69 73 25 142 55 153
65 18 18 19 21 5 47 -20 34 -57 39 -107 14 -21 -11 -78 -32 -128 -48 -49 -15
-106 -37 -127 -49 -34 -19 -45 -20 -135 -12 -90 7 -99 10 -123 37 l-25 29
-175 1 c-96 1 -190 -1 -208 -5 -20 -5 -60 -1 -107 10 l-75 18 0 48 0 48 58 6
c104 13 235 43 263 60 8 6 37 63 64 128 53 129 51 127 174 192 l76 40 5 200 5
199 35 23 c62 41 78 62 108 141 l30 77 123 93 c161 120 169 127 169 151 0 44
-63 69 -90 36 -7 -9 -75 -60 -150 -115 l-137 -99 -27 -85 c-27 -80 -31 -87
-77 -117 -89 -57 -89 -56 -89 -264 l0 -182 -74 -37 c-92 -45 -121 -80 -171
-208 -32 -83 -42 -98 -64 -102 -26 -6 -226 -36 -236 -36 -3 0 -12 17 -20 37
-12 29 -13 38 -3 45 28 18 158 68 176 68 30 0 52 32 52 76 0 21 5 88 12 147
l11 108 51 40 c28 23 54 46 58 53 9 17 -9 299 -23 351 -14 50 -34 90 -69 135
-19 24 -29 51 -32 85 -5 55 -50 163 -111 270 -50 87 -74 115 -102 115 -22 0
-55 -28 -55 -46 0 -6 21 -41 46 -79 75 -113 134 -246 134 -304 0 -42 6 -56 40
-100 52 -65 56 -77 69 -197 22 -191 25 -169 -30 -215 -27 -23 -54 -49 -59 -59
-5 -9 -14 -66 -20 -126 -16 -168 -17 -171 -51 -178 -16 -3 -59 -17 -95 -32
l-65 -26 -39 40 c-22 22 -54 45 -70 52 -31 13 -31 13 -12 34 11 12 23 30 26
41 4 11 21 29 38 40 44 28 68 79 68 143 0 80 -39 143 -115 188 -17 10 -16 14
18 70 44 72 61 138 54 208 -6 63 -23 95 -55 102 -45 12 -69 -40 -37 -82 24
-31 18 -63 -32 -161 l-47 -93 -47 0 c-26 0 -54 -3 -62 -6 -10 -4 -28 19 -59
78 -56 103 -65 138 -44 179 20 40 20 63 1 79 -20 16 -57 6 -73 -21 -20 -32
-26 -120 -12 -177 6 -28 27 -77 46 -108 19 -31 33 -58 32 -58 -88 -47 -128
-108 -128 -196 0 -69 38 -138 80 -146 21 -5 32 -16 46 -48 10 -22 19 -43 21
-46 2 -3 -11 -14 -29 -24 -18 -11 -50 -34 -70 -52 l-37 -33 -93 31 c-51 17
-94 32 -95 33 -2 1 -10 66 -19 146 l-17 144 -37 35 c-20 19 -46 43 -58 52 -20
17 -21 23 -16 130 8 155 19 210 50 239 40 37 48 59 50 129 1 79 46 200 103
282 46 66 53 90 34 117 -22 32 -58 26 -87 -12z m375 -887 c26 -14 25 -56 -2
-70 -25 -14 -44 -8 -59 19 -8 17 -7 24 10 41 23 23 25 23 51 10z m217 -2 c32
-32 1 -85 -42 -74 -40 10 -46 69 -8 79 30 8 38 7 50 -5z m-305 -1654 c28 -10
45 -20 36 -21 -41 -9 -207 76 -229 116 -8 15 10 7 65 -28 41 -27 99 -57 128
-67z m502 46 c-8 -13 -52 -35 -85 -44 -14 -4 0 7 30 23 63 34 63 34 55 21z
m-604 -357 c13 -16 12 -17 -3 -4 -17 13 -22 21 -14 21 2 0 10 -8 17 -17z"/>
<path d="M702 3005 c-198 -56 -323 -234 -353 -503 -19 -165 1 -242 61 -242 51
0 60 23 60 161 0 78 6 146 15 182 42 162 153 281 281 300 51 8 97 -5 150 -43
50 -36 54 -36 82 -10 47 44 14 109 -72 145 -55 23 -160 28 -224 10z"/>
<path d="M610 2067 c-182 -55 -314 -168 -395 -340 -46 -98 -54 -148 -26 -176
12 -12 27 -21 35 -21 25 0 64 40 71 73 14 67 64 154 118 204 101 96 215 137
377 136 160 -1 269 -41 410 -147 40 -31 82 -56 92 -56 54 0 73 42 43 99 -23
45 -129 136 -205 175 -148 78 -362 100 -520 53z"/>
<path d="M2205 1755 c-267 -59 -444 -237 -476 -479 -7 -59 -10 -216 -7 -462 3
-359 4 -374 24 -401 28 -37 102 -45 133 -14 20 20 21 33 21 194 1 438 26 681
84 796 54 106 129 155 204 133 110 -33 238 -225 293 -441 22 -86 40 -333 38
-536 -1 -122 0 -130 21 -147 31 -25 65 -22 88 7 18 22 21 48 27 227 11 324
-15 497 -101 677 -62 128 -163 231 -282 289 -92 44 -92 45 13 62 72 12 141 -1
220 -40 70 -34 129 -91 194 -187 25 -37 54 -69 64 -71 27 -5 67 25 67 51 0 72
-136 241 -238 295 -113 60 -251 77 -387 47z"/>
<path d="M900 1705 c-36 -7 -83 -20 -106 -28 -238 -86 -428 -316 -507 -615
-30 -115 -30 -121 -31 -362 0 -262 5 -292 48 -311 31 -14 72 -4 86 20 5 11 15
74 20 142 18 206 88 432 182 594 89 151 231 311 346 388 47 32 148 77 172 77
5 0 17 11 25 24 19 28 9 58 -25 76 -25 14 -130 11 -210 -5z"/>
<path d="M1643 1638 c-11 -13 -25 -32 -31 -44 -8 -15 -31 -25 -89 -37 -157
-34 -293 -110 -427 -237 -205 -196 -367 -498 -421 -784 -17 -93 -13 -131 17
-147 25 -14 65 -4 76 19 5 9 15 53 22 97 61 389 379 820 683 924 31 11 97 28
145 37 72 15 92 23 120 50 24 24 32 41 32 66 0 68 -83 104 -127 56z"/>
<path d="M1500 1178 c-19 -21 -20 -33 -20 -384 0 -345 1 -362 20 -387 11 -13
31 -28 45 -31 29 -7 79 15 89 39 3 9 6 178 6 376 l0 360 -25 24 c-32 33 -86
34 -115 3z"/>
</g>
</svg>
