<?xml version="1.0" standalone="no"?>
<!DOCTYPE svg PUBLIC "-//W3C//DTD SVG 20010904//EN"
 "http://www.w3.org/TR/2001/REC-SVG-20010904/DTD/svg10.dtd">
<svg version="1.0" xmlns="http://www.w3.org/2000/svg"
 width="1024.000000pt" height="1024.000000pt" viewBox="0 0 1024.000000 1024.000000"
 preserveAspectRatio="xMidYMid meet">

<g transform="translate(0.000000,1024.000000) scale(0.100000,-0.100000)"
fill="#000000" stroke="none">
<path d="M2483 9878 c-117 -111 -218 -297 -253 -467 -13 -61 -22 -85 -31 -82
-8 1 -38 9 -67 17 -83 22 -128 18 -159 -12 -23 -23 -25 -32 -21 -83 2 -31 13
-76 24 -98 l21 -41 -46 -7 c-75 -10 -163 -59 -221 -121 -37 -41 -72 -100 -130
-219 -77 -158 -99 -189 -170 -237 l-25 -16 40 -17 c27 -12 56 -16 89 -12 45 4
48 3 30 -10 -43 -33 -109 -55 -151 -50 -42 4 -59 -8 -27 -20 13 -5 13 -7 2
-14 -16 -10 -47 -2 -71 19 -26 23 -30 9 -6 -22 18 -23 19 -27 4 -32 -11 -5
-30 6 -58 33 -151 145 -349 233 -557 248 -107 7 -241 -5 -321 -31 -106 -33
-253 -112 -317 -170 l-62 -56 0 -225 0 -226 102 7 c57 4 143 13 192 21 49 8
91 13 93 11 5 -5 -76 -185 -148 -328 -38 -75 -65 -139 -60 -142 4 -3 23 -1 41
4 19 5 35 8 37 6 6 -6 -96 -86 -180 -141 l-77 -50 1 -90 0 -90 19 45 c10 25
19 53 19 62 1 10 13 26 29 37 193 139 227 169 268 237 11 17 13 16 26 -16 l14
-35 22 64 c12 36 22 75 22 88 0 13 5 23 11 23 5 0 8 -4 5 -8 -6 -10 11 -38 18
-31 7 7 31 138 45 239 6 41 15 98 21 126 l11 51 96 11 96 11 101 -75 c102 -75
224 -144 256 -144 16 0 81 64 198 193 28 32 52 55 52 52 0 -4 -20 -40 -44 -81
-25 -40 -50 -92 -57 -115 -12 -39 -11 -43 9 -60 16 -13 32 -16 57 -12 28 5 35
2 35 -11 0 -21 -121 -275 -160 -336 -35 -55 -36 -60 -11 -60 17 0 13 -11 -28
-87 l-48 -88 30 -3 c24 -3 28 -7 23 -25 -26 -93 -13 -150 59 -247 42 -58 40
-97 -8 -135 -26 -20 -29 -26 -18 -39 12 -14 16 -14 34 -1 29 20 40 19 34 -5
-8 -29 18 -25 31 5 7 14 12 54 12 89 0 57 -4 69 -46 134 -55 86 -62 123 -38
193 l18 54 6 -35 7 -35 18 40 c10 22 26 67 36 100 11 33 17 48 15 33 -5 -41
12 -34 23 10 5 20 24 133 42 251 30 203 31 216 16 243 l-17 29 64 74 c36 40
77 92 92 114 14 23 28 41 29 41 1 0 -9 -46 -21 -101 -13 -56 -26 -132 -30
-169 -6 -65 -5 -69 19 -85 14 -9 46 -23 70 -30 73 -22 401 -98 420 -97 24 1
21 -21 -8 -56 -30 -36 -31 -40 -4 -44 l21 -3 -21 -27 c-25 -31 -26 -38 -7 -38
11 0 9 -11 -10 -46 -35 -66 -31 -133 6 -89 7 8 16 15 21 15 13 0 11 -44 -2
-57 -16 -16 29 -108 73 -149 51 -49 164 -122 205 -134 21 -6 89 -13 151 -17
75 -4 116 -10 123 -20 16 -18 29 -16 29 5 0 41 51 55 100 27 35 -20 38 -19 32
10 -9 51 -88 79 -143 51 -57 -29 -251 -13 -322 26 -51 28 -87 80 -87 125 0 33
0 33 39 27 35 -6 40 -4 46 17 7 21 9 21 20 6 18 -25 23 -22 40 36 11 34 18
108 22 219 7 202 5 206 -91 238 -135 45 -243 61 -443 67 -106 3 -193 7 -193 9
0 2 14 52 30 111 39 136 77 342 86 459 6 88 7 91 43 121 l36 30 -3 -240 c-4
-272 0 -316 33 -355 22 -25 28 -27 107 -27 76 0 89 3 148 35 36 20 104 73 155
121 54 51 97 84 106 82 9 -2 20 -18 23 -36 7 -31 8 -31 21 -13 18 24 19 66 3
101 -6 14 -8 28 -5 31 10 10 57 -25 57 -42 0 -9 6 -14 13 -12 19 7 20 74 1
103 -22 34 -11 42 22 16 34 -27 41 -26 46 4 3 16 -4 37 -19 61 -29 42 -23 57
10 26 15 -14 27 -18 33 -12 11 11 54 2 54 -12 0 -5 -15 -15 -32 -23 l-33 -13
25 -10 c14 -5 32 -11 40 -14 10 -4 0 -12 -28 -25 l-43 -20 38 -15 38 -14 -40
-21 -40 -21 28 -13 c26 -12 26 -13 10 -32 -31 -33 -73 -50 -115 -44 -35 5 -38
3 -38 -19 0 -25 10 -29 65 -25 32 3 80 24 108 49 27 24 20 4 -18 -48 -87 -118
-205 -180 -257 -134 -16 16 -18 15 -24 -1 -10 -26 38 -65 79 -65 81 1 183 81
249 194 23 39 63 93 90 119 26 27 51 61 56 75 12 45 8 371 -7 465 -15 102 -33
131 -79 129 -22 0 -35 5 -42 19 -15 28 -60 24 -106 -9 -85 -62 -272 -278 -478
-555 -49 -65 -90 -116 -92 -114 -2 2 8 55 23 118 46 192 33 429 -27 489 -19
19 -19 20 20 69 45 57 99 101 124 101 9 0 30 -7 45 -15 34 -17 111 -102 111
-121 0 -8 5 -14 10 -14 6 0 10 5 10 10 0 6 13 10 29 10 26 0 31 5 47 52 14 43
15 59 6 97 -7 25 -12 80 -11 122 0 75 -11 117 -40 153 -15 17 -12 22 44 73
127 115 279 202 443 253 68 21 102 36 102 46 0 25 -26 26 -107 4 -192 -52
-386 -180 -488 -323 -18 -25 -22 -26 -40 -13 -18 13 -19 18 -7 72 28 138 133
330 244 448 43 46 78 91 78 100 0 29 -31 16 -87 -36z m145 -1220 c-6 -45 -14
-68 -29 -81 -21 -17 -21 -18 -4 -37 13 -14 15 -24 8 -31 -7 -7 -17 -1 -33 21
l-23 32 39 79 c21 43 41 79 44 79 4 0 3 -28 -2 -62z m-35 -198 c9 0 17 -4 17
-10 0 -9 -39 -35 -44 -28 -42 56 -50 95 -13 60 13 -12 31 -22 40 -22z m-2104
-391 c-17 -41 -53 -121 -80 -178 -27 -57 -49 -105 -49 -108 0 -17 -102 -212
-119 -227 -12 -11 -21 -17 -21 -15 0 2 31 65 68 139 38 74 85 178 106 230 38
97 115 245 122 237 3 -2 -10 -37 -27 -78z m580 -71 c-12 -18 -24 -35 -26 -38
-5 -6 -73 32 -73 41 0 5 17 11 38 14 20 4 42 8 47 10 31 11 35 3 14 -27z
m1176 -415 c-11 -47 -84 -235 -99 -259 -11 -15 -28 -23 -58 -26 -24 -3 -44 -4
-46 -3 -1 1 9 22 23 46 13 24 25 38 25 32 0 -7 4 -13 8 -13 14 0 33 76 38 153
8 99 6 97 65 97 51 0 51 0 44 -27z m-125 -385 l-1 -43 -30 35 c-26 31 -27 35
-12 42 37 14 43 9 43 -34z"/>
<path d="M3864 9881 c-49 -21 -32 -60 21 -47 47 12 145 -42 263 -143 29 -25
65 -62 80 -81 24 -32 22 -31 -26 12 -64 57 -211 131 -312 156 -87 23 -239 28
-302 12 -52 -14 -98 -55 -98 -87 0 -29 35 -32 49 -4 18 33 69 46 181 46 92 0
118 -4 206 -33 125 -41 234 -103 316 -182 l63 -59 -68 25 c-66 23 -82 27 -197
40 -173 19 -477 -63 -586 -158 -58 -51 -83 -119 -48 -132 20 -8 44 11 44 34 0
26 59 73 142 114 203 100 483 113 690 34 l60 -23 -7 -35 c-4 -19 -10 -66 -13
-103 -6 -59 -10 -69 -32 -80 -14 -7 -36 -35 -52 -67 -43 -90 -228 -497 -228
-504 0 -3 7 -6 15 -6 20 0 19 -2 -10 -59 -30 -61 -56 -81 -152 -121 -87 -37
-166 -42 -249 -17 -56 16 -89 9 -99 -22 -9 -28 3 -43 26 -36 11 4 26 2 34 -5
9 -8 15 -8 20 0 4 6 20 8 38 5 71 -12 104 -13 147 -3 61 15 164 62 223 101 41
28 50 40 64 90 18 60 27 70 36 37 9 -33 26 -23 37 23 6 23 34 101 62 172 29
72 64 166 79 210 19 56 28 72 28 52 2 -61 58 -136 77 -105 5 7 7 29 6 48 -2
35 -2 35 14 13 12 -17 26 -23 56 -23 36 0 40 2 35 21 -8 31 32 88 94 135 30
23 73 61 97 85 28 30 42 38 42 27 0 -9 7 -24 16 -33 15 -15 15 -20 -9 -68 -36
-71 -42 -136 -23 -227 9 -41 16 -79 16 -84 0 -4 -19 7 -42 26 -67 55 -136 85
-202 89 l-60 4 -65 -87 c-61 -80 -234 -358 -262 -420 -14 -32 -5 -62 16 -54 8
3 15 1 15 -5 0 -24 -64 -130 -116 -191 -45 -54 -68 -72 -125 -97 -38 -17 -80
-31 -93 -31 -52 0 -79 -89 -29 -96 13 -2 22 -1 22 4 -3 19 2 23 16 12 12 -10
15 -10 15 3 0 14 77 57 102 57 5 0 36 23 68 51 64 55 149 171 171 232 13 37
24 47 31 26 2 -6 54 90 115 213 62 123 122 238 133 256 l21 34 33 -44 c71 -93
208 -129 275 -72 30 25 60 98 77 190 l7 39 19 -54 c33 -97 83 -126 167 -97 24
9 45 16 47 16 2 0 4 -17 4 -39 0 -21 7 -58 15 -81 l15 -42 -41 36 c-59 54 -83
63 -113 42 -37 -23 -40 -65 -26 -285 6 -108 14 -242 17 -298 3 -57 9 -103 12
-103 4 0 12 5 18 11 15 15 19 6 38 -86 33 -162 37 -322 9 -346 -18 -15 -18
-33 0 -48 11 -9 16 -9 21 0 5 6 19 9 37 5 34 -7 48 15 29 46 -7 11 -14 63 -17
116 -3 53 -14 142 -25 197 -23 120 -23 116 -4 109 8 -4 15 -5 15 -3 0 2 -18
126 -39 274 -21 149 -38 271 -36 273 1 1 14 -15 28 -37 14 -22 36 -42 47 -46
28 -9 68 18 84 56 13 30 26 29 26 -2 0 -32 40 -126 65 -153 30 -32 74 -34 101
-5 24 27 24 126 1 182 l-16 37 28 0 c27 0 29 -3 35 -52 7 -59 44 -171 73 -220
42 -72 125 -96 218 -63 21 8 40 13 41 12 1 -1 9 -17 19 -36 10 -19 40 -59 68
-88 38 -40 57 -53 78 -53 22 0 29 -5 29 -19 0 -24 92 -126 131 -146 15 -8 37
-15 49 -15 11 0 25 -10 31 -22 17 -35 118 -108 151 -108 15 0 28 -4 28 -10 0
-12 65 -40 155 -69 39 -12 82 -25 98 -30 18 -6 27 -6 27 1 0 32 -208 346 -388
586 -67 89 -111 157 -106 162 5 5 44 22 87 39 42 17 109 47 148 67 121 61 114
61 147 1 82 -148 132 -220 169 -240 77 -42 87 -46 129 -59 26 -7 44 -18 44
-27 0 -11 3 -12 11 -4 9 9 15 8 26 -3 21 -20 46 0 37 30 -12 38 -34 53 -90 60
-93 11 -139 39 -193 120 -27 39 -62 99 -80 134 l-32 63 78 34 c43 19 100 46
127 60 26 15 49 25 51 23 1 -2 28 -43 60 -92 73 -115 190 -338 206 -396 12
-44 13 -45 19 -15 5 29 7 28 38 -38 18 -37 32 -72 32 -77 0 -14 13 -12 36 5
10 8 22 15 25 15 3 0 29 -31 57 -69 76 -101 184 -162 315 -176 114 -13 118
-14 113 -38 -3 -12 -3 -16 0 -9 7 14 54 16 54 2 0 -5 7 -10 15 -10 24 0 18 48
-10 75 -18 19 -35 25 -67 26 -186 2 -331 71 -396 188 -13 22 -20 41 -15 41 4
0 14 4 22 9 11 7 11 13 1 32 -29 52 -333 450 -403 524 -74 80 -75 80 -123 79
-31 -1 -84 -15 -144 -38 -52 -20 -101 -38 -109 -39 -9 -1 -19 16 -27 48 -14
53 -6 77 20 56 24 -20 25 2 3 54 -47 108 -317 597 -349 632 -28 30 -65 37 -94
18 -55 -36 -308 -351 -419 -522 l-39 -61 -96 85 c-52 47 -116 97 -142 112 -30
16 -48 33 -48 44 0 32 -36 72 -92 103 -46 25 -63 29 -133 29 -77 -1 -80 0
-108 32 -15 17 -44 37 -64 44 -34 11 -101 8 -134 -5 -12 -5 -18 5 -27 56 -19
105 -85 144 -201 118 -48 -11 -64 -21 -118 -76 -68 -69 -65 -70 -106 12 -39
77 -100 149 -187 217 -122 97 -223 140 -276 118z m781 -305 c11 -7 16 -20 12
-29 -5 -13 -12 -14 -41 -5 -36 11 -47 32 -23 41 21 9 33 7 52 -7z m1499 -179
c66 -154 65 -148 14 -182 -124 -84 -234 -172 -323 -258 -55 -53 -101 -97 -102
-97 -2 0 -18 17 -37 38 l-35 37 23 25 c36 39 164 212 266 360 84 123 140 194
146 187 1 -1 23 -50 48 -110z m130 -314 c14 -49 26 -97 26 -108 0 -16 2 -17
10 -5 10 17 24 -12 43 -92 13 -51 20 -58 36 -31 5 10 12 15 15 12 11 -11 35
-114 28 -120 -4 -3 -45 -20 -92 -38 -47 -18 -139 -56 -204 -84 l-119 -51 -98
105 c-54 57 -98 107 -99 110 0 3 48 46 108 97 59 50 152 136 207 192 55 55
102 100 106 100 3 0 18 -39 33 -87z"/>
<path d="M8280 9446 c-140 -30 -265 -87 -358 -166 -101 -83 -194 -231 -208
-330 -3 -25 -15 -54 -25 -65 -43 -47 -64 -116 -66 -215 -1 -52 -2 -98 -2 -102
-1 -4 -14 -14 -31 -23 -16 -9 -30 -19 -30 -23 0 -14 41 -33 88 -39 41 -5 55
-14 110 -69 196 -198 463 -248 780 -149 l23 8 -17 -37 c-15 -30 -23 -36 -50
-36 -47 0 -179 -27 -251 -51 l-62 -20 -78 -117 c-44 -64 -86 -132 -94 -149 -7
-18 -19 -33 -25 -33 -7 0 -50 -18 -96 -40 -81 -39 -136 -55 -228 -65 -24 -3
-52 -13 -62 -22 -23 -20 -25 -83 -3 -83 8 0 15 8 15 17 0 14 3 13 23 -5 30
-28 35 -28 30 2 -4 19 0 24 20 28 14 3 31 2 38 -3 7 -4 19 -1 26 7 8 8 30 14
49 14 19 0 42 4 52 9 96 47 117 60 137 83 20 23 25 25 35 13 7 -8 25 -15 40
-15 43 0 68 37 121 185 17 48 37 88 43 90 6 1 63 10 126 19 63 8 144 25 180
36 61 20 71 27 160 125 l95 105 58 0 57 0 -34 -67 c-18 -38 -38 -84 -44 -104
l-9 -35 69 -38 68 -37 -89 -87 c-55 -54 -98 -106 -113 -137 -14 -27 -44 -87
-67 -132 -46 -91 -59 -137 -42 -147 6 -4 11 -20 11 -37 0 -19 5 -29 15 -29 19
0 66 -52 61 -67 -3 -7 6 -13 22 -15 24 -3 27 -7 25 -36 -1 -30 1 -33 20 -28
12 3 25 6 30 6 4 0 7 7 7 15 0 18 12 19 28 3 9 -9 12 -7 12 10 0 16 -27 48
-81 100 -44 42 -76 78 -70 80 6 2 25 48 42 102 20 64 35 97 43 94 7 -3 25 5
40 17 26 20 133 173 190 271 32 56 29 67 -40 125 l-45 40 32 54 c19 30 34 55
35 57 1 2 17 -4 35 -13 48 -25 136 -17 188 18 22 15 42 27 44 27 2 0 -5 -33
-15 -72 -10 -40 -17 -93 -16 -117 l3 -45 70 -18 c86 -21 258 -48 314 -48 l41
0 0 -154 c0 -136 2 -157 19 -177 16 -20 22 -22 43 -12 24 11 26 9 36 -25 7
-22 34 -59 67 -92 30 -30 55 -60 55 -67 0 -7 11 -15 24 -19 15 -3 27 -16 30
-30 5 -20 11 -24 28 -18 20 6 21 4 14 -35 -7 -46 -5 -48 29 -25 23 15 25 15
25 0 0 -23 19 -20 29 6 12 34 1 67 -32 90 -17 12 -46 40 -66 62 -19 23 -69 75
-110 116 l-74 75 -3 85 c-2 47 -14 130 -26 185 -23 98 -24 100 -61 119 -64 31
-137 46 -249 53 l-106 6 13 31 c8 17 17 48 20 69 5 33 8 37 21 26 27 -23 105
-15 158 14 27 15 52 27 55 27 4 0 12 -19 18 -43 7 -24 27 -65 45 -93 29 -42
38 -49 71 -52 l37 -3 1 -82 c1 -115 8 -132 47 -131 27 2 32 -2 32 -20 0 -29
78 -103 103 -98 10 2 25 -2 33 -9 9 -7 28 -13 42 -14 20 0 28 -6 30 -22 2 -13
10 -23 17 -23 7 0 16 10 18 23 l4 22 8 -22 c9 -28 22 -29 30 -3 12 39 -16 72
-75 87 -31 8 -84 33 -122 59 -66 45 -67 47 -66 87 1 23 -7 75 -17 116 -16 65
-23 76 -52 94 -24 14 -45 41 -69 89 -19 38 -34 74 -32 80 2 6 28 -19 57 -55
29 -36 83 -87 118 -113 36 -27 76 -65 90 -86 25 -41 43 -42 43 -2 0 27 9 30
29 12 11 -11 12 -4 6 35 -4 33 -2 53 6 63 9 11 12 49 11 122 l-2 107 79 55
c68 46 80 59 81 83 l0 28 -32 -23 c-18 -12 -57 -42 -85 -65 -29 -24 -55 -43
-58 -43 -3 0 -5 16 -5 35 0 24 22 78 65 165 36 71 70 132 76 136 5 3 16 0 24
-6 13 -11 15 -7 15 24 0 30 -4 37 -25 42 -14 3 -31 2 -38 -4 -6 -6 -41 -70
-77 -144 -75 -154 -71 -148 -78 -128 -3 8 -26 36 -51 61 -47 48 -96 69 -158
69 -23 0 -33 5 -33 15 0 9 -9 40 -19 70 -51 145 -192 235 -367 235 -71 0 -78
2 -127 38 -192 142 -458 274 -637 317 -93 22 -270 28 -350 11z m80 -376 c183
-37 432 -130 659 -245 123 -63 200 -110 161 -99 -14 3 -37 13 -51 20 -92 47
-479 175 -664 220 -143 34 -148 29 -15 -15 169 -57 585 -229 576 -238 -2 -2
-59 10 -127 27 -198 48 -531 91 -814 105 -66 3 -136 8 -155 11 -19 3 -32 3
-28 -1 15 -15 474 -113 660 -141 64 -9 115 -21 113 -25 -3 -4 -67 -8 -142 -8
-136 -2 -167 -3 -413 -21 -69 -5 -179 -12 -245 -16 -110 -7 -116 -8 -70 -16
66 -11 308 -13 825 -4 268 4 418 3 405 -3 -11 -5 -56 -10 -100 -10 -44 -1
-170 -8 -280 -16 -110 -8 -270 -19 -355 -25 -85 -6 -210 -15 -278 -20 -68 -6
-161 -10 -207 -10 l-84 0 -17 77 c-20 91 -13 146 33 239 93 191 326 272 613
214z m1165 -104 c28 -12 67 -41 87 -64 42 -47 74 -138 63 -180 l-7 -27 -17 25
c-61 92 -145 144 -233 145 -44 0 -63 -5 -88 -23 l-31 -23 20 38 c11 22 30 44
43 50 23 11 22 12 -7 12 -16 1 -43 -6 -59 -14 -33 -18 -39 -19 -31 -5 9 14 -8
13 -23 -2 -7 -7 -12 -8 -12 -2 0 14 49 58 85 77 47 25 150 22 210 -7z m364
-330 c32 -17 67 -77 58 -100 -6 -15 -12 -12 -43 18 -41 40 -76 46 -106 19 -17
-15 -18 -15 -18 10 0 32 32 67 60 67 12 0 33 -6 49 -14z"/>
<path d="M2877 7713 c-17 -16 -2 -32 60 -64 82 -41 211 -164 273 -259 119
-184 286 -615 320 -827 8 -50 15 -62 60 -103 27 -25 50 -49 50 -53 0 -4 -28
-6 -63 -5 -53 2 -71 -2 -110 -25 -62 -37 -97 -96 -97 -166 0 -45 4 -57 30 -83
26 -26 36 -30 75 -26 47 3 54 -2 30 -22 -8 -7 -17 -28 -21 -46 -6 -32 -8 -34
-23 -19 -10 8 -23 15 -31 15 -7 0 -1 -9 14 -21 34 -27 37 -58 4 -35 -12 9 -28
16 -35 16 -19 0 -16 -18 5 -24 9 -4 28 -16 42 -27 l25 -20 -56 4 c-47 3 -71
13 -158 65 -56 34 -120 68 -140 74 l-38 12 5 92 c5 99 -5 244 -17 244 -4 0
-13 -11 -19 -25 l-12 -25 -60 65 c-33 35 -60 74 -60 85 0 13 -10 24 -26 30
-24 9 -25 14 -19 50 6 37 5 40 -15 40 -18 0 -21 4 -18 25 3 14 1 25 -3 25 -14
0 -10 32 6 44 12 9 12 14 0 30 -32 42 -125 -23 -125 -88 0 -33 20 -62 27 -39
2 6 10 18 17 28 13 18 14 17 26 -6 8 -13 13 -38 12 -55 -3 -32 16 -57 39 -52
10 2 14 -7 14 -29 0 -24 11 -42 48 -79 l49 -48 -39 -20 -38 -20 37 -6 c38 -7
68 -25 68 -42 0 -5 -8 -7 -18 -3 -19 5 -72 -28 -72 -46 0 -5 12 -6 26 -3 25 7
74 -12 74 -28 0 -4 -8 -8 -17 -8 -10 0 -26 -7 -36 -14 -16 -12 -15 -14 15 -20
32 -6 68 -32 68 -48 0 -4 -11 -8 -24 -8 -31 0 -56 -10 -56 -21 0 -5 3 -8 8 -7
11 2 64 -12 90 -24 16 -9 22 -20 22 -45 0 -73 33 -116 134 -177 73 -44 111
-46 186 -9 l55 27 -42 4 c-24 2 -43 7 -43 12 0 9 128 19 144 12 4 -3 -23 -37
-62 -76 -38 -39 -75 -80 -80 -92 -6 -12 -26 -29 -44 -38 -32 -17 -32 -17 -5
-13 27 4 27 3 20 -32 -4 -20 -7 -48 -7 -63 1 -16 1 -28 0 -28 -1 0 -19 7 -41
15 -57 20 -164 19 -195 -2 -35 -23 -41 -35 -35 -60 3 -13 1 -23 -4 -23 -16 0
-48 -64 -87 -172 -20 -57 -49 -129 -65 -160 l-29 -58 27 11 c14 5 33 17 40 27
15 18 15 15 -3 -50 -9 -34 -53 -76 -86 -83 -23 -6 -27 -9 -17 -21 9 -11 0 -19
-52 -44 -35 -16 -73 -30 -84 -31 -11 0 -14 -3 -7 -6 20 -8 14 -23 -9 -23 -12
0 -39 -5 -60 -12 -29 -8 -49 -8 -74 0 -32 9 -39 8 -66 -15 -37 -32 -53 -68
-39 -91 8 -15 9 -15 10 3 0 16 6 13 31 -18 21 -25 39 -37 56 -37 21 0 23 2 13
15 -7 8 -14 30 -17 49 -4 29 -1 35 18 41 15 5 25 2 31 -9 11 -20 38 -21 38 -1
0 9 9 15 25 15 16 0 25 -6 25 -15 0 -8 7 -15 15 -15 8 0 15 4 15 10 0 12 68
80 80 80 5 0 12 -10 16 -22 l7 -22 18 23 c11 13 19 31 19 41 0 17 53 70 70 70
4 0 6 -17 3 -39 -9 -66 12 -53 36 22 12 40 25 79 27 87 3 9 13 -3 26 -33 23
-52 40 -48 32 7 -3 17 -2 55 2 85 l6 54 15 -31 c8 -17 24 -39 35 -48 19 -18
19 -18 14 6 -25 107 -37 380 -18 380 5 0 44 -9 87 -20 43 -11 97 -20 121 -20
24 0 45 -4 48 -8 3 -5 -4 -42 -14 -83 -34 -131 -59 -300 -70 -464 -6 -88 -14
-163 -18 -166 -4 -4 -41 -19 -82 -34 -206 -77 -313 -167 -255 -215 9 -8 13
-21 9 -36 -3 -12 -1 -65 6 -116 13 -103 84 -394 101 -414 13 -16 3 -35 -62
-126 -54 -75 -58 -83 -30 -68 27 14 31 13 31 -9 0 -11 -11 -28 -24 -39 -17
-13 -23 -25 -19 -40 3 -14 -7 -33 -35 -64 -21 -24 -37 -48 -35 -54 4 -13 -33
-47 -72 -65 -24 -11 -31 -22 -33 -49 -3 -33 -3 -34 12 -15 14 18 15 18 16 2 0
-45 72 -82 110 -57 13 8 12 12 -7 25 -26 18 -28 33 -12 88 10 36 12 38 40 32
25 -6 29 -4 30 17 3 40 5 52 13 81 9 28 22 35 28 15 2 -6 10 -8 16 -4 7 4 12
35 12 79 1 75 1 75 37 20 9 -14 11 1 6 75 -5 77 -4 92 9 92 8 0 21 -11 28 -25
7 -14 17 -25 22 -25 5 0 6 5 3 10 -3 5 -2 10 4 10 8 0 -7 84 -25 135 -5 14 5
9 32 -17 22 -21 43 -38 46 -38 4 0 -3 24 -16 53 -13 28 -27 63 -31 77 -7 23
-4 22 32 -12 21 -21 42 -38 46 -38 15 0 -34 103 -107 224 -43 71 -89 151 -102
180 l-24 51 35 7 c45 10 107 41 168 85 42 29 48 31 43 14 -18 -62 -18 -66 -7
-56 6 6 20 28 30 50 l20 40 1 -38 c0 -53 26 -220 50 -324 35 -148 139 -390
223 -514 44 -67 104 -98 134 -68 8 8 13 2 18 -23 4 -18 20 -61 36 -96 16 -34
29 -65 29 -68 0 -12 42 -65 60 -74 15 -8 24 -5 44 16 13 15 31 43 39 63 48
115 57 142 57 166 0 22 3 26 18 19 9 -4 32 -8 51 -8 49 1 94 56 169 203 99
195 166 423 190 646 l8 70 19 -35 c15 -28 20 -31 23 -16 2 10 -6 32 -18 48
-22 30 -21 30 36 -9 81 -55 135 -81 183 -89 23 -4 41 -9 41 -12 0 -3 -47 -87
-105 -187 -57 -99 -112 -199 -121 -220 l-16 -40 41 40 c23 21 41 34 41 28 0
-5 -11 -41 -25 -79 -14 -38 -25 -71 -25 -74 0 -2 21 16 46 40 26 25 44 37 41
27 -12 -32 -29 -146 -25 -159 3 -8 12 1 22 20 17 33 35 42 37 20 1 -7 1 -51
-1 -98 -2 -79 -1 -83 14 -65 8 11 16 28 16 38 0 10 5 15 10 12 6 -3 10 -37 10
-75 0 -70 11 -94 29 -63 8 16 12 13 25 -19 9 -21 16 -48 16 -60 0 -34 13 -49
40 -46 20 3 26 -4 38 -44 16 -50 7 -78 -24 -78 -17 0 -18 -16 -1 -23 30 -11
78 6 99 36 20 27 22 28 28 11 7 -18 8 -17 14 4 8 25 -16 72 -37 72 -19 0 -67
49 -67 68 0 9 -19 36 -42 59 -33 34 -39 46 -30 55 9 9 5 18 -18 39 -30 28 -39
49 -19 49 5 0 7 5 4 10 -10 16 11 12 25 -5 7 -9 15 -13 18 -10 3 3 -4 15 -15
28 -37 38 -113 161 -104 167 4 3 22 57 39 120 44 162 81 410 60 410 -5 0 -1
13 8 29 23 39 12 73 -37 112 -41 32 -177 96 -256 119 -42 13 -43 14 -43 55 0
149 -51 500 -93 638 -8 26 -12 49 -9 51 4 2 39 7 77 11 39 3 95 15 125 25 30
10 56 17 58 16 6 -7 6 -240 -1 -316 l-8 -85 21 24 c11 13 20 32 20 43 0 10 5
16 10 13 6 -3 10 -44 10 -91 0 -46 4 -84 9 -84 14 0 20 13 23 49 1 17 7 30 12
28 6 -2 27 -38 48 -80 21 -42 41 -77 44 -77 4 0 4 16 1 35 -3 20 -2 35 4 35
18 0 58 -51 64 -81 8 -36 33 -49 47 -26 14 26 35 20 64 -18 30 -39 40 -42 65
-19 19 17 39 11 39 -12 0 -19 27 -18 38 3 12 20 47 10 39 -11 -3 -8 -9 -31
-13 -50 -5 -32 -4 -36 15 -36 24 0 61 33 61 55 0 21 18 19 23 -2 3 -11 5 -6 6
11 1 17 -9 43 -24 62 -24 32 -28 33 -93 32 -77 0 -132 9 -132 23 0 5 -7 9 -15
9 -8 0 -15 4 -15 9 0 4 -21 16 -47 26 -61 22 -69 30 -53 50 11 13 9 15 -10 15
-36 0 -88 46 -100 88 -16 59 -13 69 13 45 12 -11 32 -24 44 -27 21 -7 20 -3
-11 49 -19 30 -49 92 -67 138 -44 112 -79 180 -96 190 -8 5 -11 16 -8 27 9 28
-10 56 -46 69 -40 14 -123 14 -168 1 -19 -5 -36 -9 -37 -7 -1 1 -4 26 -6 55
-5 52 -5 52 24 52 18 0 27 4 22 11 -3 6 -17 8 -30 5 -19 -5 -28 2 -59 49 -21
30 -62 78 -94 105 l-56 50 60 0 c33 0 70 -3 83 -6 42 -12 22 -20 -40 -17 -71
5 -74 13 25 -70 41 -34 47 -36 73 -26 l29 12 -48 12 c-57 16 -78 31 -27 20 19
-4 37 -8 40 -8 16 -3 90 17 122 34 68 35 107 77 123 134 9 28 13 59 9 68 -4
11 6 22 35 36 22 12 50 21 61 21 12 0 18 5 15 10 -3 6 -25 10 -47 10 l-41 0
23 25 c16 17 34 25 58 25 34 0 35 0 17 20 -10 11 -26 20 -37 20 -10 0 -18 4
-18 9 0 20 32 33 70 29 25 -2 39 0 37 7 -6 16 -81 55 -96 49 -10 -3 -9 2 4 16
12 14 31 20 59 20 l41 1 -24 19 c-13 11 -33 20 -45 20 -17 0 -11 9 33 49 51
47 53 51 47 88 -4 25 -4 33 3 24 7 -11 14 -9 35 14 15 16 24 35 22 42 -6 15
13 63 24 63 4 0 14 -10 22 -22 22 -33 41 -14 35 36 -7 51 -44 86 -91 86 -41 0
-68 -25 -36 -33 20 -5 27 -36 13 -51 -5 -4 -8 -17 -8 -29 0 -15 -6 -22 -20
-22 -17 0 -20 -6 -19 -37 1 -28 -4 -39 -22 -49 -14 -7 -24 -22 -24 -34 0 -18
-105 -135 -122 -135 -3 0 -8 10 -11 22 -16 61 -32 -45 -31 -204 1 -94 -2 -118
-13 -118 -23 0 -85 -36 -138 -80 -27 -23 -61 -47 -75 -54 -27 -14 -130 -30
-130 -21 0 3 20 14 45 25 25 11 45 22 45 26 0 6 -33 0 -64 -12 -14 -5 -13 0 5
30 19 32 19 37 6 51 -14 13 -16 13 -22 -5 -9 -28 -25 -25 -25 4 0 14 -7 31
-15 40 -22 22 -19 26 24 26 29 0 47 7 70 29 27 25 31 36 31 78 0 57 -38 126
-89 162 -36 26 -114 41 -156 29 -16 -4 -31 -6 -33 -3 -12 11 15 49 53 75 39
27 45 36 55 87 35 177 121 434 203 606 121 253 245 408 385 481 39 20 72 43
72 51 0 56 -158 -12 -254 -110 -81 -82 -153 -191 -231 -350 -106 -215 -200
-497 -220 -656 -6 -51 -11 -59 -43 -80 -20 -13 -43 -37 -50 -52 -20 -42 -37
-20 -23 29 13 46 13 54 4 54 -5 0 -16 -20 -26 -45 -25 -58 -38 -57 -31 3 4 35
3 43 -5 32 -6 -8 -11 -30 -11 -47 0 -46 -27 -44 -36 3 -7 39 -24 29 -24 -13 0
-36 -19 -27 -40 20 l-19 42 0 -42 c-1 -53 -15 -62 -31 -20 -36 98 -46 103 -25
14 14 -59 5 -85 -16 -45 -6 13 -28 39 -48 58 -34 31 -39 43 -51 115 -26 162
-111 417 -209 628 -96 209 -253 396 -382 457 -64 30 -90 36 -102 23z m678
-1368 c0 -12 -15 -28 -40 -42 -71 -40 -88 -23 -33 34 36 37 73 41 73 8z m94
-30 c9 -35 4 -82 -10 -91 -5 -3 -9 20 -9 51 0 31 -5 66 -12 78 -10 20 -10 21
5 8 9 -7 21 -28 26 -46z m356 -15 c0 -59 -2 -68 -12 -53 -16 20 -17 77 -3 104
6 10 12 19 13 19 1 0 2 -32 2 -70z m120 35 c0 -15 -8 -21 -29 -23 -33 -4 -51
10 -42 33 9 25 71 16 71 -10z m-340 -165 c3 -5 1 -10 -4 -10 -6 0 -33 -22 -61
-50 -48 -48 -70 -57 -104 -44 -36 14 -11 78 37 99 37 17 123 20 132 5z m-655
-150 c0 -5 -7 -10 -16 -10 -8 0 -12 5 -9 10 3 6 10 10 16 10 5 0 9 -4 9 -10z
m1385 1 c7 -12 -12 -24 -25 -16 -11 7 -4 25 10 25 5 0 11 -4 15 -9z m-602
-106 c170 -36 329 -176 344 -303 5 -44 3 -51 -22 -70 -40 -32 -48 -27 -13 8
25 26 29 36 24 62 -17 86 -90 174 -180 217 -60 29 -190 61 -250 61 -146 0
-282 -55 -365 -146 -61 -67 -84 -127 -66 -172 21 -48 44 -55 225 -67 47 -3
109 -11 138 -17 39 -8 69 -8 120 0 76 13 304 33 310 28 2 -2 -30 -9 -70 -16
-40 -7 -127 -23 -192 -36 -92 -19 -127 -22 -155 -14 -20 5 -88 14 -151 20
-148 14 -203 32 -236 76 -22 28 -25 40 -19 71 11 58 41 108 98 166 127 126
280 170 460 132z m351 -74 c3 -4 -6 -6 -19 -3 -14 2 -25 6 -25 8 0 8 39 4 44
-5z m-567 -16 c43 -30 60 -153 30 -211 -19 -37 -60 -49 -121 -34 -55 12 -87
48 -93 102 -5 40 -2 49 28 83 30 34 97 74 124 75 6 0 20 -7 32 -15z m124 13
c0 -2 2 -61 5 -133 6 -164 -11 -150 -21 18 -6 85 -5 117 4 117 6 0 11 -1 12
-2z m-686 -309 c-4 -5 -16 -9 -28 -9 -21 1 -21 1 -3 15 20 15 41 11 31 -6z
m1372 5 c-3 -3 -12 -4 -19 -1 -8 3 -5 6 6 6 11 1 17 -2 13 -5z m-1114 -64 c-3
-12 -8 -19 -11 -16 -5 6 5 36 12 36 2 0 2 -9 -1 -20z m47 -106 c-13 -83 -26
-101 -16 -24 9 66 17 102 23 97 2 -3 -1 -35 -7 -73z m340 39 c3 -2 7 -51 10
-108 3 -57 8 -107 13 -111 4 -4 7 35 7 87 0 101 6 139 23 139 12 0 2 -621 -14
-865 -12 -186 -55 -580 -74 -683 -20 -107 -55 -200 -86 -233 -32 -34 -49 -36
-80 -8 -23 19 -23 20 -2 10 32 -16 41 -14 65 14 61 70 98 277 103 575 l4 205
-15 -100 c-8 -55 -17 -107 -20 -115 -7 -20 -54 117 -89 262 -16 65 -30 116
-32 114 -2 -2 8 -72 22 -156 14 -85 23 -155 21 -157 -2 -2 -26 65 -54 149 -35
104 -50 139 -47 108 l5 -45 -16 40 c-23 60 -64 316 -64 398 l0 72 34 -95 c38
-107 97 -252 102 -247 2 1 -1 20 -6 42 -49 220 -78 648 -47 690 9 11 19 17 23
13 4 -4 24 -81 45 -172 22 -90 47 -190 57 -222 l18 -59 7 211 c3 116 11 223
17 238 8 23 14 25 37 20 16 -4 30 -9 33 -11z m-794 -892 c-19 -21 -56 -34 -56
-20 0 9 48 38 64 39 5 0 1 -9 -8 -19z m1664 -1 c14 -10 22 -21 19 -25 -4 -3
-20 5 -35 19 -34 30 -21 35 16 6z m-813 -382 c-3 -8 -6 -5 -6 6 -1 11 2 17 5
13 3 -3 4 -12 1 -19z m27 -157 c9 -63 14 -116 12 -118 -5 -5 -25 103 -32 177
-11 104 3 65 20 -59z m196 -345 c-19 -17 -60 -30 -60 -19 0 7 22 17 70 32 2 0
-2 -5 -10 -13z"/>
<path d="M3752 4450 c0 -14 2 -19 5 -12 2 6 2 18 0 25 -3 6 -5 1 -5 -13z"/>
<path d="M6381 7387 c-66 -33 -151 -117 -151 -149 0 -41 37 -77 124 -118 44
-21 90 -46 100 -54 19 -15 17 -18 -33 -71 -67 -71 -95 -132 -95 -212 -1 -76
19 -101 101 -127 55 -18 59 -34 8 -37 -18 -1 -18 -2 -2 -6 14 -4 16 -8 6 -19
-9 -11 -8 -14 2 -14 9 0 7 -5 -5 -11 -15 -9 -16 -13 -5 -20 10 -6 5 -9 -15 -9
-29 0 -29 -1 -10 -16 18 -14 18 -15 -6 -9 l-25 6 24 -21 c13 -11 21 -23 18
-26 -3 -3 -41 6 -84 19 -43 14 -94 28 -113 32 l-35 6 -1 77 c-1 83 -24 174
-52 209 -9 11 -48 32 -87 46 -75 26 -81 32 -90 89 -8 48 -29 70 -61 62 -24 -6
-25 -5 -22 32 3 37 2 39 -29 42 -30 3 -32 6 -27 32 6 26 3 29 -22 32 -26 3
-29 6 -26 36 2 30 0 32 -32 32 -38 0 -86 -33 -86 -59 0 -10 10 -26 22 -37 12
-10 18 -13 14 -6 -4 6 -3 12 3 12 13 0 111 -94 111 -107 0 -6 12 -18 26 -28
15 -10 23 -22 20 -31 -17 -44 44 -115 137 -159 l68 -32 2 -79 c2 -64 8 -91 31
-142 16 -35 42 -74 57 -87 37 -31 122 -62 206 -75 69 -11 88 -19 65 -27 -6 -3
-10 -9 -6 -14 3 -5 -2 -9 -12 -9 -13 0 -14 -3 -4 -15 10 -13 9 -15 -11 -16
l-24 -1 25 -8 25 -8 -28 -1 c-16 -1 -26 -5 -22 -10 3 -6 -3 -14 -12 -20 -16
-9 -15 -11 7 -11 25 -1 25 -1 3 -10 -33 -13 -28 -21 9 -13 22 4 29 3 24 -5 -4
-7 -13 -12 -20 -12 -7 0 -21 -7 -32 -15 -18 -14 -17 -15 11 -8 l30 6 -30 -27
c-16 -15 -23 -25 -13 -23 26 9 29 -4 5 -25 -17 -15 -18 -18 -4 -14 20 6 22 -5
5 -22 -7 -7 -14 -17 -14 -23 -3 -19 -5 -24 -13 -38 -8 -12 -21 -7 -71 28 -77
54 -164 90 -239 97 -53 6 -65 3 -143 -33 -46 -22 -120 -64 -163 -93 l-78 -52
-131 27 c-72 14 -132 31 -134 36 -2 5 -18 9 -36 9 -19 0 -38 8 -49 20 -35 42
-117 7 -117 -50 0 -29 21 -53 28 -32 2 8 9 6 20 -5 16 -15 17 -15 20 0 5 24
53 22 75 -3 19 -22 33 -25 42 -9 5 7 11 5 18 -4 11 -13 108 -36 227 -53 25 -4
50 -11 57 -16 8 -7 17 -5 28 5 8 8 38 23 67 33 97 32 154 62 185 97 17 19 33
41 35 48 2 7 26 -11 56 -43 55 -59 134 -103 201 -114 22 -4 41 -8 41 -9 0 -1
-22 -38 -48 -82 -27 -44 -54 -94 -61 -111 -10 -23 -34 -44 -90 -76 -114 -66
-164 -132 -191 -252 -8 -36 -24 -57 -88 -118 -42 -40 -121 -110 -175 -156 -54
-45 -101 -88 -104 -96 -3 -8 -15 -14 -28 -14 -29 0 -85 -62 -85 -94 0 -13 8
-30 18 -39 23 -21 36 -22 28 -2 -6 17 9 21 19 5 3 -5 20 -10 37 -10 l31 0 -22
24 c-22 24 -22 25 -4 43 11 11 24 18 30 16 6 -2 14 5 18 17 4 11 32 39 63 62
58 42 147 118 215 182 67 63 73 47 23 -53 -156 -309 -262 -643 -296 -936 -37
-324 26 -699 140 -828 41 -47 77 -66 143 -77 124 -19 254 31 378 148 75 71
179 198 179 220 0 6 17 14 38 17 175 28 382 103 497 182 66 44 146 125 217
218 47 62 148 231 148 250 1 5 20 -48 44 -120 112 -332 284 -631 449 -780 34
-31 95 -73 136 -93 66 -33 84 -37 150 -37 63 0 84 4 121 25 74 42 132 147 167
305 18 78 24 436 10 585 -19 210 -106 501 -231 772 l-35 78 42 -27 c23 -14 44
-30 45 -34 2 -5 12 -9 23 -9 13 0 19 -6 17 -17 -2 -14 4 -18 27 -18 33 0 36
-16 8 -47 -15 -17 -14 -18 15 -18 17 0 34 4 37 10 3 5 16 15 27 21 18 10 20 9
14 -7 -6 -18 -5 -18 9 0 20 27 18 46 -8 78 -24 29 -84 58 -104 51 -7 -3 -13 0
-13 5 0 11 -100 82 -157 111 -31 15 -56 42 -94 97 -50 75 -51 77 -40 119 19
76 15 100 -24 134 -39 34 -126 81 -150 81 -8 0 -15 4 -15 10 0 5 -21 44 -46
87 -72 122 -70 117 -43 109 28 -7 249 25 249 36 0 4 15 8 33 8 21 0 39 8 50
21 20 23 43 20 41 -5 -2 -23 21 -20 39 7 15 21 16 21 17 2 1 -18 2 -18 10 3
10 24 0 61 -22 79 -39 33 -105 21 -93 -17 4 -14 0 -16 -25 -12 -17 2 -37 -1
-44 -7 -13 -11 -122 -33 -232 -48 l-40 -5 -46 93 c-52 108 -74 134 -119 144
-34 8 -68 40 -69 64 0 8 -8 23 -17 34 -17 19 -17 19 7 13 l25 -7 -25 15 -25
15 23 1 c32 0 19 17 -21 26 -31 7 -32 8 -7 15 14 4 18 8 10 8 -13 1 -13 2 0
11 12 8 12 10 -5 10 -20 1 -20 1 -1 15 20 15 20 15 0 15 -16 0 -17 2 -4 10 12
7 8 10 -15 10 l-30 1 25 14 25 13 -28 8 c-21 5 -25 9 -15 15 9 6 6 9 -10 9
-41 0 -18 24 34 35 43 10 50 15 61 45 19 56 16 179 -7 245 -11 32 -19 59 -18
60 2 1 24 12 49 23 66 32 90 62 96 119 3 26 13 57 23 68 10 11 23 30 29 42 6
12 26 26 45 33 19 6 37 18 40 26 3 8 11 12 17 8 6 -3 15 0 20 7 7 11 9 11 9 1
0 -7 5 -10 10 -7 14 9 12 48 -2 68 -7 9 -33 19 -57 23 l-44 7 6 -31 c6 -28 4
-32 -16 -32 -34 0 -51 -15 -44 -39 4 -15 0 -21 -12 -21 -9 0 -27 -7 -39 -16
-16 -11 -21 -21 -16 -40 5 -21 3 -24 -20 -24 -21 0 -30 -7 -42 -35 -7 -19 -14
-46 -14 -60 0 -21 -10 -30 -55 -51 -46 -22 -56 -32 -65 -63 -18 -67 -5 -175
29 -239 11 -20 9 -22 -14 -22 -17 0 -24 4 -19 11 4 8 0 9 -15 4 -12 -4 -21 -2
-21 4 0 6 8 11 18 12 17 1 16 1 -27 15 -11 4 -10 8 5 18 17 13 16 14 -11 9
l-30 -5 25 21 25 22 -30 -7 -30 -7 20 23 20 23 -22 -12 c-25 -13 -30 -3 -10
18 10 11 8 11 -11 1 -27 -13 -44 -4 -22 11 11 8 10 9 -7 4 -31 -8 -29 1 7 42
74 84 6 207 -154 279 -36 16 -65 31 -66 34 0 3 42 28 93 55 103 56 122 83 96
131 -27 51 -173 146 -210 137 -31 -8 -117 -91 -145 -140 -15 -24 -32 -63 -39
-86 -11 -37 -16 -43 -48 -48 -36 -6 -36 -5 -68 59 -34 71 -121 163 -185 199
l-40 22 -43 -22z m112 -93 c49 -40 117 -126 132 -166 3 -9 -13 -19 -50 -30
-54 -18 -54 -18 -79 5 -14 13 -62 43 -107 67 -87 47 -99 61 -78 87 20 23 102
82 115 83 7 0 37 -21 67 -46z m547 1 c34 -25 60 -51 57 -58 -2 -6 -37 -31 -78
-55 -41 -23 -82 -52 -91 -63 -16 -19 -21 -19 -73 -7 -62 14 -63 18 -17 97 28
50 107 131 127 131 7 0 41 -20 75 -45z m-210 -225 c19 -5 59 -34 90 -64 30
-29 81 -70 113 -91 77 -50 79 -57 6 -28 -145 59 -363 32 -524 -64 l-40 -24 35
31 c19 17 53 43 75 57 95 63 132 114 115 158 -6 15 -10 28 -10 31 0 8 106 4
140 -6z m-192 -22 c7 -7 12 -15 12 -19 0 -7 -114 -49 -132 -49 -19 0 -5 31 25
54 34 28 75 34 95 14z m352 -288 c73 -20 150 -100 150 -157 0 -27 -2 -26 -69
37 -38 36 -83 73 -100 83 l-30 18 20 -46 c29 -65 49 -184 48 -278 -1 -45 -4
-71 -6 -57 -17 112 -50 237 -78 298 -39 82 -54 97 -25 22 28 -72 28 -203 -1
-271 -20 -46 -67 -89 -98 -89 -20 0 -38 59 -52 163 -7 53 -17 97 -22 97 -5 0
-16 -8 -24 -17 -13 -16 -14 -15 -10 15 2 17 0 32 -4 32 -20 0 -68 -55 -95
-109 -18 -38 -35 -60 -46 -60 -28 -1 -24 91 6 155 62 133 265 210 436 164z
m-324 -462 c26 -52 29 -62 14 -53 -10 6 -80 122 -80 132 0 16 45 -38 66 -79z
m-94 15 c28 -32 58 -102 48 -108 -30 -19 -90 38 -90 85 0 43 17 52 42 23z
m-67 -75 c-9 -29 -96 -171 -101 -165 -3 2 12 35 31 72 57 107 85 144 70 93z
m883 -121 c67 -100 67 -101 53 -93 -6 4 -33 40 -59 79 -64 95 -68 102 -53 93
6 -4 33 -40 59 -79z m-867 -24 c-12 -20 -14 -14 -5 12 4 9 9 14 11 11 3 -2 0
-13 -6 -23z m296 -24 c62 -27 206 -30 271 -6 l43 16 -21 -29 c-36 -51 -93 -73
-170 -68 -72 5 -120 30 -160 81 -26 32 -25 33 37 6z m-258 -219 c-4 -124 -8
-285 -9 -358 0 -142 -13 -195 -58 -236 -20 -17 -22 -17 -66 24 -25 24 -46 50
-46 59 0 29 179 745 185 739 2 -2 -1 -104 -6 -228z m-167 68 c-123 -269 -222
-499 -322 -752 -99 -247 -106 -262 -166 -330 -62 -71 -158 -212 -204 -299 -14
-26 -28 -47 -32 -47 -9 0 16 107 49 205 64 198 226 544 372 795 40 68 91 160
113 205 53 104 167 303 179 310 12 8 0 -22 -32 -76 -71 -121 -144 -263 -225
-434 -51 -110 -135 -317 -130 -322 1 -2 71 138 155 309 151 310 292 579 300
572 2 -2 -23 -63 -57 -136z m92 66 c-9 -27 -28 -60 -41 -74 -22 -22 -20 -15
13 52 21 43 39 76 41 74 2 -1 -4 -25 -13 -52z m1128 -314 c30 -52 91 -162 135
-245 78 -146 163 -288 163 -272 0 4 -34 75 -76 158 -41 83 -72 154 -69 157 3
4 9 2 13 -4 4 -5 28 -39 53 -75 79 -109 188 -302 245 -433 49 -113 154 -413
154 -438 0 -6 -34 42 -77 108 -84 131 -116 175 -180 248 -24 26 -43 52 -43 57
0 15 -185 430 -246 550 -69 138 -153 286 -226 399 -57 89 -88 143 -88 157 0
12 180 -261 242 -367z m-221 69 c69 -172 139 -372 139 -397 0 -22 -60 -82 -82
-82 -25 0 -66 69 -83 143 -8 34 -23 141 -34 237 -11 96 -27 208 -36 248 -8 40
-15 79 -15 85 1 21 48 -78 111 -234z m-762 -44 c1 -49 -14 -104 -35 -130 -14
-18 -15 -10 -10 100 4 66 10 152 13 190 l7 70 12 -95 c7 -52 13 -113 13 -135z
m640 133 c24 -112 45 -248 38 -255 -3 -3 -18 14 -34 38 -27 40 -28 49 -31 176
-2 73 -2 133 1 133 3 0 15 -42 26 -92z m-811 15 c-3 -16 -33 -136 -67 -268
-49 -192 -65 -243 -82 -255 -25 -17 -142 -60 -148 -54 -2 2 14 48 37 101 22
54 71 170 107 257 82 196 111 246 143 246 10 0 13 -8 10 -27z m1019 -65 c27
-40 74 -122 105 -183 53 -103 148 -309 148 -320 0 -7 -97 31 -125 49 -17 11
-35 51 -71 158 -26 78 -64 185 -86 237 -61 150 -49 174 29 59z m108 6 c9 -15
12 -23 6 -20 -11 7 -35 46 -28 46 3 0 12 -12 22 -26z m-472 -86 c15 -6 27 -16
27 -22 0 -6 3 -20 6 -32 5 -20 2 -21 -118 -21 -79 0 -155 -6 -211 -17 -48 -10
-91 -16 -94 -12 -3 3 -2 20 3 38 7 23 20 38 44 50 67 33 273 42 343 16z m-210
-225 c27 -32 31 -86 9 -137 -34 -75 -99 -87 -143 -26 -21 27 -40 115 -32 138
15 38 137 56 166 25z m-900 -13 c-3 -11 -7 -20 -9 -20 -2 0 -4 9 -4 20 0 11 4
20 9 20 5 0 7 -9 4 -20z m592 -350 c0 -126 -1 -230 -3 -230 -2 0 -13 12 -26
27 l-23 27 -11 -64 c-11 -61 -52 -180 -62 -180 -7 1 -72 152 -72 170 -1 24 71
271 92 316 10 23 32 57 47 75 16 19 34 46 41 62 6 15 13 27 14 27 2 0 3 -103
3 -230z m798 136 c47 -71 61 -105 102 -256 l34 -127 -20 -64 c-11 -35 -33
-120 -50 -189 -29 -124 -72 -263 -88 -288 -5 -9 -15 8 -29 50 -21 61 -21 67
-7 148 38 217 56 533 36 651 -14 82 -20 129 -17 129 2 0 19 -24 39 -54z
m-1041 -1 c-2 -16 -16 -76 -33 -131 -16 -56 -29 -124 -29 -150 0 -46 -6 -57
-80 -156 -45 -60 -85 -108 -90 -108 -13 0 -67 74 -93 127 l-21 42 53 138 c73
190 72 188 171 233 102 47 126 48 122 5z m1328 -5 c75 -37 82 -44 108 -98 16
-31 48 -106 72 -166 l43 -109 -24 -45 c-33 -63 -78 -124 -89 -120 -5 2 -43 55
-85 118 -61 93 -75 122 -75 154 0 21 -16 88 -35 147 -57 178 -51 187 85 119z
m-131 -107 c34 -118 39 -178 17 -209 -17 -23 -16 -27 -51 114 -14 57 -32 116
-40 132 -14 27 -14 30 7 50 12 11 25 20 29 20 3 0 21 -48 38 -107z m-1122 79
l22 -17 -20 -80 c-44 -177 -52 -205 -59 -210 -10 -6 -40 57 -40 85 0 12 9 52
20 88 10 37 24 86 30 110 12 47 16 49 47 24z m802 -25 l55 -12 3 -50 c2 -27 5
-64 7 -82 l5 -32 -82 7 c-108 9 -299 9 -418 -1 l-96 -8 -1 75 c-2 63 1 76 16
80 25 7 131 25 172 29 82 8 289 4 339 -6z m-234 -266 c21 -9 -8 -14 -135 -26
-30 -3 -79 -8 -107 -11 -48 -5 -53 -4 -53 13 0 11 3 23 7 26 9 10 264 7 288
-2z m642 -78 c16 -21 55 -77 86 -125 75 -113 75 -136 7 -203 -59 -58 -68 -83
-130 -361 -22 -100 -46 -199 -54 -220 l-13 -39 -36 72 c-20 40 -55 117 -77
172 l-39 99 30 89 c17 48 48 156 70 238 61 229 93 315 118 315 5 0 22 -17 38
-37z m-1278 -14 c16 -22 42 -71 56 -109 l27 -69 -25 -33 c-14 -18 -46 -76 -72
-128 -64 -128 -64 -128 -86 -83 -11 21 -42 63 -69 92 -45 50 -50 59 -50 102 0
26 5 51 10 54 6 4 38 47 73 97 84 122 80 118 94 118 7 0 26 -18 42 -41z m-324
-94 l53 -82 9 -244 c11 -333 13 -317 -49 -399 -53 -71 -56 -74 -121 -85 -34
-5 -41 -3 -67 24 -31 34 -29 23 -45 346 -3 61 -9 151 -14 200 l-10 90 56 83
c71 106 116 161 127 155 4 -3 32 -42 61 -88z m1995 -20 c68 -101 82 -132 75
-164 -3 -15 -9 -149 -14 -298 -9 -322 -9 -323 -95 -323 -49 0 -56 3 -87 38
-19 20 -47 53 -62 73 l-27 37 0 281 c0 311 -5 286 73 409 l40 63 24 -23 c14
-13 47 -54 73 -93z m-1077 -130 c102 -13 234 -45 284 -68 26 -11 26 -14 -8
-108 l-21 -57 -61 28 c-92 41 -212 78 -334 104 l-108 22 -3 47 -3 47 73 0 c40
0 121 -7 181 -15z m-1189 -92 c6 -37 25 -390 26 -484 0 -43 -4 -49 -84 -135
-47 -49 -88 -85 -93 -81 -13 14 -9 374 6 471 12 79 19 97 70 177 31 49 59 89
62 89 4 0 9 -17 13 -37z m2450 -56 c52 -80 54 -84 71 -207 18 -126 26 -422 12
-436 -10 -10 -77 56 -134 131 l-46 60 6 263 c4 145 9 268 13 273 9 15 21 2 78
-84z m-1741 -5 c25 -43 60 -95 77 -117 29 -36 37 -80 16 -80 -9 0 -105 148
-130 200 -47 100 -24 98 37 -3z m1306 -89 c2 -217 9 -283 34 -310 11 -12 30
-39 42 -60 l23 -37 -42 -86 c-24 -47 -58 -120 -76 -162 -19 -43 -38 -78 -44
-78 -11 0 -118 156 -150 219 -17 31 -17 36 -2 70 15 33 59 211 101 406 9 44
19 88 22 99 6 20 71 96 83 96 5 0 9 -71 9 -157z m-1602 115 c38 -41 50 -63 63
-123 10 -46 9 -52 -24 -114 -37 -71 -57 -141 -77 -264 -6 -43 -15 -79 -18 -81
-3 -3 -23 11 -44 30 l-38 35 52 70 52 70 -8 204 c-4 120 -3 205 2 205 5 0 23
-15 40 -32z m588 -64 c29 -12 28 -12 -27 -13 -52 -1 -58 1 -58 19 0 17 4 19
28 14 15 -4 41 -13 57 -20z m44 -254 c64 -38 130 -81 146 -94 l30 -25 -40 -35
-40 -34 -62 54 c-35 30 -92 79 -128 110 -60 52 -76 79 -58 98 10 10 22 4 152
-74z m-309 -185 c-1 -11 -27 20 -41 50 -6 11 1 7 15 -10 14 -16 26 -34 26 -40z
m-101 -93 c16 -22 20 -37 13 -44 -6 -6 -16 0 -29 19 -21 29 -73 128 -73 138 0
7 45 -52 89 -113z m-563 42 c20 -14 41 -16 111 -11 84 6 86 6 114 -23 16 -15
29 -33 29 -39 0 -19 -82 -101 -147 -148 -89 -64 -83 -83 26 -83 31 0 88 9 126
19 38 11 73 17 77 15 4 -3 13 -23 19 -45 12 -37 11 -41 -17 -70 -64 -67 -207
-139 -275 -139 -25 0 -32 18 -79 210 -65 263 -65 265 -38 299 13 17 24 30 26
30 1 1 14 -6 28 -15z m754 -34 c24 -28 41 -53 39 -55 -2 -2 -16 -6 -30 -10
-23 -6 -29 -1 -48 31 -14 24 -20 46 -16 61 3 13 7 23 9 23 2 0 23 -23 46 -50z
m1544 15 l27 -35 -25 -117 c-14 -65 -36 -167 -48 -228 -23 -110 -23 -110 -54
-113 -59 -6 -143 36 -216 107 -37 37 -68 73 -68 81 1 8 33 80 73 160 l72 145
87 5 c49 3 93 11 100 18 18 18 23 16 52 -23z m-2389 -117 c8 -29 30 -114 49
-188 19 -74 39 -150 45 -168 l10 -33 -32 6 c-18 4 -43 14 -57 24 -53 37 -116
177 -133 293 -5 35 -2 40 41 78 26 22 50 40 54 40 4 0 14 -24 23 -52z m2503 6
c47 -41 49 -50 27 -138 -31 -122 -78 -206 -130 -230 -43 -21 -58 -20 -51 2 4
10 24 100 46 200 21 101 42 187 45 192 10 16 17 12 63 -26z m-1948 -102 c0
-10 -60 -82 -69 -82 -8 0 -32 62 -26 68 3 3 22 8 42 12 54 11 53 11 53 2z"/>
<path d="M9290 6909 c-62 -25 -87 -29 -144 -27 l-70 3 -71 -120 c-52 -87 -83
-127 -111 -146 l-39 -27 3 -220 3 -219 58 -23 c42 -17 63 -32 75 -54 9 -17 41
-58 71 -90 50 -54 55 -63 55 -106 0 -25 4 -50 9 -55 5 -6 11 -41 13 -80 3 -38
9 -83 15 -100 6 -16 15 -43 20 -60 4 -16 18 -34 30 -39 16 -8 22 -21 25 -58 3
-27 13 -57 23 -68 17 -18 18 -58 22 -552 2 -335 10 -609 19 -738 14 -198 64
-573 78 -587 3 -4 11 -2 16 3 8 8 60 400 76 569 3 33 8 76 11 95 2 19 7 292
10 605 4 503 7 572 21 588 9 10 18 42 20 77 4 48 8 60 21 60 27 0 41 21 41 60
0 19 8 46 17 60 10 14 18 49 20 84 8 137 15 196 24 196 5 0 36 37 70 83 33 45
71 86 82 91 12 6 41 18 65 29 l42 19 0 217 -1 216 -44 27 c-39 24 -51 41 -105
147 l-60 121 -73 -6 c-66 -6 -80 -4 -150 25 -43 17 -86 31 -95 30 -9 0 -51
-14 -92 -30z m158 -79 c28 -14 51 -29 52 -35 0 -5 -14 -18 -30 -27 -17 -9 -30
-25 -30 -35 0 -10 -14 -31 -32 -46 -27 -24 -35 -27 -57 -17 -14 6 -40 23 -58
38 -31 26 -32 28 -21 70 11 38 17 44 63 62 27 10 53 18 56 17 4 -1 30 -13 57
-27z m-228 -27 c0 -1 -9 -21 -21 -43 -32 -61 -104 -105 -134 -80 -11 9 -7 21
23 70 l37 59 47 -2 c27 -1 48 -3 48 -4z m456 -48 c31 -71 30 -75 -6 -75 -22 0
-30 5 -30 18 0 9 -11 34 -25 54 -32 48 -32 58 6 58 27 0 33 -6 55 -55z m-399
-131 c21 -14 38 -30 37 -35 -1 -5 -2 -13 -2 -19 -1 -5 -11 -10 -23 -10 -22 0
-79 -54 -79 -74 0 -7 -11 -23 -25 -36 -26 -25 -28 -24 -82 23 -17 15 -20 24
-13 45 5 15 11 40 14 55 5 21 18 33 59 51 66 31 69 31 114 0z m265 -19 c16
-14 36 -25 44 -25 8 0 14 -4 14 -10 0 -5 -4 -10 -10 -10 -20 0 -50 -41 -50
-68 0 -26 -6 -31 -55 -47 l-55 -19 -27 26 c-26 26 -26 27 -13 86 l14 60 50 15
c28 9 53 16 55 16 2 1 16 -10 33 -24z m-498 -8 c8 -13 4 -23 -22 -50 -17 -18
-32 -42 -32 -54 0 -17 -37 -53 -55 -53 -3 0 -5 24 -5 52 0 49 3 55 43 90 45
39 54 42 71 15z m746 -19 c36 -30 40 -38 40 -80 0 -45 -2 -48 -25 -48 -22 0
-25 4 -25 40 0 29 -7 48 -30 73 -27 32 -30 47 -8 47 5 0 27 -15 48 -32z m-694
-192 l35 -24 -45 -37 c-27 -21 -46 -46 -46 -57 0 -11 -8 -33 -17 -49 -14 -23
-22 -27 -42 -22 -45 10 -51 22 -51 93 l0 67 58 26 c72 32 66 31 108 3z m255 3
c16 -11 29 -24 29 -28 0 -4 -26 -26 -59 -49 -47 -33 -60 -48 -65 -77 -8 -38
-15 -38 -64 5 -21 18 -23 25 -17 69 6 46 9 50 48 66 23 9 49 21 57 25 24 14
40 11 71 -11z m214 -33 l30 -13 -35 -10 c-26 -6 -43 -21 -65 -55 -16 -26 -33
-47 -37 -47 -5 -1 -8 26 -8 58 0 56 2 60 28 69 37 14 52 13 87 -2z m265 -70
c0 -63 -3 -75 -17 -80 -10 -2 -28 -7 -39 -10 -21 -6 -21 -4 -19 67 2 87 7 97
46 97 l29 0 0 -74z m-653 -126 c14 -11 32 -20 39 -20 23 0 16 -26 -11 -38 -13
-6 -33 -28 -43 -48 l-19 -36 -41 48 c-23 27 -42 54 -42 59 0 8 39 32 88 53 2
1 15 -7 29 -18z m491 -17 l33 -28 -58 -51 -58 -51 0 63 c0 51 4 66 20 78 26
20 26 20 63 -11z m-265 10 c4 -3 -6 -14 -23 -24 -16 -10 -38 -35 -48 -55 -23
-44 -37 -31 -27 26 5 30 13 41 33 49 33 12 56 13 65 4z m-73 -243 c0 -9 -25
-20 -45 -20 -8 0 -26 -5 -42 -11 -26 -10 -27 -12 -8 -19 11 -5 47 -9 80 -11
l60 -2 -78 -14 c-84 -16 -90 -30 -17 -35 45 -3 61 -20 24 -26 -74 -11 -90 -32
-25 -32 37 0 68 -19 54 -33 -3 -4 -23 -7 -44 -7 -39 0 -60 -14 -35 -23 7 -3
35 -9 60 -12 61 -10 48 -22 -33 -31 l-64 -7 6 29 c3 19 0 35 -11 47 -13 14
-14 25 -6 55 8 31 7 44 -7 67 -10 17 -18 45 -18 63 l-1 33 75 -2 c41 -1 75 -5
75 -9z m50 -411 c0 -12 -77 -12 -85 0 -3 5 3 11 12 13 27 5 73 -3 73 -13z m10
-59 c-20 -13 -67 -13 -75 0 -4 6 12 10 42 10 35 0 44 -3 33 -10z m-26 -162 c8
-171 14 -1327 6 -1298 -15 55 -30 431 -35 908 -4 429 -3 502 9 502 11 0 15
-25 20 -112z"/>
<path d="M147 6583 c-23 -22 2 -47 130 -133 141 -94 151 -98 177 -57 13 20
-13 50 -92 109 -95 71 -190 107 -215 81z"/>
<path d="M1741 6565 c-67 -31 -172 -106 -200 -141 l-21 -26 23 -24 c12 -13 26
-24 30 -24 5 0 41 22 80 49 40 26 99 64 133 84 79 47 101 71 84 92 -18 22 -68
18 -129 -10z"/>
<path d="M442 6368 c-18 -18 -15 -32 16 -55 15 -11 42 -45 60 -76 27 -45 34
-69 39 -131 3 -42 11 -80 17 -85 6 -5 54 -18 107 -30 121 -26 145 -35 159 -61
15 -27 4 -43 -20 -30 -50 27 -146 -3 -194 -61 -76 -90 -72 -191 9 -220 19 -7
35 -16 35 -20 0 -4 -31 -25 -68 -47 -116 -69 -224 -205 -266 -335 -6 -18 -7
-17 -35 2 -16 12 -34 21 -40 21 -17 0 -14 21 26 158 35 117 38 137 37 252 0
102 -4 134 -20 176 -12 29 -19 64 -17 81 6 35 -20 53 -36 25 -9 -14 -10 -11
-11 14 0 37 -9 48 -26 33 -11 -9 -15 -7 -19 5 -3 9 -7 23 -10 31 -6 20 -25 19
-25 0 0 -26 -39 6 -42 35 -3 21 -7 25 -32 22 -28 -3 -29 -2 -23 31 7 43 -4 60
-34 55 -21 -3 -24 -9 -27 -54 -3 -45 0 -54 21 -70 13 -11 22 -24 20 -31 -5
-14 35 -43 59 -43 10 0 18 -7 18 -15 0 -8 17 -25 38 -39 52 -32 63 -48 69 -98
l6 -43 -22 23 c-44 45 -64 22 -37 -42 l14 -34 -38 5 c-39 5 -64 -11 -33 -21
18 -6 53 -58 53 -77 0 -6 -9 -7 -20 -4 -13 4 -31 0 -47 -10 l-26 -17 32 -20
c35 -22 40 -38 13 -38 -21 0 -52 -30 -52 -49 0 -7 4 -10 9 -7 5 3 18 -2 29
-12 14 -12 26 -49 42 -137 12 -66 26 -130 31 -143 8 -20 120 -102 141 -102 4
0 8 -12 8 -27 0 -50 56 -116 115 -136 5 -2 -11 -23 -36 -48 -25 -24 -52 -55
-61 -69 l-15 -25 -99 47 c-83 40 -194 78 -227 78 -4 0 -7 -24 -5 -52 l3 -53
110 -55 c61 -31 124 -60 142 -67 l32 -11 -19 -50 c-43 -112 -63 -248 -64 -423
l-1 -167 -46 -5 c-72 -9 -116 -35 -139 -82 -19 -39 -20 -62 -20 -472 0 -374 2
-432 15 -443 23 -19 27 -9 33 72 3 40 10 76 15 80 6 4 11 38 11 77 1 39 3 71
6 71 3 0 13 -14 22 -30 19 -33 52 -40 66 -13 7 11 5 30 -4 57 -17 46 -104 493
-104 531 0 21 4 24 28 20 15 -3 51 -9 81 -13 l53 -7 19 -75 c68 -268 160 -443
305 -580 74 -70 119 -98 214 -131 72 -25 77 -29 135 -104 33 -43 65 -80 72
-82 10 -4 42 34 108 131 14 20 42 36 95 56 187 68 312 190 416 405 51 106 114
294 114 340 0 31 16 41 75 48 28 3 58 9 68 12 14 6 17 1 17 -29 0 -37 -95
-541 -106 -557 -8 -13 15 -39 35 -39 15 0 37 25 53 60 4 8 7 -23 7 -69 1 -79
2 -83 21 -78 17 4 20 2 14 -15 -9 -29 -7 -88 4 -118 l9 -24 12 22 c27 50 42 9
19 -54 -14 -41 -5 -72 17 -54 19 16 20 14 28 -28 5 -25 2 -37 -14 -53 -41 -41
4 -79 53 -45 25 18 42 21 33 6 -3 -5 -1 -10 6 -10 19 0 6 110 -16 126 -11 8
-15 20 -11 30 3 9 -5 37 -20 64 -14 27 -23 53 -20 58 3 6 -7 34 -24 62 -16 27
-32 63 -35 78 -3 15 -2 21 1 15 3 -7 15 -13 25 -13 20 0 20 6 15 193 -6 217
-24 372 -56 467 -29 89 -40 100 -116 126 l-67 22 2 144 c2 152 -14 283 -48
407 l-20 72 34 15 c19 8 37 14 41 14 16 0 153 65 182 87 28 21 33 22 39 8 3
-10 1 -96 -5 -193 -25 -389 -25 -402 -10 -402 16 0 53 37 60 58 2 8 12 -22 23
-65 21 -87 30 -104 51 -96 11 4 14 -6 14 -44 0 -57 23 -98 40 -73 9 13 11 13
20 0 6 -8 9 -30 8 -49 -2 -21 2 -36 10 -39 6 -2 12 -10 12 -17 0 -7 7 -16 16
-19 13 -5 15 -15 11 -46 -5 -42 5 -52 22 -22 10 16 10 16 11 -2 0 -20 0 -20
15 0 13 17 14 17 15 2 0 -37 40 -8 40 29 0 13 -14 33 -35 50 -19 15 -30 30
-24 33 5 4 -4 23 -21 45 -16 21 -30 44 -30 53 0 8 -16 32 -35 54 -26 28 -34
45 -30 59 4 12 -1 29 -14 45 -28 35 -26 44 5 44 21 0 25 4 20 17 -4 9 -20 96
-37 193 -49 288 -83 400 -142 461 -24 25 -28 26 -79 17 -29 -5 -104 -30 -166
-54 -63 -25 -115 -44 -116 -42 -1 2 -12 20 -25 40 -12 20 -37 50 -56 67 -19
17 -35 32 -35 35 0 2 16 13 35 25 39 23 75 75 75 108 0 18 14 30 61 54 79 39
109 72 110 118 0 20 10 81 23 135 23 100 38 122 74 109 18 -7 15 22 -5 40 -10
8 -28 17 -41 19 -21 3 -22 4 -7 26 9 12 27 22 41 22 13 0 24 4 24 10 0 14 -35
30 -64 30 -14 0 -26 3 -26 6 0 15 43 64 57 64 25 0 9 23 -22 32 -22 5 -34 3
-48 -10 -18 -16 -18 -14 2 25 11 23 21 49 21 58 0 23 -28 18 -55 -10 -45 -44
-27 23 19 73 22 24 94 62 118 62 8 0 19 5 24 10 6 6 30 20 55 33 30 15 43 27
41 40 -2 13 4 17 26 17 32 0 45 12 57 49 6 21 5 23 -15 18 -15 -4 -20 -2 -16
8 8 21 -17 45 -49 48 -28 2 -30 0 -27 -30 5 -47 -13 -75 -43 -67 -20 5 -25 1
-31 -20 -3 -14 -12 -31 -20 -37 -12 -10 -16 -8 -20 8 -7 26 -44 19 -44 -8 0
-22 -32 -39 -38 -21 -7 22 -23 12 -38 -24 -12 -29 -18 -33 -29 -24 -19 15 -35
4 -35 -24 0 -12 -11 -55 -25 -94 -48 -136 -43 -288 16 -466 10 -33 19 -66 19
-75 -1 -9 -21 -25 -45 -37 l-45 -21 -11 36 c-42 133 -151 273 -256 333 -29 17
-55 33 -58 38 -2 4 13 14 34 22 76 30 91 118 34 200 -42 62 -126 94 -195 75
-37 -10 -38 15 -3 47 25 23 77 37 194 51 68 9 91 31 91 88 0 78 27 144 81 200
27 28 49 54 49 57 0 4 -9 15 -20 25 -20 18 -21 18 -51 -11 -45 -42 -90 -137
-104 -222 -7 -40 -15 -75 -17 -78 -3 -2 -51 -12 -107 -22 -108 -20 -142 -37
-176 -90 -20 -31 -21 -31 -107 -32 -78 0 -88 2 -88 18 0 45 -61 82 -175 107
-44 10 -85 22 -91 26 -6 5 -16 41 -23 80 -24 149 -112 274 -159 227z m327
-521 c-1 -19 -97 -97 -119 -97 -25 0 -25 7 0 48 12 19 38 41 62 52 43 19 59
18 57 -3z m451 -2 c16 -19 6 -45 -18 -45 -23 0 -42 19 -42 42 0 22 42 25 60 3z
m-121 -145 c42 -23 94 -64 70 -57 -98 31 -247 33 -357 4 -59 -16 -58 -5 5 34
84 52 204 60 282 19z m-222 -165 c-142 -53 -295 -172 -342 -269 -32 -65 -42
-144 -23 -169 12 -16 31 -19 128 -21 77 -2 130 -8 161 -20 54 -20 123 -85 117
-112 -3 -17 -15 -19 -115 -22 -189 -5 -348 44 -386 118 -59 115 57 355 215
442 78 43 156 65 238 66 l45 1 -38 -14z m492 -466 c63 -13 79 -30 60 -65 -7
-14 -26 -32 -41 -40 -47 -25 -157 -45 -254 -47 -109 -2 -124 5 -104 53 33 81
199 129 339 99z m-654 -239 c88 -14 106 -32 131 -128 23 -88 33 -106 76 -128
l29 -15 -2 -125 c-2 -162 -3 -167 -43 -158 -65 14 -126 54 -157 102 -31 49
-61 136 -74 212 -10 58 -42 127 -68 145 -28 20 -82 19 -117 -1 -15 -9 -41 -40
-58 -68 -29 -48 -84 -183 -96 -237 -3 -13 -3 14 -1 61 4 102 43 235 82 281 47
55 80 69 163 69 41 0 102 -5 135 -10z m683 -10 c17 -11 32 -24 32 -29 0 -5
-19 -16 -42 -26 -80 -31 -96 -56 -134 -207 -47 -181 -102 -255 -209 -278 l-30
-6 -6 -434 c-3 -239 -10 -462 -15 -495 l-9 -60 -6 65 c-9 89 -10 705 -2 984
l6 227 29 15 c33 17 62 74 73 142 11 68 40 93 121 108 104 18 154 17 192 -6z
m-887 -633 c75 -50 86 -137 26 -203 -103 -112 -272 19 -199 154 37 69 111 91
173 49z m1022 9 c87 -36 101 -167 26 -231 -77 -64 -199 5 -199 112 0 43 32 96
71 115 41 22 59 22 102 4z m-752 -291 c84 -44 91 -163 13 -224 -54 -42 -134
-19 -169 49 -30 58 -8 136 47 170 40 24 69 25 109 5z m469 0 c49 -25 70 -62
70 -120 0 -44 -5 -58 -28 -83 -78 -84 -202 -35 -202 79 0 63 22 107 63 124 41
18 62 18 97 0z m-885 -210 c54 -142 170 -320 263 -405 10 -8 24 -24 32 -35 10
-14 4 -12 -20 7 -132 103 -171 146 -230 258 -37 72 -91 233 -89 269 0 19 3 13
44 -94z m248 -106 c48 -59 -13 -154 -88 -135 -28 7 -65 59 -65 91 0 27 27 65
53 74 29 11 78 -4 100 -30z m858 13 c28 -25 31 -33 25 -65 -8 -41 -46 -77 -83
-77 -37 0 -73 42 -73 85 0 43 37 85 74 85 14 0 40 -13 57 -28z"/>
<path d="M3406 5825 c-22 -13 -58 -27 -80 -31 -23 -4 -35 -9 -29 -11 7 -3 15
-4 19 -3 4 1 10 -4 14 -11 9 -14 61 14 99 55 30 32 27 32 -23 1z"/>
<path d="M3 4245 c0 -22 2 -30 4 -17 2 12 2 30 0 40 -3 9 -5 -1 -4 -23z"/>
<path d="M9360 3335 c-23 -27 -3 -81 81 -227 129 -224 132 -229 126 -234 -3
-3 -15 0 -27 6 -39 21 -148 14 -199 -12 -78 -41 -124 -164 -88 -236 17 -34 13
-42 -18 -42 -11 0 -38 -9 -60 -20 -21 -11 -39 -19 -40 -17 -9 19 -59 89 -80
111 l-27 29 21 74 c19 64 20 76 7 95 -31 49 -87 219 -84 256 3 32 0 37 -19 40
-16 2 -23 -2 -23 -12 0 -10 -9 -16 -25 -16 -31 0 -34 -27 -5 -58 11 -12 20
-29 20 -38 0 -9 19 -59 42 -111 l41 -95 -16 -51 c-31 -105 -31 -104 23 -211
52 -100 57 -124 19 -90 -22 19 -22 19 -10 -3 15 -30 15 -51 -1 -35 -24 24 -34
5 -14 -27 7 -11 3 -13 -20 -8 -25 4 -26 3 -11 -8 24 -17 21 -27 -5 -21 -13 3
-17 3 -10 0 17 -8 15 -21 -4 -28 -11 -4 -31 7 -58 31 -22 21 -64 49 -93 62
l-52 24 -140 -68 -140 -68 -106 33 c-87 28 -108 38 -118 59 -14 29 -67 43 -67
18 0 -8 -10 -21 -22 -30 -23 -15 -23 -15 -4 -36 11 -12 26 -19 33 -16 8 2 24
-2 36 -9 47 -30 211 -78 252 -73 22 2 91 28 153 57 l113 53 50 -51 c44 -45 48
-52 32 -60 -134 -69 -284 -150 -398 -212 -77 -43 -194 -106 -260 -140 -337
-177 -532 -315 -609 -430 -9 -13 -16 -43 -16 -66 0 -98 110 -122 284 -63 127
43 275 129 446 259 94 72 94 65 0 -60 -51 -68 -95 -130 -97 -138 -3 -7 1 -18
10 -25 8 -7 17 -21 19 -31 6 -34 23 -28 59 21 210 287 240 323 270 323 16 0
29 -2 29 -5 0 -2 -12 -21 -26 -42 -76 -111 -131 -272 -146 -427 -10 -97 -9
-125 5 -200 20 -98 58 -193 82 -203 29 -11 175 25 253 62 196 93 400 292 498
486 19 38 36 69 38 69 2 0 11 -11 20 -25 17 -26 16 -28 -55 -143 -131 -212
-139 -226 -139 -253 0 -15 -6 -29 -13 -32 -17 -6 -117 -156 -167 -250 l-38
-72 13 -81 c7 -44 20 -94 28 -110 8 -16 13 -41 10 -55 -7 -37 23 -46 54 -18
21 21 23 21 23 4 0 -26 16 -7 24 28 6 23 2 30 -23 45 -26 14 -33 28 -46 84 -8
37 -15 74 -15 83 0 9 34 75 75 146 41 71 75 133 75 138 0 5 6 14 14 20 11 9
15 9 19 -1 4 -9 12 -5 26 12 37 46 235 393 239 420 2 14 -14 72 -36 130 -22
58 -42 125 -46 150 -4 25 -18 80 -32 123 -13 43 -22 82 -19 87 2 4 25 8 49 8
25 1 61 8 80 16 20 8 36 14 36 12 0 -2 9 -46 20 -100 11 -53 29 -163 40 -244
33 -240 79 -493 110 -604 87 -306 262 -478 344 -338 40 68 24 259 -45 535 -32
126 -160 530 -229 724 -22 63 -39 118 -38 122 2 5 37 -7 78 -26 74 -34 75 -34
112 -108 24 -49 50 -85 77 -106 36 -29 194 -109 248 -125 12 -4 25 -16 28 -27
5 -14 12 -18 23 -14 10 4 25 10 35 12 12 4 17 16 17 43 0 31 -3 37 -17 34 -10
-3 -81 22 -158 54 l-139 58 -50 110 c-28 60 -57 114 -64 119 -7 6 -55 26 -108
45 -90 33 -94 36 -89 60 4 14 10 26 14 28 5 1 6 13 4 26 -6 32 3 35 67 25 30
-5 84 -11 120 -15 63 -6 67 -5 146 40 78 44 85 46 165 47 102 2 109 4 109 40
l0 29 -97 0 c-94 0 -100 -1 -175 -40 -62 -33 -82 -39 -97 -30 -11 5 -67 10
-124 10 l-105 0 -4 28 c-3 15 -8 34 -12 42 -5 13 1 15 34 12 65 -7 108 6 145
43 69 70 69 150 -2 249 -23 32 -31 52 -25 58 7 7 67 1 175 -16 192 -30 249
-32 271 -10 23 22 20 40 -10 63 -25 20 -39 21 -228 21 -158 0 -207 -3 -229
-15 -27 -14 -30 -13 -52 13 -13 15 -40 37 -59 47 -31 17 -36 24 -36 56 0 21
-13 66 -28 101 -16 34 -51 121 -77 193 -27 71 -57 137 -67 147 -22 22 -61 23
-78 3z m74 -521 c20 -20 20 -21 -6 -38 -16 -10 -37 -12 -68 -7 l-45 6 27 28
c30 30 69 35 92 11z m32 -188 c53 -25 134 -90 134 -109 0 -5 -8 -3 -17 5 -40
33 -128 82 -186 104 l-62 23 40 0 c22 1 63 -10 91 -23z m-157 -97 c44 -15 39
-25 -16 -33 -55 -7 -135 -50 -176 -94 -15 -16 -39 -55 -51 -86 -17 -41 -25
-52 -30 -40 -15 40 29 157 76 201 30 28 106 63 139 63 14 0 40 -5 58 -11z
m-349 -248 c0 -12 -37 -38 -125 -88 -38 -22 -164 -95 -280 -162 -115 -68 -226
-132 -245 -143 l-35 -20 28 24 c15 13 119 79 230 146 468 284 427 260 427 243z
m10 -55 c0 -21 -132 -103 -385 -241 -99 -53 -73 -32 95 78 80 52 163 108 184
124 77 55 106 66 106 39z m90 -56 c0 -18 83 -101 127 -127 24 -14 63 -32 86
-39 l42 -14 -53 4 c-70 7 -149 50 -183 101 -32 47 -45 85 -30 85 6 0 11 -5 11
-10z m-70 -68 c0 -39 5 -53 25 -72 41 -39 32 -45 -68 -45 -113 -1 -153 -19
-244 -111 -62 -63 -63 -64 -118 -64 -30 0 -55 4 -55 9 0 6 26 30 58 55 85 65
386 276 395 276 4 0 7 -22 7 -48z m560 -327 c6 -66 13 -131 16 -145 2 -14 -5
4 -16 40 -11 36 -36 115 -55 175 -19 61 -35 115 -35 120 0 6 15 15 33 20 l32
10 7 -50 c3 -27 11 -104 18 -170z m-508 123 c57 -26 133 -89 168 -138 16 -22
1 -17 -108 39 -70 36 -162 77 -205 92 -43 15 -72 30 -65 33 34 14 154 0 210
-26z m638 -338 c26 -129 49 -283 39 -273 -13 15 -115 488 -123 578 -5 49 1 35
29 -75 20 -74 44 -178 55 -230z m-865 118 c176 -96 204 -122 299 -275 14 -24
26 -44 26 -47 0 -7 -190 93 -310 164 -63 37 -143 82 -177 101 l-61 34 25 48
c23 46 26 48 56 42 18 -4 82 -34 142 -67z m-124 -174 c135 -69 205 -121 287
-213 l63 -70 -48 22 c-168 80 -473 250 -473 263 0 13 36 53 48 54 8 0 63 -25
123 -56z m-73 -168 c61 -36 126 -75 144 -87 51 -36 168 -132 164 -136 -1 -2
-36 11 -77 27 -164 68 -385 213 -372 245 3 8 11 15 17 15 7 0 62 -29 124 -64z
m-115 -310 c18 -14 58 -38 90 -55 l57 -30 -34 -6 c-62 -12 -104 12 -137 78
-23 43 -19 46 24 13z"/>
<path d="M4695 3103 c-22 -6 -45 -22 -45 -32 1 -25 23 -33 101 -34 72 -2 91
-6 132 -30 57 -34 95 -84 148 -191 37 -77 48 -113 31 -102 -18 11 -87 -20
-124 -54 -27 -26 -39 -48 -44 -79 -9 -54 -18 -44 -43 47 -12 42 -34 93 -54
120 -19 26 -40 64 -46 84 -15 47 -48 88 -69 88 -18 -1 -39 -15 -60 -42 -12
-15 -9 -19 18 -33 17 -9 28 -20 25 -25 -3 -4 15 -30 40 -56 25 -26 48 -59 51
-73 12 -50 102 -227 149 -289 65 -89 54 -107 -27 -47 -115 83 -143 101 -195
123 -28 12 -61 22 -73 22 -12 0 -24 9 -29 23 -16 41 -143 216 -162 222 -26 9
-83 -43 -67 -62 7 -9 23 -12 46 -8 33 5 34 4 29 -21 -4 -20 2 -30 28 -47 32
-21 95 -120 95 -150 0 -15 40 -37 157 -87 35 -15 59 -33 71 -54 10 -17 40 -43
65 -56 30 -16 47 -32 47 -43 0 -14 -5 -17 -22 -12 -71 21 -354 148 -958 433
-359 169 -580 256 -803 318 -124 35 -331 44 -426 19 -156 -40 -232 -120 -230
-242 0 -76 24 -131 93 -219 174 -221 474 -360 891 -414 184 -23 376 -30 839
-30 269 0 487 -2 485 -4 -4 -4 -49 -9 -244 -26 -104 -9 -220 -15 -700 -40
-451 -23 -626 -58 -694 -136 -58 -66 -33 -138 66 -188 111 -56 357 -93 543
-83 159 9 268 42 511 152 303 138 599 252 620 239 16 -10 9 -39 -12 -52 -65
-41 -505 -257 -630 -310 -202 -85 -421 -190 -500 -240 -72 -46 -144 -117 -159
-158 -28 -73 12 -138 108 -174 123 -46 384 -36 556 21 117 39 170 71 261 163
82 83 128 150 206 299 45 87 73 125 142 197 48 50 93 90 101 90 9 0 20 -9 26
-20 9 -17 5 -30 -24 -77 -19 -31 -43 -87 -53 -125 -17 -67 -20 -71 -79 -113
-34 -24 -83 -68 -108 -96 -70 -78 -166 -209 -173 -237 -9 -36 12 -135 47 -225
28 -74 29 -80 14 -108 -11 -22 -12 -34 -4 -43 20 -25 -58 -163 -139 -243 l-33
-34 33 -34 c19 -19 43 -35 55 -35 19 0 20 5 16 53 -4 48 -1 56 27 86 17 18 31
39 31 47 0 8 15 30 34 50 33 35 33 36 39 152 l5 117 -39 95 -39 96 55 57 c29
32 74 88 99 126 38 57 106 121 128 121 3 0 8 -60 11 -132 7 -173 49 -338 150
-589 40 -101 91 -232 113 -291 21 -60 42 -108 46 -108 3 0 12 17 18 37 7 21
61 162 120 313 60 151 118 311 129 355 26 105 50 254 52 333 1 43 6 62 15 62
7 0 45 -37 86 -81 40 -45 98 -109 129 -143 l57 -61 -48 -111 c-44 -99 -48
-114 -40 -150 5 -21 10 -65 10 -96 0 -49 4 -62 30 -91 16 -19 34 -45 40 -58 6
-13 22 -40 36 -59 21 -29 25 -43 21 -82 -4 -45 -2 -48 19 -48 13 0 28 9 34 20
6 11 17 20 24 20 22 0 29 33 10 47 -9 7 -20 14 -23 15 -11 6 -99 143 -120 188
-16 36 -18 47 -7 54 10 7 9 16 -5 44 -12 22 -15 40 -10 51 21 39 63 180 68
228 5 44 2 59 -21 98 -56 94 -176 223 -266 285 -43 30 -50 39 -50 70 -1 42
-48 161 -79 200 l-30 38 23 21 23 21 80 -84 c87 -90 91 -95 209 -296 187 -317
375 -429 719 -430 252 0 364 51 365 166 0 95 -132 201 -406 323 -470 211 -914
423 -914 437 0 3 4 14 10 24 9 16 15 17 47 8 68 -18 304 -114 526 -212 264
-117 336 -142 470 -162 272 -42 669 32 730 136 52 87 -20 167 -188 209 -58 15
-291 39 -435 46 -445 20 -569 27 -774 41 -126 9 -237 19 -247 23 -10 3 187 7
439 8 477 2 563 5 817 29 217 20 493 92 637 165 140 71 308 225 362 333 53
105 45 214 -21 287 -70 78 -164 109 -329 109 -92 0 -133 -6 -250 -35 -253 -62
-529 -169 -913 -351 -73 -35 -135 -64 -136 -64 -2 0 -54 -24 -117 -54 -364
-174 -581 -266 -624 -266 -28 0 -13 20 26 36 22 9 56 34 75 56 22 26 64 55
117 82 81 40 84 43 118 109 33 64 42 76 89 121 11 10 17 24 14 32 -4 10 4 14
30 14 36 0 64 21 52 40 -3 5 -12 10 -19 10 -8 0 -19 7 -26 15 -7 8 -18 15 -26
15 -14 0 -64 -49 -64 -63 0 -4 -22 -42 -50 -84 -27 -42 -50 -79 -50 -83 0 -4
-14 -10 -30 -14 -56 -11 -134 -55 -224 -125 -49 -39 -93 -68 -97 -65 -20 12
-6 45 46 115 67 91 108 167 130 241 17 61 48 108 71 108 8 0 14 10 14 24 0 15
10 30 26 41 l26 17 -28 29 c-49 51 -85 31 -105 -60 -6 -31 -22 -66 -40 -85
-17 -19 -40 -69 -57 -122 l-28 -89 -8 40 c-4 21 -17 52 -28 68 -24 33 -89 66
-130 67 -16 0 -28 5 -28 11 0 7 20 54 44 105 75 158 168 224 298 212 54 -6 82
8 77 37 -8 42 -133 42 -224 1 -101 -46 -167 -128 -214 -268 l-27 -80 -56 -1
-56 -2 -12 50 c-36 141 -140 276 -237 309 -53 18 -137 28 -168 19z m5 -228
c22 -27 5 -37 -19 -11 -19 20 -21 26 -9 26 9 0 21 -7 28 -15z m956 3 c-3 -7
-9 -21 -12 -30 -8 -21 -24 -24 -24 -4 0 26 12 46 27 46 8 0 12 -6 9 -12z
m-853 -173 c-7 -21 -13 -19 -13 6 0 11 4 18 10 14 5 -3 7 -12 3 -20z m752 -5
c3 -5 2 -10 -4 -10 -5 0 -13 5 -16 10 -3 6 -2 10 4 10 5 0 13 -4 16 -10z
m-478 -47 c5 -13 -92 -93 -113 -93 -26 0 -14 42 21 77 25 25 41 34 61 31 15
-2 29 -8 31 -15z m172 -137 c40 -21 36 -30 -8 -15 -43 15 -137 7 -184 -15 -45
-22 -59 -16 -21 8 68 45 151 53 213 22z m-548 -77 c34 -17 59 -32 57 -35 -7
-6 -138 49 -138 59 0 13 20 7 81 -24z m980 10 c-25 -11 -61 -30 -80 -41 -29
-18 -33 -19 -22 -4 19 23 100 65 126 65 12 0 1 -8 -24 -20z m-454 -81 c25 -10
26 -12 8 -16 -20 -4 -115 -43 -115 -46 0 -1 10 -22 22 -47 18 -36 22 -62 22
-144 1 -135 -23 -189 -70 -157 -39 25 -67 161 -46 221 6 17 9 31 7 31 -11 0
-38 -54 -50 -97 l-13 -48 -1 58 c-1 57 14 102 47 140 31 36 -9 16 -53 -26
l-45 -44 0 28 c0 39 57 110 110 137 49 25 130 30 177 10z m-364 -34 c21 -14
36 -28 34 -31 -5 -4 -87 46 -87 53 0 10 18 2 53 -22z m648 -4 c-13 -11 -28
-20 -35 -20 -6 0 0 9 14 20 33 26 52 25 21 0z m-266 -614 c28 -13 58 -33 68
-45 l17 -22 -50 7 c-93 12 -248 6 -296 -13 -16 -6 -18 10 -4 38 32 59 174 78
265 35z m-885 -100 c0 -6 -379 -193 -490 -241 -134 -58 -96 -25 60 52 90 44
416 191 428 193 1 0 2 -2 2 -4z m1495 -127 c28 -25 86 -78 130 -117 44 -38
107 -98 140 -132 51 -52 55 -59 30 -49 -90 38 -229 164 -379 342 -100 119 -89
113 79 -44z m364 31 c213 -94 360 -169 335 -170 -25 0 -592 267 -570 269 5 1
111 -44 235 -99z m7 -229 c74 -62 134 -114 134 -117 0 -16 -106 50 -215 134
-38 30 -110 85 -160 122 -49 38 -112 92 -140 120 -49 51 -46 49 98 -48 82 -55
209 -150 283 -211z m-989 285 c2 -2 -47 -36 -109 -75 -123 -79 -156 -86 -169
-40 -17 65 16 107 95 119 40 7 176 3 183 -4z m-818 -69 c-75 -71 -249 -198
-261 -191 -11 7 300 251 322 253 3 0 -25 -28 -61 -62z m109 11 c-37 -54 -179
-197 -238 -242 -101 -77 -198 -124 -154 -75 45 51 397 349 412 349 2 0 -7 -15
-20 -32z m54 -60 c-65 -96 -108 -148 -157 -189 l-39 -34 43 62 c56 80 192 245
198 239 3 -2 -18 -37 -45 -78z m1543 0 c77 -41 261 -167 322 -220 125 -108 64
-79 -182 87 -164 110 -265 183 -265 191 0 5 53 -20 125 -58z m-1790 44 c-98
-83 -367 -282 -423 -311 -43 -23 -33 -4 28 52 72 67 241 189 325 234 57 31 91
43 70 25z m1524 -143 c50 -65 56 -76 27 -49 -41 38 -112 126 -140 175 -17 28
-16 27 15 -6 19 -20 63 -74 98 -120z m-1683 108 c-10 -7 -48 -34 -85 -62 -36
-27 -102 -69 -146 -94 -171 -94 -269 -142 -256 -127 21 25 163 116 281 181 58
32 128 70 155 86 49 27 88 40 51 16z m2168 -75 c72 -37 133 -69 136 -72 3 -3
28 -20 55 -38 28 -17 68 -48 90 -67 l40 -36 -62 31 c-65 31 -420 244 -438 261
-17 18 42 -9 179 -79z m-1066 -46 c28 -10 56 -24 62 -32 11 -12 -1 -13 -86 -9
-95 4 -254 -7 -301 -21 -20 -6 -23 -3 -23 24 0 40 23 52 114 61 85 7 165 0
234 -23z m-624 -61 c-14 -19 -29 -35 -31 -35 -5 0 7 18 36 53 26 31 23 18 -5
-18z m377 -45 c25 -14 26 -70 1 -100 -20 -25 -29 -19 -52 38 -11 29 -10 35 5
52 21 23 20 23 46 10z m264 -195 l40 -19 -155 -11 c-85 -7 -167 -15 -181 -19
-23 -7 -27 -4 -31 18 -3 15 -1 29 3 32 47 28 263 28 324 -1z m-227 -113 c2
-14 -2 -22 -12 -22 -19 0 -29 17 -22 36 8 22 30 12 34 -14z m143 -82 c87 -17
76 -26 -34 -28 -56 -2 -111 -4 -121 -5 -36 -4 -27 21 11 31 51 13 81 14 144 2z
m7 -195 c3 -3 -10 -5 -29 -5 -19 0 -44 -3 -56 -6 -13 -4 -23 -2 -23 4 0 6 8
13 18 15 20 5 82 0 90 -8z"/>
<path d="M235 2715 c-22 -8 -41 -15 -42 -15 -1 0 -10 -14 -19 -32 -22 -43 -14
-98 24 -177 37 -74 37 -74 14 -67 -33 11 -139 9 -175 -4 l-37 -12 0 -96 0 -97
37 -45 c78 -94 204 -195 306 -246 31 -16 57 -31 57 -34 0 -3 -19 -17 -43 -32
-183 -119 -328 -314 -331 -448 -1 -37 3 -46 24 -57 27 -15 182 -15 196 0 4 4
-4 20 -18 35 -28 29 -58 83 -58 104 0 7 12 -4 26 -25 35 -52 100 -97 139 -97
33 0 95 18 95 27 0 3 -16 24 -36 46 -45 50 -81 127 -89 192 l-6 50 22 -53 c28
-72 97 -172 136 -198 28 -18 39 -20 78 -13 66 12 70 17 42 48 -59 63 -104 205
-86 271 7 24 7 23 8 -6 2 -70 64 -205 116 -254 31 -29 81 -32 138 -7 l37 16
-22 43 c-17 33 -23 62 -25 123 l-2 80 13 -60 c14 -68 44 -131 75 -159 19 -17
26 -18 61 -7 22 6 52 22 67 36 l28 23 26 -26 26 -26 -24 -45 -24 -45 -82 -1
c-95 -2 -187 -29 -257 -77 -88 -60 -214 -197 -197 -214 3 -3 -18 -26 -45 -52
-28 -26 -68 -69 -91 -95 -33 -39 -38 -52 -30 -66 9 -14 7 -17 -8 -18 -10 -1
-28 -11 -41 -22 -35 -33 -101 -61 -144 -61 -21 0 -46 -5 -54 -10 -13 -8 -13
-13 0 -37 9 -16 24 -28 35 -28 11 0 26 -4 33 -8 16 -11 32 0 32 23 0 22 22 31
59 24 24 -5 33 -1 52 26 20 26 29 31 52 26 21 -4 29 -1 34 12 4 9 22 37 41 61
18 25 49 75 67 112 28 54 38 66 53 62 26 -6 41 11 113 132 l62 105 71 0 c99 0
258 32 292 59 15 12 39 38 53 58 33 50 38 28 9 -44 l-23 -58 -64 -7 c-66 -7
-111 -29 -111 -52 0 -8 -4 -16 -9 -18 -5 -1 -27 -46 -49 -99 -36 -87 -38 -99
-25 -112 14 -14 14 -15 -3 -14 -12 2 -26 -15 -46 -53 -41 -81 -48 -111 -30
-132 14 -16 13 -18 -1 -18 -9 0 -28 -16 -43 -35 -17 -23 -53 -48 -100 -71 -54
-26 -74 -41 -74 -55 0 -10 4 -19 9 -19 5 0 11 -10 14 -21 4 -15 11 -20 23 -15
9 3 23 1 30 -5 20 -17 35 -1 32 34 -3 27 1 31 29 39 18 4 42 22 53 39 12 16
27 28 34 26 18 -7 46 12 46 32 0 10 6 31 14 47 8 16 20 66 28 112 9 59 16 81
25 78 7 -3 19 -3 27 0 19 7 49 133 45 186 l-4 43 52 -3 c92 -6 179 52 209 140
9 27 16 32 35 29 47 -7 174 -6 197 2 21 8 22 6 22 -34 0 -72 82 -148 160 -149
23 0 26 -6 38 -65 16 -86 39 -142 61 -148 13 -3 21 -23 30 -78 7 -41 20 -90
29 -109 9 -19 18 -46 22 -60 3 -15 13 -26 26 -28 12 -2 34 -16 49 -33 19 -18
39 -29 57 -29 25 0 28 -4 28 -30 0 -37 25 -51 44 -25 9 13 15 15 20 6 12 -19
26 -2 26 33 0 30 -4 33 -52 51 -34 12 -70 36 -101 67 -26 26 -56 48 -65 49
-12 0 -11 3 6 9 19 8 21 14 16 37 -12 44 -65 153 -76 153 -5 0 -7 9 -3 19 6
20 -57 168 -94 220 -13 18 -42 36 -81 50 l-60 22 0 70 c0 39 5 80 11 91 10 19
12 18 29 -20 37 -82 88 -149 139 -182 53 -34 71 -66 65 -115 -6 -57 32 -72 76
-30 24 23 30 25 55 13 25 -11 29 -10 45 12 52 70 50 70 34 5 -12 -53 -12 -61
1 -71 9 -6 22 -37 30 -69 8 -31 26 -80 39 -108 13 -29 26 -60 29 -70 4 -9 12
-17 20 -17 7 0 24 -14 36 -31 18 -25 28 -30 49 -26 34 6 62 -8 62 -32 0 -26
10 -32 34 -18 11 6 30 12 41 12 15 0 20 7 20 30 0 31 5 29 -103 51 -31 6 -112
82 -112 105 0 29 -66 166 -86 178 -18 10 -18 10 -1 11 28 0 29 22 6 106 -25
88 -26 106 -10 148 11 28 14 28 61 23 123 -15 349 -111 499 -212 105 -71 144
-105 210 -183 50 -60 84 -68 89 -20 10 83 -154 225 -389 338 -135 64 -263 105
-401 127 -32 6 -45 12 -40 20 13 21 207 36 392 30 153 -4 189 -9 290 -35 63
-17 169 -54 235 -82 86 -37 124 -49 135 -42 24 15 23 38 -1 61 -36 33 -223
101 -354 129 -107 23 -143 26 -325 25 -141 0 -229 -4 -282 -15 l-77 -15 0 76
c0 63 -5 85 -31 138 -42 86 -84 116 -165 121 -48 3 -73 -1 -110 -17 -26 -12
-51 -21 -55 -21 -4 0 -15 18 -25 41 -59 131 -260 196 -441 144 -25 -8 -54 20
-324 304 -184 194 -280 278 -383 335 -117 65 -230 88 -302 61z m179 -72 c51
-17 127 -62 143 -82 7 -9 41 -70 75 -136 39 -75 80 -137 109 -166 41 -42 51
-47 97 -50 29 -2 52 -2 52 -1 0 2 -10 12 -22 22 -17 13 -28 16 -41 9 -33 -18
-109 53 -123 114 -3 18 -14 43 -23 57 -28 40 -53 101 -46 108 4 4 123 -112
265 -258 142 -145 257 -266 255 -269 -3 -2 -33 14 -67 36 -95 60 -159 95 -165
90 -4 -5 107 -90 170 -130 38 -24 34 -40 -5 -24 -43 18 -266 156 -390 240 -96
66 -325 187 -352 187 -32 0 -116 151 -119 213 -2 34 2 43 23 54 28 15 100 9
164 -14z m-146 -288 c42 -10 62 -21 77 -41 57 -78 120 -146 162 -176 111 -77
173 -83 147 -14 -7 18 -40 22 -46 4 -12 -36 -121 51 -168 134 -13 23 -19 39
-14 36 38 -21 183 -108 244 -148 41 -27 157 -99 258 -160 101 -62 181 -114
179 -116 -2 -3 -110 29 -238 70 -308 98 -403 126 -425 126 -34 -1 7 -24 87
-49 205 -64 479 -157 528 -178 l56 -24 -75 5 c-92 6 -446 70 -515 93 -128 42
-282 130 -369 212 -21 20 -60 65 -88 101 -61 80 -63 118 -8 137 38 14 116 9
208 -12z m1570 -625 c23 -14 43 -41 65 -88 27 -57 32 -81 35 -164 5 -112 -1
-143 -28 -158 -19 -10 -19 -9 -5 31 40 113 -10 312 -89 354 -71 38 -142 -7
-166 -105 -13 -54 -7 -157 11 -195 9 -18 8 -17 -10 3 -45 51 -50 186 -10 265
38 73 128 99 197 57z m-44 -66 c9 -8 16 -17 16 -19 0 -7 -72 -45 -86 -45 -19
0 -18 30 2 58 18 26 46 28 68 6z"/>
<path d="M1311 2084 c0 -11 3 -14 6 -6 3 7 2 16 -1 19 -3 4 -6 -2 -5 -13z"/>
<path d="M1360 2079 c0 -11 5 -17 10 -14 6 3 10 13 10 21 0 8 -4 14 -10 14 -5
0 -10 -9 -10 -21z"/>
<path d="M1410 2086 c0 -23 16 -27 17 -5 1 10 -2 19 -8 19 -5 0 -9 -6 -9 -14z"/>
<path d="M1260 2075 c0 -8 4 -15 10 -15 5 0 7 7 4 15 -4 8 -8 15 -10 15 -2 0
-4 -7 -4 -15z"/>
<path d="M1221 2064 c0 -11 3 -14 6 -6 3 7 2 16 -1 19 -3 4 -6 -2 -5 -13z"/>
<path d="M1532 2060 c-10 -16 -10 -20 1 -20 7 0 13 9 14 20 1 11 1 20 0 20 -1
0 -8 -9 -15 -20z"/>
<path d="M1460 2060 c0 -5 5 -10 10 -10 6 0 10 5 10 10 0 6 -4 10 -10 10 -5 0
-10 -4 -10 -10z"/>
<path d="M1597 2036 c-3 -8 -2 -18 3 -21 13 -8 24 15 12 27 -6 6 -11 4 -15 -6z"/>
<path d="M1665 2000 c3 -5 8 -10 11 -10 2 0 4 5 4 10 0 6 -5 10 -11 10 -5 0
-7 -4 -4 -10z"/>
<path d="M1635 1980 c3 -5 11 -10 16 -10 6 0 7 5 4 10 -3 6 -11 10 -16 10 -6
0 -7 -4 -4 -10z"/>
<path d="M1710 1960 c0 -5 5 -10 10 -10 6 0 10 5 10 10 0 6 -4 10 -10 10 -5 0
-10 -4 -10 -10z"/>
<path d="M1675 1940 c3 -5 11 -10 16 -10 6 0 7 5 4 10 -3 6 -11 10 -16 10 -6
0 -7 -4 -4 -10z"/>
<path d="M1746 1931 c-4 -7 -5 -15 -2 -18 9 -9 19 4 14 18 -4 11 -6 11 -12 0z"/>
<path d="M1820 1921 c0 -6 5 -13 10 -16 6 -3 10 1 10 9 0 9 -4 16 -10 16 -5 0
-10 -4 -10 -9z"/>
<path d="M1886 1915 c-3 -8 -1 -15 4 -15 6 0 10 7 10 15 0 8 -2 15 -4 15 -2 0
-6 -7 -10 -15z"/>
<path d="M1776 1901 c-4 -7 -5 -15 -2 -18 9 -9 19 4 14 18 -4 11 -6 11 -12 0z"/>
<path d="M1940 1895 c0 -8 5 -15 10 -15 6 0 10 7 10 15 0 8 -4 15 -10 15 -5 0
-10 -7 -10 -15z"/>
<path d="M1996 1875 c-3 -8 -1 -15 4 -15 6 0 10 7 10 15 0 8 -2 15 -4 15 -2 0
-6 -7 -10 -15z"/>
<path d="M1720 1860 c0 -5 5 -10 10 -10 6 0 10 5 10 10 0 6 -4 10 -10 10 -5 0
-10 -4 -10 -10z"/>
<path d="M2037 1843 c-4 -3 -7 -11 -7 -17 0 -6 5 -5 12 2 6 6 9 14 7 17 -3 3
-9 2 -12 -2z"/>
<path d="M226 1831 c-4 -5 -2 -12 3 -15 5 -4 12 -2 15 3 4 5 2 12 -3 15 -5 4
-12 2 -15 -3z"/>
<path d="M2055 1790 c-3 -5 1 -10 9 -10 9 0 16 5 16 10 0 6 -4 10 -9 10 -6 0
-13 -4 -16 -10z"/>
<path d="M170 1775 c0 -8 5 -15 10 -15 6 0 10 7 10 15 0 8 -4 15 -10 15 -5 0
-10 -7 -10 -15z"/>
<path d="M2075 1741 c-3 -5 -1 -12 5 -16 5 -3 10 1 10 9 0 18 -6 21 -15 7z"/>
<path d="M106 1704 c-9 -24 -7 -27 9 -10 17 17 19 26 6 26 -5 0 -12 -7 -15
-16z"/>
<path d="M2081 1684 c0 -11 3 -14 6 -6 3 7 2 16 -1 19 -3 4 -6 -2 -5 -13z"/>
<path d="M60 1631 c0 -6 5 -13 10 -16 6 -3 10 1 10 9 0 9 -4 16 -10 16 -5 0
-10 -4 -10 -9z"/>
<path d="M20 1560 c0 -5 5 -10 10 -10 6 0 10 5 10 10 0 6 -4 10 -10 10 -5 0
-10 -4 -10 -10z"/>
<path d="M1301 1374 c0 -11 3 -14 6 -6 3 7 2 16 -1 19 -3 4 -6 -2 -5 -13z"/>
<path d="M1368 1363 c5 -21 7 -23 10 -9 2 10 0 22 -6 28 -6 6 -7 0 -4 -19z"/>
<path d="M8115 1342 c-22 -26 -76 -95 -119 -154 l-79 -107 -66 -7 c-36 -4 -70
-8 -76 -9 -5 -1 -42 -3 -81 -3 l-71 -2 -12 -41 c-14 -46 -3 -71 19 -44 15 18
37 20 43 3 3 -10 9 -9 23 3 13 11 40 17 82 18 115 3 163 17 199 57 58 66 203
288 203 312 0 34 -21 25 -65 -26z"/>
</g>
</svg>
