<?xml version="1.0" standalone="no"?>
<!DOCTYPE svg PUBLIC "-//W3C//DTD SVG 20010904//EN"
 "http://www.w3.org/TR/2001/REC-SVG-20010904/DTD/svg10.dtd">
<svg version="1.0" xmlns="http://www.w3.org/2000/svg"
 width="1024.000000pt" height="1024.000000pt" viewBox="0 0 1024.000000 1024.000000"
 preserveAspectRatio="xMidYMid meet">

<g transform="translate(0.000000,1024.000000) scale(0.100000,-0.100000)"
fill="#000000" stroke="none">
<path d="M1263 9663 c-25 -9 -12 -32 47 -83 108 -94 206 -245 265 -410 l26
-75 -23 -15 c-42 -27 -77 -71 -84 -105 -7 -39 10 -98 36 -123 9 -9 23 -35 30
-57 7 -22 17 -46 23 -53 8 -11 -11 -62 -38 -100 -1 -1 -45 18 -98 44 l-97 45
-1 57 c0 31 -2 66 -4 77 -2 11 -12 117 -23 235 -23 233 -40 298 -110 407 -37
58 -110 133 -129 133 -30 0 -25 -32 9 -68 44 -46 94 -121 114 -168 11 -26 16
-85 19 -208 2 -94 6 -198 10 -231 11 -104 35 -267 41 -276 18 -29 226 -149
259 -149 11 0 15 -12 16 -52 0 -29 4 -77 8 -106 l8 -53 -41 6 c-23 2 -90 12
-151 20 -147 20 -261 33 -383 45 -56 6 -148 15 -204 20 -114 12 -454 15 -481
4 -9 -3 -20 -18 -24 -32 -5 -23 1 -33 48 -75 59 -52 422 -309 533 -376 125
-77 153 -84 296 -76 l125 8 35 36 c19 20 52 56 74 81 21 25 65 74 99 109 49
50 64 61 76 53 9 -6 14 -16 12 -24 -15 -54 -31 -145 -37 -211 l-7 -77 -110
-66 c-135 -81 -204 -130 -217 -154 -22 -41 -4 -495 21 -542 17 -31 -52 -151
-134 -235 -47 -49 -50 -54 -35 -69 15 -15 19 -14 52 11 78 59 181 225 193 310
5 42 -12 402 -23 452 -3 18 14 32 128 97 72 42 132 75 133 74 0 -2 -2 -70 -6
-153 -10 -186 4 -494 26 -600 19 -93 64 -207 99 -250 21 -26 26 -28 41 -15 21
17 67 108 88 175 41 126 51 230 51 542 1 167 3 303 5 303 2 0 27 -15 55 -34
28 -18 84 -51 123 -72 l72 -39 -4 -50 c-8 -95 -15 -240 -17 -341 -2 -97 -1
-103 35 -178 40 -85 120 -193 169 -227 26 -19 31 -20 45 -7 13 14 8 22 -39 73
-61 66 -80 92 -114 158 -24 45 -24 52 -14 120 6 40 13 167 17 282 l6 210 -35
31 c-19 17 -89 64 -154 104 -65 40 -125 78 -132 85 -8 7 -16 41 -18 76 -2 35
-11 102 -20 148 -9 52 -12 87 -6 93 10 10 162 -141 229 -226 20 -26 45 -48 57
-51 12 -2 73 -7 137 -10 141 -8 175 3 332 103 122 77 383 263 468 334 141 117
66 150 -287 128 -224 -14 -774 -72 -909 -96 l-31 -5 7 78 c4 43 8 90 8 106 1
20 6 27 20 27 29 0 195 87 235 124 31 28 36 40 50 126 24 142 37 299 39 455
l2 140 39 70 c21 39 56 89 78 112 41 42 46 73 11 73 -42 0 -193 -218 -193
-280 0 -10 -6 -23 -14 -29 -9 -7 -15 -51 -20 -140 -4 -70 -11 -155 -16 -187
-6 -32 -13 -107 -16 -165 l-7 -106 -96 -41 c-53 -23 -99 -42 -102 -42 -4 0
-12 14 -19 30 -18 43 -5 122 30 184 47 84 37 173 -24 206 -33 17 -33 41 -1
127 58 153 144 283 255 386 52 47 60 60 50 72 -17 21 -60 -3 -130 -74 -98 -98
-199 -273 -246 -424 -11 -37 -22 -56 -30 -53 -7 3 -15 0 -18 -7 -3 -9 -5 -9
-5 1 -1 8 -9 10 -24 7 -21 -6 -25 0 -41 52 -48 153 -132 298 -236 406 -71 75
-116 108 -137 100z m486 -634 c55 -19 39 -39 -32 -39 -75 0 -103 -19 -91 -64
5 -21 3 -26 -12 -26 -25 0 -54 29 -54 55 0 60 107 102 189 74z m-63 -220 c49
-13 52 -18 25 -43 -27 -24 -51 -17 -74 22 -21 36 -17 37 49 21z m42 -136 c2
-8 -5 -13 -17 -13 -11 0 -27 -10 -35 -22 -30 -43 -14 -351 19 -389 15 -15 14
-18 -11 -38 -20 -15 -31 -18 -45 -11 -28 16 -32 30 -14 50 15 17 16 28 7 97
-30 213 -26 278 23 326 19 20 66 19 73 0z m-1073 -313 c88 -6 241 -20 340 -31
99 -12 226 -26 283 -33 94 -10 74 -11 -235 -11 -333 0 -433 -6 -433 -27 0 -6
10 -8 25 -4 27 7 548 8 580 2 11 -3 34 -5 50 -6 54 -2 -1 -16 -160 -39 -82
-12 -211 -33 -285 -45 l-135 -23 -60 43 c-159 115 -235 171 -241 177 -10 10
84 9 271 -3z m2350 1 c-5 -5 -75 -57 -154 -115 -110 -82 -149 -105 -165 -100
-11 3 -28 7 -36 9 -8 2 -123 20 -255 40 -132 19 -253 39 -270 43 l-30 9 30 6
c17 3 170 5 342 4 172 -1 308 2 304 6 -19 19 -212 29 -476 25 -298 -5 -297 -5
-25 27 25 3 54 7 65 9 131 25 690 56 670 37z m-1840 -241 l-80 -39 50 5 c28 3
74 12 104 19 l53 14 -23 -26 c-13 -13 -36 -32 -51 -41 -67 -39 1 -28 105 17
27 12 51 21 54 21 2 0 -14 -24 -37 -52 -23 -29 -51 -64 -62 -78 -18 -22 -27
-24 -123 -28 -78 -2 -113 1 -142 13 -52 21 -253 137 -253 145 0 14 335 65 445
68 39 1 39 1 -40 -38z m1165 24 c76 -8 264 -35 288 -41 12 -3 22 -8 22 -12 0
-10 -174 -111 -238 -137 -47 -19 -75 -24 -159 -24 l-102 0 -59 73 c-78 96 -79
100 -30 72 41 -23 136 -50 145 -42 2 3 -20 20 -49 38 -61 40 -49 47 40 25 33
-9 73 -16 88 -16 24 1 15 7 -43 35 -109 51 -106 52 97 29z m-656 -182 c3 -79
1 -102 -9 -102 -7 0 -20 -3 -28 -6 -10 -3 -18 2 -22 15 -6 20 18 182 31 202
15 24 24 -13 28 -109z m-3 -308 c3 -60 3 -114 1 -121 -3 -11 -32 -10 -52 2
-11 7 -14 195 -4 233 6 21 8 22 28 9 19 -13 22 -27 27 -123z m-21 -194 c23 0
40 -33 34 -65 -3 -18 -1 -41 4 -51 8 -14 5 -22 -12 -34 -11 -9 -31 -19 -43
-22 -18 -5 -22 0 -26 26 -3 17 -2 63 1 103 4 62 7 70 19 57 8 -8 18 -14 23
-14z m87 -122 c-3 -8 -6 -5 -6 6 -1 11 2 17 5 13 3 -3 4 -12 1 -19z m-69 -262
c2 -95 0 -116 -12 -116 -7 0 -16 6 -19 14 -11 27 -29 216 -23 232 6 15 9 15
29 1 20 -13 22 -23 25 -131z"/>
<path d="M7876 9538 c-9 -12 -16 -26 -16 -30 0 -5 24 -24 53 -42 114 -73 206
-215 247 -379 30 -121 27 -137 -32 -152 -88 -22 -164 -90 -194 -172 -26 -75
-13 -166 29 -202 13 -10 13 -17 0 -51 -9 -22 -19 -40 -22 -40 -3 0 -33 48 -66
107 -33 58 -75 121 -93 140 -23 23 -35 48 -42 83 -16 86 -64 193 -94 210 -23
13 -29 13 -53 0 -64 -36 -53 -130 28 -247 49 -71 49 -73 35 -107 -12 -30 -12
-38 1 -63 39 -75 81 -145 130 -216 l54 -77 -28 -11 c-36 -13 -55 -8 -136 41
-77 47 -86 46 -184 -10 -37 -21 -55 -39 -64 -64 -7 -19 -23 -39 -35 -45 -13
-5 -30 -24 -39 -42 -16 -31 -17 -31 -73 -25 -78 9 -110 23 -159 68 -49 43 -65
46 -94 17 -32 -32 -20 -59 41 -101 73 -49 150 -78 209 -78 31 0 53 -5 61 -15
19 -23 27 -19 64 32 33 46 36 47 88 49 30 1 79 7 110 14 30 7 60 11 67 9 6 -2
-141 -107 -326 -234 -496 -339 -603 -423 -603 -474 0 -10 17 -29 38 -44 97
-64 435 -163 530 -155 64 6 73 14 171 157 39 57 71 102 71 99 0 -3 -8 -29 -19
-59 -37 -108 -63 -242 -57 -291 6 -44 5 -47 -28 -68 -20 -11 -52 -23 -73 -26
-80 -12 -113 -35 -113 -83 0 -34 41 -36 132 -6 73 24 89 34 136 84 29 31 66
83 82 116 16 33 68 188 116 345 68 224 87 301 89 357 2 55 8 79 25 103 26 36
32 38 24 5 -9 -36 15 -161 36 -188 18 -22 18 -25 0 -78 -58 -170 -48 -458 18
-532 9 -11 35 -28 58 -38 38 -17 42 -23 58 -83 55 -203 136 -276 305 -276 81
0 136 14 178 46 40 30 108 164 125 245 8 40 17 59 27 59 28 0 79 44 100 87 46
95 51 267 12 458 -17 85 -17 90 0 120 10 16 20 46 24 65 3 19 8 44 10 55 2 11
4 29 4 40 2 44 23 -6 32 -74 8 -66 111 -454 160 -601 55 -167 134 -261 263
-310 85 -33 106 -36 124 -18 35 35 -12 93 -85 103 -28 3 -65 16 -83 28 -29 20
-31 27 -34 87 -3 53 -44 216 -81 325 -4 11 16 -16 45 -59 28 -44 72 -107 98
-139 l45 -60 86 6 c143 10 386 86 484 151 46 31 45 54 -5 107 -70 72 -411 321
-827 602 -39 26 -71 52 -71 56 0 5 50 -2 111 -16 61 -13 119 -21 128 -18 11 3
25 -9 44 -40 27 -42 58 -58 71 -36 3 4 31 11 63 13 32 3 81 17 108 30 67 32
165 96 165 107 0 19 -43 61 -62 61 -11 0 -38 -16 -60 -35 -41 -35 -100 -59
-174 -70 -39 -6 -42 -5 -54 25 -7 17 -26 38 -41 46 -16 8 -29 21 -29 28 0 27
-48 71 -107 100 l-60 28 -94 -46 c-82 -41 -99 -46 -122 -37 -15 6 -27 13 -27
17 0 3 15 27 33 53 19 25 64 94 101 152 60 95 65 109 56 133 -17 45 -12 65 30
124 68 95 85 196 39 238 -16 14 -23 15 -48 4 -24 -9 -35 -27 -60 -88 -17 -43
-36 -100 -42 -129 -9 -36 -18 -54 -34 -61 -13 -6 -44 -46 -70 -89 -26 -43 -64
-103 -83 -133 l-36 -55 -19 44 c-17 40 -18 45 -3 53 53 29 72 157 36 236 -40
89 -83 124 -182 147 -33 7 -62 15 -64 18 -8 8 19 124 46 199 52 143 124 243
222 309 62 42 69 56 40 82 -39 35 -79 20 -165 -62 -99 -94 -163 -217 -207
-403 l-24 -98 -67 0 -67 0 -7 48 c-13 95 -47 209 -85 287 -84 173 -244 295
-294 223z m-228 -640 c6 -23 9 -44 7 -46 -8 -8 -43 61 -38 74 9 25 20 15 31
-28z m806 -9 c3 -3 13 -43 22 -90 25 -129 3 -284 -52 -367 l-16 -25 -162 7
c-88 3 -171 9 -183 12 -14 4 -23 2 -23 -4 0 -31 234 -64 422 -60 80 2 146 2
145 1 -1 -1 -39 -11 -84 -22 -131 -34 -334 -27 -482 15 -52 15 -53 16 -47 46
11 56 54 138 72 138 29 0 83 40 113 83 40 60 61 131 61 210 l0 69 104 -4 c57
-1 107 -6 110 -9z m-270 -38 c3 -5 -19 -21 -49 -35 -69 -34 -97 -73 -103 -143
-5 -55 -9 -62 -30 -41 -26 26 -5 125 36 172 41 46 129 74 146 47z m439 -28
c53 -50 75 -145 44 -187 -12 -16 -14 -13 -13 31 1 65 -35 121 -93 147 -22 11
-41 26 -41 34 0 24 68 7 103 -25z m-828 -258 c19 -41 56 -104 80 -140 25 -36
41 -65 37 -65 -18 0 -94 90 -136 163 -25 43 -46 81 -46 85 0 7 21 32 26 32 2
0 19 -34 39 -75z m1086 -18 c-48 -71 -91 -126 -91 -114 0 20 125 208 128 193
2 -10 -15 -45 -37 -79z m-1256 -270 c24 -18 12 -24 -63 -33 -101 -11 -73 22
39 45 3 0 13 -5 24 -12z m1543 -27 c4 -10 -5 -12 -43 -7 -26 4 -61 7 -76 7
-37 0 -37 16 -2 27 34 12 115 -7 121 -27z m-1224 -12 c-40 -69 -126 -171 -319
-378 -23 -25 -117 -139 -209 -255 -253 -316 -228 -289 -250 -272 -18 13 -19
19 -8 53 21 69 85 165 176 261 49 51 86 96 83 100 -10 9 -134 -104 -193 -175
-55 -67 -114 -168 -114 -196 0 -9 -6 -19 -14 -22 -14 -6 -222 71 -231 85 -7
12 112 101 685 510 96 68 204 150 240 181 123 106 105 82 -60 -80 -91 -89
-156 -157 -145 -152 11 6 97 86 190 180 94 93 171 170 173 171 2 0 0 -5 -4
-11z m542 -7 c14 -32 17 -313 4 -384 -10 -58 -19 -77 -49 -109 -60 -65 -151
-65 -222 -1 -56 51 -80 104 -89 193 l-7 75 -2 -76 c-1 -85 10 -128 46 -177 14
-18 23 -35 21 -37 -5 -6 -120 22 -152 36 -26 12 -35 29 -16 29 20 0 48 78 59
169 14 112 44 187 99 251 l41 48 130 0 c111 0 131 -3 137 -17z m-439 -49 c-49
-30 -77 -117 -77 -237 0 -62 -12 -91 -24 -59 -25 64 20 270 71 327 15 16 17
16 35 0 18 -16 18 -17 -5 -31z m575 36 c7 -19 -2 -38 -18 -38 -8 0 -14 8 -14
18 0 30 23 44 32 20z m117 -273 c0 -27 -4 -57 -9 -65 -7 -10 -9 14 -9 75 1 95
16 86 18 -10z m451 -78 c41 -34 77 -64 80 -67 3 -3 41 -35 85 -70 90 -71 263
-227 312 -280 18 -19 29 -38 24 -43 -5 -5 -31 -19 -59 -32 l-51 -24 -11 35
c-15 46 -114 177 -176 234 -68 63 -194 163 -200 158 -2 -3 44 -51 104 -109
123 -120 170 -174 206 -243 33 -62 33 -80 -1 -95 -21 -10 -29 -9 -38 1 -137
150 -513 614 -550 678 -10 17 28 -14 103 -84 66 -63 67 -47 2 34 -27 34 -50
64 -50 66 0 7 143 -97 220 -159z m-1520 -295 c-76 -248 -105 -332 -114 -332
-8 0 64 256 103 370 111 322 116 303 11 -38z m1361 -61 c72 -245 90 -336 27
-140 -43 132 -128 431 -127 445 1 17 30 -72 100 -305z m-411 259 c0 -10 -58
-50 -73 -50 -9 0 55 59 66 60 4 0 7 -5 7 -10z m-623 -125 l-7 -44 38 -10 c152
-41 186 -41 202 -2 12 29 13 30 102 33 l90 3 23 -45 c12 -25 28 -69 34 -98 12
-58 14 -205 3 -267 l-7 -40 -60 -8 c-80 -12 -352 8 -403 28 -48 20 -60 45 -73
149 -10 83 -6 158 12 279 9 57 14 67 31 67 19 0 20 -4 15 -45z m723 -38 c7
-47 11 -135 8 -202 -5 -153 -22 -193 -88 -215 -25 -8 -51 -19 -58 -24 -7 -4
-16 -5 -20 -1 -4 4 -2 10 3 12 74 29 101 51 117 99 20 57 24 218 8 327 -6 38
-8 73 -4 78 14 23 23 3 34 -74z m-250 -507 c0 -3 -11 -41 -25 -85 -33 -106
-32 -111 13 -123 l37 -9 -45 -21 c-62 -30 -167 -30 -227 -1 -24 11 -43 25 -43
30 0 5 25 9 55 9 30 0 55 2 55 4 0 2 -20 42 -45 87 -24 46 -45 91 -45 99 0 13
22 15 135 15 74 0 135 -2 135 -5z"/>
<path d="M8248 8003 c-46 -54 -52 -133 -13 -199 29 -49 70 -68 114 -53 96 34
49 269 -54 269 -18 0 -39 -8 -47 -17z"/>
<path d="M7990 7525 c0 -15 73 -39 153 -50 69 -9 58 10 -13 24 -34 7 -79 18
-100 26 -34 12 -40 12 -40 0z"/>
<path d="M7990 7422 c0 -12 75 -38 138 -47 73 -11 46 11 -35 29 -43 10 -84 20
-90 23 -7 2 -13 0 -13 -5z"/>
<path d="M8016 7321 c33 -23 164 -42 164 -25 0 5 -33 15 -72 22 -40 6 -84 14
-98 18 -23 5 -22 4 6 -15z"/>
<path d="M3062 9324 c-31 -21 -28 -60 9 -130 46 -90 127 -189 246 -305 138
-134 222 -196 358 -265 61 -31 111 -58 113 -60 2 -1 -2 -12 -8 -24 -17 -32 3
-72 62 -125 108 -97 220 -129 453 -129 204 0 296 17 420 78 l83 41 6 -55 c3
-31 12 -73 21 -94 9 -21 14 -40 11 -43 -2 -3 -78 -14 -168 -24 -249 -29 -276
-48 -362 -246 -24 -55 -92 -221 -151 -369 -170 -429 -150 -389 -227 -455 -38
-33 -87 -71 -108 -85 -46 -30 -54 -64 -17 -64 25 0 137 75 199 133 46 43 67
86 161 322 106 267 201 495 237 565 45 90 74 104 240 119 74 7 150 15 168 17
17 3 32 1 32 -4 0 -6 -54 -151 -120 -323 -202 -523 -200 -516 -200 -805 0
-178 17 -263 61 -310 48 -51 73 -17 35 48 -34 59 -46 139 -41 298 4 167 22
257 87 430 43 113 173 424 218 521 l12 27 34 -22 c21 -13 31 -26 28 -36 -51
-143 -105 -445 -111 -631 l-6 -156 37 -69 c41 -77 145 -226 162 -231 14 -5 78
81 138 184 60 104 70 177 56 405 -11 178 -29 299 -65 423 -28 97 -29 105 -13
105 6 0 19 7 29 16 21 19 14 31 102 -176 118 -278 185 -464 207 -571 19 -89
21 -129 18 -274 -5 -179 -11 -207 -59 -267 -42 -51 12 -68 55 -17 50 59 61
123 60 344 0 121 -6 224 -14 260 -13 64 -144 434 -240 677 -31 81 -55 150 -52
153 3 3 19 3 36 1 17 -3 90 -10 161 -17 154 -14 185 -25 219 -76 32 -48 137
-298 250 -597 48 -125 96 -245 106 -266 20 -39 158 -159 217 -187 56 -28 91
12 36 41 -44 23 -187 145 -201 172 -7 13 -48 120 -91 236 -176 475 -247 635
-305 686 -50 43 -78 51 -286 73 -58 6 -113 13 -122 15 -20 6 -24 34 -7 51 6 6
14 43 17 82 2 39 6 71 9 71 2 0 22 -12 44 -26 114 -72 305 -111 494 -100 217
11 344 54 438 149 48 47 49 50 44 96 l-6 47 77 34 c140 63 275 162 427 315
179 179 269 314 250 374 -9 29 -58 45 -120 38 -64 -6 -303 -86 -490 -162 -152
-62 -930 -404 -1091 -480 l-111 -52 -31 38 c-38 44 -39 50 -11 67 11 7 31 37
44 65 28 64 41 76 133 122 78 39 214 71 267 62 38 -6 60 5 52 26 -20 54 -277
16 -388 -57 -21 -14 -41 -26 -44 -26 -4 0 -21 15 -38 34 -41 43 -99 60 -203
60 -93 0 -160 -26 -194 -74 l-21 -29 -57 34 c-75 44 -161 72 -247 80 -77 7
-130 -4 -130 -26 0 -10 22 -16 85 -22 105 -10 183 -36 276 -90 65 -37 73 -46
85 -87 10 -31 24 -51 46 -66 l33 -22 -31 -38 c-17 -22 -36 -38 -43 -37 -6 0
-189 81 -406 178 -689 308 -977 425 -1180 482 -99 27 -157 29 -188 7z m3848
-79 c0 -7 -122 -62 -260 -117 -68 -28 -188 -77 -265 -110 -77 -33 -196 -84
-265 -113 -237 -101 -823 -335 -828 -330 -5 5 24 18 273 130 77 34 165 74 195
88 105 48 556 245 675 295 119 50 439 162 463 162 6 0 12 -2 12 -5z m-3540
-51 c171 -53 577 -224 1250 -525 204 -91 196 -87 188 -95 -3 -3 -113 41 -244
96 -351 150 -870 366 -1106 461 -115 46 -208 87 -208 92 0 4 8 6 18 3 9 -3 55
-17 102 -32z m1751 -234 c20 -6 42 -16 48 -24 9 -11 -4 -13 -72 -13 -123 0
-184 -32 -157 -82 9 -18 8 -21 -8 -21 -23 0 -38 16 -47 51 -17 70 119 121 236
89z m-34 -276 c2 -7 -16 -13 -49 -16 -88 -9 -128 -74 -128 -209 0 -84 14 -127
54 -162 l31 -29 -40 16 c-22 9 -51 28 -64 43 -22 25 -23 33 -19 117 5 109 33
182 87 227 30 25 43 29 80 27 25 -2 46 -8 48 -14z m139 -272 c-5 -52 -27 -102
-46 -102 -5 0 -3 19 5 41 8 23 15 78 16 123 l1 81 15 -45 c9 -28 12 -65 9 -98z
m-871 17 c145 -1 149 -1 105 -15 -99 -32 -256 -26 -335 12 -29 14 -29 14 25 9
30 -3 123 -5 205 -6z m1440 0 c148 0 149 -1 110 -16 -64 -26 -244 -23 -315 5
l-55 22 55 -5 c30 -3 123 -5 205 -6z m-825 -290 c0 -32 4 -69 10 -83 11 -31
-3 -35 -32 -9 -14 13 -18 31 -18 88 0 77 5 91 27 74 8 -7 13 -33 13 -70z m28
-451 c-3 -45 -6 -53 -24 -56 -21 -3 -21 -3 -6 52 8 31 19 56 24 56 5 0 8 -24
6 -52z m0 -160 c3 -48 3 -48 -28 -48 -36 0 -45 16 -36 66 6 31 10 35 34 32 25
-3 27 -7 30 -50z m-29 -104 c29 -6 31 -9 27 -43 -3 -20 -5 -39 -5 -43 -1 -5
-10 -8 -20 -8 -35 0 -76 71 -54 93 8 9 13 9 52 1z m-20 -167 c9 -12 9 -26 0
-61 -6 -25 -15 -46 -20 -46 -15 0 -29 47 -29 96 0 40 2 44 18 35 10 -5 24 -16
31 -24z"/>
<path d="M2850 7539 c-24 -11 -52 -27 -61 -35 -15 -13 -22 -12 -65 15 -72 46
-85 37 -38 -24 l26 -35 -32 -40 c-33 -41 -51 -45 -102 -19 -21 11 -88 12 -88
1 0 -12 111 -75 144 -82 19 -3 32 -13 34 -24 3 -16 -2 -17 -51 -11 -61 8 -81
-5 -53 -33 12 -12 41 -19 94 -22 69 -5 77 -7 80 -27 2 -14 -3 -23 -17 -28 -37
-12 -25 -35 18 -35 71 0 85 18 59 75 -15 34 -7 39 37 21 74 -31 152 -17 197
37 l27 32 29 -34 c27 -32 34 -35 95 -39 46 -3 67 -8 67 -17 0 -8 11 -27 25
-43 14 -17 25 -37 25 -46 0 -9 8 -33 19 -54 24 -49 36 -182 16 -182 -8 0 -30
-13 -48 -30 -29 -25 -43 -30 -84 -30 -36 0 -60 -7 -85 -24 -38 -26 -85 -25
-126 2 -28 18 -72 102 -72 136 0 30 -9 37 -38 29 -31 -8 -29 -55 7 -125 l29
-56 -29 -12 c-44 -19 -38 -52 19 -108 81 -80 125 -96 278 -100 159 -5 206 10
248 77 16 25 34 41 45 41 28 0 86 73 101 125 7 25 10 67 8 95 -4 39 -1 53 12
65 27 25 33 93 15 170 -19 84 -39 119 -86 149 -24 17 -38 35 -43 56 -3 18 -21
47 -40 66 -27 27 -42 34 -71 34 -29 0 -47 8 -76 35 -33 29 -47 35 -84 35 -25
0 -56 -6 -68 -14 -43 -27 -65 -28 -84 -6 -27 32 -87 60 -130 60 -21 0 -58 -10
-83 -21z m105 -53 c66 -28 34 -86 -68 -125 -25 -10 -27 -9 -17 8 15 28 12 67
-5 81 -23 19 -18 28 18 39 17 5 33 10 35 10 1 1 18 -6 37 -13z m295 -36 c13
-9 12 -13 -7 -29 -24 -20 -135 -47 -152 -37 -24 15 -9 32 47 53 65 24 90 27
112 13z m-437 -32 c7 -21 -3 -37 -39 -59 -36 -22 -54 -19 -54 11 0 37 82 79
93 48z m585 -46 c11 -14 10 -18 -3 -20 -19 -4 -65 24 -65 39 0 16 52 1 68 -19z
m132 -165 c0 -5 -4 -5 -10 -2 -5 3 -10 14 -10 23 0 15 2 15 10 2 5 -8 10 -19
10 -23z m-130 -112 c7 -9 10 -18 7 -22 -8 -7 -37 15 -37 28 0 14 16 11 30 -6z
m61 -123 c14 -38 7 -96 -12 -100 -11 -2 -21 12 -32 49 -24 74 -23 87 9 81 16
-3 29 -15 35 -30z m-101 -160 c0 -18 -19 -40 -47 -56 -21 -12 -15 32 7 54 25
25 40 26 40 2z m-120 -44 c0 -20 -32 -48 -55 -48 -24 0 -52 26 -42 37 6 5 49
16 90 22 4 0 7 -4 7 -11z m-199 -48 c24 -13 26 -60 3 -60 -21 0 -114 50 -114
62 0 12 88 10 111 -2z"/>
<path d="M9454 6556 c-97 -42 -214 -218 -305 -460 -26 -69 -39 -90 -59 -98
-14 -5 -40 -21 -58 -34 l-33 -25 -47 18 c-32 12 -72 18 -127 17 -88 -1 -151
-25 -219 -85 -44 -38 -45 -37 -165 67 -70 61 -267 202 -361 258 -200 120 -475
239 -675 291 -221 57 -351 15 -349 -113 1 -67 24 -104 139 -222 56 -58 127
-143 157 -190 31 -47 74 -105 97 -130 41 -43 42 -46 32 -81 -6 -20 -11 -52
-11 -71 0 -79 95 -202 194 -249 l44 -22 -26 -27 c-15 -15 -45 -60 -68 -101
-100 -182 -239 -418 -270 -459 -46 -60 -86 -86 -164 -105 -36 -9 -75 -21 -88
-28 -18 -8 -28 -8 -43 1 -43 27 -43 -22 0 -55 22 -17 86 -16 100 1 7 8 35 20
64 26 68 16 81 24 140 79 60 55 116 139 217 324 l75 137 82 0 83 0 -6 -42 c-3
-24 -10 -68 -15 -98 -5 -30 -12 -147 -16 -260 -6 -222 5 -400 37 -577 22 -122
76 -315 96 -340 13 -17 15 -17 34 6 64 75 225 431 285 626 64 212 125 522 125
636 0 46 0 46 38 53 20 3 55 6 77 6 l40 0 1 -147 c1 -161 45 -486 105 -773 46
-222 47 -227 37 -244 -7 -12 -3 -22 14 -37 49 -42 56 -42 91 -8 l32 33 -31 9
c-31 9 -32 12 -58 131 -69 319 -107 602 -113 846 -6 228 -7 223 59 233 l38 6
54 -112 c109 -223 232 -377 326 -409 25 -8 68 -23 95 -32 68 -24 100 -29 130
-22 28 7 55 48 36 54 -6 2 -8 9 -5 14 5 8 -3 9 -25 5 -40 -8 -193 27 -238 54
-44 28 -112 113 -174 216 -55 94 -132 244 -127 248 2 1 32 14 67 28 l64 26 71
-65 c81 -74 107 -80 150 -35 l28 30 41 -52 c66 -84 160 -170 212 -196 31 -15
77 -27 124 -32 42 -4 90 -13 107 -20 27 -11 36 -10 57 4 19 12 23 22 19 42 -4
23 -9 26 -46 25 -67 0 -192 17 -217 31 -86 45 -230 206 -313 350 -54 93 -58
103 -51 144 3 25 9 45 12 45 3 0 32 -18 65 -40 33 -22 76 -44 96 -49 62 -16
163 -28 168 -20 2 4 19 5 37 2 23 -3 39 1 57 15 21 17 25 28 24 74 -1 107 -77
282 -149 346 l-45 40 80 75 c120 113 249 167 344 143 35 -9 86 -54 86 -77 0
-13 7 -19 24 -19 35 0 40 16 21 66 -34 88 -163 123 -296 79 -70 -23 -176 -93
-264 -175 -57 -53 -75 -65 -97 -62 -17 2 -28 9 -28 19 0 26 79 204 126 286 51
85 126 170 161 179 11 3 35 -1 53 -10 23 -11 37 -13 48 -6 26 17 25 32 -2 59
-29 29 -81 33 -132 11z m-1960 -150 c197 -65 363 -139 527 -235 112 -66 340
-228 355 -252 10 -16 -68 19 -491 221 -382 183 -585 266 -585 240 0 -14 23
-26 200 -106 96 -43 193 -89 215 -102 l40 -23 -55 6 c-30 4 -120 18 -200 32
-203 35 -210 36 -210 25 0 -23 224 -71 475 -103 76 -9 112 -21 231 -74 78 -35
157 -74 175 -85 l34 -21 -50 5 c-186 21 -459 35 -495 25 -33 -8 28 -15 355
-39 244 -17 266 -20 366 -53 110 -36 183 -69 194 -87 3 -5 5 -10 3 -10 -2 0
-64 9 -138 19 -232 34 -269 36 -490 33 -228 -4 -311 4 -390 39 -62 28 -93 60
-152 159 -37 60 -81 114 -154 186 -129 126 -161 191 -114 232 54 46 143 38
354 -32z m1782 -475 c45 -21 104 -86 127 -143 9 -21 15 -38 14 -38 -2 0 -34
31 -72 68 -39 37 -87 76 -107 85 -39 18 -51 47 -20 47 9 0 35 -9 58 -19z
m-119 -7 c4 -11 -3 -23 -20 -36 -52 -38 -29 -145 45 -214 41 -39 109 -74 143
-74 15 0 24 -4 20 -10 -9 -15 -45 -12 -99 6 -97 33 -186 153 -186 250 0 60 79
124 97 78z m-213 -27 c47 -14 55 -29 24 -44 -34 -17 -106 -25 -113 -13 -3 5 2
10 12 11 15 0 14 2 -4 9 -22 9 -89 -5 -155 -34 -102 -44 -82 18 21 66 43 20
157 22 215 5z m-1291 -133 c67 -7 81 -19 35 -29 -56 -12 -111 -37 -98 -45 14
-9 134 15 174 35 16 8 59 20 95 26 95 16 352 18 451 4 81 -11 83 -12 45 -19
-164 -31 -257 -49 -300 -57 -209 -39 -271 -53 -280 -62 -17 -17 142 1 342 38
199 37 413 68 420 61 3 -2 -4 -9 -14 -14 -25 -13 -265 -105 -330 -127 -29 -9
-56 -21 -59 -27 -12 -20 75 1 224 51 78 27 142 47 142 45 0 -3 -9 -21 -19 -42
-13 -26 -45 -54 -107 -96 -49 -32 -108 -71 -132 -87 -34 -23 -53 -29 -95 -28
-104 1 -157 14 -180 43 -20 24 -29 27 -102 30 -151 7 -271 82 -320 199 -22 52
-1 123 34 113 9 -3 42 -8 74 -12z m1174 -11 c7 -17 -29 -57 -77 -85 -119 -72
-159 -131 -160 -237 0 -58 -1 -62 -17 -50 -41 35 -55 130 -28 195 25 60 76
123 127 155 73 47 142 57 155 22z m634 -166 c-14 -14 -24 12 -16 41 l8 27 8
-30 c5 -16 5 -33 0 -38z m-988 -224 c-13 -10 -22 -7 -50 17 -18 17 -38 30 -43
30 -21 0 -8 16 33 42 l42 28 17 -53 c15 -47 15 -53 1 -64z m581 35 c35 -56 36
-83 4 -94 -16 -5 -32 5 -66 39 l-45 45 29 31 c16 16 32 30 37 31 4 0 22 -23
41 -52z m-1144 -13 c7 -8 43 -32 81 -52 38 -20 69 -40 69 -43 0 -3 -19 -4 -42
-3 -24 1 -107 2 -186 2 l-143 1 6 23 c11 36 38 57 91 72 66 18 109 18 124 0z
m14 -233 l-6 -69 43 -45 c54 -55 119 -99 205 -140 l66 -31 -7 -36 c-4 -20 -10
-39 -14 -43 -9 -10 -187 36 -256 67 l-54 24 -6 -33 c-4 -17 -5 -49 -3 -71 3
-36 7 -41 70 -75 37 -20 99 -46 137 -59 39 -13 71 -27 71 -33 0 -22 -32 -68
-48 -68 -30 0 -260 37 -270 44 -16 10 -14 254 3 430 19 200 21 206 52 206 24
0 24 -1 17 -68z m303 18 c48 -45 52 -52 46 -82 -11 -59 -13 -60 -78 -29 -59
27 -186 105 -234 142 -23 19 -23 19 95 19 l119 0 52 -50z m-232 -751 c55 -11
101 -22 102 -23 2 -2 -4 -19 -12 -39 -13 -32 -19 -36 -43 -32 -15 3 -60 9
-100 14 -41 5 -75 11 -77 13 -2 2 -6 25 -10 52 -8 48 -7 49 16 43 13 -4 69
-16 124 -28z m23 -224 c2 -2 -8 -22 -22 -44 -21 -33 -32 -41 -56 -41 -34 0
-37 4 -46 60 l-7 42 64 -7 c35 -4 65 -9 67 -10z"/>
<path d="M4345 6380 c-54 -14 -82 -28 -120 -62 -50 -43 -75 -99 -75 -168 0
-58 11 -80 42 -80 18 0 22 11 33 89 8 61 29 97 77 129 38 25 49 27 132 26 76
0 109 -6 201 -36 61 -20 143 -46 183 -58 39 -11 72 -24 72 -28 0 -5 -16 -14
-35 -21 -19 -6 -50 -31 -70 -53 -53 -63 -50 -102 20 -203 l55 -80 -41 -39
c-35 -34 -44 -38 -60 -28 -38 24 -55 32 -82 42 -32 11 -51 52 -44 97 5 26 -1
41 -32 80 -21 26 -41 56 -44 66 -4 10 -11 16 -16 13 -5 -3 -23 1 -40 10 -36
18 -30 21 -82 -48 l-20 -28 25 0 c14 0 28 5 31 10 4 6 11 7 17 4 7 -4 6 -9 -2
-14 -18 -11 -3 -30 25 -30 28 0 65 -35 65 -61 0 -10 -4 -29 -10 -44 -7 -19 -6
-32 5 -48 8 -12 25 -42 38 -67 21 -40 85 -101 118 -112 10 -3 10 -14 1 -49 -6
-24 -14 -59 -17 -76 -6 -32 -8 -33 -58 -33 -69 0 -379 33 -712 75 -411 51
-489 58 -608 51 -264 -17 -387 -62 -387 -142 0 -53 32 -105 105 -172 89 -82
170 -128 295 -168 58 -19 130 -47 160 -63 30 -16 86 -36 125 -44 64 -15 74
-20 114 -67 78 -90 194 -130 390 -132 136 -2 248 25 391 94 87 42 118 63 179
124 61 62 72 69 66 46 -18 -70 -47 -223 -52 -280 -5 -50 -9 -62 -21 -57 -8 3
-57 11 -108 17 -104 13 -186 3 -253 -32 -47 -24 -182 -161 -271 -275 -39 -49
-88 -111 -110 -137 -46 -53 -46 -55 -22 -60 13 -3 9 -9 -18 -26 -79 -49 -327
-76 -368 -39 -24 22 -56 12 -49 -14 3 -10 -1 -23 -9 -30 -21 -17 -18 -49 5
-49 11 0 21 5 23 10 5 16 98 0 98 -16 0 -18 4 -18 50 6 47 24 60 25 60 5 0
-12 8 -12 49 5 27 10 58 16 70 13 15 -4 43 10 95 46 41 28 77 51 80 51 3 0 6
-9 6 -19 0 -25 10 -51 20 -51 4 0 18 29 31 65 22 64 39 83 39 46 0 -42 21 -30
46 26 15 32 60 127 101 211 l74 153 30 -21 c55 -40 136 -61 229 -61 48 0 94 3
103 7 14 5 17 0 17 -25 0 -26 -6 -34 -42 -52 -116 -58 -218 -151 -261 -236
-40 -79 -85 -286 -106 -489 -6 -54 -14 -116 -17 -137 -7 -37 -6 -38 22 -35 28
3 29 1 32 -42 8 -102 -33 -214 -112 -305 -23 -27 -49 -61 -56 -75 -7 -14 -22
-34 -34 -45 l-21 -20 40 -3 c22 -2 47 -10 55 -17 15 -14 60 -10 60 4 0 4 -7
17 -16 30 -9 13 -13 26 -8 30 5 3 18 22 28 42 11 21 33 52 49 70 16 19 33 44
38 57 5 14 17 22 32 22 22 0 23 2 21 78 -3 78 -11 151 -21 187 -4 16 0 15 26
-9 40 -38 51 -26 41 44 -5 30 -9 73 -9 95 l0 40 15 -28 c8 -16 21 -26 27 -24
23 8 7 236 -29 413 -6 30 -4 31 33 37 23 4 80 32 134 66 l94 60 13 -47 c7 -26
24 -87 38 -137 26 -97 104 -267 156 -343 48 -70 108 -132 128 -132 10 0 42 27
72 59 100 111 186 289 235 489 14 59 27 108 29 110 1 2 30 -17 64 -42 73 -54
141 -86 181 -86 16 0 29 -3 29 -7 0 -5 -7 -48 -15 -98 -9 -49 -18 -150 -22
-222 -5 -119 -4 -133 10 -133 9 0 24 12 32 28 l16 27 -5 -30 c-2 -16 -8 -58
-12 -92 -7 -68 1 -78 42 -48 21 14 21 14 18 -103 -1 -64 -5 -125 -10 -136 -6
-16 -3 -18 25 -14 29 4 34 1 46 -28 7 -17 19 -36 27 -40 15 -10 58 -69 58 -80
0 -4 7 -15 15 -24 14 -16 13 -20 -10 -48 l-25 -30 32 -11 c29 -10 35 -9 50 9
14 17 24 20 48 15 23 -5 30 -3 30 9 0 9 -9 21 -20 28 -11 7 -20 18 -20 24 0 6
-22 40 -48 75 -94 124 -132 213 -132 306 l0 53 29 -6 29 -6 -9 43 c-4 24 -13
82 -19 129 -16 126 -19 147 -36 240 -19 108 -51 225 -74 271 -27 52 -146 159
-220 198 -86 45 -88 47 -82 76 4 21 8 24 26 19 11 -4 55 -7 97 -7 84 0 158 21
215 59 20 14 37 24 39 22 25 -34 116 -213 156 -306 34 -80 55 -118 61 -110 4
7 8 21 8 31 0 9 4 17 9 17 10 0 51 -91 51 -114 0 -9 3 -16 6 -16 13 0 33 36
34 58 l0 24 30 -25 c16 -14 57 -42 91 -63 49 -29 65 -35 79 -26 13 8 31 5 75
-13 48 -20 60 -22 69 -11 14 18 99 29 113 15 14 -14 53 -2 53 17 0 8 -7 17
-15 20 -10 4 -13 14 -9 29 7 29 -22 42 -47 19 -35 -32 -239 -14 -321 27 -38
20 -48 34 -27 41 22 7 -232 321 -336 416 -90 83 -202 107 -356 78 -47 -9 -88
-16 -91 -16 -3 0 -9 33 -13 73 -6 64 -38 242 -52 290 -2 10 24 -10 59 -45 148
-148 374 -242 583 -241 192 0 305 38 389 128 48 52 56 57 133 75 46 11 100 31
120 44 21 14 68 34 104 46 156 48 259 109 356 214 104 110 107 177 13 223
-121 58 -415 75 -685 39 -71 -9 -159 -21 -195 -26 -36 -5 -119 -15 -185 -24
-164 -22 -517 -56 -576 -56 -48 0 -48 0 -54 38 -4 20 -13 54 -21 74 l-14 38
39 20 c45 22 111 95 111 121 0 10 10 27 21 38 17 16 20 27 15 55 -10 54 2 85
40 101 19 8 34 21 34 29 0 19 5 20 31 6 31 -17 42 -2 19 27 -11 14 -20 34 -20
44 0 23 1 23 -45 3 -72 -30 -145 -121 -145 -182 0 -44 -26 -82 -55 -82 -8 0
-34 -10 -59 -22 l-44 -21 -32 31 c-17 18 -30 35 -28 40 2 4 24 39 50 78 60 90
65 111 40 167 -21 46 -60 81 -106 93 -17 4 -24 10 -18 16 18 18 359 119 422
125 89 7 146 -10 192 -57 34 -37 44 -63 54 -147 3 -29 12 -43 29 -43 39 0 47
108 14 176 -60 125 -202 171 -380 124 -129 -34 -352 -110 -396 -136 -34 -19
-43 -22 -50 -11 -23 39 -81 41 -112 3 -12 -14 -16 -14 -38 4 -26 20 -313 119
-424 145 -68 16 -145 18 -194 5z m579 -256 c9 -3 16 -17 16 -30 0 -31 -43 -50
-77 -35 -29 13 -29 35 -1 55 24 17 38 19 62 10z m334 -16 c19 -16 15 -27 -12
-34 -14 -3 -36 -23 -50 -45 -30 -45 -43 -49 -52 -15 -6 26 19 83 45 103 16 12
46 8 69 -9z m-83 -292 c46 -21 125 -90 125 -109 0 -4 -17 6 -38 23 -45 36
-129 70 -173 70 -83 0 -171 -56 -211 -133 -25 -50 -36 -160 -18 -182 8 -10 30
-15 64 -15 63 0 126 -10 126 -20 0 -14 -93 -32 -192 -37 l-98 -6 0 45 c0 159
80 310 195 367 58 29 155 28 220 -3z m-1734 -311 c22 -20 65 -52 96 -72 101
-65 149 -80 278 -92 66 -7 138 -16 160 -22 22 -6 57 -15 79 -20 21 -6 36 -12
35 -14 -2 -2 -139 -33 -304 -70 l-300 -67 -65 17 c-94 25 -221 87 -290 140
-61 49 -130 129 -130 151 0 38 155 76 333 83 66 2 70 1 108 -34z m229 15 c91
-11 224 -28 295 -39 72 -11 157 -22 190 -26 33 -3 104 -10 157 -15 53 -5 141
-12 195 -16 147 -9 162 -10 169 -17 8 -7 -11 -12 -131 -32 -49 -8 -151 -27
-227 -42 -122 -24 -142 -26 -190 -15 -165 38 -242 52 -324 60 -50 5 -104 16
-120 24 -110 58 -214 123 -214 133 0 8 27 6 200 -15z m2952 -8 c-18 -15 -73
-49 -121 -74 -83 -44 -97 -48 -217 -63 -71 -9 -160 -24 -199 -34 -126 -34
-162 -35 -286 -8 -63 14 -163 33 -224 43 -60 9 -116 20 -122 23 -7 4 117 19
275 34 158 15 301 29 317 32 17 3 57 9 90 15 146 24 402 55 480 58 l40 1 -33
-27z m281 17 c96 -14 184 -38 197 -55 18 -20 -11 -64 -91 -138 -80 -74 -202
-141 -309 -170 l-65 -18 -215 46 c-118 26 -258 56 -309 68 l-95 21 40 14 c54
20 182 41 288 49 75 5 98 11 155 41 80 43 136 81 176 122 27 27 37 30 93 30
35 1 96 -4 135 -10z m-2213 -204 c0 -21 -8 -26 -72 -45 -310 -90 -556 -167
-628 -197 -143 -59 -134 -58 -250 -30 -58 14 -123 28 -145 32 -64 12 -78 8
630 165 220 49 409 91 420 93 39 9 45 7 45 -18z m938 -16 c97 -22 274 -62 392
-89 448 -102 523 -120 527 -124 3 -2 -22 -10 -54 -16 -32 -6 -92 -20 -135 -31
-100 -25 -112 -24 -186 11 -70 33 -196 76 -507 176 -115 36 -218 70 -227 75
-17 9 -15 39 3 39 5 0 89 -18 187 -41z m-515 12 c15 -15 -56 -26 -173 -25
-128 0 -180 9 -180 31 0 14 18 15 172 10 94 -3 176 -11 181 -16z m735 -193
c14 -7 50 -47 79 -88 29 -41 67 -94 84 -117 l30 -43 -76 0 c-44 0 -90 6 -111
15 -77 32 -453 342 -440 363 5 9 374 -102 434 -130z m-1138 124 c0 -12 -73
-79 -181 -168 -155 -127 -241 -187 -284 -195 -47 -9 -165 -12 -165 -3 0 3 20
31 44 62 24 31 60 83 79 114 20 31 42 60 49 64 13 8 425 131 446 133 6 0 12
-3 12 -7z m34 -51 c-15 -33 -95 -125 -141 -162 -43 -34 -142 -89 -198 -109
-36 -13 -31 -8 70 65 44 32 121 99 170 149 83 84 122 106 99 57z m918 -211
c45 -34 85 -64 88 -67 14 -13 -137 61 -182 90 -56 36 -158 134 -178 172 -7 13
-10 30 -7 38 3 9 35 -16 100 -79 52 -51 133 -121 179 -154z m-648 132 c55 -2
105 -7 110 -12 11 -11 -58 -30 -110 -30 -51 0 -109 -19 -96 -32 5 -5 55 -17
111 -26 151 -25 132 -44 -56 -58 -141 -11 -122 -30 57 -59 58 -9 106 -18 108
-20 9 -9 -75 -27 -160 -34 -150 -12 -156 -31 -18 -56 47 -8 106 -15 132 -15
60 0 70 -16 19 -30 -41 -11 -234 -15 -250 -6 -11 7 -21 -42 -21 -104 l0 -48
48 -11 c26 -5 73 -15 105 -21 31 -6 55 -15 52 -19 -2 -5 -45 -12 -95 -15 -49
-4 -90 -12 -90 -17 0 -27 63 -46 224 -65 37 -4 46 -8 37 -17 -8 -8 -57 -13
-135 -14 -201 -3 -214 12 -215 249 -1 161 44 402 91 492 10 19 11 19 30 -5 19
-22 28 -24 122 -27z m-845 -44 c-6 -13 -39 -60 -73 -106 l-61 -83 -52 6 c-56
5 -163 47 -163 63 0 5 18 12 41 16 22 4 73 23 112 43 68 34 183 81 200 83 4 0
3 -10 -4 -22z m1856 -13 c33 -13 91 -39 128 -59 45 -24 82 -36 108 -36 21 0
39 -4 39 -8 0 -16 -76 -50 -139 -63 l-64 -14 -41 48 c-68 77 -132 171 -110
163 10 -5 46 -18 79 -31z m-1173 -849 c60 -26 72 -29 160 -30 100 -2 130 -15
42 -18 -167 -6 -243 11 -244 55 0 10 4 9 42 -7z"/>
<path d="M1476 6121 c-3 -5 -1 -32 5 -60 10 -50 10 -50 -26 -87 -58 -58 -78
-114 -73 -209 6 -103 35 -172 96 -226 25 -22 56 -42 68 -45 23 -6 23 -6 -20
-92 -23 -48 -50 -103 -58 -122 l-15 -35 -16 37 c-24 56 -85 108 -188 160 -97
48 -149 66 -207 70 -23 2 -42 12 -59 32 -28 33 -113 198 -113 220 0 8 -7 17
-16 20 -12 4 -15 2 -10 -9 3 -8 4 -15 3 -15 -1 0 -36 35 -77 77 -41 42 -69 73
-62 69 21 -13 13 12 -10 28 -47 33 -96 10 -84 -39 6 -24 26 -36 26 -15 0 6 7
10 15 10 8 0 15 -6 15 -13 0 -7 35 -46 77 -87 63 -61 83 -89 110 -150 42 -94
93 -169 153 -223 51 -45 311 -210 370 -235 19 -8 37 -16 39 -18 7 -6 -111
-174 -121 -174 -5 0 -28 5 -51 11 -37 9 -51 7 -111 -16 -37 -14 -133 -36 -212
-50 -111 -18 -148 -28 -166 -45 -47 -44 -87 -61 -156 -67 -52 -4 -75 -2 -100
11 -17 9 -38 16 -47 16 -24 0 -55 -37 -48 -57 11 -31 43 -45 43 -19 0 12 15
13 78 9 42 -3 82 -10 88 -14 14 -12 61 5 149 52 95 51 279 86 364 69 77 -16
91 -20 91 -30 0 -13 -161 -210 -318 -390 -376 -429 -482 -592 -482 -741 0 -92
23 -150 86 -219 92 -99 208 -137 381 -127 81 5 106 11 162 38 125 61 214 182
272 369 16 52 24 67 26 50 28 -259 121 -446 272 -546 36 -23 44 -25 69 -15 16
7 57 40 91 74 92 91 155 227 196 422 7 29 8 28 30 -30 67 -177 148 -280 262
-332 108 -50 319 -41 434 18 107 54 179 158 187 270 10 146 -60 282 -290 556
-89 107 -183 216 -209 242 -32 33 -197 229 -247 293 l-53 67 68 20 68 20 124
-20 c108 -17 138 -26 228 -71 72 -36 106 -48 115 -41 7 6 37 11 67 12 30 1 62
6 72 11 18 10 45 -10 32 -23 -3 -4 0 -7 8 -7 39 0 51 46 19 75 -19 17 -25 18
-68 5 -118 -34 -193 -20 -270 50 -18 16 -43 30 -55 30 -57 0 -269 43 -326 66
-61 25 -97 27 -141 10 -11 -4 -29 16 -62 67 -66 102 -66 98 -4 132 87 47 287
176 328 210 68 57 143 169 173 259 13 36 32 63 73 100 87 78 108 100 114 116
4 12 8 13 20 3 28 -24 53 28 26 55 -18 18 -46 15 -79 -9 -28 -20 -29 -22 -12
-35 17 -13 17 -13 1 -14 -10 0 -27 -8 -37 -17 -10 -10 -35 -33 -54 -51 -20
-19 -43 -35 -51 -36 -9 -1 -34 -40 -57 -87 -22 -46 -54 -105 -70 -130 -29 -46
-30 -47 -93 -51 -121 -7 -317 -124 -366 -217 l-19 -36 -12 35 c-7 19 -31 71
-52 114 -24 48 -36 81 -29 84 32 10 94 67 118 108 78 132 68 296 -22 381 l-45
41 12 47 c19 76 -24 91 -58 21 -13 -28 -21 -34 -37 -30 -34 8 -88 8 -137 1
-47 -8 -47 -8 -65 30 -19 37 -46 54 -58 34z m273 -148 c54 -28 73 -61 51 -88
-16 -19 -64 -19 -80 0 -10 12 -10 21 -1 41 16 37 16 37 -43 32 -110 -9 -180
-93 -179 -213 1 -70 26 -129 73 -168 34 -29 38 -39 13 -30 -79 27 -134 123
-136 231 -1 99 38 158 133 201 61 28 108 26 169 -6z m-524 -582 c56 -26 141
-89 132 -97 -8 -8 -297 149 -297 162 0 5 92 -31 165 -65z m425 53 c0 -23 -60
-164 -70 -164 -24 0 -18 44 15 109 34 68 55 89 55 55z m585 0 c-11 -8 -58 -36
-105 -61 -47 -25 -106 -59 -132 -74 -64 -38 -61 -20 4 31 61 49 113 77 188
101 68 22 70 22 45 3z m-685 -289 c0 -3 -13 -46 -29 -97 -121 -387 -146 -503
-176 -813 -27 -283 -71 -451 -160 -610 -41 -73 -94 -123 -171 -159 -81 -39
-84 -37 -67 35 18 78 122 399 130 399 3 0 2 -63 -2 -140 -5 -87 -4 -140 2
-140 6 0 18 78 27 173 32 322 70 485 189 802 198 527 210 555 237 555 11 0 20
-2 20 -5z m294 -42 c37 -75 229 -628 285 -825 49 -168 67 -285 87 -553 11
-154 25 -134 22 32 -2 83 0 146 4 139 16 -29 138 -422 138 -445 0 -19 -32 -12
-95 20 -76 38 -118 78 -161 156 -79 140 -126 310 -154 559 -30 266 -91 617
-146 838 -13 54 -24 105 -24 112 0 28 20 12 44 -33z m-488 -229 c-24 -71 -76
-219 -116 -329 -39 -109 -90 -265 -111 -345 -22 -80 -80 -266 -129 -415 -49
-148 -95 -290 -101 -314 l-10 -44 -72 6 c-95 7 -177 32 -177 55 0 9 28 80 63
157 60 135 117 240 261 485 90 152 172 316 296 595 56 127 109 243 117 258 30
59 22 17 -21 -109z m289 95 c5 -5 -7 -9 -33 -9 -40 0 -51 8 -35 24 9 8 54 -1
68 -15z m392 -194 c73 -183 242 -525 345 -695 58 -96 130 -224 160 -285 61
-121 128 -283 128 -308 0 -22 -85 -46 -174 -49 l-69 -3 -43 145 c-24 80 -71
226 -104 325 -32 99 -75 236 -94 305 -19 69 -83 267 -141 440 -58 173 -105
321 -105 330 0 19 51 -89 97 -205z m-792 163 c14 -6 25 -17 25 -25 0 -11 -7
-11 -36 2 -20 8 -38 15 -41 15 -2 0 -1 5 2 10 8 13 18 13 50 -2z m868 -3 c-3
-12 -63 -29 -72 -20 -3 4 3 13 14 21 22 16 62 15 58 -1z m-547 -57 c-18 -72
-28 -128 -24 -140 3 -7 29 -22 58 -32 36 -13 48 -21 38 -27 -31 -20 -148 -1
-148 25 0 14 34 130 49 169 13 33 36 37 27 5z m-385 -229 c-65 -164 -230 -474
-270 -507 -43 -35 -164 -98 -226 -119 l-70 -23 57 4 c42 3 78 15 133 44 41 22
75 36 75 32 0 -24 -96 -140 -230 -276 -169 -172 -178 -175 -165 -66 13 117
116 274 390 593 170 197 246 289 292 352 20 26 37 46 40 44 2 -3 -9 -38 -26
-78z m1064 -89 c43 -52 82 -97 85 -100 57 -53 332 -388 403 -492 69 -102 109
-228 93 -293 -6 -24 -15 -18 -162 132 -128 130 -224 245 -224 268 0 2 37 -14
82 -35 50 -24 96 -40 117 -40 35 1 35 1 -18 20 -54 19 -166 83 -207 117 -53
44 -235 384 -284 529 l-19 59 27 -35 c15 -19 63 -77 107 -130z m-749 66 c3 -8
0 -42 -6 -76 -13 -71 -6 -117 18 -124 9 -3 36 -10 60 -16 81 -21 5 -50 -78
-30 l-50 12 0 52 c0 45 14 144 26 184 5 16 23 15 30 -2z m-36 -364 l5 -77 70
-37 70 -37 -50 -1 c-33 0 -66 8 -95 23 l-45 22 3 80 c1 44 5 91 8 104 10 45
29 3 34 -77z m-15 -212 c12 -102 18 -109 133 -152 28 -11 52 -24 52 -29 0 -14
-81 -11 -138 6 -74 22 -92 50 -92 141 0 40 3 80 6 89 11 27 32 -3 39 -55z
m1314 -394 c17 -21 31 -46 31 -55 0 -21 -57 -91 -74 -91 -6 0 -18 17 -25 38
-8 20 -43 100 -78 177 -35 77 -67 146 -70 154 -8 18 173 -169 216 -223z
m-2069 46 c-44 -95 -80 -176 -80 -182 0 -5 -4 -10 -9 -10 -13 0 -81 81 -81 96
0 8 14 30 32 51 45 54 211 223 215 219 2 -2 -33 -80 -77 -174z m753 141 c8
-16 18 -50 22 -78 9 -63 24 -81 91 -100 70 -20 72 -39 3 -31 -66 8 -116 30
-123 53 -5 16 -25 150 -26 176 0 17 21 5 33 -20z m62 -266 c11 -18 42 -47 69
-64 l48 -33 -33 0 c-19 0 -45 6 -58 13 -23 11 -70 88 -71 114 0 20 24 4 45
-30z m148 -215 c10 -13 8 -14 -13 -7 -26 8 -90 64 -90 78 0 9 84 -49 103 -71z"/>
<path d="M7023 3965 c-41 -18 -66 -55 -58 -88 9 -34 31 -41 68 -22 63 31 101
17 222 -85 172 -144 294 -212 552 -308 232 -87 266 -108 307 -189 22 -44 20
-52 -11 -59 -49 -11 -111 -53 -133 -89 -15 -24 -22 -52 -22 -90 -1 -64 16 -94
72 -131 35 -23 40 -31 40 -65 0 -21 4 -49 9 -62 8 -21 4 -30 -31 -63 -22 -22
-51 -58 -65 -81 -14 -24 -28 -43 -33 -43 -11 0 -106 43 -226 101 l-101 49 -60
113 c-33 61 -73 144 -88 182 -37 91 -67 131 -110 145 -19 6 -35 15 -35 20 0 4
-21 39 -46 77 -65 98 -120 127 -160 82 -12 -14 -15 -24 -9 -33 64 -87 171
-206 203 -225 34 -21 41 -32 51 -76 27 -122 152 -314 252 -389 63 -46 160 -95
252 -126 37 -13 67 -28 67 -36 0 -7 3 -19 6 -28 5 -12 0 -16 -22 -16 -29 0
-400 62 -594 99 -453 86 -583 103 -780 105 -129 1 -149 -1 -180 -19 -140 -82
-54 -340 143 -434 91 -43 175 -62 311 -68 170 -8 445 21 700 73 65 14 120 23
122 21 3 -2 -37 -19 -88 -37 -134 -48 -382 -152 -490 -206 -152 -76 -212 -124
-276 -222 -61 -93 -101 -182 -102 -222 0 -36 27 -70 55 -70 33 0 55 36 64 104
15 112 135 240 321 344 68 38 485 222 504 222 6 0 65 26 131 59 131 64 219 96
235 86 5 -3 10 -13 10 -21 0 -8 9 -33 20 -54 l20 -40 -46 -67 -47 -68 -85 -12
c-94 -14 -264 -58 -294 -76 -45 -28 -152 -242 -218 -437 l-43 -125 6 -136 6
-136 -34 -78 c-38 -87 -86 -169 -152 -259 -46 -63 -52 -86 -27 -110 23 -24 49
-19 89 16 39 33 95 122 95 149 0 9 11 24 23 32 43 28 108 187 110 267 0 25 -3
92 -7 150 -8 99 -7 106 13 124 29 27 76 147 99 256 11 52 29 117 39 143 l18
49 95 4 c52 2 124 10 160 18 36 8 66 13 67 12 1 -1 -11 -38 -27 -83 -33 -93
-60 -257 -60 -364 0 -158 49 -368 116 -501 69 -138 165 -264 227 -298 51 -29
157 -38 224 -19 125 34 287 299 351 572 22 95 26 135 25 257 -1 155 -14 241
-58 370 -14 40 -24 74 -22 76 1 1 34 -4 72 -12 39 -8 108 -16 155 -20 l85 -5
28 -92 c15 -51 27 -99 27 -107 0 -57 61 -229 91 -256 18 -16 19 -28 13 -168
-6 -147 -5 -153 21 -226 29 -78 69 -150 84 -150 5 0 26 -34 46 -75 38 -77 92
-135 124 -135 21 0 51 30 51 52 0 9 -21 44 -47 79 -98 131 -185 307 -185 369
0 19 1 87 3 150 l2 115 -53 150 c-54 155 -88 229 -146 326 -26 44 -44 61 -74
73 -48 19 -274 66 -319 66 -26 0 -34 6 -52 43 -12 23 -30 53 -39 67 -18 25
-18 27 0 70 10 25 21 53 23 62 8 24 55 10 212 -67 72 -35 168 -79 215 -98 152
-63 353 -164 425 -213 132 -91 152 -109 197 -169 59 -78 64 -90 71 -153 9 -87
51 -127 91 -87 34 35 28 92 -21 190 -57 114 -136 205 -225 261 -74 47 -311
160 -458 219 -80 32 -149 61 -153 65 -5 4 39 -3 97 -16 300 -66 677 -89 829
-51 147 37 257 118 312 230 56 115 41 207 -39 250 -37 20 -54 22 -181 21 -187
-2 -334 -23 -745 -104 -384 -77 -557 -106 -566 -97 -3 3 0 19 7 35 10 22 22
31 47 36 85 13 301 144 340 205 9 14 32 46 51 71 46 61 108 190 121 255 9 45
16 55 42 66 27 11 108 100 108 118 0 4 23 31 50 60 27 29 50 59 50 66 0 19
-34 45 -59 45 -33 0 -103 -71 -135 -138 -22 -46 -35 -61 -61 -71 -46 -16 -57
-32 -111 -156 -27 -60 -69 -149 -94 -198 l-45 -87 -160 -79 -160 -79 -22 43
c-12 23 -42 61 -66 85 -42 39 -44 44 -36 73 5 18 9 44 9 59 0 15 6 32 13 37
94 74 118 124 97 202 -15 55 -78 116 -135 130 -50 13 -52 22 -15 84 44 71 77
90 315 179 226 84 388 174 530 296 113 97 182 124 225 85 23 -21 46 -14 62 19
23 51 -51 113 -123 103 -57 -7 -147 -53 -183 -91 -43 -47 -273 -199 -370 -245
-45 -21 -144 -62 -221 -91 -77 -29 -163 -66 -192 -82 -90 -50 -147 -134 -173
-250 l-13 -58 -53 0 -52 0 -22 73 c-27 90 -58 144 -109 190 -52 47 -75 58
-260 129 -85 32 -197 81 -250 108 -103 54 -281 176 -346 238 -40 39 -136 82
-178 82 -12 -1 -36 -7 -54 -15z m1127 -825 c0 -6 -20 -30 -45 -53 -31 -30 -45
-52 -45 -70 0 -35 -27 -36 -40 -1 -14 37 -3 69 36 104 34 29 94 42 94 20z
m360 -5 c51 -26 73 -79 54 -129 -10 -26 -20 -19 -33 23 -10 36 -60 91 -82 91
-5 0 -9 7 -9 15 0 19 33 19 70 0z m-221 -127 c-5 -18 -9 -57 -9 -85 0 -46 3
-53 20 -53 11 0 49 -10 85 -21 49 -17 65 -26 65 -40 0 -23 2 -23 -51 1 -58 26
-121 25 -191 -4 -32 -13 -60 -21 -63 -18 -16 16 -1 41 34 57 46 20 48 23 57
105 5 45 12 64 28 75 31 22 36 19 25 -17z m27 5 c-10 -10 -19 5 -10 18 6 11 8
11 12 0 2 -7 1 -15 -2 -18z m69 -288 c33 -9 77 -27 98 -41 70 -46 116 -147
105 -230 -5 -32 -7 -28 -33 60 -32 110 -129 176 -257 176 -132 0 -236 -82
-268 -212 -16 -63 -34 -51 -27 17 8 80 42 136 118 193 29 22 123 51 164 52 23
0 68 -7 100 -15z m-1552 -180 c65 -8 216 -34 335 -56 119 -22 259 -47 310 -56
51 -9 90 -18 88 -20 -4 -5 -283 13 -346 22 -84 11 -325 35 -349 34 -31 -1 217
-51 342 -69 48 -7 87 -14 85 -16 -5 -5 -154 -13 -353 -19 -169 -6 -215 -10
-392 -41 -86 -15 -95 -15 -118 0 -51 34 -87 129 -71 191 12 48 46 56 206 51
80 -3 198 -12 263 -21z m3277 10 c16 -9 33 -27 36 -40 13 -51 -21 -149 -65
-189 -21 -19 -23 -19 -144 2 -156 27 -186 30 -337 37 -204 9 -325 16 -329 21
-8 8 4 12 54 17 68 8 328 57 334 63 7 7 -102 -3 -304 -26 -153 -18 -371 -33
-350 -25 13 6 224 49 410 85 126 24 239 40 430 63 88 11 237 6 265 -8z m-1653
-81 c22 -46 10 -54 -60 -41 -29 5 -95 6 -147 3 -157 -11 -153 -12 -119 39 l24
35 143 0 142 0 17 -36z m-27 -115 c20 -5 44 -15 55 -23 20 -14 20 -15 -1 -43
l-21 -28 -165 -3 c-154 -2 -166 -1 -191 18 -15 12 -27 30 -27 40 0 47 222 72
350 39z m-504 -18 c-11 -17 -203 -60 -401 -91 -84 -13 -113 -18 -185 -30 -265
-45 -525 -55 -665 -26 -79 17 -185 60 -185 75 0 9 11 11 185 37 191 30 1266
60 1251 35z m1459 -1 c66 -4 181 -11 257 -14 134 -6 330 -35 363 -54 14 -7 8
-13 -31 -31 -183 -87 -426 -85 -939 5 -173 30 -284 54 -372 80 -13 3 -23 10
-23 15 0 11 568 10 745 -1z m-1225 -282 c55 -29 73 -33 139 -33 77 0 123 13
173 47 34 23 40 23 36 -4 -5 -34 -101 -79 -182 -85 -105 -9 -265 51 -249 92 7
20 11 20 83 -17z m-73 -109 c8 -8 3 -23 -15 -56 -16 -30 -25 -59 -24 -85 1
-21 -3 -59 -8 -84 -12 -51 0 -84 29 -84 28 0 53 35 66 92 l11 52 142 0 c109 1
143 -2 147 -12 3 -8 5 -46 5 -86 0 -59 -4 -78 -21 -100 -19 -24 -27 -26 -89
-26 -148 0 -368 51 -393 92 -24 37 93 308 132 308 4 0 12 -5 18 -11z m463 -60
c0 -11 -7 -19 -15 -19 -10 0 -15 10 -15 31 0 27 2 30 15 19 8 -7 15 -21 15
-31z m118 -396 c-4 -31 -23 -42 -30 -16 -7 25 1 43 18 43 11 0 14 -8 12 -27z
m-717 -17 c78 -43 191 -67 347 -73 l142 -6 0 -76 c0 -55 -5 -83 -16 -100 -17
-23 -18 -23 -163 -18 -150 5 -232 22 -323 68 l-37 19 -3 82 c-3 78 0 128 6
128 2 0 23 -11 47 -24z m82 -401 c20 5 29 0 46 -24 22 -30 51 -42 51 -20 0 7
14 9 38 5 20 -3 86 -5 146 -6 l109 0 -7 -62 c-8 -63 -20 -97 -40 -110 -20 -13
-185 -8 -255 8 -42 9 -76 23 -89 37 -19 20 -69 128 -87 186 l-7 24 35 -22 c24
-14 44 -20 60 -16z"/>
<path d="M3685 3220 c-113 -23 -242 -93 -331 -180 -60 -58 -124 -148 -124
-175 0 -21 -13 -19 -36 6 -30 34 -114 69 -164 69 -61 0 -126 -32 -175 -85
l-40 -44 -60 15 c-85 23 -228 14 -324 -19 -144 -50 -261 -144 -316 -253 -15
-30 -35 -58 -44 -63 -9 -4 -54 -18 -101 -31 -397 -104 -1126 -340 -1345 -434
-340 -147 -557 -331 -516 -438 18 -47 72 -68 182 -69 l73 -1 -77 -72 c-42 -40
-77 -81 -77 -90 0 -27 28 -30 86 -7 31 11 73 21 95 21 33 0 160 25 237 46 l23
7 -21 -52 c-51 -130 -90 -342 -90 -490 l0 -89 -45 -53 c-25 -29 -45 -56 -45
-60 0 -4 8 -15 17 -24 22 -22 83 -16 143 15 37 19 67 25 165 30 116 6 123 7
215 52 158 75 280 177 413 344 102 127 196 284 248 411 49 118 99 310 99 378
0 28 4 55 8 61 4 6 85 50 180 98 l172 86 0 -41 c0 -68 20 -127 52 -154 16 -14
36 -25 45 -25 10 0 13 -6 9 -16 -3 -9 -6 -47 -6 -85 0 -79 -5 -82 -72 -48 -54
27 -136 52 -154 45 -16 -6 -62 -96 -110 -214 -64 -158 -177 -487 -178 -518 -2
-34 -80 -161 -157 -254 -26 -31 -78 -78 -117 -105 -69 -47 -88 -68 -76 -86 18
-30 132 27 218 109 64 62 215 292 268 409 34 75 130 359 157 467 12 44 23 82
27 85 3 3 22 -4 42 -17 20 -12 65 -36 98 -54 l61 -31 45 22 c33 15 50 32 61
59 21 47 36 116 37 164 0 52 9 68 36 68 22 0 24 -4 24 -48 0 -55 31 -156 58
-185 40 -44 71 -52 232 -57 l154 -5 33 -127 c18 -70 43 -201 57 -293 13 -91
28 -171 33 -178 5 -6 15 -32 22 -57 15 -50 51 -125 88 -181 45 -69 192 -169
227 -156 27 11 18 34 -30 74 -114 94 -134 116 -175 196 -40 77 -43 88 -44 167
-2 82 -33 262 -74 423 -25 96 -76 194 -110 211 -37 19 -114 34 -218 42 -50 4
-96 10 -102 13 -12 8 -31 97 -31 146 0 27 8 37 56 70 62 43 117 109 134 161 9
27 17 34 38 34 l27 0 0 -127 c0 -181 16 -202 211 -287 137 -59 138 -59 144
-292 5 -176 6 -182 35 -239 29 -56 106 -128 121 -113 3 4 -6 37 -21 75 -25 62
-28 86 -39 288 -11 214 -12 221 -39 268 -33 56 -84 91 -198 137 -44 18 -84 40
-88 49 -5 9 -12 57 -16 106 l-7 90 30 17 c21 11 34 29 41 55 14 50 14 160 0
241 -7 39 -8 67 -2 73 6 6 31 -16 67 -56 32 -36 75 -74 95 -85 21 -10 60 -37
88 -59 51 -40 51 -41 50 -93 -1 -68 26 -128 58 -128 20 0 45 33 45 61 0 6 14
42 31 81 49 111 42 189 -32 343 -21 46 -39 88 -39 94 0 7 -9 31 -21 54 l-20
42 49 46 c57 53 180 119 266 144 70 20 193 24 253 7 46 -14 89 -51 115 -100
14 -27 20 -31 40 -23 16 5 24 18 26 37 5 46 -45 106 -119 143 -55 28 -72 31
-149 31 -145 0 -307 -53 -416 -136 -25 -19 -48 -34 -50 -32 -9 10 94 124 149
165 93 69 223 123 298 123 14 0 34 6 44 14 19 14 19 15 1 35 -20 22 -44 24
-111 11z m-598 -361 c61 -23 139 -125 167 -219 29 -97 14 -109 -32 -27 -33 58
-126 152 -167 167 -42 16 -79 12 -129 -15 -41 -22 -46 -22 -46 -7 0 30 36 78
71 95 39 19 95 22 136 6z m-336 -99 c33 -9 78 -45 68 -54 -2 -3 -29 2 -59 10
-194 50 -458 -56 -552 -222 -39 -69 -63 -74 -44 -9 33 108 148 209 297 259 81
28 220 35 290 16z m-275 -325 c4 -8 1 -22 -6 -30 -21 -25 -270 -155 -985 -513
-679 -340 -759 -378 -855 -408 -39 -12 -239 -54 -258 -54 -14 0 148 155 218
209 264 200 723 404 1760 779 97 35 118 38 126 17z m-408 -32 c-2 -13 -80 -47
-283 -125 -154 -60 -369 -145 -478 -189 l-197 -81 -74 26 c-41 14 -82 26 -91
26 -73 0 188 88 740 251 187 55 345 102 350 104 24 8 36 4 33 -12z m168 -321
c2 -56 0 -102 -5 -102 -41 0 -68 138 -37 185 29 44 38 25 42 -83z m-1285 -69
c49 -15 89 -29 89 -32 0 -9 -303 -161 -320 -161 -8 0 -66 14 -129 32 l-114 31
49 25 c78 41 297 132 317 132 10 0 58 -12 108 -27z m-391 -209 c47 -14 89 -29
93 -31 4 -3 -18 -21 -50 -42 -32 -21 -84 -59 -117 -85 -32 -27 -72 -52 -90
-57 -47 -14 -142 -11 -181 5 -54 23 -47 49 33 127 87 85 164 130 201 119 14
-5 64 -21 111 -36z m709 -251 c24 -32 28 -43 16 -43 -30 0 -135 112 -135 144
0 2 10 6 23 8 16 3 27 -5 44 -32 12 -19 35 -54 52 -77z m-455 -129 c16 -25 67
-86 113 -137 47 -50 80 -93 74 -95 -18 -6 -113 51 -170 103 -58 53 -114 132
-105 147 5 8 40 26 54 27 3 1 18 -20 34 -45z m-30 -480 c75 -41 74 -53 -2 -34
-92 22 -173 87 -158 126 5 13 13 9 48 -19 24 -19 74 -52 112 -73z"/>
<path d="M4685 3170 c-27 -29 -7 -64 54 -94 57 -29 157 -121 166 -152 5 -19 0
-22 -46 -28 -72 -10 -119 -56 -119 -116 0 -54 25 -106 61 -127 l29 -17 -39
-41 c-21 -22 -45 -50 -53 -63 l-16 -23 -20 28 c-11 15 -25 46 -31 68 -13 49
-18 265 -7 323 9 46 -7 59 -24 20 -7 -17 -9 -4 -4 45 3 37 3 67 0 67 -3 0 -12
-12 -20 -27 l-15 -28 -1 26 c0 43 -20 88 -42 95 -28 8 -33 -1 -19 -33 11 -25
10 -29 -8 -42 -27 -17 -26 -25 3 -39 36 -16 49 -95 41 -241 -9 -141 4 -196 65
-288 36 -53 42 -69 44 -122 l2 -61 -38 0 c-87 0 -204 -56 -328 -155 -72 -59
-105 -75 -153 -75 -42 0 -77 -10 -77 -21 0 -5 12 -9 28 -9 26 -1 27 -1 7 -16
-60 -48 -245 -110 -409 -138 -38 -7 -71 -17 -74 -24 -2 -7 5 -12 15 -12 16 -1
15 -3 -5 -20 -26 -22 -26 -47 0 -64 13 -8 22 -5 41 16 31 33 91 64 142 73 112
20 372 134 465 204 65 49 89 61 129 61 24 0 68 13 112 34 41 19 91 38 111 41
35 7 37 6 59 -37 12 -23 32 -57 45 -74 30 -39 31 -50 2 -30 -50 35 -128 10
-245 -81 -92 -69 -152 -149 -214 -283 -27 -58 -71 -149 -99 -202 -49 -98 -49
-125 0 -73 51 55 53 18 5 -97 -58 -136 -179 -281 -282 -335 -32 -17 -87 -38
-122 -47 -73 -19 -91 -30 -91 -57 0 -23 -1 -23 44 -4 36 15 37 15 27 -4 -15
-27 -14 -61 2 -61 7 0 31 18 52 41 22 22 56 49 75 59 78 40 163 114 231 199
41 53 76 88 83 85 9 -3 15 7 18 34 3 21 22 73 41 114 20 42 55 125 77 184 23
60 61 150 84 200 45 94 74 133 50 66 -15 -41 -18 -102 -6 -102 5 0 34 15 65
34 31 19 57 31 57 27 0 -5 -7 -28 -15 -51 -61 -172 -80 -573 -36 -735 26 -99
69 -163 144 -220 97 -74 150 -89 307 -89 126 -1 140 1 203 28 122 51 207 149
242 282 25 92 30 324 11 474 -17 127 -47 253 -72 302 -13 25 -13 27 3 21 10
-4 42 -19 71 -35 29 -15 57 -28 62 -28 13 0 13 61 0 96 -6 15 -9 29 -6 31 7 8
73 -139 132 -294 31 -81 66 -166 79 -188 13 -22 31 -68 41 -102 11 -40 21 -60
29 -56 7 2 46 -37 90 -91 73 -91 124 -139 190 -181 16 -10 51 -39 77 -63 27
-25 51 -42 55 -39 3 4 2 23 -4 42 -12 39 -10 41 31 20 32 -17 51 -8 41 17 -7
18 -36 31 -105 49 -60 15 -124 53 -172 103 -55 56 -141 172 -168 226 -19 37
-60 145 -60 157 0 9 24 1 50 -19 38 -28 48 -18 20 21 -11 17 -57 105 -101 196
-43 92 -92 186 -109 210 -63 91 -194 198 -277 226 -19 6 -50 9 -69 6 l-33 -6
29 40 c16 22 32 53 35 70 5 21 12 29 28 29 37 0 119 -26 174 -53 29 -15 69
-27 89 -27 29 0 50 -11 101 -51 107 -84 361 -209 427 -209 32 -1 98 -34 140
-71 30 -26 41 -31 54 -22 25 15 26 39 3 62 -12 12 -16 21 -11 21 6 0 10 6 10
14 0 9 -17 16 -52 21 -130 17 -345 90 -376 128 -11 13 -9 18 14 30 l28 15 -50
6 c-28 4 -54 6 -60 5 -27 -5 -49 8 -130 77 -112 97 -208 145 -302 152 l-67 4
4 56 c2 46 9 64 36 97 36 44 78 123 90 170 4 17 9 93 10 170 2 151 18 212 56
222 25 7 24 23 -2 30 -16 4 -19 11 -14 27 12 38 10 50 -7 54 -20 4 -40 -29
-48 -83 l-6 -40 -14 28 c-19 39 -34 34 -27 -10 4 -21 9 -57 13 -80 8 -51 -9
-59 -22 -11 -5 17 -15 33 -23 36 -11 4 -12 -5 -5 -44 5 -27 9 -101 8 -164 0
-120 -16 -191 -52 -238 l-18 -24 -28 44 c-15 24 -40 53 -54 65 l-26 22 26 28
c14 15 31 38 37 50 16 32 13 101 -6 134 -22 37 -76 63 -114 55 l-29 -6 19 38
c23 45 80 99 157 148 44 28 54 40 54 62 0 58 -50 70 -80 20 -10 -18 -47 -57
-81 -87 -79 -70 -116 -128 -125 -197 -3 -29 -15 -63 -25 -75 -10 -11 -20 -26
-22 -32 -2 -7 -15 1 -28 17 -32 40 -37 54 -38 104 -1 72 -48 137 -161 227 -14
11 -33 32 -43 48 -21 32 -47 35 -72 7z m205 -357 c0 -7 -10 -13 -22 -13 -13 0
-33 -3 -45 -6 -30 -8 -31 19 -2 40 17 11 27 12 45 4 13 -6 24 -17 24 -25z
m311 27 c34 -19 23 -40 -21 -40 -41 0 -52 14 -28 38 15 15 24 15 49 2z m-104
-235 c68 -20 112 -52 150 -108 40 -59 51 -123 29 -163 l-15 -29 4 48 c2 26 0
47 -5 47 -6 0 -10 -19 -11 -42 -1 -41 -1 -41 -9 -13 -4 17 -11 42 -14 58 -10
42 -23 32 -31 -25 l-8 -53 -10 67 c-5 39 -15 69 -23 72 -10 4 -11 0 -4 -18 4
-12 5 -37 2 -54 -7 -30 -8 -27 -29 41 -12 39 -25 85 -28 101 -11 52 -13 22 -3
-46 7 -45 7 -76 0 -95 l-10 -28 -1 30 c-1 17 -6 37 -11 45 -7 11 -10 7 -11
-20 -2 -35 -2 -35 -7 -5 -6 29 -6 29 -12 -10 -7 -40 -7 -40 -9 13 -1 59 -20
72 -22 15 -1 -21 -4 -49 -8 -63 -12 -44 -31 55 -21 110 4 25 7 46 5 48 -4 5
-10 -17 -32 -118 l-18 -85 -5 70 -5 70 -20 -80 -19 -80 -10 55 -10 55 -9 -55
-10 -55 -9 43 c-5 24 -11 42 -14 40 -2 -2 -8 -29 -12 -59 l-9 -54 -8 43 c-8
47 -25 57 -25 15 0 -22 -2 -25 -10 -13 -21 33 -11 104 23 160 67 113 189 162
314 125z m472 -416 c24 -11 42 -22 39 -24 -3 -3 -38 8 -79 25 -47 20 -61 28
-39 24 19 -3 55 -15 79 -25z m-1045 2 c-23 -10 -57 -22 -75 -25 -31 -5 -29 -3
16 19 28 14 61 25 75 25 21 0 18 -3 -16 -19z m357 -215 c12 14 14 14 25 -1 11
-15 13 -15 22 1 9 16 11 15 21 -5 9 -17 9 -30 1 -57 -12 -36 -30 -38 -30 -3 0
11 -4 17 -10 14 -5 -3 -10 -18 -10 -31 0 -32 -22 -27 -31 7 -5 20 -7 21 -13 7
-19 -54 -19 -54 -24 -29 l-4 24 -19 -29 c-28 -41 -70 -124 -80 -156 -6 -21 -4
-26 7 -21 8 3 14 11 14 19 0 29 19 13 26 -21 7 -39 24 -48 24 -12 0 12 4 28 9
36 6 10 11 1 16 -28 8 -46 25 -46 25 0 0 16 5 29 10 29 6 0 10 -11 10 -24 0
-13 3 -33 7 -43 6 -14 10 -10 19 22 l12 40 7 -33 c10 -45 23 -49 33 -10 l9 33
8 -27 c4 -16 11 -28 16 -28 5 0 12 12 16 28 l7 27 8 -33 c10 -37 28 -34 28 4
0 14 4 22 10 19 6 -3 10 -15 10 -25 0 -33 20 -33 27 1 l6 32 14 -27 c16 -30
33 -26 33 7 1 20 3 19 17 -8 14 -24 18 -26 21 -12 4 19 17 23 27 7 11 -18 24
-11 31 17 l7 27 10 -25 c9 -23 9 -23 17 -4 5 11 9 14 9 8 1 -7 5 -13 10 -13
12 0 -14 91 -41 145 -24 47 -68 92 -68 70 0 -22 -16 -18 -28 8 l-11 22 -7 -22
c-13 -46 -34 -13 -34 56 0 33 0 34 20 16 19 -17 20 -17 20 0 0 14 3 14 20 -6
11 -13 19 -19 18 -14 -2 6 2 12 7 14 28 13 146 -217 179 -349 63 -249 59 -599
-8 -727 -80 -155 -345 -224 -532 -139 -161 74 -210 170 -220 436 -7 170 12
344 51 467 26 84 90 204 152 284 32 42 39 47 49 34 10 -14 13 -14 25 1z m117
-56 c-5 -55 -23 -41 -26 20 -2 51 -1 54 13 35 9 -12 15 -35 13 -55z m42 49
c12 -22 4 -79 -11 -79 -13 0 -22 46 -15 75 8 30 12 31 26 4z m50 -36 c0 -12
-3 -29 -6 -38 -11 -27 -24 3 -24 54 0 42 1 43 15 25 8 -10 15 -29 15 -41z
m225 -11 c-7 -7 -45 29 -45 41 0 6 11 0 25 -13 14 -13 23 -26 20 -28z m-903
-139 c-11 -21 -45 -104 -77 -185 -32 -82 -61 -148 -66 -148 -13 0 -13 3 36
120 47 115 112 250 120 250 3 0 -3 -17 -13 -37z m1229 -55 c60 -119 109 -236
109 -261 0 -34 -15 -8 -44 76 -15 42 -47 120 -71 172 -24 52 -42 95 -40 95 3
0 23 -37 46 -82z"/>
<path d="M5030 2573 c0 -5 5 -15 10 -23 8 -12 10 -11 10 8 0 12 -4 22 -10 22
-5 0 -10 -3 -10 -7z"/>
<path d="M4977 1550 c-3 -8 -7 -24 -9 -34 -5 -32 -25 -29 -33 6 l-7 33 -9 -32
c-5 -18 -14 -33 -18 -33 -5 0 -13 15 -17 33 l-7 32 -10 -35 c-5 -19 -11 -37
-13 -40 -8 -8 -24 24 -25 50 -1 20 -3 17 -11 -12 -6 -21 -14 -38 -18 -38 -5 0
-10 17 -12 38 l-3 37 -14 -42 c-8 -23 -18 -40 -22 -37 -4 2 -6 11 -3 19 3 8 3
19 -1 26 -20 32 -69 -169 -60 -245 3 -28 8 -52 10 -54 5 -5 7 1 22 58 9 34 10
34 17 -29 8 -63 26 -69 26 -8 0 39 20 34 21 -5 0 -18 4 -42 9 -53 6 -17 9 -13
15 20 11 62 12 63 25 13 7 -27 16 -48 21 -48 5 0 9 21 10 48 l0 47 15 -47 c21
-69 38 -73 30 -7 l-6 54 15 -47 c9 -26 20 -50 25 -53 9 -5 12 5 23 60 3 13 8
4 17 -27 7 -27 16 -48 21 -48 4 0 14 19 21 43 l13 42 5 -34 c7 -48 26 -49 38
-4 8 30 10 33 11 13 3 -66 32 -56 46 15 5 22 9 33 11 25 1 -8 6 -32 9 -54 8
-45 20 -38 33 19 l9 40 8 -42 c4 -24 11 -43 16 -43 5 0 9 1 9 3 0 1 7 20 14
42 l14 40 7 -37 c9 -47 25 -50 26 -5 0 18 3 25 7 17 4 -10 10 -1 17 25 l12 40
7 -42 c4 -24 12 -43 18 -43 17 0 4 218 -15 263 -16 36 -41 49 -50 25 -3 -7 -8
1 -12 19 -4 17 -14 34 -22 38 -13 4 -15 -1 -10 -30 3 -21 2 -33 -4 -30 -5 4
-9 15 -9 26 0 10 -4 19 -10 19 -5 0 -10 -11 -10 -25 0 -39 -28 -31 -36 10 -7
41 -24 37 -24 -6 0 -37 -14 -37 -30 1 -17 41 -30 38 -30 -7 l0 -38 -15 29 c-8
15 -15 35 -15 43 0 8 -4 11 -10 8 -5 -3 -10 -21 -10 -38 0 -24 -3 -28 -10 -17
-5 8 -10 26 -10 40 0 20 -2 22 -10 10 -5 -8 -10 -26 -11 -40 -1 -17 -4 -12 -9
15 -4 24 -9 34 -13 25z"/>
<path d="M4737 1103 c-4 -3 -7 -20 -7 -37 0 -54 -16 -62 -26 -14 -8 41 -9 40
-12 -34 -2 -62 1 -85 18 -118 11 -22 22 -40 25 -40 2 0 2 17 -1 38 -4 33 -3
34 6 12 6 -13 18 -31 26 -40 8 -8 22 -24 30 -35 16 -22 17 -25 -3 50 -3 11 10
-4 29 -34 41 -67 69 -83 38 -21 -30 60 -20 58 20 -3 31 -48 55 -54 30 -7 -21
38 -4 32 25 -10 32 -46 40 -50 31 -16 -3 14 -2 28 4 31 5 3 10 0 10 -7 0 -8 6
-23 14 -33 13 -19 15 -18 24 15 l10 35 7 -32 c10 -44 22 -42 31 4 6 34 8 35
16 14 4 -12 6 -27 2 -32 -3 -5 -1 -9 3 -9 5 0 19 19 30 43 l21 42 -5 -45 c-6
-51 3 -48 36 15 22 41 29 27 11 -22 -9 -26 -7 -24 30 14 22 23 40 38 40 33 0
-5 -4 -12 -10 -15 -5 -3 -10 -11 -10 -17 0 -17 40 23 58 57 14 27 16 28 22 10
14 -40 56 132 44 180 -5 20 -9 23 -15 13 -7 -10 -9 -9 -9 5 0 26 -17 20 -28
-10 l-10 -28 -1 28 c-1 39 -22 30 -35 -14 l-10 -34 -4 30 c-6 49 -20 51 -33 5
l-13 -43 -11 34 c-15 43 -25 43 -40 0 -12 -37 -18 -34 -30 14 l-7 30 -18 -40
-17 -40 -8 45 -7 44 -24 -44 -23 -45 -13 33 c-15 38 -24 40 -34 10 -7 -22 -7
-22 -29 6 l-23 28 -12 -36 c-14 -43 -17 -42 -35 11 l-13 38 -13 -45 -12 -45
-11 37 c-16 54 -26 57 -26 7 l-1 -44 -16 30 c-15 28 -17 28 -25 10 -5 -14 -6
-10 -2 13 6 32 3 38 -9 25z m203 -63 c0 -5 -4 -10 -10 -10 -5 0 -10 5 -10 10
0 6 5 10 10 10 6 0 10 -4 10 -10z"/>
</g>
</svg>
